<svg width="16" height="16" viewBox="0 0 16 16" fill="none" xmlns="http://www.w3.org/2000/svg">
<path d="M9.04348 1.04348C9.04348 0.467181 8.5763 0 8 0C7.4237 0 6.95652 0.467181 6.95652 1.04348V6.95652H1.04348C0.467182 6.95652 0 7.4237 0 8C0 8.5763 0.467182 9.04348 1.04348 9.04348H6.95652V14.9565C6.95652 15.5328 7.4237 16 8 16C8.5763 16 9.04348 15.5328 9.04348 14.9565V9.04348H14.9565C15.5328 9.04348 16 8.5763 16 8C16 7.4237 15.5328 6.95652 14.9565 6.95652H9.04348V1.04348Z" fill="#FFFDF7"/>
</svg>
