<svg width="24" height="24" viewBox="0 0 24 24" fill="none" xmlns="http://www.w3.org/2000/svg">
<path d="M6.85091 9.22678C5.93044 9.22678 5.18425 9.97297 5.18425 10.8934C5.18425 11.8139 5.93044 12.5601 6.85091 12.5601C7.77139 12.5601 8.51758 11.8139 8.51758 10.8934C8.51758 9.97297 7.77139 9.22678 6.85091 9.22678Z" fill="#FFFDF7"/>
<path d="M12.1842 9.22678C11.2638 9.22678 10.5176 9.97297 10.5176 10.8934C10.5176 11.8139 11.2638 12.5601 12.1842 12.5601C13.1047 12.5601 13.8509 11.8139 13.8509 10.8934C13.8509 9.97297 13.1047 9.22678 12.1842 9.22678Z" fill="#FFFDF7"/>
<path d="M15.8509 10.8934C15.8509 9.97297 16.5971 9.22678 17.5176 9.22678C18.4381 9.22678 19.1842 9.97297 19.1842 10.8934C19.1842 11.8139 18.4381 12.5601 17.5176 12.5601C16.5971 12.5601 15.8509 11.8139 15.8509 10.8934Z" fill="#FFFDF7"/>
<path fill-rule="evenodd" clip-rule="evenodd" d="M17.6519 2.68383C14.0596 2.37748 10.4486 2.35971 6.8535 2.63067L6.59586 2.65009C3.16745 2.90848 0.517578 5.76559 0.517578 9.20372V20.5601C0.517578 20.9119 0.702466 21.2379 1.00444 21.4184C1.30642 21.599 1.68105 21.6075 1.99096 21.441L7.20535 18.6387C7.4479 18.5083 7.71897 18.4401 7.99432 18.4401H19.9629C21.4723 18.4401 22.7659 17.3609 23.0365 15.8759C23.5849 12.8663 23.6282 9.78632 23.1647 6.76244L23.0281 5.87134C22.7794 4.24901 21.4522 3.00792 19.8169 2.86846L17.6519 2.68383ZM7.00381 4.62501C10.4923 4.36209 13.9962 4.37934 17.4819 4.6766L19.6469 4.86123C20.362 4.92221 20.9424 5.46493 21.0512 6.17437L21.1878 7.06547C21.6176 9.86985 21.5774 12.7262 21.0689 15.5174C20.9715 16.0518 20.506 16.4401 19.9629 16.4401H7.99432C7.38854 16.4401 6.79219 16.5902 6.25858 16.877L2.51758 18.8874V9.20372C2.51758 6.81185 4.36107 4.82419 6.74617 4.64443L7.00381 4.62501Z" fill="#FFFDF7"/>
</svg>
