<svg width="19" height="19" viewBox="0 0 19 19" fill="none" xmlns="http://www.w3.org/2000/svg">
<path d="M18.7285 10.019C18.8961 9.91431 19 9.71563 19 9.5C19 9.28437 18.8961 9.08569 18.7285 8.98097L16.3194 7.47527C11.5731 4.5088 6.56969 2.09579 1.38722 0.273837L0.685201 0.0270323C0.524947 -0.0293067 0.350427 0.00349367 0.215157 0.115376C0.0798842 0.227258 0 0.404872 0 0.593754V7.42187C0 7.73766 0.219723 7.9982 0.500038 8.0148L1.56577 8.07791C4.16414 8.23176 6.74665 8.62823 9.28665 9.26323L9.5382 9.32612C9.59415 9.34011 9.61841 9.36585 9.63189 9.38628C9.64891 9.41207 9.66218 9.45177 9.66218 9.5C9.66218 9.54823 9.64891 9.58794 9.63189 9.61372C9.61841 9.63415 9.59415 9.65989 9.5382 9.67388L9.28668 9.73676C6.74666 10.3718 4.16413 10.7682 1.56574 10.9221L0.500038 10.9852C0.219722 11.0018 0 11.2623 0 11.5781V18.4062C0 18.5951 0.0798835 18.7727 0.215156 18.8846C0.350426 18.9965 0.524946 19.0293 0.6852 18.973L1.38724 18.7262C6.56969 16.9042 11.5731 14.4912 16.3194 11.5247L18.7285 10.019Z" fill="#FFFDF7"/>
</svg>
