<svg width="22" height="22" viewBox="0 0 22 22" fill="none" xmlns="http://www.w3.org/2000/svg">
<path d="M21.7854 8.80359H20.8984V8.75778H10.9885V13.1349H17.211C16.7405 14.4635 15.8529 15.6067 14.6791 16.3959C13.5053 17.1851 12.1073 17.5786 10.6914 17.5184C9.27551 17.4581 7.91653 16.9473 6.81488 16.0613C5.71322 15.1753 4.92719 13.9609 4.57268 12.5973C4.21816 11.2336 4.31393 9.7928 4.84587 8.48733C5.3778 7.18187 6.31774 6.0808 7.5271 5.3465C8.73646 4.61219 10.1512 4.2835 11.5628 4.40889C12.9744 4.53428 14.3081 5.10712 15.3673 6.04294L18.4862 2.9484C16.6341 1.23852 14.2459 0.214819 11.7234 0.049539C9.20092 -0.115741 6.69814 0.58749 4.63617 2.04091C2.5742 3.49433 1.07889 5.60922 0.401849 8.02975C-0.275197 10.4503 -0.0926581 13.0287 0.918751 15.3311C1.93016 17.6336 3.70871 19.5196 5.95514 20.6718C8.20157 21.8239 10.7788 22.172 13.2531 21.6573C15.7275 21.1426 17.9479 19.7967 19.5409 17.8459C21.1338 15.8952 22.002 13.4586 21.9995 10.9463C21.9987 10.2269 21.927 9.50918 21.7854 8.80359Z" fill="#FFC107"/>
<path d="M1.24658 5.85279L4.86433 8.48926C5.25879 7.51253 5.88419 6.64461 6.6876 5.95893C7.49101 5.27325 8.44879 4.78998 9.47991 4.55003C10.511 4.31007 11.5851 4.32048 12.6114 4.58038C13.6376 4.84028 14.5857 5.34202 15.3755 6.04315L18.4903 2.9476C17.2543 1.7979 15.7676 0.947553 14.1464 0.462907C12.5252 -0.0217383 10.8132 -0.127581 9.14405 0.153637C7.47489 0.434854 5.89367 1.09553 4.52376 2.08411C3.15385 3.0727 2.03229 4.36247 1.24658 5.85279Z" fill="#FF3D00"/>
<path d="M10.9886 21.8894C13.7195 21.8894 16.3521 20.8762 18.3706 19.0483L14.9628 16.1828C14.1378 16.8043 13.177 17.2239 12.1584 17.4075C11.1398 17.5911 10.0919 17.5336 9.09983 17.2397C8.10773 16.9457 7.19928 16.4236 6.44813 15.7156C5.69697 15.0076 5.12425 14.1336 4.77638 13.1646L1.19141 15.9141C2.11147 17.7108 3.51344 19.2198 5.24241 20.2743C6.97139 21.3288 8.96004 21.8877 10.9886 21.8894Z" fill="#4CAF50"/>
<path d="M21.785 8.80366H20.898V8.75785H10.9881V13.135H17.2106C16.7753 14.3479 15.9919 15.4075 14.9572 16.1827L18.3649 19.0482C19.5243 18.0393 20.4496 16.7925 21.077 15.3938C21.7044 13.9951 22.019 12.4777 21.9991 10.9464C21.9983 10.2269 21.9266 9.50925 21.785 8.80366Z" fill="#1976D2"/>
</svg>
