<svg width="108" height="108" viewBox="0 0 108 108" fill="none" xmlns="http://www.w3.org/2000/svg">
<path d="M4 26.2222V15.1111C4 12.1643 5.17063 9.33811 7.25437 7.25437C9.33811 5.17063 12.1643 4 15.1111 4H26.2222M81.7778 4H92.8889C95.8357 4 98.6619 5.17063 100.746 7.25437C102.829 9.33811 104 12.1643 104 15.1111V26.2222M104 81.7778V92.8889C104 95.8357 102.829 98.6619 100.746 100.746C98.6619 102.829 95.8357 104 92.8889 104H81.7778M26.2222 104H15.1111C12.1643 104 9.33811 102.829 7.25437 100.746C5.17063 98.6619 4 95.8357 4 92.8889V81.7778" stroke="white" stroke-opacity="0.9" stroke-width="8" stroke-linecap="round" stroke-linejoin="round"/>
<line x1="22.75" y1="50" x2="85.25" y2="50" stroke="white" stroke-opacity="0.9" stroke-width="8"/>
</svg>
