<svg width="112" height="97" viewBox="0 0 112 97" fill="none" xmlns="http://www.w3.org/2000/svg">
<path d="M0.739351 43.4258L40.4202 3.57702L96.2299 16.4973L107.083 54.9834L12.1734 81.7481L0.739351 43.4258Z" fill="#333333" stroke="#333333" stroke-linecap="round" stroke-linejoin="round"/>
<path d="M78.3236 0.618696L7.71782 20.5296L25.4255 83.3226L96.0313 63.4117L78.3236 0.618696Z" fill="white" stroke="#333333" stroke-miterlimit="10"/>
<path d="M18.9769 29.272L34.8175 24.8049" stroke="#519273" stroke-width="2" stroke-miterlimit="10"/>
<path d="M20.4694 34.7395L74.0032 19.6429" stroke="#333333" stroke-miterlimit="10"/>
<path d="M22.0197 40.2373L75.5535 25.1407" stroke="#519273" stroke-miterlimit="10"/>
<path d="M23.5701 45.7352L77.1038 30.6386" stroke="#333333" stroke-miterlimit="10"/>
<path d="M25.1204 51.233L78.6541 36.1364" stroke="#333333" stroke-miterlimit="10"/>
<path d="M26.6707 56.7308L80.2045 41.6342" stroke="#333333" stroke-miterlimit="10"/>
<path d="M111.163 69.4529L15.6728 96.3814L0.73918 43.4256L57.6271 62.3707L96.2297 16.4971L111.163 69.4529Z" fill="#519273" stroke="#333333" stroke-miterlimit="10"/>
<path d="M15.6727 96.3813L42.0995 57.1858" stroke="#333333" stroke-miterlimit="10"/>
<path d="M111.012 69.4956L68.2454 49.7615" stroke="#333333" stroke-miterlimit="10"/>
</svg>
