<svg width="17" height="18" viewBox="0 0 17 18" fill="none" xmlns="http://www.w3.org/2000/svg">
<path fill-rule="evenodd" clip-rule="evenodd" d="M12.2266 0.225946C12.0819 0.0812753 11.8857 0 11.6811 0C11.4765 0 11.2803 0.0812753 11.1356 0.225946L1.68056 9.68097C1.58364 9.77789 1.5143 9.89888 1.47966 10.0315L0.451086 13.9693C0.381874 14.2343 0.458337 14.5161 0.651991 14.7097C0.845645 14.9034 1.12745 14.9799 1.39243 14.9107L5.33024 13.8821C5.46286 13.8474 5.58385 13.7781 5.68077 13.6812L15.1358 4.22615C15.4371 3.92489 15.4371 3.43645 15.1358 3.13519L12.2266 0.225946ZM2.91953 10.6239L11.6811 1.86239L13.4993 3.68067L4.73781 12.4422L2.27668 13.0851L2.91953 10.6239Z" fill="black"/>
<path d="M0.771429 16.4571C0.34538 16.4571 0 16.8025 0 17.2286C0 17.6546 0.34538 18 0.771429 18H16.2C16.626 18 16.9714 17.6546 16.9714 17.2286C16.9714 16.8025 16.626 16.4571 16.2 16.4571H0.771429Z" fill="black"/>
</svg>
