<svg width="32" height="32" viewBox="0 0 32 32" fill="none" xmlns="http://www.w3.org/2000/svg">
<path fill-rule="evenodd" clip-rule="evenodd" d="M11.9054 5.96044C10.2105 5.771 8.45591 5.771 6.76095 5.96044C6.3491 6.00647 6.0243 6.33259 5.97798 6.72866C5.77557 8.45925 5.77557 10.2075 5.97798 11.9381C6.0243 12.3342 6.3491 12.6603 6.76095 12.7063C8.45591 12.8958 10.2105 12.8958 11.9054 12.7063C12.3173 12.6603 12.6421 12.3342 12.6884 11.9381C12.8908 10.2075 12.8908 8.45925 12.6884 6.72866C12.6421 6.33259 12.3173 6.00647 11.9054 5.96044ZM6.53881 3.97281C8.3814 3.76688 10.285 3.76688 12.1276 3.97281C13.4487 4.12047 14.5186 5.16045 14.6748 6.49633C14.8953 8.38128 14.8953 10.2855 14.6748 12.1705C14.5186 13.5063 13.4487 14.5463 12.1276 14.694C10.285 14.8999 8.3814 14.8999 6.53881 14.694C5.21769 14.5463 4.14776 13.5063 3.99152 12.1705C3.77106 10.2855 3.77106 8.38128 3.99152 6.49633C4.14776 5.16045 5.21769 4.12047 6.53881 3.97281Z" fill="#FFFDF7"/>
<path fill-rule="evenodd" clip-rule="evenodd" d="M11.9054 19.2938C10.2105 19.1043 8.45591 19.1043 6.76095 19.2938C6.3491 19.3398 6.0243 19.6659 5.97798 20.062C5.77557 21.7926 5.77557 23.5409 5.97798 25.2715C6.0243 25.6675 6.3491 25.9937 6.76095 26.0397C8.45591 26.2291 10.2105 26.2291 11.9054 26.0397C12.3173 25.9937 12.6421 25.6675 12.6884 25.2715C12.8908 23.5409 12.8908 21.7926 12.6884 20.062C12.6421 19.6659 12.3173 19.3398 11.9054 19.2938ZM6.53881 17.3061C8.3814 17.1002 10.285 17.1002 12.1276 17.3061C13.4487 17.4538 14.5186 18.4938 14.6748 19.8297C14.8953 21.7146 14.8953 23.6188 14.6748 25.5038C14.5186 26.8397 13.4487 27.8797 12.1276 28.0273C10.285 28.2332 8.3814 28.2332 6.53881 28.0273C5.21769 27.8797 4.14776 26.8397 3.99152 25.5038C3.77106 23.6188 3.77106 21.7146 3.99152 19.8297C4.14776 18.4938 5.21769 17.4538 6.53881 17.3061Z" fill="#FFFDF7"/>
<path fill-rule="evenodd" clip-rule="evenodd" d="M25.2387 5.96044C23.5438 5.771 21.7892 5.771 20.0943 5.96044C19.6824 6.00647 19.3576 6.33259 19.3113 6.72866C19.1089 8.45925 19.1089 10.2075 19.3113 11.9381C19.3576 12.3342 19.6824 12.6603 20.0943 12.7063C21.7892 12.8958 23.5438 12.8958 25.2387 12.7063C25.6506 12.6603 25.9754 12.3342 26.0217 11.9381C26.2241 10.2075 26.2241 8.45925 26.0217 6.72866C25.9754 6.33259 25.6506 6.00647 25.2387 5.96044ZM19.8721 3.97281C21.7147 3.76688 23.6183 3.76688 25.4609 3.97281C26.782 4.12047 27.8519 5.16045 28.0082 6.49633C28.2286 8.38128 28.2286 10.2855 28.0082 12.1705C27.8519 13.5063 26.782 14.5463 25.4609 14.694C23.6183 14.8999 21.7147 14.8999 19.8721 14.694C18.551 14.5463 17.4811 13.5063 17.3249 12.1705C17.1044 10.2855 17.1044 8.38128 17.3249 6.49633C17.4811 5.16045 18.551 4.12047 19.8721 3.97281Z" fill="#FFFDF7"/>
<path fill-rule="evenodd" clip-rule="evenodd" d="M25.2387 19.2938C23.5438 19.1043 21.7892 19.1043 20.0943 19.2938C19.6824 19.3398 19.3576 19.6659 19.3113 20.062C19.1089 21.7926 19.1089 23.5409 19.3113 25.2715C19.3576 25.6675 19.6824 25.9937 20.0943 26.0397C21.7892 26.2291 23.5438 26.2291 25.2387 26.0397C25.6506 25.9937 25.9754 25.6675 26.0217 25.2715C26.2241 23.5409 26.2241 21.7926 26.0217 20.062C25.9754 19.6659 25.6506 19.3398 25.2387 19.2938ZM19.8721 17.3061C21.7147 17.1002 23.6183 17.1002 25.4609 17.3061C26.782 17.4538 27.8519 18.4938 28.0082 19.8297C28.2286 21.7146 28.2286 23.6188 28.0082 25.5038C27.8519 26.8397 26.782 27.8797 25.4609 28.0273C23.6183 28.2332 21.7147 28.2332 19.8721 28.0273C18.551 27.8797 17.4811 26.8397 17.3249 25.5038C17.1044 23.6188 17.1044 21.7146 17.3249 19.8297C17.4811 18.4938 18.551 17.4538 19.8721 17.3061Z" fill="#FFFDF7"/>
</svg>
