<svg width="288" height="256" viewBox="0 0 288 256" fill="none" xmlns="http://www.w3.org/2000/svg">
<g filter="url(#filter0_d_359_4197)">
<path d="M247.758 32.4318C217.639 13.8621 180.413 6.25604 144.24 4.0192C125.115 2.8365 105.638 2.9935 87.1543 7.83206C82.8044 8.97045 78.3404 10.4759 75.2497 13.6148C72.1591 16.7537 70.9446 21.967 73.6561 25.4112C74.867 26.9494 76.7527 28.0523 77.4393 29.8613C78.7763 33.3815 74.9118 36.5948 71.5041 38.4443C63.4425 42.8207 55.0358 46.616 46.3795 49.7916C8.97603 63.5113 -0.65952 103.182 0.0343207 137.572C0.491706 160.227 3.7758 183.843 15.3812 203.961C42.9772 251.799 106.222 257.758 157.19 255.638C157.823 255.612 158.456 255.584 159.089 255.555C187.022 254.275 218.256 249.83 241.045 233.096C259.264 219.718 272.097 199.042 278.975 178.31C286.373 156.01 288.368 131.515 283.361 108.542C282.702 105.517 281.881 102.525 280.886 99.5847C277.971 90.9672 273.543 82.6319 272.964 73.5927C275.961 75.0347 278.959 76.4767 281.956 77.9187C282.858 78.3525 283.847 78.7988 284.837 78.6074C287.34 78.1233 287.18 74.6359 286.231 72.37C281.737 61.6432 273.763 52.5251 264.764 44.8081C259.417 40.2239 253.727 36.1123 247.758 32.4318Z" fill="#92E3A9"/>
<path opacity="0.8" d="M247.758 32.4318C217.639 13.8621 180.413 6.25604 144.24 4.0192C125.115 2.8365 105.638 2.9935 87.1543 7.83206C82.8044 8.97045 78.3404 10.4759 75.2497 13.6148C72.1591 16.7537 70.9446 21.967 73.6561 25.4112C74.867 26.9494 76.7527 28.0523 77.4393 29.8613C78.7763 33.3815 74.9118 36.5948 71.5041 38.4443C63.4425 42.8207 55.0358 46.616 46.3795 49.7916C8.97603 63.5113 -0.65952 103.182 0.0343207 137.572C0.491706 160.227 3.7758 183.843 15.3812 203.961C42.9772 251.799 106.222 257.758 157.19 255.638C157.823 255.612 158.456 255.584 159.089 255.555C187.022 254.275 218.256 249.83 241.045 233.096C259.264 219.718 272.097 199.042 278.975 178.31C286.373 156.01 288.368 131.515 283.361 108.542C282.702 105.517 281.881 102.525 280.886 99.5847C277.971 90.9672 273.543 82.6319 272.964 73.5927C275.961 75.0347 278.959 76.4767 281.956 77.9187C282.858 78.3525 283.847 78.7988 284.837 78.6074C287.34 78.1233 287.18 74.6359 286.231 72.37C281.737 61.6432 273.763 52.5251 264.764 44.8081C259.417 40.2239 253.727 36.1123 247.758 32.4318Z" fill="white"/>
<path d="M240.408 26.2063C240.408 26.2063 234.274 5.73452 218.062 1.31882C201.851 -3.09688 193.088 4.52994 190.021 10.1497C186.954 15.7694 178.629 11.7552 172.057 12.9598C165.485 14.1638 165.046 18.178 160.227 20.5866C155.407 22.9952 149.273 19.7836 145.768 20.5866C142.263 21.3897 138.757 25.0023 138.757 25.0023C138.757 25.0023 134.814 23.7983 128.68 24.1993C122.546 24.6008 116.85 29.0159 116.85 29.0159H259.249C259.249 29.0159 256.182 22.9947 251.801 21.3891C247.418 19.7836 243.913 27.8119 240.408 26.2063Z" stroke="#263238" stroke-miterlimit="10" stroke-linecap="round" stroke-linejoin="round"/>
<path d="M94.7841 47.3635C94.7841 47.3635 91.8988 37.7346 84.2737 35.6575C76.6487 33.5803 72.5268 37.1678 71.0842 39.8111C69.6416 42.4544 65.7258 40.566 62.6345 41.1328C59.5433 41.6989 59.3373 43.5873 57.0701 44.7202C54.8028 45.8532 51.9176 44.3428 50.269 44.7202C48.6204 45.0977 46.9718 46.7974 46.9718 46.7974C46.9718 46.7974 45.1171 46.2312 42.2319 46.4199C39.3467 46.6086 36.6674 48.6857 36.6674 48.6857H103.646C103.646 48.6857 102.204 45.8537 100.143 45.0982C98.0813 44.3428 96.4327 48.119 94.7841 47.3635Z" stroke="#263238" stroke-miterlimit="10" stroke-linecap="round" stroke-linejoin="round"/>
<path d="M287.177 86.0946H12.79V106.569H287.177V86.0946Z" fill="white" stroke="#263238" stroke-miterlimit="10" stroke-linecap="round" stroke-linejoin="round"/>
<path d="M237.589 91.352H231.992" stroke="#263238" stroke-miterlimit="10" stroke-linecap="round" stroke-linejoin="round"/>
<path d="M226.904 92.9838H231.993" stroke="#263238" stroke-miterlimit="10" stroke-linecap="round" stroke-linejoin="round"/>
<path d="M287.177 126.871H12.79V147.345H287.177V126.871Z" fill="white" stroke="#263238" stroke-miterlimit="10" stroke-linecap="round" stroke-linejoin="round"/>
<path d="M287.177 167.647H12.79V188.121H287.177V167.647Z" fill="white" stroke="#263238" stroke-miterlimit="10" stroke-linecap="round" stroke-linejoin="round"/>
<path d="M49.8354 172.23H54.9234" stroke="#263238" stroke-miterlimit="10" stroke-linecap="round" stroke-linejoin="round"/>
<path d="M51.8696 174.328H63.5723" stroke="#263238" stroke-miterlimit="10" stroke-linecap="round" stroke-linejoin="round"/>
<path d="M52.124 184.118H63.8267" stroke="#263238" stroke-miterlimit="10" stroke-linecap="round" stroke-linejoin="round"/>
<path d="M16.7612 172.929H23.3754" stroke="#263238" stroke-miterlimit="10" stroke-linecap="round" stroke-linejoin="round"/>
<path d="M15.4888 175.261H19.0505" stroke="#263238" stroke-miterlimit="10" stroke-linecap="round" stroke-linejoin="round"/>
<path d="M12.9453 134.938H18.2876" stroke="#263238" stroke-miterlimit="10" stroke-linecap="round" stroke-linejoin="round"/>
<path d="M16.2524 139.367H21.0866" stroke="#263238" stroke-miterlimit="10" stroke-linecap="round" stroke-linejoin="round"/>
<path d="M286.945 92.2851C286.945 92.2851 282.62 93.6838 278.041 93.6838C273.462 93.6838 270.409 93.2178 268.627 93.2178C266.846 93.2178 265.32 93.6838 265.32 93.6838" stroke="#263238" stroke-miterlimit="10" stroke-linecap="round" stroke-linejoin="round"/>
<path d="M267.61 97.1791C267.61 97.1791 274.479 97.1791 276.514 97.1791" stroke="#263238" stroke-miterlimit="10" stroke-linecap="round" stroke-linejoin="round"/>
<path d="M263.794 134.239H270.408" stroke="#263238" stroke-miterlimit="10" stroke-linecap="round" stroke-linejoin="round"/>
<path d="M286.945 139.599C286.945 139.599 277.532 139.599 275.497 139.599" stroke="#263238" stroke-miterlimit="10" stroke-linecap="round" stroke-linejoin="round"/>
<path d="M286.436 174.795H271.68" stroke="#263238" stroke-miterlimit="10" stroke-linecap="round" stroke-linejoin="round"/>
<path d="M277.277 178.99H281.856" stroke="#263238" stroke-miterlimit="10" stroke-linecap="round" stroke-linejoin="round"/>
<path d="M263.079 70.768H237.818V218.993H263.079V70.768Z" fill="white" stroke="#263238" stroke-miterlimit="10" stroke-linecap="round" stroke-linejoin="round"/>
<path d="M242.812 89.3282C242.812 90.1029 242.126 90.7303 241.281 90.7303C240.436 90.7303 239.751 90.1023 239.751 89.3282C239.751 88.5542 240.436 87.9262 241.281 87.9262C242.126 87.9262 242.812 88.5542 242.812 89.3282Z" fill="white" stroke="#263238" stroke-miterlimit="10" stroke-linecap="round" stroke-linejoin="round"/>
<path d="M261.332 89.3282C261.332 90.1029 260.646 90.7303 259.801 90.7303C258.956 90.7303 258.271 90.1023 258.271 89.3282C258.271 88.5542 258.956 87.9262 259.801 87.9262C260.646 87.9262 261.332 88.5542 261.332 89.3282Z" fill="white" stroke="#263238" stroke-miterlimit="10" stroke-linecap="round" stroke-linejoin="round"/>
<path d="M242.812 103.771C242.812 104.545 242.126 105.173 241.281 105.173C240.436 105.173 239.751 104.545 239.751 103.771C239.751 102.996 240.436 102.369 241.281 102.369C242.126 102.369 242.812 102.996 242.812 103.771Z" fill="white" stroke="#263238" stroke-miterlimit="10" stroke-linecap="round" stroke-linejoin="round"/>
<path d="M261.332 103.771C261.332 104.545 260.646 105.173 259.801 105.173C258.956 105.173 258.271 104.545 258.271 103.771C258.271 102.996 258.956 102.369 259.801 102.369C260.646 102.369 261.332 102.996 261.332 103.771Z" fill="white" stroke="#263238" stroke-miterlimit="10" stroke-linecap="round" stroke-linejoin="round"/>
<path d="M242.812 129.852C242.812 130.626 242.126 131.254 241.281 131.254C240.436 131.254 239.751 130.626 239.751 129.852C239.751 129.077 240.436 128.45 241.281 128.45C242.126 128.45 242.812 129.078 242.812 129.852Z" fill="white" stroke="#263238" stroke-miterlimit="10" stroke-linecap="round" stroke-linejoin="round"/>
<path d="M261.332 129.852C261.332 130.626 260.646 131.254 259.801 131.254C258.956 131.254 258.271 130.626 258.271 129.852C258.271 129.077 258.956 128.45 259.801 128.45C260.646 128.45 261.332 129.078 261.332 129.852Z" fill="white" stroke="#263238" stroke-miterlimit="10" stroke-linecap="round" stroke-linejoin="round"/>
<path d="M242.812 144.294C242.812 145.069 242.126 145.697 241.281 145.697C240.436 145.697 239.751 145.069 239.751 144.294C239.751 143.52 240.436 142.892 241.281 142.892C242.126 142.892 242.812 143.52 242.812 144.294Z" fill="white" stroke="#263238" stroke-miterlimit="10" stroke-linecap="round" stroke-linejoin="round"/>
<path d="M261.332 144.294C261.332 145.069 260.646 145.697 259.801 145.697C258.956 145.697 258.271 145.069 258.271 144.294C258.271 143.52 258.956 142.892 259.801 142.892C260.646 142.892 261.332 143.52 261.332 144.294Z" fill="white" stroke="#263238" stroke-miterlimit="10" stroke-linecap="round" stroke-linejoin="round"/>
<path d="M242.812 171.637C242.812 172.411 242.127 173.039 241.282 173.039C240.436 173.039 239.751 172.411 239.751 171.637C239.751 170.862 240.437 170.235 241.282 170.235C242.127 170.235 242.812 170.863 242.812 171.637Z" fill="white" stroke="#263238" stroke-miterlimit="10" stroke-linecap="round" stroke-linejoin="round"/>
<path d="M261.332 171.637C261.332 172.411 260.646 173.039 259.801 173.039C258.956 173.039 258.271 172.411 258.271 171.637C258.271 170.862 258.956 170.235 259.801 170.235C260.646 170.235 261.332 170.863 261.332 171.637Z" fill="white" stroke="#263238" stroke-miterlimit="10" stroke-linecap="round" stroke-linejoin="round"/>
<path d="M242.812 186.08C242.812 186.854 242.127 187.482 241.282 187.482C240.436 187.482 239.751 186.854 239.751 186.08C239.751 185.305 240.437 184.678 241.282 184.678C242.127 184.677 242.812 185.305 242.812 186.08Z" fill="white" stroke="#263238" stroke-miterlimit="10" stroke-linecap="round" stroke-linejoin="round"/>
<path d="M261.332 186.08C261.332 186.854 260.646 187.482 259.801 187.482C258.956 187.482 258.271 186.854 258.271 186.08C258.271 185.305 258.956 184.678 259.801 184.678C260.646 184.677 261.332 185.305 261.332 186.08Z" fill="white" stroke="#263238" stroke-miterlimit="10" stroke-linecap="round" stroke-linejoin="round"/>
<path d="M258.254 216.258V201.599" stroke="#263238" stroke-miterlimit="10" stroke-linecap="round" stroke-linejoin="round"/>
<path d="M251.327 191.343V214.417" stroke="#263238" stroke-miterlimit="10" stroke-linecap="round" stroke-linejoin="round"/>
<path d="M254.889 200.666V204.861" stroke="#263238" stroke-miterlimit="10" stroke-linecap="round" stroke-linejoin="round"/>
<path d="M48.9615 70.768H23.7002V218.993H48.9615V70.768Z" fill="white" stroke="#263238" stroke-miterlimit="10" stroke-linecap="round" stroke-linejoin="round"/>
<path d="M28.6301 129.852C28.6301 130.626 27.9446 131.254 27.0997 131.254C26.2542 131.254 25.5693 130.626 25.5693 129.852C25.5693 129.077 26.2548 128.45 27.0997 128.45C27.9452 128.45 28.6301 129.078 28.6301 129.852Z" fill="white" stroke="#263238" stroke-miterlimit="10" stroke-linecap="round" stroke-linejoin="round"/>
<path d="M47.1501 129.852C47.1501 130.626 46.4646 131.254 45.6197 131.254C44.7742 131.254 44.0893 130.626 44.0893 129.852C44.0893 129.077 44.7748 128.45 45.6197 128.45C46.4652 128.45 47.1501 129.078 47.1501 129.852Z" fill="white" stroke="#263238" stroke-miterlimit="10" stroke-linecap="round" stroke-linejoin="round"/>
<path d="M28.6301 144.294C28.6301 145.069 27.9446 145.697 27.0997 145.697C26.2542 145.697 25.5693 145.069 25.5693 144.294C25.5693 143.52 26.2548 142.892 27.0997 142.892C27.9452 142.892 28.6301 143.52 28.6301 144.294Z" fill="white" stroke="#263238" stroke-miterlimit="10" stroke-linecap="round" stroke-linejoin="round"/>
<path d="M47.1501 144.294C47.1501 145.069 46.4646 145.697 45.6197 145.697C44.7742 145.697 44.0893 145.069 44.0893 144.294C44.0893 143.52 44.7748 142.892 45.6197 142.892C46.4652 142.892 47.1501 143.52 47.1501 144.294Z" fill="white" stroke="#263238" stroke-miterlimit="10" stroke-linecap="round" stroke-linejoin="round"/>
<path d="M28.6301 171.637C28.6301 172.411 27.9446 173.039 27.0997 173.039C26.2542 173.039 25.5693 172.411 25.5693 171.637C25.5693 170.862 26.2548 170.235 27.0997 170.235C27.9452 170.235 28.6301 170.863 28.6301 171.637Z" fill="white" stroke="#263238" stroke-miterlimit="10" stroke-linecap="round" stroke-linejoin="round"/>
<path d="M47.1501 171.637C47.1501 172.411 46.4646 173.039 45.6197 173.039C44.7742 173.039 44.0893 172.411 44.0893 171.637C44.0893 170.862 44.7748 170.235 45.6197 170.235C46.4652 170.235 47.1501 170.863 47.1501 171.637Z" fill="white" stroke="#263238" stroke-miterlimit="10" stroke-linecap="round" stroke-linejoin="round"/>
<path d="M28.6301 186.08C28.6301 186.854 27.9446 187.482 27.0997 187.482C26.2542 187.482 25.5693 186.854 25.5693 186.08C25.5693 185.305 26.2548 184.678 27.0997 184.678C27.9452 184.677 28.6301 185.305 28.6301 186.08Z" fill="white" stroke="#263238" stroke-miterlimit="10" stroke-linecap="round" stroke-linejoin="round"/>
<path d="M47.1501 186.08C47.1501 186.854 46.4646 187.482 45.6197 187.482C44.7742 187.482 44.0893 186.854 44.0893 186.08C44.0893 185.305 44.7748 184.678 45.6197 184.678C46.4652 184.677 47.1501 185.305 47.1501 186.08Z" fill="white" stroke="#263238" stroke-miterlimit="10" stroke-linecap="round" stroke-linejoin="round"/>
<path d="M27.0997 90.7303C27.9449 90.7303 28.6301 90.1026 28.6301 89.3282C28.6301 88.5539 27.9449 87.9262 27.0997 87.9262C26.2545 87.9262 25.5693 88.5539 25.5693 89.3282C25.5693 90.1026 26.2545 90.7303 27.0997 90.7303Z" fill="white" stroke="#263238" stroke-miterlimit="10" stroke-linecap="round" stroke-linejoin="round"/>
<path d="M47.1501 89.3282C47.1501 90.1029 46.4646 90.7303 45.6197 90.7303C44.7742 90.7303 44.0893 90.1023 44.0893 89.3282C44.0893 88.5542 44.7748 87.9262 45.6197 87.9262C46.4652 87.9262 47.1501 88.5542 47.1501 89.3282Z" fill="white" stroke="#263238" stroke-miterlimit="10" stroke-linecap="round" stroke-linejoin="round"/>
<path d="M28.6301 103.771C28.6301 104.545 27.9446 105.173 27.0997 105.173C26.2542 105.173 25.5693 104.545 25.5693 103.771C25.5693 102.996 26.2548 102.369 27.0997 102.369C27.9452 102.369 28.6301 102.996 28.6301 103.771Z" fill="white" stroke="#263238" stroke-miterlimit="10" stroke-linecap="round" stroke-linejoin="round"/>
<path d="M47.1501 103.771C47.1501 104.545 46.4646 105.173 45.6197 105.173C44.7742 105.173 44.0893 104.545 44.0893 103.771C44.0893 102.996 44.7748 102.369 45.6197 102.369C46.4652 102.369 47.1501 102.996 47.1501 103.771Z" fill="white" stroke="#263238" stroke-miterlimit="10" stroke-linecap="round" stroke-linejoin="round"/>
<path d="M32.2807 71.308V76.4354" stroke="#263238" stroke-miterlimit="10" stroke-linecap="round" stroke-linejoin="round"/>
<path d="M35.3335 74.1054V95.3152" stroke="#263238" stroke-miterlimit="10" stroke-linecap="round" stroke-linejoin="round"/>
<path d="M40.9306 70.8412V74.8034" stroke="#263238" stroke-miterlimit="10" stroke-linecap="round" stroke-linejoin="round"/>
<path d="M205.674 203.335C206.203 203.464 207.411 203.273 207.412 203.273C207.425 203.271 207.032 202.584 207.002 202.543C206.652 202.072 205.672 201.348 205.002 201.527C204.519 201.655 204.319 202.144 204.5 202.552C204.685 202.969 205.225 203.224 205.674 203.335Z" fill="#263238"/>
<path d="M213.899 215.266H214.337C214.335 215.262 214.334 215.258 214.332 215.254C214.219 214.965 214.092 214.658 213.958 214.345C214.033 214.304 214.464 214.072 214.836 213.809C215.247 214.11 216.221 214.395 216.347 214.43C216.27 214.72 216.192 215.002 216.114 215.266H216.539C216.61 214.998 216.681 214.715 216.75 214.424C216.884 214.431 217.98 214.482 218.459 214.312C218.893 214.157 219.4 213.851 219.534 213.417C219.665 212.993 219.409 212.528 218.912 212.448C218.224 212.337 217.337 213.153 217.045 213.657C217.027 213.687 216.88 214.028 216.791 214.244C216.822 214.11 216.854 213.979 216.885 213.84C216.946 213.566 216.999 213.29 217.057 212.994C217.079 212.85 217.102 212.704 217.125 212.558C217.151 212.412 217.158 212.256 217.175 212.104C217.208 211.75 217.222 211.391 217.228 211.028C217.492 211.077 218.43 211.237 218.887 211.144C219.342 211.052 219.893 210.818 220.098 210.409C220.298 210.008 220.121 209.512 219.644 209.364C218.983 209.16 217.969 209.843 217.598 210.301C217.575 210.329 217.348 210.685 217.228 210.882C217.23 210.664 217.233 210.446 217.227 210.226C217.209 209.589 217.169 208.945 217.132 208.302C217.121 208.105 217.112 207.909 217.102 207.712C217.196 207.731 218.306 207.944 218.818 207.839C219.273 207.747 219.824 207.513 220.029 207.103C220.23 206.702 220.053 206.207 219.576 206.059C218.914 205.854 217.901 206.538 217.529 206.996C217.501 207.03 217.177 207.542 217.101 207.676C217.08 207.243 217.063 206.812 217.066 206.386C217.069 205.798 217.107 205.222 217.19 204.665C217.234 204.674 218.392 204.901 218.916 204.794C219.371 204.702 219.922 204.468 220.127 204.059C220.327 203.658 220.151 203.162 219.674 203.014C219.012 202.81 217.999 203.493 217.627 203.951C217.597 203.987 217.248 204.538 217.193 204.642C217.197 204.608 217.199 204.574 217.205 204.541C217.301 203.949 217.476 203.386 217.668 202.866C217.779 202.563 217.903 202.281 218.032 202.007C218.242 202.07 219.21 202.345 219.693 202.297C220.157 202.251 220.732 202.074 220.985 201.687C221.233 201.309 221.117 200.798 220.661 200.604C220.028 200.334 218.939 200.913 218.513 201.33C218.49 201.352 218.284 201.607 218.136 201.794C218.196 201.672 218.255 201.544 218.315 201.428C218.539 200.991 218.773 200.604 218.983 200.262C219.104 200.068 219.218 199.896 219.327 199.735C219.569 199.698 220.542 199.537 220.939 199.295C221.326 199.059 221.749 198.66 221.778 198.21C221.807 197.77 221.445 197.366 220.942 197.385C220.244 197.412 219.57 198.384 219.404 198.932C219.389 198.98 219.258 199.745 219.271 199.744C219.271 199.744 219.283 199.742 219.285 199.741C219.177 199.894 219.063 200.059 218.943 200.241C218.724 200.579 218.48 200.963 218.245 201.397C218.009 201.83 217.766 202.307 217.56 202.831C217.353 203.356 217.164 203.917 217.051 204.518C217.05 204.525 217.049 204.532 217.048 204.539C217.021 204.353 216.927 203.838 216.915 203.799C216.744 203.252 216.06 202.286 215.362 202.264C214.859 202.248 214.502 202.655 214.534 203.095C214.568 203.544 214.993 203.94 215.383 204.173C215.823 204.436 216.95 204.595 217.039 204.607C216.938 205.181 216.885 205.777 216.867 206.383C216.856 206.73 216.858 207.079 216.864 207.429C216.835 207.269 216.808 207.127 216.802 207.107C216.63 206.56 215.946 205.594 215.248 205.572C214.745 205.557 214.388 205.964 214.42 206.404C214.454 206.853 214.879 207.249 215.269 207.482C215.665 207.718 216.622 207.871 216.876 207.908C216.88 208.042 216.882 208.177 216.886 208.311C216.908 208.955 216.932 209.598 216.935 210.229C216.936 210.452 216.929 210.671 216.922 210.89C216.896 210.748 216.873 210.63 216.867 210.612C216.696 210.064 216.012 209.098 215.314 209.077C214.811 209.061 214.454 209.468 214.487 209.908C214.52 210.357 214.946 210.753 215.336 210.986C215.713 211.212 216.596 211.36 216.897 211.405C216.883 211.63 216.868 211.854 216.843 212.071C216.822 212.219 216.813 212.362 216.784 212.51C216.757 212.656 216.731 212.801 216.705 212.945C216.644 213.219 216.584 213.503 216.517 213.77C216.472 213.956 216.425 214.132 216.379 214.309C216.381 214.087 216.374 213.654 216.369 213.618C216.317 213.243 216.071 212.655 215.711 212.267C215.703 212.211 215.691 212.157 215.672 212.103C215.526 211.683 215.03 211.424 214.568 211.607C213.928 211.861 213.68 212.989 213.741 213.556C213.745 213.589 213.829 213.948 213.885 214.174C213.83 214.046 213.778 213.921 213.719 213.79C213.604 213.53 213.482 213.273 213.351 212.997C213.283 212.866 213.214 212.733 213.144 212.599C213.078 212.465 212.99 212.331 212.912 212.195C212.726 211.883 212.52 211.576 212.306 211.27C212.555 211.178 213.434 210.84 213.759 210.532C214.083 210.226 214.401 209.754 214.325 209.309C214.249 208.874 213.802 208.549 213.316 208.666C212.64 208.829 212.208 209.909 212.175 210.478C212.173 210.514 212.198 210.924 212.218 211.149C212.087 210.967 211.958 210.784 211.819 210.603C211.419 210.08 210.996 209.563 210.577 209.045C210.449 208.887 210.323 208.728 210.196 208.568C210.285 208.536 211.34 208.155 211.704 207.81C212.028 207.504 212.347 207.032 212.269 206.587C212.194 206.152 211.747 205.827 211.26 205.944C210.584 206.107 210.153 207.187 210.119 207.756C210.117 207.799 210.155 208.389 210.173 208.539C209.894 208.189 209.62 207.837 209.365 207.48C209.012 206.988 208.695 206.488 208.428 205.983C208.47 205.968 209.573 205.574 209.946 205.222C210.269 204.915 210.588 204.443 210.511 203.998C210.436 203.563 209.989 203.239 209.502 203.356C208.826 203.518 208.395 204.598 208.361 205.167C208.358 205.212 208.4 205.847 208.416 205.962C208.4 205.932 208.381 205.903 208.365 205.873C208.087 205.33 207.893 204.772 207.739 204.242C207.648 203.934 207.582 203.635 207.523 203.343C207.737 203.289 208.71 203.032 209.084 202.748C209.442 202.476 209.816 202.038 209.793 201.589C209.771 201.148 209.366 200.781 208.868 200.849C208.176 200.942 207.617 201.973 207.516 202.535C207.511 202.566 207.491 202.882 207.482 203.112C207.458 202.98 207.431 202.844 207.41 202.717C207.332 202.24 207.293 201.798 207.262 201.407C207.247 201.184 207.237 200.983 207.231 200.794C207.41 200.641 208.124 200.017 208.309 199.615C208.49 199.223 208.601 198.677 208.354 198.288C208.111 197.907 207.566 197.751 207.159 198.02C206.593 198.395 206.617 199.544 206.81 200.086C206.827 200.132 207.18 200.837 207.189 200.829C207.189 200.829 207.198 200.822 207.2 200.82C207.202 201.002 207.207 201.196 207.217 201.409C207.239 201.801 207.268 202.245 207.334 202.725C207.399 203.205 207.485 203.725 207.629 204.266C207.773 204.808 207.954 205.371 208.224 205.929C208.227 205.936 208.231 205.942 208.234 205.948C208.1 205.807 207.709 205.425 207.676 205.398C207.202 205.028 206.048 204.566 205.452 204.9C205.024 205.141 204.972 205.66 205.265 206.01C205.564 206.368 206.158 206.484 206.624 206.481C207.15 206.479 208.185 206.044 208.268 206.009C208.53 206.539 208.846 207.063 209.197 207.577C209.398 207.871 209.611 208.162 209.827 208.451C209.707 208.333 209.598 208.227 209.581 208.214C209.107 207.844 207.953 207.382 207.358 207.716C206.929 207.956 206.878 208.475 207.171 208.825C207.47 209.183 208.064 209.299 208.53 209.297C209.003 209.295 209.894 208.94 210.128 208.843C210.213 208.953 210.295 209.065 210.381 209.174C210.788 209.701 211.197 210.225 211.581 210.749C211.717 210.934 211.842 211.121 211.969 211.307C211.862 211.202 211.771 211.114 211.755 211.102C211.282 210.732 210.127 210.27 209.532 210.604C209.103 210.845 209.051 211.364 209.344 211.714C209.643 212.072 210.238 212.188 210.704 212.185C211.155 212.184 211.98 211.863 212.259 211.749C212.383 211.944 212.507 212.138 212.617 212.331C212.689 212.465 212.768 212.589 212.832 212.727C212.898 212.863 212.965 212.997 213.03 213.13C213.145 213.389 213.265 213.657 213.371 213.912C213.445 214.09 213.513 214.26 213.582 214.432C213.449 214.247 213.182 213.888 213.156 213.86C212.749 213.429 211.684 212.813 211.041 213.061C210.577 213.239 210.439 213.745 210.671 214.132C210.907 214.527 211.475 214.724 211.936 214.786C212.444 214.855 213.498 214.584 213.629 214.549C213.722 214.798 213.814 215.036 213.899 215.266Z" fill="#263238"/>
<path d="M217.982 201.893C217.994 201.898 218.082 201.127 218.081 201.078C218.074 200.508 217.694 199.412 217.026 199.223C216.546 199.087 216.084 199.393 215.988 199.826C215.89 200.267 216.186 200.751 216.494 201.07C216.857 201.444 217.981 201.892 217.982 201.893Z" fill="#263238"/>
<path d="M77.2164 197.32C77.8081 197.465 79.1611 197.251 79.1623 197.25C79.1761 197.248 78.7366 196.479 78.7032 196.433C78.3115 195.905 77.2146 195.095 76.4634 195.295C75.9224 195.439 75.6985 195.986 75.9015 196.443C76.1087 196.91 76.713 197.195 77.2164 197.32Z" fill="#263238"/>
<path d="M86.423 210.678H86.9126C86.9108 210.674 86.909 210.669 86.9073 210.664C86.7807 210.341 86.638 209.997 86.4881 209.646C86.5729 209.601 87.0547 209.341 87.4709 209.047C87.9313 209.384 89.0216 209.703 89.1625 209.742C89.0765 210.067 88.99 210.382 88.9022 210.678H89.3781C89.4575 210.378 89.5363 210.062 89.614 209.735C89.7638 209.743 90.9909 209.8 91.5271 209.61C92.0131 209.437 92.5798 209.094 92.7303 208.608C92.8777 208.134 92.5899 207.612 92.0346 207.523C91.2644 207.399 90.2702 208.313 89.9435 208.877C89.9244 208.91 89.7596 209.292 89.6599 209.535C89.6946 209.384 89.7304 209.238 89.7638 209.082C89.8331 208.775 89.8916 208.466 89.9567 208.135C89.9818 207.973 90.0074 207.811 90.0331 207.646C90.0624 207.484 90.0707 207.309 90.0904 207.138C90.1275 206.742 90.1436 206.339 90.1495 205.933C90.4445 205.988 91.4948 206.168 92.0066 206.064C92.5159 205.96 93.1327 205.699 93.362 205.24C93.5865 204.791 93.3883 204.236 92.8545 204.071C92.1134 203.842 90.9795 204.608 90.5634 205.12C90.5371 205.152 90.2839 205.55 90.1495 205.771C90.1513 205.527 90.1543 205.283 90.1472 205.036C90.1269 204.323 90.0821 203.602 90.0409 202.882C90.0283 202.662 90.0182 202.442 90.0074 202.222C90.1125 202.243 91.3551 202.481 91.9283 202.364C92.4377 202.261 93.0545 201.999 93.2838 201.541C93.5083 201.092 93.3101 200.537 92.7768 200.372C92.0358 200.143 90.9019 200.908 90.4857 201.42C90.4547 201.459 90.0904 202.032 90.0056 202.182C89.9824 201.698 89.9638 201.215 89.9668 200.738C89.9698 200.08 90.0134 199.434 90.1054 198.812C90.1537 198.821 91.4507 199.075 92.037 198.956C92.5464 198.853 93.1638 198.591 93.3924 198.133C93.617 197.684 93.4193 197.129 92.8849 196.964C92.1439 196.734 91.01 197.5 90.5932 198.012C90.5604 198.053 90.1693 198.669 90.1072 198.786C90.1125 198.749 90.1143 198.71 90.1203 198.673C90.2284 198.01 90.4236 197.379 90.6386 196.797C90.7628 196.459 90.9025 196.142 91.0452 195.836C91.2811 195.906 92.3642 196.215 92.9052 196.161C93.4241 196.109 94.069 195.911 94.352 195.478C94.6291 195.054 94.4995 194.483 93.9884 194.265C93.2796 193.963 92.0603 194.61 91.5844 195.077C91.5587 195.103 91.3271 195.388 91.1617 195.597C91.2285 195.46 91.2948 195.318 91.3617 195.187C91.6119 194.698 91.874 194.264 92.1099 193.882C92.246 193.665 92.3732 193.472 92.495 193.292C92.7661 193.25 93.8558 193.07 94.3001 192.799C94.7342 192.535 95.2065 192.088 95.2393 191.585C95.271 191.092 94.8673 190.639 94.3042 190.661C93.5226 190.691 92.7673 191.779 92.581 192.393C92.5649 192.446 92.418 193.303 92.4323 193.301C92.4323 193.301 92.4454 193.299 92.4484 193.299C92.3278 193.47 92.2006 193.654 92.0657 193.859C91.8203 194.237 91.5468 194.667 91.2841 195.154C91.0201 195.639 90.7479 196.173 90.5168 196.759C90.2845 197.346 90.0731 197.975 89.9465 198.648C89.9453 198.656 89.9447 198.664 89.943 198.672C89.9131 198.464 89.8074 197.887 89.7937 197.843C89.602 197.23 88.8365 196.148 88.0543 196.125C87.4912 196.108 87.0918 196.563 87.1282 197.056C87.1658 197.558 87.6423 198.001 88.0788 198.262C88.5708 198.557 89.8319 198.734 89.9328 198.748C89.8188 199.39 89.7596 200.057 89.7399 200.735C89.7286 201.123 89.7298 201.514 89.737 201.907C89.7047 201.728 89.6743 201.569 89.6671 201.547C89.4754 200.934 88.7099 199.852 87.9283 199.828C87.3652 199.81 86.9652 200.267 87.0022 200.759C87.0392 201.262 87.5157 201.705 87.9522 201.966C88.3952 202.231 89.4671 202.401 89.7513 202.443C89.7555 202.594 89.7584 202.744 89.7632 202.894C89.7871 203.616 89.8146 204.335 89.8176 205.042C89.8188 205.291 89.8098 205.537 89.802 205.782C89.7734 205.623 89.7471 205.49 89.7411 205.47C89.5495 204.857 88.784 203.775 88.0023 203.751C87.4387 203.734 87.0392 204.189 87.0756 204.682C87.1127 205.185 87.5897 205.628 88.0262 205.889C88.449 206.142 89.4366 206.308 89.774 206.359C89.7578 206.61 89.7417 206.861 89.7137 207.104C89.6904 207.269 89.6802 207.43 89.6468 207.595C89.6175 207.758 89.5883 207.921 89.559 208.082C89.4909 208.389 89.4223 208.707 89.3476 209.005C89.2975 209.213 89.2449 209.41 89.1936 209.609C89.1954 209.361 89.1882 208.875 89.1828 208.835C89.1243 208.415 88.849 207.756 88.446 207.322C88.4376 207.259 88.4239 207.199 88.403 207.139C88.2388 206.668 87.6841 206.378 87.167 206.583C86.4493 206.868 86.1728 208.13 86.2409 208.765C86.2451 208.803 86.3382 209.204 86.4021 209.457C86.34 209.314 86.2815 209.174 86.2158 209.027C86.0874 208.736 85.9501 208.449 85.8038 208.14C85.7274 207.993 85.6503 207.844 85.5721 207.694C85.4981 207.543 85.3996 207.393 85.313 207.241C85.104 206.893 84.8741 206.548 84.6341 206.206C84.9129 206.103 85.8975 205.724 86.2612 205.38C86.6236 205.037 86.9801 204.508 86.8941 204.011C86.8099 203.523 86.3095 203.16 85.7644 203.291C85.0078 203.472 84.5248 204.682 84.4866 205.319C84.4842 205.359 84.5134 205.819 84.5349 206.071C84.3886 205.866 84.2441 205.662 84.0889 205.459C83.6411 204.874 83.1682 204.295 82.6982 203.716C82.5543 203.539 82.4134 203.36 82.2713 203.182C82.371 203.146 83.5521 202.719 83.9593 202.333C84.3212 201.99 84.6782 201.461 84.5923 200.964C84.5081 200.476 84.0077 200.113 83.4625 200.244C82.706 200.425 82.2229 201.635 82.1847 202.272C82.1817 202.32 82.2247 202.982 82.245 203.149C81.9327 202.757 81.6252 202.363 81.3398 201.964C80.9451 201.413 80.5904 200.853 80.2913 200.287C80.3379 200.271 81.5727 199.83 81.9901 199.435C82.3525 199.092 82.709 198.564 82.623 198.066C82.5388 197.579 82.0384 197.215 81.4933 197.346C80.7367 197.528 80.2537 198.738 80.216 199.374C80.2131 199.424 80.2596 200.136 80.2781 200.264C80.2602 200.231 80.2381 200.197 80.2208 200.164C79.9097 199.556 79.6924 198.932 79.5198 198.338C79.4189 197.993 79.3437 197.658 79.278 197.331C79.5174 197.271 80.6072 196.983 81.0257 196.665C81.427 196.36 81.8456 195.871 81.8199 195.367C81.7948 194.875 81.341 194.463 80.7839 194.539C80.01 194.644 79.3843 195.798 79.2702 196.426C79.2643 196.461 79.2434 196.815 79.232 197.073C79.2051 196.925 79.1741 196.773 79.1514 196.631C79.0648 196.097 79.0206 195.603 78.986 195.164C78.9687 194.915 78.9579 194.69 78.9508 194.478C79.1514 194.307 79.9509 193.608 80.1581 193.158C80.3605 192.719 80.4847 192.108 80.2077 191.672C79.9366 191.245 79.3264 191.071 78.8696 191.372C78.2354 191.791 78.2629 193.079 78.4791 193.685C78.4976 193.738 78.8934 194.527 78.9036 194.518C78.9036 194.518 78.9132 194.51 78.9155 194.507C78.9179 194.71 78.9233 194.929 78.9346 195.167C78.9585 195.606 78.9908 196.102 79.0654 196.64C79.1383 197.178 79.2344 197.76 79.3956 198.366C79.5568 198.972 79.7599 199.603 80.062 200.228C80.0656 200.236 80.0698 200.243 80.0733 200.249C79.9229 200.091 79.4858 199.663 79.4482 199.634C78.9179 199.219 77.6252 198.702 76.9588 199.076C76.4787 199.345 76.4208 199.926 76.7486 200.319C77.0836 200.72 77.7488 200.849 78.2707 200.847C78.8594 200.844 80.0178 200.357 80.1104 200.318C80.4035 200.911 80.757 201.498 81.1511 202.074C81.3756 202.403 81.6133 202.728 81.8563 203.052C81.7214 202.919 81.5995 202.802 81.5804 202.786C81.0502 202.372 79.7575 201.855 79.0911 202.228C78.611 202.498 78.5531 203.079 78.8809 203.471C79.2159 203.872 79.8811 204.002 80.4029 203.999C80.9326 203.997 81.9297 203.6 82.1919 203.491C82.2862 203.615 82.3794 203.739 82.4743 203.861C82.9305 204.451 83.3879 205.037 83.8178 205.625C83.9695 205.832 84.1104 206.042 84.2519 206.25C84.1319 206.133 84.0298 206.034 84.0125 206.021C83.4822 205.606 82.1901 205.089 81.5231 205.463C81.043 205.732 80.9851 206.314 81.3129 206.706C81.6479 207.106 82.3131 207.236 82.835 207.234C83.3401 207.232 84.2644 206.873 84.5767 206.745C84.7147 206.963 84.8538 207.181 84.9768 207.397C85.0574 207.547 85.1464 207.686 85.2174 207.84C85.2921 207.992 85.3655 208.142 85.4384 208.291C85.5673 208.581 85.7023 208.881 85.8205 209.168C85.9041 209.366 85.9799 209.557 86.057 209.749C85.9089 209.541 85.6091 209.14 85.5799 209.109C85.1243 208.625 83.9331 207.936 83.2117 208.214C82.6923 208.413 82.5388 208.98 82.7979 209.413C83.0625 209.856 83.6984 210.076 84.2149 210.146C84.7833 210.223 85.9632 209.919 86.1101 209.88C86.2253 210.154 86.3275 210.42 86.423 210.678Z" fill="#263238"/>
<path d="M90.9961 195.706C91.0093 195.712 91.1072 194.848 91.1066 194.794C91.0988 194.156 90.6737 192.928 89.9261 192.717C89.3881 192.564 88.8704 192.908 88.7635 193.391C88.6537 193.885 88.9851 194.427 89.3308 194.784C89.7368 195.203 90.9949 195.706 90.9961 195.706Z" fill="#263238"/>
<path d="M132.642 195.194C133.321 195.36 134.875 195.114 134.876 195.114C134.892 195.111 134.387 194.229 134.349 194.176C133.899 193.57 132.64 192.641 131.778 192.87C131.157 193.035 130.9 193.663 131.132 194.188C131.37 194.724 132.064 195.051 132.642 195.194Z" fill="#263238"/>
<path d="M143.211 210.528H143.772C143.77 210.523 143.768 210.517 143.766 210.512C143.621 210.14 143.458 209.746 143.285 209.343C143.383 209.291 143.935 208.993 144.414 208.655C144.942 209.041 146.194 209.407 146.355 209.453C146.256 209.826 146.157 210.187 146.056 210.528H146.603C146.694 210.182 146.784 209.82 146.873 209.445C147.045 209.454 148.454 209.52 149.069 209.301C149.627 209.103 150.278 208.708 150.451 208.151C150.62 207.606 150.289 207.008 149.652 206.905C148.768 206.762 147.627 207.812 147.252 208.459C147.23 208.497 147.041 208.936 146.926 209.214C146.966 209.041 147.007 208.873 147.046 208.695C147.125 208.342 147.193 207.988 147.267 207.607C147.296 207.422 147.325 207.235 147.355 207.046C147.388 206.86 147.398 206.658 147.42 206.463C147.463 206.009 147.481 205.546 147.488 205.08C147.827 205.143 149.032 205.349 149.619 205.23C150.204 205.11 150.912 204.811 151.175 204.284C151.433 203.769 151.206 203.132 150.593 202.942C149.743 202.679 148.441 203.558 147.963 204.146C147.933 204.183 147.642 204.639 147.488 204.893C147.489 204.613 147.493 204.333 147.485 204.05C147.462 203.231 147.411 202.403 147.363 201.577C147.349 201.324 147.338 201.072 147.325 200.819C147.445 200.842 148.872 201.116 149.53 200.982C150.115 200.863 150.823 200.563 151.086 200.037C151.344 199.521 151.117 198.884 150.504 198.695C149.654 198.432 148.352 199.311 147.874 199.898C147.838 199.942 147.42 200.601 147.323 200.772C147.296 200.216 147.275 199.662 147.279 199.114C147.282 198.359 147.332 197.618 147.438 196.904C147.494 196.915 148.982 197.207 149.656 197.069C150.24 196.95 150.949 196.65 151.212 196.124C151.469 195.609 151.242 194.971 150.63 194.782C149.779 194.519 148.478 195.398 147.999 195.986C147.962 196.032 147.513 196.74 147.442 196.874C147.448 196.831 147.449 196.787 147.457 196.744C147.58 195.982 147.805 195.259 148.052 194.591C148.195 194.202 148.355 193.839 148.519 193.487C148.79 193.568 150.033 193.922 150.654 193.86C151.249 193.8 151.99 193.573 152.315 193.076C152.633 192.59 152.484 191.934 151.898 191.684C151.084 191.337 149.684 192.08 149.139 192.616C149.109 192.645 148.843 192.973 148.654 193.213C148.73 193.056 148.807 192.892 148.884 192.743C149.171 192.181 149.472 191.683 149.742 191.244C149.898 190.996 150.045 190.774 150.184 190.567C150.495 190.519 151.746 190.312 152.256 190.001C152.754 189.697 153.297 189.185 153.334 188.607C153.37 188.042 152.907 187.522 152.261 187.547C151.364 187.582 150.497 188.83 150.283 189.535C150.264 189.596 150.096 190.58 150.112 190.578C150.112 190.578 150.127 190.575 150.13 190.575C149.992 190.771 149.846 190.982 149.692 191.217C149.41 191.652 149.096 192.145 148.795 192.703C148.491 193.26 148.179 193.874 147.914 194.546C147.647 195.22 147.405 195.941 147.26 196.714C147.258 196.723 147.258 196.732 147.256 196.741C147.221 196.503 147.101 195.84 147.085 195.79C146.865 195.087 145.987 193.845 145.089 193.817C144.442 193.798 143.984 194.321 144.026 194.886C144.069 195.463 144.616 195.971 145.117 196.271C145.681 196.609 147.129 196.812 147.245 196.828C147.114 197.566 147.046 198.331 147.023 199.11C147.01 199.556 147.012 200.005 147.02 200.454C146.983 200.249 146.948 200.067 146.94 200.041C146.719 199.337 145.841 198.096 144.943 198.068C144.297 198.049 143.838 198.572 143.88 199.137C143.922 199.714 144.47 200.223 144.97 200.522C145.478 200.826 146.709 201.022 147.035 201.07C147.04 201.243 147.043 201.416 147.049 201.588C147.076 202.416 147.108 203.242 147.112 204.053C147.113 204.34 147.103 204.621 147.094 204.902C147.061 204.721 147.031 204.568 147.024 204.545C146.803 203.841 145.925 202.599 145.028 202.572C144.381 202.552 143.922 203.075 143.964 203.64C144.007 204.217 144.554 204.726 145.055 205.025C145.54 205.315 146.674 205.505 147.061 205.564C147.043 205.852 147.024 206.141 146.992 206.419C146.965 206.609 146.954 206.794 146.915 206.983C146.881 207.171 146.848 207.357 146.814 207.541C146.736 207.894 146.658 208.259 146.572 208.602C146.514 208.84 146.454 209.067 146.394 209.295C146.397 209.011 146.388 208.453 146.382 208.407C146.315 207.924 145.999 207.168 145.536 206.67C145.527 206.599 145.511 206.528 145.487 206.46C145.298 205.92 144.662 205.587 144.067 205.823C143.244 206.149 142.926 207.599 143.005 208.327C143.009 208.37 143.116 208.831 143.19 209.121C143.118 208.957 143.051 208.796 142.975 208.628C142.828 208.294 142.671 207.964 142.502 207.609C142.415 207.44 142.326 207.27 142.237 207.098C142.152 206.925 142.038 206.753 141.939 206.579C141.699 206.179 141.435 205.783 141.16 205.391C141.48 205.273 142.61 204.838 143.027 204.442C143.443 204.049 143.852 203.442 143.754 202.871C143.657 202.311 143.083 201.894 142.458 202.045C141.589 202.253 141.035 203.642 140.991 204.373C140.989 204.418 141.022 204.946 141.046 205.236C140.878 205.001 140.712 204.766 140.534 204.533C140.02 203.862 139.477 203.197 138.938 202.532C138.773 202.329 138.611 202.123 138.448 201.919C138.563 201.878 139.918 201.388 140.386 200.945C140.801 200.552 141.211 199.945 141.112 199.373C141.016 198.813 140.441 198.397 139.816 198.547C138.947 198.756 138.393 200.144 138.35 200.875C138.347 200.93 138.396 201.689 138.419 201.882C138.061 201.431 137.708 200.98 137.379 200.521C136.926 199.889 136.519 199.247 136.176 198.597C136.229 198.578 137.647 198.072 138.126 197.619C138.542 197.225 138.951 196.618 138.853 196.046C138.756 195.487 138.182 195.07 137.556 195.22C136.688 195.429 136.133 196.818 136.089 197.549C136.086 197.606 136.14 198.423 136.161 198.57C136.141 198.532 136.115 198.493 136.095 198.455C135.738 197.757 135.488 197.041 135.29 196.359C135.174 195.964 135.088 195.579 135.013 195.204C135.288 195.135 136.538 194.804 137.019 194.439C137.48 194.09 137.96 193.527 137.93 192.95C137.902 192.383 137.381 191.911 136.741 191.998C135.852 192.119 135.134 193.444 135.003 194.166C134.996 194.205 134.972 194.612 134.959 194.907C134.928 194.737 134.893 194.563 134.867 194.399C134.767 193.786 134.717 193.219 134.677 192.717C134.656 192.431 134.644 192.172 134.637 191.929C134.867 191.733 135.785 190.931 136.023 190.414C136.255 189.91 136.397 189.21 136.079 188.709C135.768 188.219 135.067 188.019 134.544 188.365C133.816 188.845 133.847 190.323 134.095 191.02C134.117 191.08 134.57 191.985 134.582 191.975C134.582 191.975 134.594 191.966 134.596 191.963C134.599 192.196 134.605 192.447 134.618 192.72C134.646 193.224 134.683 193.794 134.768 194.411C134.852 195.028 134.962 195.697 135.147 196.392C135.332 197.088 135.566 197.812 135.912 198.529C135.916 198.538 135.921 198.546 135.925 198.554C135.753 198.372 135.251 197.881 135.208 197.847C134.598 197.371 133.115 196.777 132.35 197.206C131.799 197.515 131.733 198.183 132.109 198.633C132.494 199.093 133.257 199.241 133.856 199.239C134.532 199.236 135.862 198.677 135.968 198.632C136.304 199.313 136.71 199.986 137.162 200.647C137.42 201.025 137.693 201.399 137.972 201.77C137.817 201.618 137.677 201.483 137.655 201.466C137.046 200.989 135.563 200.396 134.798 200.825C134.246 201.134 134.18 201.801 134.557 202.252C134.941 202.712 135.705 202.861 136.304 202.858C136.912 202.856 138.056 202.4 138.357 202.276C138.466 202.417 138.572 202.559 138.682 202.7C139.205 203.377 139.731 204.05 140.224 204.725C140.398 204.963 140.559 205.203 140.722 205.442C140.585 205.307 140.467 205.195 140.448 205.179C139.839 204.703 138.356 204.109 137.591 204.539C137.039 204.848 136.973 205.515 137.349 205.965C137.734 206.425 138.498 206.574 139.097 206.571C139.676 206.569 140.737 206.157 141.096 206.011C141.254 206.261 141.414 206.511 141.555 206.759C141.647 206.931 141.749 207.091 141.831 207.268C141.917 207.442 142.001 207.614 142.085 207.784C142.233 208.118 142.388 208.461 142.523 208.791C142.619 209.019 142.707 209.238 142.795 209.458C142.625 209.22 142.281 208.759 142.247 208.724C141.724 208.169 140.357 207.377 139.529 207.696C138.934 207.925 138.757 208.575 139.055 209.073C139.359 209.58 140.088 209.833 140.681 209.913C141.333 210.001 142.688 209.653 142.857 209.609C142.984 209.926 143.101 210.232 143.211 210.528Z" fill="#263238"/>
<path d="M148.459 193.343C148.474 193.349 148.586 192.358 148.586 192.295C148.577 191.563 148.088 190.154 147.231 189.911C146.613 189.736 146.019 190.13 145.896 190.685C145.77 191.252 146.151 191.874 146.547 192.284C147.013 192.765 148.457 193.342 148.459 193.343Z" fill="#263238"/>
<path d="M287.591 226.957L274.117 225.593L280.202 224.333L272.596 223.17L270.423 224.16L271.075 221.477L266.275 224.114L267.381 220.774L264.773 222.253L264.556 220.063L262.817 221.78L262.6 219.347L260.427 222.04V217.658L259.267 219.746L258.254 221.569V218.161L257.602 215.244L254.713 218.663L253.255 220.388L253.907 215.757C253.907 215.757 251.517 219.183 251.951 218.45C252.386 217.716 251.734 216.503 251.734 216.503L248.04 220.425L248.909 216.767L246.736 218.243L246.301 215.325L243.694 218.509L243.259 214.13L242.172 217.059L241.086 212.198L240.216 218.534L237.391 213.442L237.826 219.525L237.297 218.887L237.509 218.015L236.867 218.368L235.218 216.379L235.402 219.172L232.708 220.652L233.814 217.311L231.207 218.791L230.989 216.601L229.25 218.318L229.033 215.885L226.86 218.578V214.196L225.701 216.283L224.687 218.107V214.699L224.035 211.782L221.146 215.201L219.689 216.926L220.341 212.295C220.341 212.295 217.951 215.721 218.385 214.987C218.82 214.253 218.168 213.041 218.168 213.041L214.473 216.963L215.343 213.305L213.17 214.781L212.735 211.863L210.127 215.047L209.693 210.668L208.606 213.597L207.519 208.735L206.65 215.072L203.825 209.979L204.26 216.063L201.652 212.917L201.933 217.166L198.172 216.591L197.523 216.112V216.492L195.665 216.208L194.174 216.887L193.665 216.486L194.144 214.515L192.386 215.48L192.307 215.419L192.353 215.498L189.344 217.151L190.45 213.811L187.842 215.291L187.625 213.101L185.887 214.817L185.669 212.384L183.496 215.078V210.695L182.337 212.783L181.323 214.607V211.198L180.671 208.281L177.783 211.7L176.325 213.425L176.977 208.794C176.977 208.794 174.587 212.22 175.022 211.486C175.456 210.753 174.804 209.54 174.804 209.54L171.11 213.462L171.979 209.804L169.806 211.281L169.372 208.362L166.764 211.546L166.329 207.167L165.243 210.096L164.156 205.235L163.287 211.571L160.462 206.479L160.761 210.67L159.787 211.223L158.289 209.416L158.458 211.977L158.307 212.063L158.089 209.873L156.351 211.59L156.134 209.157L153.961 211.85V207.468L152.801 209.555L151.788 211.379V207.971L151.136 205.054L148.247 208.473L146.79 210.198L147.442 205.567C147.442 205.567 145.052 208.993 145.486 208.259C145.921 207.525 145.269 206.313 145.269 206.313L141.575 210.235L142.444 206.577L140.271 208.053L139.836 205.135L137.229 208.319L136.794 203.94L135.707 206.869L134.621 202.007L133.751 208.344L130.926 203.251L131.361 209.335L128.753 206.189L129.188 212.759L127.777 211.716L127.912 210.758C127.912 210.758 127.704 211.056 127.424 211.454L124.624 209.384V212.687L124.568 212.747L119.409 208.691L121.662 212.618L120.741 213.244L120.307 210.326L117.699 213.509L117.264 209.13L116.178 212.06L115.091 207.198L114.296 212.989L113.884 212.926L111.397 208.442L111.693 212.591L110.093 212.346L110.044 212.369L109.223 211.379L109.311 212.703L107.92 213.336L108.572 210.653L103.772 213.289L104.877 209.949L102.27 211.429L102.052 209.239L100.314 210.956L100.097 208.523L97.9241 211.216V206.834L96.7645 208.921L95.7512 210.745V207.337L95.0992 204.42L92.2104 207.839L90.7528 209.564L91.4049 204.933C91.4049 204.933 89.0146 208.358 89.4493 207.625C89.884 206.891 89.232 205.679 89.232 205.679L85.5377 209.601L86.4071 205.943L84.2342 207.419L83.7995 204.501L81.1919 207.685L80.7572 203.305L79.6705 206.235L78.5837 201.373L77.7143 207.71L74.8894 202.617L75.3241 208.701L72.7165 205.555L73.1512 212.125L68.5875 208.75V212.158L63.3718 208.057L66.8488 214.119L49.4633 216.192L63.3712 216.091L52.9403 217.628L92.9257 216.609L84.6677 219.103L102.139 217.82L103.357 219.942L85.9712 222.015L99.879 221.915L89.4481 223.451L129.434 222.432L121.176 224.926L161.596 221.957L153.244 221.112L178.501 220.468L170.243 222.962L195.572 221.102L195.787 221.478L178.402 223.551L192.31 223.451L181.879 224.987L221.865 223.968L213.607 226.462L221.361 225.893L211.968 227.013L225.876 226.912L215.445 228.448L255.431 227.43L247.173 229.924L287.591 226.957ZM105.092 217.984L104.65 217.637L105.092 217.605V217.984ZM108.817 217.33L109.61 217.272L109.655 217.951L108.817 217.33ZM122.65 214.782L122.182 214.838L122.401 213.914L122.805 214.618L122.65 214.782ZM140.278 219.115L140.829 217.451L143.428 217.385L140.278 219.115ZM144.569 218.571L144.866 217.349L148.961 217.244L144.569 218.571ZM160.441 212.014L160.783 210.98L160.896 212.564L160.441 212.014ZM201.965 217.642L202.063 219.125L201.524 219.071L200.111 218.026L201.965 217.642ZM197.524 218.562V218.666L197.187 218.632L197.524 218.562Z" fill="#263238" stroke="#263238" stroke-miterlimit="10"/>
<path d="M247.106 231.635L233.632 230.174L239.717 228.957L232.111 227.74L229.938 228.713L230.59 226.035L225.79 228.637L226.896 225.305L224.288 226.765L224.071 224.574L222.333 226.279L222.115 223.844L219.942 226.522V222.14L218.783 224.219L217.769 226.036V222.627L217.117 219.705L214.229 223.103L212.771 224.818L213.423 220.192C213.423 220.192 211.033 223.601 211.467 222.87C211.902 222.14 211.25 220.923 211.25 220.923L207.555 224.818L208.425 221.166L206.252 222.627L205.817 219.705L203.21 222.87L202.775 218.488L201.688 221.41L200.601 216.541L199.732 222.871L196.907 217.758L197.342 223.845L196.813 223.204L197.025 222.333L196.383 222.681L194.734 220.68L194.919 223.474L192.225 224.934L193.33 221.602L190.723 223.063L190.505 220.872L188.767 222.576L188.55 220.141L186.376 222.819V218.437L185.217 220.515L184.204 222.332V218.923L183.552 216.001L180.663 219.399L179.205 221.114L179.857 216.488C179.857 216.488 177.467 219.897 177.901 219.166C178.336 218.436 177.684 217.219 177.684 217.219L173.989 221.114L174.859 217.462L172.686 218.923L172.251 216.001L169.644 219.166L169.209 214.784L168.122 217.705L167.036 212.836L166.166 219.166L163.341 214.054L163.776 220.14L161.168 216.975L161.45 221.226L157.688 220.624L157.039 220.14V220.52L155.182 220.223L153.691 220.891L153.182 220.487L153.661 218.519L151.902 219.472L151.824 219.409L151.87 219.49L148.86 221.12L149.966 217.788L147.358 219.249L147.141 217.058L145.402 218.762L145.185 216.327L143.012 219.006V214.623L141.852 216.703L140.839 218.519V215.11L140.186 212.188L137.298 215.587L135.84 217.301L136.492 212.675C136.492 212.675 134.102 216.084 134.537 215.354C134.971 214.623 134.319 213.406 134.319 213.406L130.625 217.302L131.494 213.65L129.321 215.11L128.887 212.188L126.279 215.354L125.845 210.971L124.758 213.893L123.671 209.024L122.802 215.354L119.977 210.241L120.276 214.435L119.302 214.98L117.804 213.162L117.973 215.724L117.822 215.809L117.604 213.618L115.866 215.322L115.648 212.887L113.475 215.566V211.183L112.316 213.262L111.303 215.078V211.67L110.65 208.748L107.762 212.146L106.304 213.861L106.956 209.235C106.956 209.235 104.566 212.644 105.001 211.913C105.435 211.183 104.783 209.966 104.783 209.966L101.089 213.861L101.958 210.209L99.7855 211.67L99.3508 208.749L96.7432 211.914L96.3085 207.531L95.2218 210.453L94.1351 205.584L93.2657 211.914L90.4407 206.801L90.8754 212.887L88.2679 209.722L88.7026 216.296L87.2916 215.242L87.4265 214.285C87.4265 214.285 87.2181 214.582 86.9381 214.978L84.1388 212.887V216.191L84.0815 216.251L78.9231 212.157L81.176 216.101L80.2547 216.72L79.82 213.798L77.2124 216.963L76.7777 212.581L75.6909 215.503L74.6042 210.634L73.8095 216.419L73.3975 216.353L70.9099 211.851L71.2061 216.002L69.6058 215.746L69.5568 215.768L68.7364 214.773L68.8242 216.097L67.4329 216.721L68.085 214.042L63.2848 216.644L64.3907 213.312L61.7831 214.773L61.5657 212.581L59.827 214.285L59.6096 211.85L57.4367 214.529V210.146L56.2771 212.225L55.2638 214.041V210.633L54.6118 207.711L51.723 211.109L50.2654 212.823L50.9175 208.198C50.9175 208.198 48.5273 211.606 48.962 210.876C49.3967 210.146 48.7446 208.928 48.7446 208.928L45.0503 212.823L45.9197 209.171L43.7468 210.632L43.3121 207.71L40.7045 210.875L40.2698 206.493L39.1831 209.415L38.0964 204.546L37.227 210.875L34.4021 205.763L34.8367 211.849L32.2292 208.684L32.6639 215.257L28.1002 211.849V215.257L22.8844 211.118L26.3614 217.205L8.97655 219.153H22.8844L12.4535 220.613L52.4395 219.883L44.1815 222.318L61.6529 221.16L62.8704 223.292L45.485 225.239H59.3929L48.962 226.7L88.948 225.969L80.6899 228.404L121.11 225.726L112.758 224.821L138.015 224.359L129.757 226.794L155.086 225.116L155.301 225.493L137.916 227.441H151.824L141.393 228.902L181.379 228.172L173.121 230.607L180.875 230.093L171.482 231.145H185.39L174.959 232.606L214.945 231.875L206.687 234.31L247.106 231.635ZM64.6074 221.347L64.1661 220.997L64.6074 220.968V221.347ZM68.3322 220.721L69.1257 220.669L69.1705 221.347L68.3322 220.721ZM82.166 218.271L81.6979 218.324L81.917 217.402L82.3206 218.108L82.166 218.271ZM99.7927 222.732L100.344 221.072L102.943 221.025L99.7927 222.732ZM104.085 222.218L104.381 220.998L108.476 220.923L104.085 222.218ZM119.956 215.776L120.298 214.745L120.411 216.328L119.956 215.776ZM161.481 221.703L161.579 223.188L161.039 223.129L159.627 222.074L161.481 221.703ZM157.039 222.591V222.695L156.703 222.659L157.039 222.591Z" fill="#263238" stroke="#263238" stroke-miterlimit="10"/>
<path d="M67.0923 148.135C67.0923 148.135 74.2731 170.463 80.1487 181.029C86.0242 191.595 85.8063 196.977 88.8527 203.357C91.8992 209.736 92.3345 207.144 92.3345 213.923C92.3345 220.701 91.6819 229.074 90.8113 230.669C89.9407 232.263 87.9822 234.656 88.4175 236.649C88.8527 238.643 94.7277 238.643 98.2094 238.643C101.691 238.643 104.085 236.051 104.738 234.456C105.39 232.862 105.39 228.276 105.39 228.276C105.39 228.276 109.742 229.074 108.654 225.485C107.566 221.897 102.996 211.929 102.126 205.351C101.255 198.772 103.214 192.392 102.561 189.003C101.909 185.614 99.0794 175.248 98.8621 172.656C98.6447 170.065 76.6664 146.74 69.9208 141.955C63.1753 137.17 67.0923 148.135 67.0923 148.135Z" fill="#92E3A9"/>
<path opacity="0.27" d="M102.126 205.35C101.256 198.771 103.214 192.392 102.561 189.003C101.909 185.614 99.0797 175.247 98.8624 172.655C98.645 170.064 76.6666 146.739 69.9211 141.955C63.1755 137.17 67.092 148.134 67.092 148.134C67.092 148.134 74.2728 170.462 80.1484 181.028C82.6114 185.458 84.0021 188.974 85.013 192.037L105.162 216.137C103.826 212.483 102.546 208.523 102.126 205.35Z" fill="black"/>
<path d="M105.371 229.351C104.267 227.903 102.45 225.823 101.69 225.684C100.602 225.485 99.5146 228.276 97.556 227.278C95.5975 226.282 95.5975 223.889 92.9864 223.889C92.5582 223.889 92.2059 223.987 91.9068 224.139C91.6345 227.325 91.25 229.862 90.8105 230.668C89.9399 232.262 87.9814 234.655 88.4167 236.649C88.852 238.642 94.7269 238.642 98.2087 238.642C101.69 238.642 104.084 236.05 104.737 234.455C105.19 233.349 105.329 230.806 105.371 229.351Z" fill="white"/>
<path d="M67.0923 148.135C67.0923 148.135 74.2731 170.463 80.1487 181.029C86.0242 191.595 85.8063 196.977 88.8527 203.357C91.8992 209.736 92.3345 207.144 92.3345 213.923C92.3345 220.701 91.6819 229.074 90.8113 230.669C89.9407 232.263 87.9822 234.656 88.4175 236.649C88.8527 238.643 94.7277 238.643 98.2094 238.643C101.691 238.643 104.085 236.051 104.738 234.456C105.39 232.862 105.39 228.276 105.39 228.276C105.39 228.276 109.742 229.074 108.654 225.485C107.566 221.897 102.996 211.929 102.126 205.351C101.255 198.772 103.214 192.392 102.561 189.003C101.909 185.614 99.0794 175.248 98.8621 172.656C98.6447 170.065 76.6664 146.74 69.9208 141.955C63.1753 137.17 67.0923 148.135 67.0923 148.135Z" stroke="#263238" stroke-miterlimit="10" stroke-linecap="round" stroke-linejoin="round"/>
<path d="M98.8619 231.465C95.3258 229.666 92.2651 230.465 90.386 231.388C89.4342 232.93 88.0429 234.936 88.4167 236.649C88.852 238.642 94.7269 238.642 98.2087 238.642C100.955 238.642 103.02 237.03 104.091 235.566C103.061 234.251 101.414 232.765 98.8619 231.465Z" fill="#263238" stroke="#263238" stroke-miterlimit="10" stroke-linecap="round" stroke-linejoin="round"/>
<path d="M148.04 161.093C148.04 161.093 151.304 167.473 153.481 171.061C155.657 174.649 157.832 192.392 158.05 198.771C158.268 205.151 155.874 212.328 154.133 216.315C152.393 220.302 150.216 221.698 151.304 223.292C152.392 224.887 160.226 225.286 163.49 224.489C166.754 223.691 167.407 219.704 167.407 219.106C167.407 218.508 167.624 220.701 168.278 217.113C168.93 213.524 168.495 212.926 168.278 208.74C168.06 204.553 166.972 196.379 168.495 187.408C170.018 178.437 170.236 174.051 172.629 168.669C175.023 163.286 175.458 158.303 175.458 158.303L148.04 161.093Z" fill="#92E3A9"/>
<path opacity="0.27" d="M148.04 161.093C148.04 161.093 151.304 167.473 153.481 171.061C155.657 174.649 157.832 192.392 158.05 198.771C158.268 205.151 155.874 212.328 154.133 216.315C152.393 220.302 150.216 221.698 151.304 223.292C152.392 224.887 160.226 225.286 163.49 224.489C166.754 223.691 167.407 219.704 167.407 219.106C167.407 218.508 167.624 220.701 168.278 217.113C168.93 213.524 168.495 212.926 168.278 208.74C168.06 204.553 166.972 196.379 168.495 187.408C170.018 178.437 170.236 174.051 172.629 168.669C175.023 163.286 175.458 158.303 175.458 158.303L148.04 161.093Z" fill="black"/>
<path d="M163.49 224.488C166.754 223.69 167.407 219.703 167.407 219.105C167.407 218.507 167.624 220.7 168.278 217.112C168.93 213.523 168.495 212.925 168.278 208.739C168.255 208.314 168.223 207.838 168.187 207.334C167.689 207.663 167.209 208.123 166.754 208.539C165.448 209.735 165.448 206.944 164.361 204.552C163.273 202.16 160.879 200.764 158.485 203.954C158.142 204.411 157.799 204.951 157.464 205.539C156.679 209.75 155.269 213.712 154.133 216.314C152.393 220.301 150.216 221.697 151.304 223.291C152.392 224.887 160.226 225.285 163.49 224.488Z" fill="white"/>
<path d="M148.04 161.093C148.04 161.093 151.304 167.473 153.481 171.061C155.657 174.649 157.832 192.392 158.05 198.771C158.268 205.151 155.874 212.328 154.133 216.315C152.393 220.302 150.216 221.698 151.304 223.292C152.392 224.887 160.226 225.286 163.49 224.489C166.754 223.691 167.407 219.704 167.407 219.106C167.407 218.508 167.624 220.701 168.278 217.113C168.93 213.524 168.495 212.926 168.278 208.74C168.06 204.553 166.972 196.379 168.495 187.408C170.018 178.437 170.236 174.051 172.629 168.669C175.023 163.286 175.458 158.303 175.458 158.303L148.04 161.093Z" stroke="#263238" stroke-miterlimit="10" stroke-linecap="round" stroke-linejoin="round"/>
<path d="M163.49 224.488C166.754 223.691 167.407 219.704 167.407 219.105C165.448 219.105 159.138 221.896 155.438 220.102C154.14 219.472 153.141 219.388 152.385 219.537C151.306 221.25 150.578 222.228 151.304 223.291C152.392 224.887 160.225 225.286 163.49 224.488Z" fill="#263238" stroke="#263238" stroke-miterlimit="10" stroke-linecap="round" stroke-linejoin="round"/>
<path d="M167.48 219.105C167.535 219.212 167.624 219.327 167.756 219.102C167.663 219.103 167.571 219.104 167.48 219.105Z" fill="white" stroke="#263238" stroke-miterlimit="10" stroke-linecap="round" stroke-linejoin="round"/>
<path d="M83.1028 64.4192C83.1028 64.4192 72.4952 68.5192 68.6826 78.541C64.8707 88.5633 68.5166 92.6628 60.5608 106.785C52.6049 120.907 53.1023 127.741 57.909 136.699C62.7157 145.658 71.8318 154.314 74.8156 163.273C77.7993 172.232 92.2189 181.495 98.5178 178.913C104.816 176.332 106.474 168.284 112.441 165.854C118.407 163.425 118.407 163.425 118.407 163.425C118.407 163.425 120.065 173.447 120.065 179.977C120.065 186.506 117.745 190.758 119.734 196.984C121.723 203.209 123.049 206.398 123.214 207.006C123.38 207.613 123.048 220.824 121.225 224.468C119.402 228.113 119.236 229.328 119.236 229.935C119.236 230.542 117.91 231.757 117.081 234.491C116.253 237.224 115.755 239.805 117.744 240.413C119.733 241.02 133.822 241.02 135.147 240.869C136.474 240.717 137.965 235.858 138.131 233.124C138.297 230.391 136.639 219.762 135.644 217.484C134.649 215.206 134.153 207.766 134.153 204.729C134.153 201.691 137.302 197.743 138.131 192.125C138.959 186.507 138.462 185.14 139.457 181.344C140.451 177.548 142.109 166.008 142.109 166.008L143.269 161.3C143.269 161.3 159.346 166.919 170.452 164.034C181.557 161.149 190.673 156.593 190.673 156.593C190.673 156.593 193.054 170.03 198.523 178.838C203.993 187.645 207.081 203.211 207.745 206.4C208.407 209.588 208.407 213.081 208.407 214.6C208.407 216.118 208.076 218.548 207.413 220.522C206.75 222.496 206.253 223.104 206.584 224.015C206.916 224.926 208.242 225.381 210.728 225.078C213.215 224.774 217.855 225.534 219.347 224.622C220.839 223.711 219.678 218.7 219.513 216.271C219.347 213.841 217.855 209.741 217.855 206.856C217.855 203.971 216.364 195.467 215.866 192.582C215.369 189.697 216.529 190.912 215.204 182.712C213.878 174.512 213.877 169.805 215.204 161.453C216.53 153.101 218.684 132.905 218.519 123.491C218.353 114.076 217.856 107.85 217.856 106.483C217.856 105.117 217.359 87.502 212.386 81.5798C207.414 75.6575 201.944 73.9874 198.961 70.4946C195.978 67.0023 189.348 63.5094 185.37 63.0538C181.392 62.5981 175.425 63.661 172.773 63.5094C170.121 63.3574 146.419 59.5615 137.137 58.9537C127.855 58.3465 122.717 58.0429 113.932 58.9537C105.147 59.8634 90.2299 59.5598 83.1028 64.4192Z" fill="#92E3A9"/>
<path d="M135.148 240.868C136.474 240.716 137.965 235.857 138.131 233.124C138.196 232.057 137.983 229.787 137.64 227.281C137.018 226.818 136.386 226.482 135.855 226.482C134.115 226.482 133.461 228.476 131.068 227.679C128.674 226.881 126.063 222.296 123.017 222.296C122.586 222.296 122.201 222.426 121.854 222.645C121.667 223.378 121.459 224.002 121.225 224.469C119.403 228.113 119.237 229.328 119.237 229.935C119.237 230.542 117.91 231.757 117.082 234.491C116.253 237.224 115.755 239.805 117.744 240.413C119.733 241.02 133.822 241.02 135.148 240.868Z" fill="white"/>
<path d="M219.514 216.268C219.348 213.839 217.856 209.739 217.856 206.854C217.856 205.971 217.716 204.561 217.508 202.948C216.944 202.725 216.457 202.737 216.15 203.157C214.844 204.952 212.451 210.534 212.451 210.534C212.451 210.534 209.623 206.945 207.746 206.398C208.409 209.587 208.409 213.08 208.409 214.598C208.409 216.117 208.077 218.546 207.415 220.52C206.752 222.495 206.254 223.102 206.586 224.013C206.917 224.924 208.243 225.379 210.73 225.076C213.216 224.772 217.857 225.531 219.348 224.62C220.84 223.709 219.68 218.698 219.514 216.268Z" fill="white"/>
<path d="M120.84 138.965C120.188 135.376 113.007 131.589 109.96 133.184C109.96 133.184 102.779 135.776 100.604 145.145C98.4277 154.515 90.1583 161.891 86.024 157.904C81.8896 153.917 78.4078 134.579 76.4493 136.573C74.4908 138.566 74.9261 145.544 69.7038 135.177C64.4815 124.811 62.0876 133.383 62.305 140.958C62.3295 141.809 62.5582 143.006 62.9427 144.457C67.5022 150.72 72.7001 156.92 74.8156 163.273C77.7994 172.231 92.219 181.494 98.5179 178.913C104.816 176.331 106.474 168.283 112.441 165.854C118.408 163.425 118.408 163.425 118.408 163.425C118.408 163.425 118.229 159.698 118.229 151.524C118.229 143.35 121.493 142.553 120.84 138.965Z" fill="white"/>
<path opacity="0.27" d="M101.544 177.029C105.559 173.59 107.558 167.843 112.44 165.855C118.407 163.425 118.407 163.425 118.407 163.425C118.407 163.425 120.064 173.448 120.064 179.977C120.064 186.506 117.744 190.758 119.733 196.984C121.722 203.21 123.048 206.398 123.214 207.006C123.267 207.201 123.269 208.694 123.186 210.749C128.212 217.177 133.627 223.426 137.57 226.788C137.032 222.996 136.226 218.815 135.645 217.484C134.65 215.206 134.153 207.765 134.153 204.728C134.153 201.691 137.302 197.743 138.131 192.125C138.96 186.506 138.463 185.14 139.457 181.343C140.452 177.547 142.109 166.007 142.109 166.007L143.269 161.299C143.269 161.299 150.312 142.229 150.312 137.158C150.312 132.087 120.358 118.962 110.916 121.945C101.474 124.928 101.8 131.49 101.8 131.49C101.8 131.49 93.3348 143.123 90.7302 155.353C88.5012 165.819 94.0991 178.017 97.2059 179.266C97.6728 179.195 98.1123 179.08 98.5171 178.914C99.1411 178.027 100.242 177.404 101.544 177.029Z" fill="black"/>
<path d="M83.1028 64.4192C83.1028 64.4192 72.4952 68.5192 68.6826 78.541C64.8707 88.5633 68.5166 92.6628 60.5608 106.785C52.6049 120.907 53.1023 127.741 57.909 136.699C62.7157 145.658 71.8318 154.314 74.8156 163.273C77.7993 172.232 92.2189 181.495 98.5178 178.913C104.816 176.332 106.474 168.284 112.441 165.854C118.407 163.425 118.407 163.425 118.407 163.425C118.407 163.425 120.065 173.447 120.065 179.977C120.065 186.506 117.745 190.758 119.734 196.984C121.723 203.209 123.049 206.398 123.214 207.006C123.38 207.613 123.048 220.824 121.225 224.468C119.402 228.113 119.236 229.328 119.236 229.935C119.236 230.542 117.91 231.757 117.081 234.491C116.253 237.224 115.755 239.805 117.744 240.413C119.733 241.02 133.822 241.02 135.147 240.869C136.474 240.717 137.965 235.858 138.131 233.124C138.297 230.391 136.639 219.762 135.644 217.484C134.649 215.206 134.153 207.766 134.153 204.729C134.153 201.691 137.302 197.743 138.131 192.125C138.959 186.507 138.462 185.14 139.457 181.344C140.451 177.548 142.109 166.008 142.109 166.008L143.269 161.3C143.269 161.3 159.346 166.919 170.452 164.034C181.557 161.149 190.673 156.593 190.673 156.593C190.673 156.593 193.054 170.03 198.523 178.838C203.993 187.645 207.081 203.211 207.745 206.4C208.407 209.588 208.407 213.081 208.407 214.6C208.407 216.118 208.076 218.548 207.413 220.522C206.75 222.496 206.253 223.104 206.584 224.015C206.916 224.926 208.242 225.381 210.728 225.078C213.215 224.774 217.855 225.534 219.347 224.622C220.839 223.711 219.678 218.7 219.513 216.271C219.347 213.841 217.855 209.741 217.855 206.856C217.855 203.971 216.364 195.467 215.866 192.582C215.369 189.697 216.529 190.912 215.204 182.712C213.878 174.512 213.877 169.805 215.204 161.453C216.53 153.101 218.684 132.905 218.519 123.491C218.353 114.076 217.856 107.85 217.856 106.483C217.856 105.117 217.359 87.502 212.386 81.5798C207.414 75.6575 201.944 73.9874 198.961 70.4946C195.978 67.0023 189.348 63.5094 185.37 63.0538C181.392 62.5981 175.425 63.661 172.773 63.5094C170.121 63.3574 146.419 59.5615 137.137 58.9537C127.855 58.3465 122.717 58.0429 113.932 58.9537C105.147 59.8634 90.2299 59.5598 83.1028 64.4192Z" stroke="#263238" stroke-miterlimit="10" stroke-linecap="round" stroke-linejoin="round"/>
<path d="M202.251 106.071C201.734 101.187 201.136 98.4955 201.136 98.4955" stroke="#263238" stroke-miterlimit="10" stroke-linecap="round" stroke-linejoin="round"/>
<path d="M192.432 154.714C192.432 154.714 202.224 144.347 202.877 126.804C203.1 120.805 202.967 115.599 202.696 111.345" stroke="#263238" stroke-miterlimit="10" stroke-linecap="round" stroke-linejoin="round"/>
<path d="M219.348 224.62C220.252 224.068 220.181 222.01 219.949 219.934C217.159 218.592 216.067 221.897 213.975 221.897C211.799 221.897 211.799 220.9 209.623 220.501C208.816 220.354 207.949 220.701 207.177 221.194C206.642 222.649 206.296 223.214 206.586 224.012C206.918 224.924 208.244 225.379 210.73 225.075C213.215 224.772 217.856 225.531 219.348 224.62Z" fill="#263238" stroke="#263238" stroke-miterlimit="10" stroke-linecap="round" stroke-linejoin="round"/>
<path d="M135.148 240.868C135.777 240.796 136.442 239.66 136.986 238.198C135.76 236.099 131.697 231.329 124.539 231.665C121.047 231.829 118.661 233.108 117.062 234.556C116.245 237.265 115.771 239.809 117.744 240.412C119.733 241.02 133.822 241.02 135.148 240.868Z" fill="#263238" stroke="#263238" stroke-miterlimit="10" stroke-linecap="round" stroke-linejoin="round"/>
<path d="M148.414 184.799C148.414 184.799 149.079 201.543 148.414 204.131C147.75 206.719 147.085 211.134 147.417 214.026C147.75 216.918 148.082 217.984 148.082 217.984C148.082 217.984 143.762 227.117 141.934 230.161C140.106 233.206 138.777 235.794 138.777 236.707C138.777 237.62 137.282 239.142 136.783 239.903C136.285 240.664 137.946 240.664 140.439 241.273C142.931 241.882 147.75 241.121 148.082 240.36C148.414 239.599 149.079 237.772 149.079 237.772C149.079 237.772 149.577 231.836 150.574 228.487C151.571 225.138 154.728 217.831 156.389 215.091C158.051 212.351 159.546 205.806 160.045 204.284C160.543 202.761 163.202 194.998 163.202 194.998L148.414 184.799Z" fill="#92E3A9" stroke="#263238" stroke-miterlimit="10" stroke-linecap="round" stroke-linejoin="round"/>
<path d="M142.765 237.163C141.557 235.983 140.313 235.305 139.349 234.919C138.987 235.724 138.778 236.347 138.778 236.707C138.778 237.621 137.283 239.142 136.784 239.904C136.286 240.665 137.947 240.665 140.44 241.274C142.932 241.883 147.751 241.122 148.083 240.36C148.089 240.345 148.096 240.328 148.103 240.313C146.287 239.545 144.072 238.439 142.765 237.163Z" fill="white"/>
<path d="M142.599 240.36C141.045 239.194 138.774 238.362 138.129 238.138C137.662 238.805 137.065 239.475 136.784 239.903C136.286 240.664 137.947 240.664 140.44 241.273C141.418 241.512 142.754 241.538 144.038 241.438C143.775 241.241 143.338 240.914 142.599 240.36Z" fill="#263238" stroke="#263238" stroke-miterlimit="10" stroke-linecap="round" stroke-linejoin="round"/>
<path d="M195.27 182.06C195.27 182.06 197.264 191.193 199.424 194.542C201.584 197.891 204.907 201.544 205.738 204.589C206.568 207.633 207.565 220.268 206.568 223.617C205.571 226.966 205.239 227.727 205.239 228.792C205.239 229.858 204.242 233.054 204.242 233.664C204.242 234.272 202.58 235.338 204.242 235.947C205.904 236.556 211.054 237.165 212.051 236.556C213.048 235.947 213.214 233.968 213.214 233.968C213.214 233.968 213.879 223.16 213.879 216.767C213.879 210.374 214.875 204.133 214.875 204.133C214.875 204.133 216.038 201.849 216.37 198.805C216.703 195.761 214.543 176.276 213.048 173.384C211.553 170.491 195.27 182.06 195.27 182.06Z" fill="#92E3A9"/>
<path d="M212.55 223.769C212.55 223.769 211.221 223.312 210.556 223.464C209.892 223.616 209.227 224.378 206.569 223.616C205.571 226.965 205.239 227.726 205.239 228.792C205.239 229.858 204.242 233.054 204.242 233.663C204.242 234.272 202.581 235.337 204.242 235.946C205.904 236.555 211.055 237.164 212.051 236.555C213.048 235.946 213.214 233.968 213.214 233.968C213.214 233.968 213.477 229.701 213.672 224.944L212.55 223.769Z" fill="white"/>
<path d="M195.27 182.06C195.27 182.06 197.264 191.193 199.424 194.542C201.584 197.891 204.907 201.544 205.738 204.589C206.568 207.633 207.565 220.268 206.568 223.617C205.571 226.966 205.239 227.727 205.239 228.792C205.239 229.858 204.242 233.054 204.242 233.664C204.242 234.272 202.58 235.338 204.242 235.947C205.904 236.556 211.054 237.165 212.051 236.556C213.048 235.947 213.214 233.968 213.214 233.968C213.214 233.968 213.879 223.16 213.879 216.767C213.879 210.374 214.875 204.133 214.875 204.133C214.875 204.133 216.038 201.849 216.37 198.805C216.703 195.761 214.543 176.276 213.048 173.384C211.553 170.491 195.27 182.06 195.27 182.06Z" stroke="#263238" stroke-miterlimit="10" stroke-linecap="round" stroke-linejoin="round"/>
<path d="M204.242 235.946C205.904 236.555 211.055 237.163 212.051 236.555C212.347 236.373 212.569 236.071 212.736 235.736C212.626 235.585 212.55 235.489 212.55 235.489C212.55 235.489 210.39 234.88 208.396 234.271C206.402 233.662 204.242 233.662 204.242 233.662C204.242 234.271 202.581 235.337 204.242 235.946Z" fill="#263238" stroke="#263238" stroke-miterlimit="10" stroke-linecap="round" stroke-linejoin="round"/>
<path d="M159.879 145.374C159.879 145.374 156.057 153.137 150.907 161.814C145.756 170.491 144.26 175.666 146.753 183.125C149.245 190.584 156.223 195.455 163.036 196.977C169.848 198.5 171.343 199.87 178.986 196.825C186.629 193.781 192.611 191.041 199.756 184.191C206.9 177.341 208.396 179.624 208.396 179.624C208.396 179.624 208.063 190.736 211.22 196.064C214.377 201.392 216.371 206.263 216.869 209.003C217.368 211.743 216.537 223.616 216.039 227.117C215.54 230.618 215.873 232.597 216.039 234.119C216.205 235.641 214.544 236.402 216.703 237.62C218.863 238.838 222.02 238.534 223.349 237.925C224.678 237.316 224.346 235.641 224.346 235.641C224.346 235.641 225.344 232.293 225.011 230.009C224.678 227.726 221.854 216.918 223.017 212.96C224.18 209.002 226.34 197.281 225.676 193.019C225.011 188.757 223.017 184.799 222.851 178.862C222.685 172.926 225.676 157.855 223.184 150.701C220.691 143.547 218.199 141.872 218.199 141.872C218.199 141.872 214.71 137.763 210.556 137.763C206.402 137.763 205.405 138.219 205.405 138.219C205.405 138.219 188.956 137.458 183.307 140.351C177.657 143.243 159.879 145.374 159.879 145.374Z" fill="#92E3A9" stroke="#263238" stroke-miterlimit="10" stroke-linecap="round" stroke-linejoin="round"/>
<path d="M223.349 237.925C224.679 237.316 224.346 235.642 224.346 235.642C224.346 235.642 225.343 232.293 225.011 230.01C224.879 229.109 224.36 226.879 223.851 224.268C222.647 223.593 220.641 222.503 219.527 222.094C218.188 221.604 216.851 223.287 216.381 223.959C216.262 225.273 216.143 226.382 216.038 227.118C215.539 230.619 215.872 232.598 216.038 234.12C216.204 235.642 214.543 236.403 216.702 237.621C218.863 238.839 222.02 238.534 223.349 237.925Z" fill="white"/>
<path d="M224.347 235.642C222.852 235.794 220.36 236.099 219.363 235.642C218.365 235.185 216.538 235.338 216.538 235.338C216.284 235.311 216.061 235.306 215.85 235.31C215.554 236.136 215.188 236.766 216.704 237.621C218.864 238.838 222.021 238.534 223.351 237.925C224.679 237.317 224.347 235.642 224.347 235.642Z" fill="#263238" stroke="#263238" stroke-miterlimit="10" stroke-linecap="round" stroke-linejoin="round"/>
<path d="M214.876 199.261C214.876 199.261 215.209 193.324 214.71 187.844C214.212 182.364 213.381 180.233 211.055 174.905C208.728 169.578 208.23 172.165 206.236 173.383C204.242 174.601 200.753 179.32 198.925 180.842C197.097 182.364 193.774 183.734 189.62 184.952C185.466 186.17 179.152 189.214 176.328 190.127C173.504 191.041 167.189 191.041 165.196 185.713C163.202 180.385 169.183 173.992 171.509 171.404C173.836 168.816 175.995 165.62 180.482 161.358C184.968 157.096 186.297 154.66 186.297 154.66C184.635 148.418 171.011 153.29 169.848 155.573C168.684 157.856 161.872 161.205 160.875 164.706C159.878 168.208 162.205 168.512 164.032 171.861C165.86 175.21 161.873 176.732 160.045 178.559C158.217 180.385 150.906 181.146 147.251 184.343C147.242 184.352 147.235 184.362 147.225 184.37C150.043 191.125 156.611 195.541 163.036 196.977C169.848 198.5 171.343 199.87 178.986 196.825C186.629 193.781 192.611 191.041 199.756 184.191C206.9 177.341 208.396 179.624 208.396 179.624C208.396 179.624 208.063 190.736 211.22 196.064C212.284 197.859 213.211 199.599 213.998 201.226L214.876 199.261Z" fill="white"/>
<path d="M159.879 145.374C159.879 145.374 156.057 153.137 150.907 161.814C145.756 170.491 144.26 175.666 146.753 183.125C149.245 190.584 156.223 195.455 163.036 196.977C169.848 198.5 171.343 199.87 178.986 196.825C186.629 193.781 192.611 191.041 199.756 184.191C206.9 177.341 208.396 179.624 208.396 179.624C208.396 179.624 208.063 190.736 211.22 196.064C214.377 201.392 216.371 206.263 216.869 209.003C217.368 211.743 216.537 223.616 216.039 227.117C215.54 230.618 215.873 232.597 216.039 234.119C216.205 235.641 214.544 236.402 216.703 237.62C218.863 238.838 222.02 238.534 223.349 237.925C224.678 237.316 224.346 235.641 224.346 235.641C224.346 235.641 225.344 232.292 225.011 230.009C224.678 227.726 221.854 216.918 223.017 212.96C224.18 209.002 226.34 197.281 225.676 193.019C225.011 188.757 223.017 184.799 222.851 178.862C222.685 172.926 225.676 157.855 223.184 150.701C220.691 143.547 218.199 141.872 218.199 141.872C218.199 141.872 214.71 137.763 210.556 137.763C206.402 137.763 205.405 138.219 205.405 138.219C205.405 138.219 188.956 137.458 183.307 140.351C177.657 143.243 159.879 145.374 159.879 145.374Z" stroke="#263238" stroke-miterlimit="10" stroke-linecap="round" stroke-linejoin="round"/>
<path d="M173.504 187.083C173.504 187.083 174.501 199.413 174.334 205.654C174.168 211.895 175.497 215.091 176.827 218.44C178.156 221.789 177.491 229.857 177.159 233.053C176.827 236.25 176.993 238.99 176.993 239.903C176.993 240.817 175.995 241.426 177.159 241.882C178.322 242.339 183.638 242.187 185.134 242.034C186.629 241.882 187.294 241.729 187.294 239.903C187.294 238.076 187.128 233.205 186.131 229.4C185.134 225.594 183.306 221.484 184.303 218.44C185.3 215.395 188.291 206.566 188.291 203.37C188.291 200.173 187.293 192.41 187.626 191.04C187.959 189.67 191.613 185.256 189.786 180.232" fill="#92E3A9"/>
<path d="M173.504 187.083C173.504 187.083 174.501 199.413 174.334 205.654C174.168 211.895 175.497 215.091 176.827 218.44C178.156 221.789 177.491 229.857 177.159 233.053C176.827 236.25 176.993 238.99 176.993 239.903C176.993 240.817 175.995 241.426 177.159 241.882C178.322 242.339 183.638 242.187 185.134 242.034C186.629 241.882 187.294 241.729 187.294 239.903C187.294 238.076 187.128 233.205 186.131 229.4C185.134 225.594 183.306 221.484 184.303 218.44C185.3 215.395 188.291 206.566 188.291 203.37C188.291 200.173 187.293 192.41 187.626 191.04C187.959 189.67 191.613 185.256 189.786 180.232" stroke="#263238" stroke-miterlimit="10" stroke-linecap="round" stroke-linejoin="round"/>
<path d="M187.18 236.648C186.467 236.485 185.799 236.402 185.799 236.402C185.799 236.402 184.47 235.032 182.642 233.51C181.121 232.243 177.988 234.773 176.982 235.656C176.909 237.669 176.993 239.252 176.993 239.903C176.993 240.817 175.996 241.426 177.159 241.882C178.322 242.339 183.639 242.187 185.134 242.034C186.63 241.882 187.294 241.729 187.294 239.903C187.294 239.196 187.269 238.03 187.18 236.648Z" fill="white"/>
<path d="M173.504 187.083C173.504 187.083 174.501 199.413 174.334 205.654C174.168 211.895 175.497 215.091 176.827 218.44C178.156 221.789 177.491 229.857 177.159 233.053C176.827 236.25 176.993 238.99 176.993 239.903C176.993 240.817 175.995 241.426 177.159 241.882C178.322 242.339 183.638 242.187 185.134 242.034C186.629 241.882 187.294 241.729 187.294 239.903C187.294 238.076 187.128 233.205 186.131 229.4C185.134 225.594 183.306 221.484 184.303 218.44C185.3 215.395 188.291 206.566 188.291 203.37C188.291 200.173 187.293 192.41 187.626 191.04C187.959 189.67 191.613 185.256 189.786 180.232" stroke="#263238" stroke-miterlimit="10" stroke-linecap="round" stroke-linejoin="round"/>
<path d="M177.159 241.883C178.322 242.339 183.639 242.187 185.134 242.035C186.32 241.914 186.981 241.79 187.205 240.836C183.599 239.599 179.209 239.879 176.968 240.146C176.826 240.926 176.102 241.468 177.159 241.883Z" fill="#263238" stroke="#263238" stroke-miterlimit="10" stroke-linecap="round" stroke-linejoin="round"/>
<path d="M172.744 158.077C170.327 158.776 165.621 159.475 163.204 155.979C160.787 152.483 161.296 147.123 161.296 147.123C161.296 147.123 154.173 152.716 148.576 151.551C142.98 150.386 143.107 149.337 142.089 147.239C141.072 145.142 143.997 145.025 148.576 143.86C153.155 142.694 160.278 138.732 160.533 138.033C160.787 137.334 162.44 133.605 168.419 131.158C174.398 128.711 179.994 130.342 179.994 130.342C179.994 130.342 183.556 133.372 184.701 133.838C185.845 134.305 188.39 135.936 189.407 137.102C190.425 138.267 191.315 139.199 191.315 139.199C191.315 139.199 194.622 138.383 196.021 140.364C197.42 142.345 199.965 147.239 197.293 149.92C194.622 152.6 190.297 153.532 189.407 154.348C188.516 155.164 182.029 158.31 178.722 158.893" fill="white"/>
<path d="M172.744 158.077C170.327 158.776 165.621 159.475 163.204 155.979C160.787 152.483 161.296 147.123 161.296 147.123C161.296 147.123 154.173 152.716 148.576 151.551C142.98 150.386 143.107 149.337 142.089 147.239C141.072 145.142 143.997 145.025 148.576 143.86C153.155 142.694 160.278 138.732 160.533 138.033C160.787 137.334 162.44 133.605 168.419 131.158C174.398 128.711 179.994 130.342 179.994 130.342C179.994 130.342 183.556 133.372 184.701 133.838C185.845 134.305 188.39 135.936 189.407 137.102C190.425 138.267 191.315 139.199 191.315 139.199C191.315 139.199 194.622 138.383 196.021 140.364C197.42 142.345 199.965 147.239 197.293 149.92C194.622 152.6 190.297 153.532 189.407 154.348C188.516 155.164 182.029 158.31 178.722 158.893" stroke="#263238" stroke-miterlimit="10" stroke-linecap="round" stroke-linejoin="round"/>
<path d="M191.316 139.198C191.316 139.198 189.154 138.266 186.736 140.48C184.319 142.694 183.938 143.51 183.938 143.51" stroke="#263238" stroke-miterlimit="10" stroke-linecap="round" stroke-linejoin="round"/>
<path d="M182.92 147.588C182.92 147.588 183.175 149.802 186.864 147.821C190.552 145.841 192.842 144.908 194.75 145.257C196.658 145.607 197.803 147.238 197.803 147.238" stroke="#263238" stroke-miterlimit="10" stroke-linecap="round" stroke-linejoin="round"/>
<path d="M191.951 141.645C191.951 141.645 188.644 140.131 188.771 141.296C188.899 142.461 190.934 142.694 191.951 141.645Z" fill="#263238" stroke="#263238" stroke-miterlimit="10" stroke-linecap="round" stroke-linejoin="round"/>
<path d="M196.658 141.762C196.658 141.762 195.132 141.18 195.513 142.112C195.895 143.044 197.294 143.16 196.658 141.762Z" fill="#263238" stroke="#263238" stroke-miterlimit="10" stroke-linecap="round" stroke-linejoin="round"/>
<path d="M171.091 139.781C171.091 139.781 174.017 137.567 176.561 139.781" stroke="#263238" stroke-width="2" stroke-miterlimit="10" stroke-linecap="round" stroke-linejoin="round"/>
<path d="M96.6176 123.365C98.8299 137.989 110.367 137.12 110.367 137.12C110.367 137.12 116.214 143.49 120.481 145.228C124.748 146.966 129.015 148.414 132.65 148.558C136.284 148.703 137.706 149.716 140.393 152.467C143.08 155.218 144.186 158.259 149.876 157.68C155.565 157.1 154.617 154.06 154.617 154.06C154.617 154.06 157.461 154.929 162.202 153.336C166.943 151.744 169.314 148.269 170.736 144.36C172.158 140.451 167.417 137.555 165.205 132.922C162.993 128.289 157.778 113.52 158.409 110.191C159.042 106.861 160.464 107.44 159.042 103.965C157.619 100.49 149.401 92.0924 148.296 86.4458C147.189 80.7993 144.029 76.6008 137.707 75.7321C131.385 74.8634 126.803 77.0351 126.803 77.0351C126.803 77.0351 117.247 77.7824 113.767 77.1746C110.286 76.5674 105.313 75.2003 100.175 72.1637C95.037 69.1271 90.7277 69.5823 86.2524 73.9859" fill="#92E3A9"/>
<path d="M144.183 79.9848C144.183 79.9848 148.981 73.5604 149.351 78.2945C149.72 83.028 146.029 87.424 146.029 87.424L144.183 79.9848Z" fill="#263238" stroke="#263238" stroke-miterlimit="10" stroke-linecap="round" stroke-linejoin="round"/>
<path d="M170.737 144.359C172.159 140.45 167.418 137.555 165.206 132.921C162.993 128.288 157.778 113.52 158.41 110.19C159.042 106.86 160.464 107.439 159.042 103.964C157.62 100.489 149.402 92.0918 148.296 86.4453C147.19 80.7987 144.029 76.6002 137.707 75.7315C136.079 75.5078 134.569 75.4875 133.22 75.5784C132.968 75.6692 128.668 77.2692 128.457 80.7528C128.24 84.3414 127.586 94.9069 124.105 99.6918C120.624 104.476 111.484 114.046 105.174 109.261C98.8637 104.477 108.003 96.7017 99.2984 97.2996C90.5943 97.8975 95.164 121.222 98.6458 122.618C102.128 124.013 102.78 120.624 103.651 121.621C104.307 122.372 101.257 129.196 107.743 136.897C109.295 137.198 110.368 137.12 110.368 137.12C110.368 137.12 116.216 143.49 120.483 145.227C124.75 146.965 129.017 148.413 132.651 148.558C136.286 148.703 137.708 149.716 140.395 152.467C143.081 155.218 144.188 158.258 149.877 157.679C155.566 157.1 154.618 154.059 154.618 154.059C154.618 154.059 157.463 154.928 162.204 153.336C166.944 151.743 169.314 148.268 170.737 144.359Z" fill="white"/>
<path d="M96.6176 123.365C98.8299 137.989 110.367 137.12 110.367 137.12C110.367 137.12 116.214 143.49 120.481 145.228C124.748 146.966 129.015 148.414 132.65 148.558C136.284 148.703 137.706 149.716 140.393 152.467C143.08 155.218 144.186 158.259 149.876 157.68C155.565 157.1 154.617 154.06 154.617 154.06C154.617 154.06 157.461 154.929 162.202 153.336C166.943 151.744 169.314 148.269 170.736 144.36C172.158 140.451 167.417 137.555 165.205 132.922C162.993 128.289 157.778 113.52 158.409 110.191C159.042 106.861 160.464 107.44 159.042 103.965C157.619 100.49 149.401 92.0924 148.296 86.4458C147.189 80.7993 144.029 76.6008 137.707 75.7321C131.385 74.8634 126.803 77.0351 126.803 77.0351C126.803 77.0351 117.247 77.7824 113.767 77.1746C110.286 76.5674 105.313 75.2003 100.175 72.1637C95.037 69.1271 90.7277 69.5823 86.2524 73.9859" stroke="#263238" stroke-miterlimit="10" stroke-linecap="round" stroke-linejoin="round"/>
<path d="M147.19 107.728L148.612 110.479C148.612 110.479 147.348 111.203 143.238 110.624C139.129 110.046 137.549 107.873 137.549 107.873" stroke="#263238" stroke-miterlimit="10" stroke-linecap="round" stroke-linejoin="round"/>
<path d="M142.215 110.625C142.215 110.625 142.128 112.762 144.115 112.92C146.102 113.078 146.707 110.942 146.707 110.942L142.215 110.625Z" fill="#263238" stroke="#263238" stroke-miterlimit="10" stroke-linecap="round" stroke-linejoin="round"/>
<path d="M154.616 154.059C154.616 154.059 153.711 154.921 149.236 153.25C144.76 151.58 141.28 148.694 142.44 145.809L142.109 144.443C142.109 144.443 140.617 143.076 139.291 143.987" stroke="#263238" stroke-miterlimit="10" stroke-linecap="round" stroke-linejoin="round"/>
<path d="M166.014 146.405C166.014 146.405 168.65 142.537 166.163 141.626C163.677 140.715 162.351 144.055 163.512 146.485C164.672 148.915 165.517 148.228 166.014 146.405Z" fill="#263238" stroke="#263238" stroke-miterlimit="10" stroke-linecap="round" stroke-linejoin="round"/>
<path d="M148.905 112.251C148.905 112.251 148.242 116.503 144.098 117.111" stroke="#263238" stroke-miterlimit="10" stroke-linecap="round" stroke-linejoin="round"/>
<path d="M119.849 94.8432C119.849 94.2639 117.795 93.1058 114.95 91.3684C112.105 89.631 111.473 87.7486 112.105 80.6546C112.738 73.5606 113.054 69.3616 117.005 69.506C120.956 69.6509 127.119 73.1257 128.541 77.6142C129.964 82.1026 126.329 88.4729 126.329 88.4729C126.329 88.4729 125.855 89.1966 124.117 91.9477C122.377 94.6982 119.849 94.8432 119.849 94.8432Z" fill="#263238" stroke="#263238" stroke-miterlimit="10" stroke-linecap="round" stroke-linejoin="round"/>
</g>
<defs>
<filter id="filter0_d_359_4197" x="-4" y="-0.5" width="295.676" height="264.5" filterUnits="userSpaceOnUse" color-interpolation-filters="sRGB">
<feFlood flood-opacity="0" result="BackgroundImageFix"/>
<feColorMatrix in="SourceAlpha" type="matrix" values="0 0 0 0 0 0 0 0 0 0 0 0 0 0 0 0 0 0 127 0" result="hardAlpha"/>
<feOffset dy="4"/>
<feGaussianBlur stdDeviation="2"/>
<feComposite in2="hardAlpha" operator="out"/>
<feColorMatrix type="matrix" values="0 0 0 0 0 0 0 0 0 0 0 0 0 0 0 0 0 0 0.25 0"/>
<feBlend mode="normal" in2="BackgroundImageFix" result="effect1_dropShadow_359_4197"/>
<feBlend mode="normal" in="SourceGraphic" in2="effect1_dropShadow_359_4197" result="shape"/>
</filter>
</defs>
</svg>
