<svg width="80" height="80" viewBox="0 0 80 80" fill="none" xmlns="http://www.w3.org/2000/svg">
<path d="M53.9343 0C47.0215 0.00423879 40.393 2.76595 35.5049 7.67848C30.6169 12.591 27.8689 19.2526 27.8647 26.2C27.8647 27.748 28.0637 29.24 28.3025 30.616C28.3375 30.7892 28.3304 30.9683 28.2819 31.1382C28.2334 31.3081 28.1449 31.4638 28.0239 31.592L3.20796 56.536C1.15506 58.598 0.00114763 61.3951 0 64.312V73C0 76.864 3.1204 80 6.96517 80H16.9154C18.7627 80 20.5343 79.2625 21.8405 77.9498C23.1468 76.637 23.8806 74.8565 23.8806 73V68H30.8497C33.596 68 35.8249 65.76 35.8249 63V56H37.1423C37.5522 55.364 38.0577 54.8 38.6468 54.332L32.0995 47.748C30.7943 46.4354 30.0612 44.6557 30.0612 42.8C30.0612 40.9443 30.7943 39.1646 32.0995 37.852L40.0597 29.852C41.0941 28.8135 42.4273 28.1285 43.8707 27.894C45.314 27.6595 46.7941 27.8874 48.1014 28.5454C49.4086 29.2034 50.4767 30.2582 51.1543 31.5602C51.8319 32.8623 52.0846 34.3456 51.8766 35.8H59.9045C65.409 35.7993 70.7448 37.7097 75.0089 41.208C78.259 36.7353 80.0072 31.3384 80 25.8C80 11.276 68.2467 0 53.9303 0M59.9005 14.8C61.22 14.8 62.4854 15.3268 63.4184 16.2645C64.3514 17.2021 64.8756 18.4739 64.8756 19.8C64.8756 21.1261 64.3514 22.3979 63.4184 23.3355C62.4854 24.2732 61.22 24.8 59.9005 24.8C58.581 24.8 57.3155 24.2732 56.3825 23.3355C55.4495 22.3979 54.9254 21.1261 54.9254 19.8C54.9254 18.4739 55.4495 17.2021 56.3825 16.2645C57.3155 15.3268 58.581 14.8 59.9005 14.8ZM47.0846 36.92C47.3778 36.6454 47.6131 36.3141 47.7762 35.9462C47.9394 35.5782 48.0271 35.1809 48.0342 34.7781C48.0412 34.3753 47.9675 33.9752 47.8174 33.6016C47.6673 33.2281 47.4438 32.8887 47.1603 32.6038C46.8769 32.319 46.5392 32.0944 46.1675 31.9435C45.7958 31.7926 45.3977 31.7185 44.9969 31.7256C44.5961 31.7327 44.2008 31.8209 43.8347 31.9849C43.4685 32.1488 43.1389 32.3853 42.8657 32.68L34.9055 40.68C34.3465 41.2425 34.0325 42.005 34.0325 42.8C34.0325 43.595 34.3465 44.3575 34.9055 44.92L42.8657 52.92C43.1389 53.2147 43.4685 53.4512 43.8347 53.6151C44.2008 53.7791 44.5961 53.8673 44.9969 53.8744C45.3977 53.8815 45.7958 53.8074 46.1675 53.6565C46.5392 53.5056 46.8769 53.281 47.1603 52.9962C47.4438 52.7113 47.6673 52.3719 47.8174 51.9984C47.9675 51.6248 48.0412 51.2247 48.0342 50.8219C48.0271 50.4191 47.9394 50.0218 47.7762 49.6538C47.6131 49.2859 47.3778 48.9546 47.0846 48.68L44.2189 45.8H59.9045C62.6596 45.8 65.3529 46.6211 67.6437 48.1594C69.9346 49.6978 71.7201 51.8843 72.7744 54.4424C73.8288 57.0006 74.1046 59.8155 73.5671 62.5313C73.0296 65.247 71.7029 67.7416 69.7547 69.6995C67.8065 71.6574 65.3244 72.9908 62.6221 73.531C59.9199 74.0712 57.119 73.7939 54.5735 72.7343C52.0281 71.6747 49.8525 69.8803 48.3218 67.578C46.7911 65.2757 45.9741 62.5689 45.9741 59.8C45.9741 59.0043 45.6596 58.2413 45.0998 57.6787C44.54 57.1161 43.7807 56.8 42.989 56.8C42.1973 56.8 41.4381 57.1161 40.8783 57.6787C40.3185 58.2413 40.004 59.0043 40.004 59.8C40.004 63.7556 41.1711 67.6224 43.3578 70.9114C45.5445 74.2004 48.6525 76.7638 52.2889 78.2776C55.9252 79.7914 59.9265 80.1874 63.7869 79.4157C67.6472 78.644 71.1931 76.7392 73.9762 73.9421C76.7594 71.1451 78.6547 67.5814 79.4226 63.7018C80.1904 59.8222 79.7963 55.8009 78.2901 52.1463C76.7839 48.4918 74.2332 45.3682 70.9606 43.1706C67.688 40.973 63.8404 39.8 59.9045 39.8H44.2229L47.0846 36.92Z" fill="#519273"/>
</svg>
