<svg width="21" height="24" viewBox="0 0 21 24" fill="none" xmlns="http://www.w3.org/2000/svg">
<path d="M10.1263 18.55L10.0426 18.65L9.95057 18.55C5.97539 14.24 3.34759 11.39 3.34759 8.5C3.34759 6.5 4.60291 5 6.27667 5C7.56547 5 8.82079 6 9.26433 7.36H10.8209C11.2645 6 12.5198 5 13.8086 5C15.4824 5 16.7377 6.5 16.7377 8.5C16.7377 11.39 14.1099 14.24 10.1263 18.55ZM13.8086 3C12.3524 3 10.9548 3.81 10.0426 5.08C9.13043 3.81 7.73284 3 6.27667 3C3.69908 3 1.67383 5.41 1.67383 8.5C1.67383 12.27 4.51922 15.36 8.82915 20.03L10.0426 21.35L11.2561 20.03C15.566 15.36 18.4114 12.27 18.4114 8.5C18.4114 5.41 16.3862 3 13.8086 3Z" fill="white"/>
</svg>
