<svg width="100" height="100" viewBox="0 0 100 100" fill="none" xmlns="http://www.w3.org/2000/svg">
<path fill-rule="evenodd" clip-rule="evenodd" d="M0 25.7143C0 11.5127 12.592 0 28.125 0H90.625C95.8027 0 100 3.83756 100 8.57143V94.2857C100 97.4416 97.2018 100 93.75 100H21.875C10.8548 100 1.73787 92.5494 0.221528 82.8571H0V25.7143ZM90.625 68.5714H21.875C14.9714 68.5714 9.375 73.6882 9.375 80C9.375 86.3118 14.9714 91.4286 21.875 91.4286H90.625V68.5714ZM26.5625 25.7143C26.5625 23.3474 28.6612 21.4286 31.25 21.4286H75C77.5888 21.4286 79.6875 23.3474 79.6875 25.7143C79.6875 28.0812 77.5888 30 75 30H31.25C28.6612 30 26.5625 28.0812 26.5625 25.7143ZM31.25 38.5714C28.6612 38.5714 26.5625 40.4902 26.5625 42.8571C26.5625 45.2241 28.6612 47.1429 31.25 47.1429H62.5C65.0888 47.1429 67.1875 45.2241 67.1875 42.8571C67.1875 40.4902 65.0888 38.5714 62.5 38.5714H31.25Z" fill="white" fill-opacity="0.9"/>
</svg>
