<svg width="24" height="24" viewBox="0 0 24 24" fill="none" xmlns="http://www.w3.org/2000/svg">
<path d="M6.316 2.41309C6.58837 2.10101 6.55617 1.62723 6.2441 1.35487C5.93202 1.08251 5.45824 1.1147 5.18588 1.42678L3.89407 2.90695C3.16131 3.74655 2.74707 4.81707 2.72384 5.93122L2.66716 8.64888C2.65852 9.063 2.98723 9.40572 3.40136 9.41436C3.81548 9.42299 4.1582 9.09428 4.16683 8.68016L4.22351 5.9625C4.23941 5.20018 4.52283 4.46773 5.02419 3.89326L6.316 2.41309Z" fill="#FFFDF7"/>
<path fill-rule="evenodd" clip-rule="evenodd" d="M6.12421 7.70087C6.2631 5.48013 8.1047 3.75012 10.3298 3.75012H10.8872V3.00012C10.8872 2.44784 11.3349 2.00012 11.8872 2.00012C12.4395 2.00012 12.8872 2.44784 12.8872 3.00012V3.75012H13.4446C15.6697 3.75012 17.5113 5.48013 17.6502 7.70087L17.8712 11.2343C17.9554 12.5815 18.4077 13.8798 19.1788 14.9877C19.8755 15.9888 19.2552 17.3713 18.0443 17.5166L14.6372 17.9255V19.0001C14.6372 20.5189 13.406 21.7501 11.8872 21.7501C10.3684 21.7501 9.13719 20.5189 9.13719 19.0001V17.9255L5.73006 17.5166C4.51913 17.3713 3.89891 15.9888 4.59559 14.9877C5.36665 13.8798 5.81894 12.5815 5.9032 11.2343L6.12421 7.70087ZM10.3298 5.25012C8.89677 5.25012 7.71073 6.36429 7.62128 7.7945L7.40028 11.328C7.29888 12.9491 6.75463 14.5113 5.82678 15.8445C5.77643 15.9169 5.82125 16.0168 5.90878 16.0273L9.64644 16.4759C11.1349 16.6545 12.6394 16.6545 14.1279 16.4759L17.8656 16.0273C17.9531 16.0168 17.9979 15.9169 17.9476 15.8445C17.0197 14.5113 16.4755 12.9491 16.3741 11.328L16.1531 7.7945C16.0636 6.36429 14.8776 5.25012 13.4446 5.25012H10.3298ZM11.8872 20.2501C11.1968 20.2501 10.6372 19.6905 10.6372 19.0001V18.2501H13.1372V19.0001C13.1372 19.6905 12.5775 20.2501 11.8872 20.2501Z" fill="#FFFDF7"/>
<path d="M17.5303 1.35487C17.2182 1.62723 17.186 2.10101 17.4584 2.41309L18.7502 3.89326C19.2515 4.46773 19.535 5.20018 19.5509 5.9625L19.6075 8.68016C19.6162 9.09428 19.9589 9.42299 20.373 9.41436C20.7871 9.40572 21.1159 9.063 21.1072 8.64888L21.0505 5.93122C21.0273 4.81707 20.6131 3.74655 19.8803 2.90695L18.5885 1.42678C18.3161 1.1147 17.8424 1.08251 17.5303 1.35487Z" fill="#FFFDF7"/>
</svg>
