<svg width="320" height="218" viewBox="0 0 320 218" fill="none" xmlns="http://www.w3.org/2000/svg">
<g filter="url(#filter0_d_359_4029)">
<path d="M160 217.862C248.366 217.862 320 180.165 320 133.662C320 87.16 248.366 49.4624 160 49.4624C71.6344 49.4624 0 87.16 0 133.662C0 180.165 71.6344 217.862 160 217.862Z" fill="#325B44"/>
<path opacity="0.7" d="M160 217.862C248.366 217.862 320 180.165 320 133.662C320 87.16 248.366 49.4624 160 49.4624C71.6344 49.4624 0 87.16 0 133.662C0 180.165 71.6344 217.862 160 217.862Z" fill="white"/>
<path opacity="0.2" d="M256.858 134.712L249.968 130.92C249.935 130.902 249.9 130.886 249.867 130.867L258.433 126.154C280.966 113.754 280.966 93.6495 258.433 81.2498L248.172 75.6039C225.639 63.2035 189.096 63.1882 166.55 75.5688L71.9462 127.52C49.4006 139.9 49.3912 159.989 71.9247 172.388L82.3683 178.135C93.3768 184.194 107.727 187.283 122.155 187.422C123.98 190.527 127.124 193.449 131.608 195.917L138.622 199.776C153.754 208.104 178.289 208.104 193.422 199.776L256.859 164.868C271.991 156.54 271.991 143.04 256.858 134.712Z" fill="black" fill-opacity="0.6"/>
<path d="M101.84 150.252C95.7711 126.684 65.0037 110.948 45.1683 108.265C52.5569 112.039 55.9031 116.834 55.9031 116.834C55.9031 116.834 45.4574 111.082 26.3345 110.884C43.5241 115.181 51.9357 121.519 51.9357 121.519C51.9357 121.519 44.967 119.774 35.747 120.719C42.8566 122.172 57.5735 130.46 65.4793 135.21L101.84 150.252Z" fill="#437259"/>
<g opacity="0.15">
<path d="M101.84 150.252C95.7711 126.684 65.0037 110.948 45.1683 108.265C52.5569 112.039 55.9031 116.834 55.9031 116.834C55.9031 116.834 45.4574 111.082 26.3345 110.884C43.5241 115.181 51.9357 121.519 51.9357 121.519C51.9357 121.519 44.967 119.774 35.747 120.719C42.8566 122.172 57.5735 130.46 65.4793 135.21L101.84 150.252Z" fill="black"/>
</g>
<path d="M36.5521 127.405C28.3933 128.295 20.1447 131.532 13.7536 135.488C18.8252 134.429 26.5653 133.496 31.7737 134.276C19.6952 138.397 11.8692 142.149 4.10156 149.421C16.3001 143.94 24.9714 142.129 37.0378 142.119C32.3117 143.746 28.0344 146.685 23.8088 150.269C27.8158 148.956 35.6304 147.642 40.6979 147.39C37.3383 149.307 32.5351 153.631 31.6805 155.068C41.8906 151.182 60.1261 146.589 74.4713 150.251H101.84C101.84 150.251 91.1692 137.976 76.2289 132.37C64.9803 128.15 48.7587 126.074 36.5521 127.405Z" fill="#437259"/>
<path d="M215.343 136.043C223.989 111.256 258.59 97.4961 276.869 96.8599C269.752 99.7538 266.184 104.02 266.184 104.02C266.184 104.02 276.293 99.53 293.649 101.205C277.589 103.644 269.26 108.894 269.26 108.894C269.26 108.894 275.77 107.902 284.023 109.706C277.417 110.404 263.154 116.907 255.46 120.685L215.343 136.043Z" fill="#437259"/>
<g opacity="0.15">
<path d="M215.343 136.043C223.989 111.256 258.59 97.4961 276.869 96.8599C269.752 99.7538 266.184 104.02 266.184 104.02C266.184 104.02 276.293 99.53 293.649 101.205C277.589 103.644 269.26 108.894 269.26 108.894C269.26 108.894 275.77 107.902 284.023 109.706C277.417 110.404 263.154 116.907 255.46 120.685L215.343 136.043Z" fill="black"/>
</g>
<path d="M287.639 114.11C295.706 115.621 303.675 119.477 309.732 123.909C304.758 122.466 297.111 120.945 291.853 121.325C303.571 126.355 311.076 130.693 318.239 138.535C306.511 132.141 298.007 129.673 285.969 128.742C290.553 130.724 294.583 133.981 298.51 137.876C294.619 136.261 286.928 134.355 281.893 133.716C285.09 135.884 289.534 140.561 290.271 142.06C280.398 137.405 258.512 133.535 243.907 136.09L215.344 136.043C215.344 136.043 232.301 120.478 247.657 116.03C259.218 112.682 275.569 111.851 287.639 114.11Z" fill="#437259"/>
<path d="M73.7738 128.01C76.8946 135.219 73.592 139.095 71.0837 144.073C68.1629 149.87 67.0956 155.809 75.3711 159.246C83.6459 162.683 92.713 157.173 99.952 153.589C109.164 149.027 115.035 145.328 115.035 145.328L73.7738 128.01Z" fill="#E0E0E0"/>
<path opacity="0.1" d="M115.038 145.325C115.038 145.325 109.16 149.026 99.9497 153.586C92.7153 157.177 83.651 162.688 75.3701 159.244C72.562 158.081 70.8372 156.623 69.8887 154.989C78.4439 161.071 91.5501 153.713 94.5139 151.209C97.3079 148.849 93.3929 146.184 89.7328 147.753C86.0626 149.322 83.612 150.854 83.612 150.854C83.612 150.854 92.9381 139.565 93.3936 139.095C93.5002 138.984 94.6044 138.347 96.2413 137.442L115.038 145.325Z" fill="black"/>
<path d="M166.189 146.32C167.411 144.779 173.896 141.691 175.571 141.891C177.245 142.09 182.323 144.084 185.159 148.773C187.738 153.037 186.205 156.721 185.159 157.105C184.112 157.49 171.73 157.105 171.73 157.105L166.189 146.32Z" fill="#263238"/>
<path d="M191.792 132.528C189.587 133.446 188.269 138.037 186.593 142.073C184.916 146.108 189.192 149.864 189.192 149.864L192.507 145.273V151.117C192.507 151.117 197.934 152.814 202.605 150.727C207.277 148.64 208.042 145.771 208.334 143.913C208.769 141.147 207.745 137.099 207.28 136.705C203.018 135.184 191.792 132.528 191.792 132.528Z" fill="#263238"/>
<path d="M131.595 178.374C126.605 178.374 120.264 176.213 118.813 170.122C117.424 164.29 125.607 151.26 125.689 151.129C125.767 151.006 125.779 150.855 125.72 150.722C125.662 150.59 125.54 150.492 125.394 150.459C118.749 148.952 114.439 146.614 109.448 143.906C105.841 141.95 101.752 139.731 96.2005 137.559C87.5803 134.186 81.9009 126.862 80.2077 116.937C80.0065 115.756 79.8139 115.194 79.2659 115.194C78.7413 115.194 78.5615 115.74 78.2891 116.565C78.2402 116.714 78.1751 116.911 78.1087 117.09C78.0617 116.941 78.008 116.744 77.9483 116.487C77.2131 113.304 75.7862 110.321 74.4063 107.437C73.178 104.869 71.9081 102.214 71.1507 99.4545C68.0461 88.1449 74.0367 76.4944 79.6033 67.6081C80.0266 66.9317 80.5324 66.1395 81.0697 65.3901C82.5402 63.3396 83.9725 62.0224 85.5771 61.2449C87.7225 60.2059 90.1435 60.1164 92.7061 60.0217C93.5635 59.9904 94.4503 59.9572 95.3144 59.8855C100.31 59.4687 104.98 57.6867 109.281 55.8222C130.63 46.5727 150.895 33.7177 164.879 20.5545C175.814 10.2621 188.721 0.703212 208.947 0.453209C209.185 0.450651 209.42 0.44873 209.657 0.44873C233.636 0.44873 251.146 15.2475 255.922 25.7553C257.918 30.1467 259.709 38.1474 260 43.9704C260.517 54.2787 257.717 63.1132 253.034 74.0264C249.913 81.2982 249.539 86.2036 249.209 90.5317C249.157 91.2191 249.106 91.893 249.044 92.5605C248.59 97.5139 247.466 103.192 239.823 107.902C237.404 109.393 234.392 111.178 231.202 113.069C223.994 117.341 215.824 122.183 211.675 125.311C206.843 128.954 206.829 131.688 206.805 136.652C206.803 137.029 206.801 137.422 206.797 137.829C205.013 139.295 202.563 140.1 199.87 140.1C196.584 140.1 193.421 138.909 191.999 137.136C191.314 136.282 191.1 135.378 191.364 134.451C192.881 130.244 194.016 127.922 196.078 123.707L196.427 122.991C196.523 122.796 196.46 122.563 196.276 122.436C196.193 122.379 196.096 122.351 195.999 122.351C195.883 122.351 195.766 122.391 195.676 122.473C188.133 129.227 173.092 135.128 172.94 135.188C172.873 135.214 172.814 135.254 172.765 135.306C172.677 135.401 163.857 144.841 154.863 149.79C154.647 149.909 154.566 150.167 154.676 150.38C154.757 150.538 154.925 150.63 155.099 150.63C155.159 150.63 155.222 150.619 155.281 150.595C158.145 149.454 165.928 146.518 168.045 146.431C173.365 148.63 174.134 155.04 174.245 156.758C173.131 156.846 170.344 157.266 166.262 159.229C163.776 160.424 159.372 163.455 154.708 166.665C148.064 171.238 140.533 176.422 136.657 177.633C135.106 178.118 133.355 178.374 131.595 178.374Z" fill="#FAFAFA"/>
<path d="M209.657 0.899626C223.078 0.899626 233.392 5.60556 239.681 9.55382C247.008 14.1543 252.918 20.2777 255.489 25.9351C257.465 30.2836 259.24 38.2153 259.529 43.9929C260.041 54.2194 257.257 63.0014 252.598 73.8571C249.448 81.196 249.071 86.1398 248.739 90.5018C248.687 91.1866 248.636 91.8579 248.575 92.5229C248.13 97.3702 247.03 102.926 239.567 107.526C237.152 109.014 234.142 110.798 230.955 112.687C223.735 116.966 215.553 121.815 211.383 124.959C206.372 128.736 206.358 131.547 206.333 136.649C206.332 136.963 206.33 137.286 206.327 137.619C204.644 138.933 202.369 139.651 199.871 139.651C196.774 139.651 193.692 138.505 192.374 136.864C191.789 136.135 191.601 135.373 191.813 134.596C193.325 130.403 194.456 128.09 196.506 123.9L196.781 123.338C196.823 123.3 196.866 123.261 196.908 123.222C204.439 116.308 211.466 109.487 211.536 109.419C211.884 109.08 211.898 108.542 211.566 108.189C211.381 107.991 211.122 107.889 210.862 107.889C210.658 107.889 210.452 107.951 210.28 108.08C209.764 108.466 197.742 117.47 195.229 122.259C187.712 128.906 172.914 134.714 172.764 134.772C172.63 134.825 172.511 134.905 172.414 135.009C172.327 135.103 163.56 144.486 154.629 149.402C154.198 149.639 154.034 150.155 154.255 150.581C154.418 150.896 154.752 151.081 155.101 151.081C155.223 151.081 155.346 151.059 155.465 151.012C159.344 149.465 166.012 147.042 167.962 146.888C172.577 148.87 173.541 154.269 173.741 156.352C172.382 156.512 169.751 157.05 166.052 158.828C163.532 160.039 159.113 163.081 154.434 166.301C147.817 170.855 140.319 176.016 136.512 177.206C135.007 177.676 133.308 177.924 131.597 177.924C126.781 177.924 120.665 175.855 119.276 170.022C117.929 164.368 126.015 151.491 126.097 151.362C126.252 151.116 126.275 150.814 126.158 150.549C126.042 150.284 125.8 150.088 125.506 150.021C118.927 148.529 114.644 146.206 109.685 143.515C106.065 141.552 101.962 139.326 96.3819 137.142C87.9199 133.831 82.3419 126.629 80.6762 116.865C80.5152 115.92 80.3146 114.744 79.2681 114.744C78.7254 114.744 78.4154 115.062 78.1907 115.511C77.4038 112.613 76.1017 109.891 74.8385 107.25C73.6183 104.7 72.3571 102.063 71.6098 99.3401C68.5494 88.1923 74.4917 76.6493 80.0107 67.8391C80.4306 67.1684 80.9317 66.3832 81.4617 65.6447C82.8852 63.6594 84.2618 62.3889 85.7927 61.6466C87.8454 60.6517 90.2155 60.5647 92.7251 60.472C93.5885 60.44 94.4814 60.4074 95.3575 60.3339C100.424 59.9112 105.139 58.1126 109.479 56.2322C130.876 46.961 151.191 34.074 165.213 20.8749C172.37 14.1383 178.65 9.55191 184.977 6.44062C192.332 2.82356 200.176 1.01279 208.956 0.904095C209.189 0.901537 209.422 0.899626 209.657 0.899626ZM209.657 0C209.418 0 209.181 0.00127145 208.941 0.00446842C190.131 0.236569 177.482 8.05956 164.547 20.2349C149.42 34.4736 128.4 47.0447 109.086 55.4131C104.681 57.3217 100.093 59.0353 95.273 59.4375C91.9194 59.7175 88.3633 59.3901 85.3626 60.8441C83.4031 61.7936 81.9353 63.3857 80.6795 65.1364C80.1549 65.8672 79.6679 66.6262 79.1976 67.3774C73.0809 77.1429 67.6733 88.5651 70.6941 99.5684C72.3128 105.464 76.1084 110.616 77.4877 116.583C77.7157 117.57 77.915 117.924 78.0961 117.924C78.5543 117.924 78.8917 115.645 79.2667 115.645C79.4157 115.645 79.5713 116.004 79.7424 117.009C81.3363 126.354 86.5809 134.281 96.0216 137.976C109.08 143.086 113.656 148.26 125.286 150.897C125.286 150.897 116.906 164.144 118.353 170.221C119.773 176.184 125.827 178.824 131.596 178.824C133.412 178.824 135.199 178.563 136.805 178.061C143.514 175.965 160.521 162.494 166.476 159.632C171.418 157.256 174.371 157.186 174.704 157.186C174.726 157.186 174.736 157.186 174.736 157.186C174.736 157.186 174.733 148.622 168.138 145.98C165.637 145.98 155.099 150.181 155.099 150.181C164.267 145.136 173.119 135.605 173.119 135.605C173.119 135.605 188.306 129.691 196 122.802C198.25 118.198 210.86 108.788 210.86 108.788C210.86 108.788 203.86 115.588 196.25 122.574C196.168 122.651 196.083 122.727 195.999 122.802C193.677 127.552 192.524 129.844 190.907 134.334C189.939 137.736 194.743 140.551 199.869 140.551C202.495 140.551 205.204 139.812 207.266 138.035C207.335 132.13 206.9 129.485 211.967 125.665C217.917 121.18 232.165 113.158 240.078 108.281C247.992 103.405 249.068 97.4629 249.514 92.6009C249.96 87.739 249.884 82.5547 253.47 74.1979C257.732 64.2687 261.021 54.9304 260.471 43.95C260.166 37.863 258.277 29.8092 256.354 25.5777C251.524 14.9478 233.672 0 209.657 0Z" fill="#E6E6E6"/>
<path d="M260.529 46.1562C256.851 55.9294 250.006 64.5369 249.515 69.8228C248.929 76.1349 248.444 84.8351 249.515 92.6012C249.961 87.7393 249.885 82.555 253.472 74.1982C257.444 64.941 260.569 56.1954 260.529 46.1562Z" fill="#F0F0F0"/>
<path d="M217.783 77.1997C213.619 84.0738 213.052 92.9243 210.86 98.2255C208.668 103.527 197.067 114.23 189.333 119.014C181.599 123.798 172.208 123.798 168.617 122.482C165.026 121.165 166.441 129.147 165.181 134.765C163.921 140.384 161.468 144.18 155.099 150.18C164.266 145.135 173.119 135.604 173.119 135.604C173.119 135.604 188.641 129.558 196.25 122.573C196.736 122.127 197.219 121.682 197.699 121.239L210.86 108.788C215.174 106.413 217.506 100.901 217.783 96.1584C218.06 91.416 216.126 85.8878 217.783 77.1997Z" fill="#F0F0F0"/>
<path d="M240.079 108.281C243.133 106.399 245.161 104.358 246.535 102.283C243.902 104.799 240.774 106.834 237.33 107.957C234.829 108.772 232.166 109.136 229.757 110.174C224.656 112.371 221.377 117.259 216.546 119.953C213.7 121.539 210.443 122.294 207.244 123.053C205.365 123.498 203.258 124.123 202.421 125.787C201.326 127.966 203.063 130.511 202.799 132.914C202.49 135.733 199.388 137.664 196.418 137.811C194.672 137.897 192.97 137.519 191.31 136.963C193.533 140.563 202.288 142.328 207.266 138.036C207.335 132.131 206.9 129.486 211.967 125.666C217.918 121.18 232.166 113.158 240.079 108.281Z" fill="#F0F0F0"/>
<path d="M168.137 145.979C165.636 145.979 155.099 150.18 155.099 150.18C147.283 154.482 141.155 159.685 138.424 163.877C135.695 168.069 138.879 166.623 144.794 161.998C150.189 157.779 163.786 150.9 172.274 149.278C171.306 147.969 170.089 146.761 168.137 145.979Z" fill="#F0F0F0"/>
<path d="M177.154 65.0831C175.174 59.6118 171.05 55.3841 164.595 55.5683C159.443 55.7147 155.296 60.0799 153.877 64.8018C153.044 67.5729 152.934 70.5723 151.611 73.2022C149.817 76.7687 146.081 78.7559 143.44 81.6581C141.578 83.7055 140.294 86.3417 140.295 89.086C140.296 92.2382 141.805 94.0291 144.489 95.6545C151.143 99.6833 159.012 97.9525 165.55 94.6775C170.84 92.0272 173.824 88.1154 176.349 83.967C178.508 80.4209 179.415 71.3268 177.154 65.0831Z" fill="#455A64"/>
<path d="M197.206 1.23707C199.733 0.696786 201.649 7.37334 202.093 8.88039C203.233 12.7455 203.504 16.8345 200.998 20.3038C198.755 23.4093 194.944 25.2291 191.064 25.9644C187.184 26.6997 183.184 26.4727 179.235 26.2387C174.768 25.974 172.518 27.7406 169.669 30.7272C164.435 36.2132 153.809 36.9408 146.4 34.781C153.026 30.2016 159.25 25.2924 164.701 20.1619C174.708 10.7423 184.556 3.94683 197.206 1.23707Z" fill="#455A64"/>
<path d="M207.51 26.738C204.585 29.5942 201.874 32.2835 197.727 34.1218C194.561 35.5246 191.119 36.4095 188.209 38.2471C185.595 39.8981 184.61 43.5266 184.793 46.4032C185.484 57.2103 202.082 59.4085 210.566 57.5274C219.15 55.624 227.979 47.9813 230.87 40.0573C232.575 35.382 232.834 28.451 229.536 24.3569C226.969 21.1689 222.006 18.745 217.783 19.7405C214.792 20.4458 212.25 22.3077 210.026 24.3397C209.147 25.1421 208.32 25.9465 207.51 26.738Z" fill="#455A64"/>
<path d="M234.625 5.72705C235.667 11.8384 240.189 20.3896 241.728 22.4811C244.415 26.1333 247.682 29.3539 250.792 32.6877C254.206 36.3483 257.434 40.1655 260.476 44.1118C260.474 44.0575 260.474 44.0044 260.471 43.9494C260.167 37.8624 258.278 29.8086 256.355 25.577C253.417 19.1115 245.655 11.0519 234.625 5.72705Z" fill="#455A64"/>
<path d="M79.3511 67.3043C79.822 66.553 80.3091 65.794 80.833 65.0632C82.0881 63.3125 83.5559 61.7204 85.5161 60.7709C88.5168 59.317 92.0729 59.6443 95.4264 59.3643C100.246 58.9621 104.834 57.2485 109.239 55.3399C112.686 53.8463 116.19 52.2126 119.703 50.4658C120.682 51.1519 121.613 51.9019 122.464 52.7363C126.245 56.4454 128.422 62.3093 125.854 66.8656C123.209 71.5588 116.81 73.0563 113.178 77.1055C110.534 80.0538 109.634 84.0251 108.005 87.5795C107.723 88.1952 107.423 88.7643 107.105 89.2892C104.039 94.3506 99.314 95.2912 93.0081 94.2579C87.0242 93.2777 81.3093 91.0578 75.2972 90.2515C74.7847 90.1831 74.2494 90.1172 73.818 89.8436C73.3209 89.5283 73.0419 88.9893 72.7856 88.4753C72.2046 87.3103 71.6284 86.1402 71.083 84.9592C72.7044 78.7974 75.9157 72.7896 79.3511 67.3043Z" fill="#455A64"/>
<path d="M58.9753 87.1232C58.8646 85.9831 71.8776 86.6373 73.0381 86.8246C77.0048 87.4627 83.0585 88.7038 85.9786 91.5165C89.0739 94.4967 98.7568 98.9162 99.2626 103.082C100.287 111.514 101.935 107.581 107.04 117.04C112.376 126.927 130.708 143.859 130.708 143.859C130.708 143.859 127.42 148.531 125.45 151.562C119.612 150.696 111.672 149.915 103.842 147.755C96.9408 145.852 90.7818 144.115 82.1582 138.116C75.3015 133.347 73.1066 127.695 71.7535 121.212C70.3715 114.589 70.4896 111.616 67.4205 103.842C65.0612 97.8637 59.6542 94.1073 58.9753 87.1232Z" fill="#F0F0F0"/>
<path opacity="0.15" d="M99.2628 103.081C98.757 98.9157 89.0734 94.4962 85.9788 91.516C83.058 88.7039 77.0043 87.4629 73.0376 86.8241C71.8771 86.6374 58.8641 85.9833 58.9748 87.1227C59.6537 94.1074 65.0607 97.8639 67.42 103.842C69.8927 110.105 70.2966 113.254 71.0835 117.705C71.5631 115.672 72.3272 113.714 73.4603 111.933C74.2673 110.664 75.3131 109.45 76.7514 108.882C78.3936 108.234 80.28 108.53 81.9658 109.069C85.7534 110.28 89.0144 112.607 92.4652 114.525C95.3786 116.144 98.6416 117.506 101.965 117.557C100.573 112.55 99.8229 107.686 99.2628 103.081Z" fill="black"/>
<path d="M269.002 47.9976C266.939 51.6344 263.617 54.1914 259.618 55.6959C259.405 55.779 259.182 55.8621 258.959 55.9356C255.734 57.0341 252.325 57.5322 248.945 58.022C240.723 59.5079 232.027 59.6556 224.143 62.5176C221.054 63.6346 218.12 65.3053 216.018 67.7421C215.766 68.0189 215.534 68.3143 215.195 68.4991C214.866 68.6839 214.411 68.7203 214.12 68.4806C213.607 68.056 213.994 67.2529 214.43 66.7452C216.377 64.4652 219.215 62.5821 222.003 61.2624C229.044 57.9299 239.387 56.9887 242.738 56.5552C246.36 56.0936 249.943 55.4382 253.488 54.6166C255.822 54.0629 258.224 53.1671 260.218 51.8563C262.804 50.1395 264.712 47.7118 264.916 44.4074C265.38 36.8382 262.456 29.0849 256.015 24.8751C254.601 22.0413 252.296 18.9396 249.237 15.9121C253.982 16.9275 258.34 19.3642 261.875 22.558C265.904 26.2134 269.303 31.0037 270.553 36.1176C271.501 40.0134 271.201 44.0928 269.002 47.9976Z" fill="#263238"/>
<path d="M215.417 65.691C215.462 65.5861 213.88 65.5797 213.709 65.588C212.868 65.6289 212.001 65.831 211.194 66.0522C209.552 66.503 207.994 67.2319 206.621 68.2025C204.489 69.7089 202.812 71.7927 201.837 74.145C202.71 72.8081 203.904 71.6623 205.301 70.8215C204.053 72.3049 203.17 74.0645 202.741 75.9206C202.545 76.7672 202.442 77.6387 202.514 78.5031C202.58 79.2915 202.79 80.0633 203.05 80.8146C203.44 81.938 203.951 83.0384 204.723 83.9655C206.073 85.5864 208.093 86.5435 210.044 87.4496C209.492 87.1932 209.146 85.6311 209.036 85.1164C208.853 84.2545 208.844 83.3581 209.012 82.493C209.386 80.5767 210.917 79.6464 212.427 78.4789C215.415 76.1681 218.472 72.2032 217.649 68.3035C217.621 68.1725 217.064 66.7063 216.895 66.8233C216.379 67.182 215.132 66.3464 215.417 65.691Z" fill="#37474F"/>
<path d="M114.713 30.8611C118.328 30.1027 118.451 34.9756 118.322 37.184C118.156 40.0345 117.673 43.296 116.409 45.9137C115.152 48.5179 112.894 50.8875 110.544 52.6344C109.234 53.6082 107.799 54.44 106.623 55.5583C105.67 56.465 105.069 57.4867 105.088 58.7892C105.086 58.6568 102.316 56.2827 101.905 55.8153C101.383 55.2201 101.387 55.3294 100.917 54.6785C99.6526 52.9298 99.0744 50.7878 99.389 48.6772C100.04 44.3146 102.048 37.6418 114.713 30.8611Z" fill="#1F251B"/>
<path opacity="0.6" d="M114.713 30.8611C118.328 30.1027 118.451 34.9756 118.322 37.184C118.156 40.0345 117.673 43.296 116.409 45.9137C115.152 48.5179 112.894 50.8875 110.544 52.6344C109.234 53.6082 107.799 54.44 106.623 55.5583C105.67 56.465 105.069 57.4867 105.088 58.7892C105.086 58.6568 102.316 56.2827 101.905 55.8153C101.383 55.2201 101.387 55.3294 100.917 54.6785C99.6526 52.9298 99.0744 50.7878 99.389 48.6772C100.04 44.3146 102.048 37.6418 114.713 30.8611Z" fill="white"/>
<path opacity="0.2" d="M112.524 32.0942C108.496 37.7503 105.311 43.4186 106.782 49.3662C108.461 48.1277 109.822 46.5004 110.713 44.6647C110.789 47.2958 109.022 49.6149 107.299 51.6719C105.814 53.4449 104.241 55.3433 103.75 57.5172C102.979 56.8235 102.121 56.0594 101.906 55.8151C101.383 55.2205 101.388 55.3292 100.917 54.6783C99.6533 52.9295 99.0743 50.7876 99.3889 48.6769C100 44.579 101.811 38.4434 112.524 32.0942Z" fill="#1F251B"/>
<path d="M104.764 43.0517C104.93 42.6866 105.107 42.3215 105.292 41.9564C107.498 37.6424 110.718 33.7894 114.713 30.8604C110.396 32.1519 106.379 34.324 102.969 37.1552C100.225 39.434 95.8222 43.1661 96.4917 47.0562C97.0908 50.5326 99.5252 53.2967 101.905 55.8146C102.247 51.3286 102.892 47.1623 104.764 43.0517Z" fill="#37474F"/>
<path d="M88.2476 39.1816C94.642 34.0472 92.6832 25.3604 95.0298 26.2652C97.377 27.1699 102.525 34.0843 100.08 42.9802C97.4877 49.1932 86.2532 44.4227 88.2476 39.1816Z" fill="#263238"/>
<path d="M108.507 118.472C107.28 118.472 106.087 118.338 104.959 118.073C99.4633 116.78 93.9617 112.174 89.9441 108.812C89.2061 108.194 88.5246 107.623 87.9081 107.129C84.1145 104.084 79.2985 102.515 74.6402 100.998C67.3059 98.6094 60.3788 96.353 57.5505 88.7551C56.0344 84.6834 55.9606 80.0043 57.3372 75.2217L57.6659 74.0842C59.3605 68.228 60.9618 62.6966 60.4694 56.4126C60.2527 53.6498 60.3379 50.4266 62.608 47.47C65.3437 43.9067 70.2858 43.6983 75.0655 43.4962C76.5192 43.4348 77.8911 43.3766 79.1784 43.2238C81.4043 42.9591 83.3577 42.438 85.2475 41.9348C87.3774 41.367 89.3899 40.8306 91.3481 40.8306C94.6339 40.8306 99.5397 41.6848 104.187 49.0698C107.674 54.6121 108.427 62.1537 109.032 68.2139C109.311 71.0055 109.552 73.4167 110.02 75.1347C111.54 80.7249 118.081 90.0761 121.581 93.4118L121.668 93.4949L121.785 93.5307C125.166 94.548 126.923 97.4553 126.483 101.306L126.412 101.973C126.096 104.98 125.509 110.575 121.527 113.824C118.897 115.968 113.91 118.472 108.507 118.472Z" fill="#FAFAFA"/>
<path d="M91.3484 41.3101C94.5114 41.3101 99.2395 42.1401 103.754 49.316C107.183 54.7649 107.93 62.2471 108.531 68.2587C108.812 71.0707 109.054 73.4998 109.531 75.2549C111.072 80.9174 117.686 90.3792 121.224 93.7513L121.399 93.9176L121.633 93.9885C124.768 94.9323 126.393 97.6484 125.982 101.255C125.958 101.459 125.935 101.684 125.909 101.925C125.601 104.864 125.027 110.335 121.197 113.459C118.432 115.715 113.435 117.992 108.506 117.992C107.321 117.992 106.168 117.862 105.08 117.606C99.7023 116.342 94.2538 111.78 90.275 108.45C89.5445 107.838 88.8542 107.26 88.233 106.761C84.3676 103.659 79.5054 102.075 74.8035 100.544C67.5879 98.1932 60.7722 95.9739 58.0251 88.5946C56.5439 84.6163 56.4741 80.0357 57.8232 75.3483L58.1512 74.2121C59.8585 68.3143 61.4705 62.7433 60.9714 56.3762C60.6742 52.5839 61.2847 50.0046 63.0141 47.7533C65.6069 44.3767 70.4262 44.1727 75.0865 43.9758C76.5503 43.9137 77.9329 43.8556 79.2397 43.6995C81.5025 43.4304 83.4747 42.9048 85.3819 42.3965C87.479 41.8376 89.4593 41.3101 91.3484 41.3101ZM91.3484 40.3491C87.6131 40.3491 83.9034 42.1765 79.1163 42.7462C73.6154 43.4009 65.9417 42.3146 62.2017 47.1855C60.0215 50.0251 59.7075 53.1306 59.9672 56.4478C60.4844 63.0502 58.6577 68.8201 56.8518 75.0944C55.553 79.6073 55.4343 84.5057 57.0758 88.9162C61.8395 101.712 78.0208 99.8211 87.5843 107.496C91.5261 110.661 98.1883 116.975 104.839 118.539C106.055 118.825 107.286 118.953 108.507 118.953C113.871 118.953 119.035 116.489 121.853 114.188C126.315 110.548 126.667 104.138 126.984 101.358C127.399 97.72 125.88 94.2584 121.937 93.0717C118.41 89.7097 111.96 80.3528 110.508 75.0139C109.055 69.6743 109.794 57.0475 104.619 48.8224C100.002 41.484 95.0829 40.3491 91.3484 40.3491Z" fill="#E6E6E6"/>
<path d="M87.584 107.497C89.2122 108.804 91.3092 110.648 93.6733 112.473C94.7365 111.213 95.5952 109.731 96.3841 108.301C97.3441 106.561 98.3034 104.821 99.2634 103.081C99.8537 102.011 100.456 100.901 100.546 99.6954C100.631 98.5509 100.246 97.4268 99.8443 96.345C96.9322 88.5015 92.8911 81.0398 87.8698 74.2341C86.3209 72.135 84.6431 70.064 82.4407 68.5882C79.6641 66.727 76.2287 65.9277 73.4327 64.092C69.4284 61.4628 65.7898 55.3675 63.7424 51.1641C63.0065 49.6532 62.2632 47.1059 62.2015 47.1864C60.0212 50.026 59.7073 53.1315 59.9669 56.4487C60.4841 63.0511 58.6574 68.821 56.8515 75.0954C55.5528 79.6082 55.4334 84.5066 57.0756 88.9171C61.8386 101.712 78.0199 99.8207 87.584 107.497Z" fill="#455A64"/>
<path d="M108.83 100.416C104.984 100.55 99.2421 103.784 101.257 109.545C99.3333 108.672 99.2769 105.477 99.8129 103.589C100.744 100.307 102.229 100.551 99.7566 95.9087C97.2839 91.2667 91.0732 78.8701 91.0732 78.8701C91.0732 78.8701 98.8563 90.7321 101.224 94.2635C104.732 99.497 108.189 98.3243 108.83 100.416Z" fill="#37474F"/>
<path d="M104.839 118.539C111.4 120.083 118.392 117.012 121.853 114.188C126.314 110.548 126.666 104.138 126.984 101.357C127.399 97.7199 125.88 94.2582 121.937 93.0715C120.673 91.8668 119.034 89.8866 117.383 87.6027C116.613 87.5906 115.841 87.6034 115.072 87.6699C109.292 88.1705 101.026 91.6552 97.446 95.9468C94.2596 99.7666 93.851 102.951 93.0024 107.765C92.8541 108.604 92.6113 110.754 92.5737 111.609C96.1627 114.478 100.5 117.519 104.839 118.539Z" fill="#37474F"/>
<path d="M113.057 117.634C113.264 118.029 113.419 118.454 113.523 118.88C113.81 120.056 113.783 121.278 113.892 122.481C114.063 124.372 114.596 126.273 115.744 127.823C116.714 129.132 118.188 130.201 119.857 130.527C120.564 130.665 121.427 130.601 122.152 130.608C123.089 130.616 124.039 130.414 124.828 129.919C126.874 128.632 126.556 126.121 125.682 124.263C124.574 121.904 124.194 119.788 124.068 117.204C124.021 116.259 123.95 115.31 123.742 114.384C123.61 113.794 123.349 112.362 122.754 112.017C122.207 111.699 120.634 112.218 119.994 112.298C119.125 112.408 118.251 112.518 117.404 112.738C116.899 112.869 116.317 113.045 115.904 113.367C115.498 113.686 115.18 114.116 114.758 114.441C113.795 115.185 112.653 115.72 111.444 115.984C112.161 116.338 112.692 116.94 113.057 117.634Z" fill="#1F251B"/>
<path opacity="0.3" d="M113.057 117.634C113.264 118.029 113.419 118.454 113.523 118.88C113.81 120.056 113.783 121.278 113.892 122.481C114.063 124.372 114.596 126.273 115.744 127.823C116.714 129.132 118.188 130.201 119.857 130.527C120.564 130.665 121.427 130.601 122.152 130.608C123.089 130.616 124.039 130.414 124.828 129.919C126.874 128.632 126.556 126.121 125.682 124.263C124.574 121.904 124.194 119.788 124.068 117.204C124.021 116.259 123.95 115.31 123.742 114.384C123.61 113.794 123.349 112.362 122.754 112.017C122.207 111.699 120.634 112.218 119.994 112.298C119.125 112.408 118.251 112.518 117.404 112.738C116.899 112.869 116.317 113.045 115.904 113.367C115.498 113.686 115.18 114.116 114.758 114.441C113.795 115.185 112.653 115.72 111.444 115.984C112.161 116.338 112.692 116.94 113.057 117.634Z" fill="white"/>
<path d="M123.309 128.943C122.005 129.322 121.499 129.598 120.156 129.095C119.142 128.715 118.286 127.974 117.704 127.105C116.861 125.849 116.527 124.342 116.38 122.858C116.233 121.373 116.259 119.875 116.063 118.395C115.976 117.745 115.848 117.079 116.003 116.441C116.311 115.167 117.989 114.553 119.141 114.2C120.546 113.771 122.13 113.287 122.943 112.176C122.884 112.112 122.823 112.055 122.755 112.016C122.208 111.698 120.636 112.217 119.996 112.297C119.126 112.407 118.253 112.517 117.406 112.737C116.9 112.868 116.318 113.044 115.906 113.367C115.499 113.685 115.182 114.115 114.76 114.44C113.796 115.184 112.655 115.719 111.446 115.983C112.162 116.337 112.693 116.939 113.058 117.634C113.265 118.029 113.419 118.454 113.523 118.88C113.811 120.056 113.784 121.278 113.893 122.48C114.064 124.371 114.597 126.272 115.746 127.822C116.716 129.131 118.189 130.2 119.858 130.526C120.565 130.664 121.429 130.6 122.154 130.607C123.09 130.615 124.04 130.413 124.829 129.918C125.564 129.456 125.99 128.835 126.199 128.144C125.359 128.824 124.425 128.619 123.309 128.943Z" fill="#1F251B"/>
<path d="M121.919 125.274C121.675 124.225 121.498 123.161 121.301 122.104C120.915 120.029 120.359 118.006 119.296 116.15C119.267 116.1 119.229 116.178 119.245 116.211C120.175 118.204 120.359 120.43 120.679 122.563C120.974 124.53 121.248 126.684 122.429 128.366C122.564 128.558 122.771 128.43 122.728 128.228C122.515 127.231 122.15 126.271 121.919 125.274Z" fill="#1F251B"/>
<path d="M123.774 110.585C122.688 111.21 121.41 111.448 120.156 111.633C118.903 111.818 117.624 111.964 116.455 112.433C115.399 112.857 114.742 113.399 113.699 114.065C113.011 114.504 111.745 114.964 110.931 115.101C107.616 115.659 104.452 115.304 101.854 112.915C102.955 114.564 104.037 115.34 106.151 115.919C108.265 116.498 111.535 116.509 113.555 115.681C114.789 115.175 115.797 114.489 117.031 113.984C117.788 113.675 118.746 113.545 119.518 113.466C121.886 113.221 123.537 112.199 124.607 110.821C124.91 110.27 125.174 109.706 125.4 109.136C124.933 109.738 124.326 110.267 123.774 110.585Z" fill="#263238"/>
<path d="M112.254 105.138C112.585 105.945 112.684 106.859 112.128 107.506C110.871 108.965 108.632 108.177 107.892 106.683C107.366 105.62 107.552 104.35 107.115 103.252C106.662 102.111 105.608 101.306 104.611 100.543C104.492 100.452 104.365 100.289 104.469 100.182C104.523 100.126 104.614 100.125 104.694 100.129C105.989 100.187 107.074 100.403 108.224 101.002C109.804 101.825 111.137 103.083 111.99 104.595C112.087 104.768 112.177 104.95 112.254 105.138Z" fill="#263238"/>
<path d="M121.538 101.497C121.555 102.366 122.313 105.067 123.808 103.929C124.878 103.115 124.135 101.216 123.767 100.247C123.401 99.2821 123.298 98.2277 123.471 97.2156C123.546 96.7769 123.572 95.5819 122.908 96.4956C122.009 97.7335 121.655 99.2629 121.558 100.765C121.542 101.007 121.534 101.252 121.538 101.497Z" fill="#263238"/>
<path d="M79.6282 73.4435C78.4314 72.925 77.1253 72.6194 75.8091 72.5714C75.0571 72.5439 74.336 72.5829 73.6135 72.7677C73.0325 72.916 72.3691 73.1756 71.9062 73.5535C71.8304 73.6155 71.7539 73.8713 71.8807 73.8617C72.8353 73.7856 73.4498 73.8157 74.0502 73.8336C74.8384 73.8566 75.4053 73.8988 76.268 74.01C77.4004 74.1565 78.0913 74.2882 79.162 74.776C80.4037 75.3413 81.0839 76.0344 81.7461 76.5766C82.8758 77.5011 83.0334 77.6821 83.8666 78.3547C83.9303 78.4065 84.0121 78.2563 84.0048 78.2115C83.6935 76.1488 81.516 74.2613 79.6282 73.4435Z" fill="black"/>
<path d="M80.3028 76.5344C80.3028 78.1412 78.9363 79.4436 77.2498 79.4436C75.564 79.4436 74.1968 78.1412 74.1968 76.5344C74.1968 74.9276 75.564 73.6245 77.2498 73.6245C78.9363 73.6245 80.3028 74.9276 80.3028 76.5344Z" fill="black"/>
<path d="M70.6868 42.567C63.0298 39.3655 62.3315 30.5054 60.3484 32.0061C58.3654 33.5068 55.4788 41.526 60.4645 49.3995C64.7941 54.6605 74.155 47.0562 70.6868 42.567Z" fill="#263238"/>
<path d="M36.1785 40.9263C32.0636 41.8419 34.4538 46.918 35.7277 49.1323C37.3713 51.9897 39.5535 55.1221 42.2074 57.2251C44.8478 59.3172 48.3972 60.6983 51.7192 61.3939C53.5714 61.782 55.4786 61.9662 57.2671 62.5659C58.2378 62.8914 59.0723 63.3441 59.7143 64.0129C60.1067 64.4214 60.799 64.3294 61.0063 63.8121C61.4819 62.626 62.1474 61.0333 62.2595 60.6164C62.4909 59.7583 62.5419 59.8734 62.6901 58.9815C63.0886 56.5869 62.5781 54.1093 61.164 52.0837C58.2404 47.8963 52.7255 41.9666 36.1785 40.9263Z" fill="#1F251B"/>
<path opacity="0.6" d="M36.1785 40.9263C32.0636 41.8419 34.4538 46.918 35.7277 49.1323C37.3713 51.9897 39.5535 55.1221 42.2074 57.2251C44.8478 59.3172 48.3972 60.6983 51.7192 61.3939C53.5714 61.782 55.4786 61.9662 57.2671 62.5659C58.2378 62.8914 59.0723 63.3441 59.7143 64.0129C60.1067 64.4214 60.799 64.3294 61.0063 63.8121C61.4819 62.626 62.1474 61.0333 62.2595 60.6164C62.4909 59.7583 62.5419 59.8734 62.6901 58.9815C63.0886 56.5869 62.5781 54.1093 61.164 52.0837C58.2404 47.8963 52.7255 41.9666 36.1785 40.9263Z" fill="white"/>
<path opacity="0.2" d="M39.0703 41.1694C46.1403 45.1043 52.3482 49.4477 53.9059 56.2636C51.5372 55.7758 49.2953 54.7387 47.4283 53.2668C48.7096 56.0117 51.727 57.5712 54.564 58.8807C57.0099 60.0092 59.6094 61.2272 61.2389 63.2356C61.6749 62.1588 62.164 60.9696 62.2592 60.6172C62.4907 59.7592 62.5417 59.8743 62.6899 58.9823C63.0884 56.5878 62.5779 54.1101 61.1638 52.0845C58.418 48.1503 53.3834 42.681 39.0703 41.1694Z" fill="#1F251B"/>
<path d="M52.723 48.8133C52.3627 48.5153 51.9931 48.2219 51.6127 47.9335C47.1134 44.5255 41.8071 42.0683 36.1787 40.9264C41.2919 40.2314 46.5512 40.583 51.5255 41.8983C55.5291 42.9571 61.9913 44.7346 63.3108 49.0556C64.4895 52.9169 63.4222 56.9234 62.271 60.6332C59.6018 56.1734 56.7742 52.1676 52.723 48.8133Z" fill="#455A64"/>
<path d="M74.0708 54.004C74.5987 54.3953 75.3709 54.5392 75.9357 54.2009C76.4858 53.8716 76.7193 53.1836 77.2841 52.8767C78.3756 54.8192 80.2962 56.4477 82.5858 56.754C84.8753 57.0603 87.4312 55.7393 87.9719 53.5967C89.3069 54.394 90.8451 54.9528 92.4196 54.9177C93.9947 54.8825 95.6001 54.1811 96.4353 52.9081C97.5227 51.2501 97.1188 49.1113 96.6774 47.2015C97.8447 47.7609 99.2675 46.5595 99.3078 45.3146C99.3487 44.0697 98.4894 42.9706 97.5831 42.0735C93.7593 38.2883 88.1759 37.2154 82.8809 36.9277C78.1428 36.67 71.4941 37.67 67.9219 40.9898C68.7738 41.61 69.1703 41.8702 70.0223 42.273C70.7602 43.2129 71.3586 44.8389 71.641 46.009C72.1448 48.0998 72.2226 50.2865 72.9653 52.3121C73.192 52.9298 73.4952 53.5494 74.0238 53.9675C74.0393 53.9803 74.0547 53.9925 74.0708 54.004Z" fill="#1F251B"/>
<path opacity="0.6" d="M74.0703 54.0045C74.5983 54.3958 75.3704 54.5396 75.9352 54.2014C76.4853 53.8721 76.7188 53.1841 77.283 52.8772C78.3751 54.8197 80.295 56.4482 82.5846 56.7545C84.8742 57.0608 87.4301 55.7398 87.9708 53.5972C89.3058 54.3945 90.844 54.9533 92.4185 54.9182C93.9936 54.883 95.5989 54.1816 96.4341 52.9086C97.5215 51.2506 97.1177 49.1118 96.6763 47.202C97.8435 47.7614 99.2664 46.56 99.3073 45.3151C99.3482 44.0702 98.4889 42.9711 97.5826 42.074C93.7588 38.2888 88.1754 37.2159 82.8804 36.9282C78.1423 36.6705 71.4936 37.6705 67.9214 40.9902C68.7734 41.6105 69.1698 41.8713 70.0218 42.2735C70.7604 43.2134 71.3581 44.8394 71.6405 46.0089C72.1443 48.0997 72.2221 50.2864 72.9648 52.312C73.1915 52.9296 73.4947 53.5492 74.0233 53.9674C74.0388 53.9808 74.0542 53.993 74.0703 54.0045Z" fill="white"/>
<path opacity="0.2" d="M82.5397 55.7726C80.6808 54.7253 79.8228 52.6364 79.0915 50.6996C78.1376 51.2604 76.9757 51.4938 75.8655 51.3467C75.4657 51.2936 75.0377 51.1709 74.8102 50.8525C74.5721 50.5193 74.6244 50.0762 74.6962 49.6785C74.9572 48.2354 75.3489 46.8019 75.365 45.337C75.3811 43.8722 74.9652 42.3261 73.8496 41.3191C72.954 40.5109 71.5708 39.8881 71.3702 38.8037C70.0647 39.3811 68.88 40.0998 67.9214 40.9911C68.7734 41.6113 69.1698 41.8715 70.0218 42.2743C70.7604 43.2143 71.3588 44.8402 71.6405 46.0103C72.1443 48.1012 72.2221 50.2879 72.9648 52.3135C73.1915 52.9311 73.4954 53.5507 74.0233 53.9689C74.0388 53.981 74.0542 53.9932 74.0703 54.0047C74.5983 54.396 75.3704 54.5398 75.9352 54.2016C76.486 53.8723 76.7188 53.1843 77.2836 52.8774C78.3758 54.8199 80.2957 56.4484 82.5853 56.7547C83.5379 56.882 84.5287 56.7151 85.4088 56.3372C84.418 56.4344 83.3977 56.256 82.5397 55.7726Z" fill="#1F251B"/>
<path d="M140.972 163.04C142.998 167.719 140.854 170.235 139.226 173.466C137.33 177.228 136.637 181.083 142.009 183.313C147.38 185.544 153.265 181.968 157.963 179.641C163.943 176.681 167.753 174.279 167.753 174.279L140.972 163.04Z" fill="#E0E0E0"/>
<path opacity="0.1" d="M167.756 174.278C167.756 174.278 163.94 176.68 157.963 179.64C153.267 181.97 147.383 185.547 142.009 183.312C140.187 182.557 139.068 181.611 138.451 180.55C144.004 184.498 152.511 179.722 154.435 178.097C156.248 176.565 153.707 174.835 151.331 175.853C148.949 176.872 147.359 177.866 147.359 177.866C147.359 177.866 153.412 170.539 153.707 170.233C153.777 170.161 154.493 169.748 155.556 169.161L167.756 174.278Z" fill="black"/>
<path d="M243.373 84.5181C246.527 83.6095 250.058 83.9977 252.955 85.4836C256.073 87.0834 258.203 89.7139 259.391 92.8737C260.284 95.2478 260.686 97.7593 261.084 100.253C262.285 106.303 262.409 112.709 264.724 118.515C265.631 120.789 266.988 122.95 268.958 124.498C269.187 124.677 269.428 124.854 269.576 125.098C269.723 125.342 269.753 125.677 269.559 125.89C269.214 126.272 268.563 125.986 268.153 125.668C266.304 124.23 264.778 122.139 263.71 120.09C261.007 114.905 260.243 107.289 259.893 104.818C259.518 102.156 258.992 99.5132 258.319 96.9051C257.299 92.9524 254.797 88.7548 250.047 88.49C248.257 88.3903 246.475 88.8219 244.801 89.4357C243.458 89.9287 242.023 90.6058 240.665 89.9786C239.865 89.609 237.971 88.3782 238.261 87.3353C238.64 85.9785 241.383 85.2183 242.555 84.786C242.825 84.6869 243.097 84.5974 243.373 84.5181Z" fill="#263238"/>
<path d="M267.299 124.938C266.987 126.212 266.956 126.652 266.959 127.417C266.963 128.306 267.139 129.196 267.471 130.028C268.08 131.554 269.275 132.885 270.823 133.585C269.914 132.916 269.457 131.843 269.041 130.822C269.992 131.967 271.347 132.777 272.805 133.226C274.861 133.859 277.206 133.875 279.279 133.31C279.889 133.143 280.477 132.911 281.051 132.653C282.822 131.856 284.594 130.648 285.094 128.843C283.536 130.157 280.972 130.21 279.356 128.962C278.694 128.45 278.202 127.771 277.664 127.139C275.791 124.939 272.578 122.688 269.417 123.295C269.311 123.315 268.122 123.725 268.218 123.849C268.507 124.229 267.83 125.148 267.299 124.938Z" fill="#37474F"/>
<path d="M197.143 174.448C197.868 173.533 201.719 171.7 202.713 171.818C203.707 171.936 206.723 173.12 208.406 175.904C209.938 178.436 209.028 180.623 208.406 180.851C207.785 181.08 200.434 180.851 200.434 180.851L197.143 174.448Z" fill="#263238"/>
<path d="M212.344 166.26C211.036 166.805 210.253 169.531 209.257 171.927C208.262 174.322 210.801 176.553 210.801 176.553L212.769 173.826V177.296C212.769 177.296 215.991 178.304 218.765 177.065C221.538 175.826 221.993 174.122 222.167 173.019C222.425 171.377 221.817 168.974 221.541 168.74C219.011 167.837 212.344 166.26 212.344 166.26Z" fill="#263238"/>
<path d="M176.604 193.48C173.642 193.48 169.877 192.197 169.015 188.58C168.61 186.88 169.562 183.744 171.695 179.749C171.739 179.667 171.736 179.569 171.685 179.49C170.467 177.577 168.941 176.132 167.149 175.194C165.77 174.472 164.178 173.619 162.746 172.634C159.846 171.067 157.359 169.401 154.405 167.047C151.549 164.772 148.471 162.551 145.004 162.551C143.33 162.551 141.713 163.059 140.062 164.104C139.726 164.316 139.455 164.488 139.166 164.508C139.163 164.508 139.159 164.508 139.156 164.508C138.87 164.509 138.634 164.419 138.372 164.313C134.252 162.634 130.37 160.14 127.146 157.102L126.96 156.927C125.486 155.539 123.815 153.967 122.876 152.289C122.091 150.885 121.907 148.872 121.746 147.095C121.705 146.643 121.665 146.204 121.618 145.793C121.445 144.316 121.148 142.886 120.862 141.505C120.333 138.96 119.834 136.556 120.04 133.859C120.09 133.206 120.169 132.524 120.536 131.98C120.936 131.388 121.626 131.029 122.419 130.654C123.101 130.333 123.785 130.015 124.47 129.698C127.558 128.266 130.751 126.786 133.631 124.896C136.181 123.223 138.509 121.212 140.76 119.267C142.489 117.774 144.277 116.23 146.148 114.854C151.594 110.85 158.007 108.908 164.208 107.029C170.501 105.122 177.008 103.151 182.54 99.0279C185.917 96.5112 188.983 93.5444 191.948 90.6755C194.83 87.8871 197.809 85.0041 201.07 82.5386C207.329 77.8058 214.264 75.3594 221.683 75.2674L222.157 75.2642C238.532 75.2642 246.524 85.5041 248.583 88.6422C251.224 92.6659 252.678 95.7651 253.295 101.541C253.962 107.759 253.764 113.014 252.655 118.578C252.081 123.207 250.418 127.535 248.706 131.524C246.853 135.842 246.631 138.755 246.435 141.325C246.404 141.733 246.373 142.133 246.337 142.529C246.067 145.47 245.4 148.841 240.862 151.638C239.426 152.523 237.637 153.583 235.744 154.705C231.464 157.242 226.613 160.116 224.149 161.974C221.28 164.137 221.272 165.76 221.257 168.707L221.252 169.407C220.193 170.277 218.739 170.755 217.14 170.755H217.14C215.19 170.755 213.311 170.047 212.466 168.995C212.06 168.488 211.932 167.951 212.088 167.401C212.989 164.902 213.664 163.523 214.889 161.02L215.096 160.597C215.153 160.481 215.115 160.343 215.007 160.267C214.958 160.233 214.9 160.217 214.842 160.217C214.772 160.217 214.704 160.241 214.65 160.289C210.186 164.289 201.241 167.804 201.151 167.838C201.111 167.854 201.076 167.877 201.048 167.909C200.995 167.965 195.757 173.57 190.418 176.508C190.29 176.578 190.24 176.732 190.307 176.858C190.355 176.952 190.454 177.006 190.558 177.006C190.594 177.006 190.63 176.999 190.666 176.985C192.366 176.308 196.988 174.565 198.245 174.513C201.403 175.818 201.86 179.624 201.925 180.644C201.264 180.696 199.61 180.946 197.186 182.111C195.71 182.82 193.094 184.62 190.326 186.526C186.381 189.241 181.909 192.319 179.608 193.038C178.689 193.328 177.65 193.48 176.604 193.48Z" fill="#FAFAFA"/>
<path d="M222.157 75.5326C238.388 75.5326 246.305 85.6759 248.345 88.7853C251.019 92.8589 252.4 95.811 253.017 101.569C253.68 107.762 253.483 112.993 252.379 118.53C252.377 118.542 252.375 118.555 252.373 118.567C251.807 123.146 250.151 127.453 248.447 131.425C246.577 135.781 246.353 138.717 246.156 141.306C246.125 141.713 246.094 142.112 246.058 142.507C245.794 145.385 245.142 148.684 240.71 151.415C239.276 152.298 237.489 153.357 235.598 154.479C231.311 157.019 226.452 159.899 223.976 161.766C221.001 164.008 220.993 165.677 220.978 168.706C220.977 168.892 220.976 169.084 220.975 169.282C219.975 170.062 218.625 170.489 217.141 170.489C215.303 170.489 213.473 169.809 212.69 168.834C212.344 168.401 212.231 167.949 212.357 167.488C213.255 164.998 213.927 163.624 215.144 161.137L215.352 160.711C215.466 160.479 215.39 160.202 215.172 160.052C215.074 159.984 214.959 159.951 214.844 159.951C214.705 159.951 214.567 160 214.459 160.096C210.034 164.061 201.136 167.557 201.046 167.592C200.967 167.623 200.896 167.671 200.839 167.733C200.786 167.789 195.578 173.362 190.279 176.278C190.023 176.419 189.925 176.726 190.057 176.978C190.154 177.166 190.353 177.276 190.559 177.276C190.632 177.276 190.705 177.262 190.775 177.234C193.078 176.316 197.037 174.877 198.195 174.786C200.935 175.962 201.507 179.168 201.626 180.405C200.819 180.5 199.257 180.82 197.061 181.875C195.565 182.595 192.941 184.4 190.163 186.313C186.234 189.016 181.782 192.081 179.523 192.787C178.629 193.066 177.62 193.214 176.604 193.214C173.745 193.214 170.113 191.985 169.288 188.522C168.898 186.881 169.841 183.81 171.945 179.871C172.033 179.707 172.025 179.51 171.925 179.352C170.68 177.399 169.119 175.921 167.285 174.96C165.912 174.242 164.329 173.393 162.911 172.417C162.894 172.406 162.876 172.396 162.859 172.386C160 170.843 157.525 169.185 154.585 166.843C151.69 164.536 148.565 162.284 145.005 162.284C143.273 162.284 141.605 162.807 139.906 163.881L139.858 163.912C139.602 164.074 139.36 164.227 139.144 164.243L139.106 164.244C138.927 164.244 138.717 164.164 138.481 164.068C134.393 162.401 130.541 159.928 127.341 156.912L127.154 156.736C125.694 155.362 124.04 153.805 123.122 152.163C122.364 150.808 122.183 148.823 122.024 147.072C121.982 146.618 121.942 146.178 121.894 145.764C121.72 144.275 121.423 142.84 121.134 141.453C120.61 138.927 120.114 136.54 120.317 133.879C120.364 133.261 120.438 132.616 120.769 132.126C121.131 131.59 121.785 131.252 122.541 130.895C123.221 130.574 123.905 130.257 124.588 129.941C127.686 128.504 130.889 127.019 133.787 125.118C136.351 123.434 138.687 121.418 140.944 119.468C142.669 117.978 144.453 116.437 146.316 115.068C151.723 111.093 158.111 109.157 164.29 107.285C170.607 105.371 177.138 103.392 182.709 99.2407C186.101 96.7132 189.174 93.74 192.145 90.8646C195.02 88.0826 197.994 85.2053 201.241 82.7501C207.45 78.055 214.328 75.6279 221.684 75.5371C221.844 75.5332 222 75.5326 222.157 75.5326ZM222.157 74.998C221.998 74.998 221.839 74.9987 221.679 75.0012C213.929 75.0972 206.93 77.766 200.896 82.33C194.262 87.346 189.008 93.8698 182.366 98.8187C171.427 106.971 156.99 106.546 145.976 114.644C141.659 117.818 137.961 121.73 133.471 124.677C129.982 126.967 126.09 128.624 122.294 130.416C121.541 130.771 120.754 131.162 120.3 131.836C119.904 132.423 119.813 133.145 119.76 133.84C119.435 138.092 120.859 141.718 121.338 145.823C121.578 147.876 121.614 150.602 122.628 152.415C123.628 154.201 125.45 155.88 126.948 157.292C130.2 160.357 134.054 162.844 138.261 164.559C138.531 164.669 138.814 164.778 139.106 164.778C139.132 164.778 139.158 164.777 139.185 164.775C139.566 164.749 139.897 164.528 140.215 164.327C141.898 163.263 143.484 162.819 145.003 162.819C148.29 162.819 151.264 164.895 154.224 167.253C156.973 169.443 159.476 171.175 162.581 172.852C163.986 173.818 165.55 174.664 167.014 175.43C168.868 176.401 170.341 177.897 171.444 179.63C170.046 182.247 168.187 186.32 168.74 188.641C169.583 192.181 173.178 193.749 176.602 193.749C177.681 193.749 178.742 193.594 179.696 193.296C183.679 192.051 193.776 184.053 197.312 182.354C200.246 180.943 202 180.901 202.198 180.901C202.21 180.901 202.216 180.901 202.216 180.901C202.216 180.901 202.214 175.816 198.299 174.248C196.814 174.248 190.557 176.742 190.557 176.742C196 173.747 201.257 168.089 201.257 168.089C201.257 168.089 210.287 164.568 214.842 160.487C213.463 163.307 212.779 164.669 211.818 167.334C211.243 169.353 214.096 171.025 217.139 171.025C218.698 171.025 220.307 170.586 221.531 169.531C221.572 166.025 221.313 164.454 224.322 162.186C227.855 159.523 236.314 154.761 241.013 151.865C245.711 148.97 246.35 145.441 246.615 142.555C246.88 139.669 246.835 136.591 248.964 131.629C250.829 127.283 252.373 123.127 252.928 118.632C254.174 112.385 254.158 106.988 253.572 101.517C252.936 95.5795 251.436 92.4925 248.819 88.504C245.03 82.7232 236.238 74.998 222.157 74.998Z" fill="#E6E6E6"/>
<path d="M175.984 172.387C175.984 172.387 171.994 172.524 162.83 167.616C153.667 162.708 147.724 151.635 143.398 154.584C139.073 157.532 134.917 166.524 134.917 166.524C134.917 166.524 138.606 165.63 142.025 166.397C147.572 167.641 149.296 169.55 153.958 174.513C160.043 180.991 171.06 181.038 171.06 181.038L175.984 172.387Z" fill="#F0F0F0"/>
<path d="M253.156 114.978C250.973 120.78 246.909 125.891 246.617 129.029C246.269 132.777 245.981 137.942 246.617 142.553C246.882 139.667 246.837 136.588 248.966 131.627C251.325 126.131 253.18 120.939 253.156 114.978Z" fill="#F0F0F0"/>
<path d="M227.776 133.409C225.303 137.49 224.967 142.746 223.666 145.893C222.364 149.04 215.476 155.395 210.884 158.236C206.292 161.076 200.716 161.076 198.585 160.294C196.453 159.513 197.293 164.252 196.545 167.587C195.797 170.923 194.34 173.178 190.559 176.74C196.002 173.744 201.258 168.086 201.258 168.086C201.258 168.086 210.474 164.497 214.992 160.349C215.28 160.085 215.568 159.82 215.852 159.557L223.666 152.165C226.228 150.755 227.612 147.482 227.776 144.666C227.94 141.85 226.792 138.568 227.776 133.409Z" fill="#F0F0F0"/>
<path d="M241.015 151.864C242.828 150.747 244.032 149.534 244.848 148.302C243.285 149.796 241.427 151.004 239.382 151.671C237.897 152.155 236.316 152.371 234.886 152.988C231.858 154.292 229.91 157.194 227.042 158.793C225.353 159.735 223.419 160.183 221.519 160.634C220.404 160.898 219.153 161.269 218.656 162.257C218.006 163.551 219.037 165.062 218.88 166.489C218.696 168.162 216.855 169.308 215.092 169.396C214.055 169.447 213.044 169.223 212.059 168.892C213.379 171.029 218.577 172.077 221.533 169.529C221.574 166.023 221.315 164.453 224.324 162.185C227.857 159.522 236.316 154.759 241.015 151.864Z" fill="#F0F0F0"/>
<path d="M198.301 174.246C196.815 174.246 190.559 176.74 190.559 176.74C185.919 179.294 182.28 182.384 180.659 184.872C179.038 187.361 180.929 186.503 184.441 183.756C187.644 181.251 195.717 177.167 200.757 176.205C200.182 175.427 199.459 174.71 198.301 174.246Z" fill="#F0F0F0"/>
<path d="M170.739 130.361C170.133 130.716 169.54 131.107 168.962 131.531C167.457 132.633 166.051 133.931 165.226 135.56C164.401 137.189 164.234 139.2 165.157 140.78C166.215 142.588 168.437 143.486 170.578 143.833C172.718 144.182 174.929 144.113 177.035 144.616C178.689 145.011 180.25 145.759 181.569 146.79C183.751 148.494 185.885 151.116 188.979 150.685C191.975 150.268 194.74 148.155 195.597 145.357C197.758 138.305 190.229 130.165 183.492 128.456C178.888 127.288 174.549 128.125 170.739 130.361Z" fill="#455A64"/>
<path d="M133.471 124.676C129.982 126.966 126.09 128.623 122.294 130.415C121.541 130.77 120.755 131.162 120.3 131.835C119.904 132.422 119.813 133.144 119.76 133.839C119.685 134.828 119.71 135.781 119.79 136.715C120.257 136.766 120.727 136.804 121.193 136.84C124.264 137.076 127.506 137.283 130.277 136C132.722 134.869 134.452 132.735 136.493 131.025C139.286 128.683 142.765 127.092 146.43 126.482C149.924 125.901 153.534 126.195 157.019 125.567C164.649 124.193 171.07 118.028 172.453 110.746C172.863 108.593 172.805 106.302 172.317 104.083C163.472 107.409 153.851 108.853 145.975 114.643C141.659 117.817 137.962 121.729 133.471 124.676Z" fill="#455A64"/>
<path d="M185.975 95.867C186.11 95.8785 186.244 95.8913 186.373 95.9124C187.855 96.156 189.348 96.2576 190.85 96.1547C193.598 95.9661 196.544 95.1438 198.452 93.1438C200.13 91.3842 201.456 90.3432 204.088 90.4992C206.414 90.6374 208.771 90.771 211.057 90.3375C213.342 89.904 215.587 88.8323 216.909 87.0024C219.364 83.6034 217.642 78.6986 214.282 76.2663C214.153 76.173 213.998 76.0867 213.865 76.001C209.166 77.1768 204.833 79.3514 200.895 82.3284C195.509 86.402 191.022 91.4564 185.975 95.867Z" fill="#455A64"/>
<path d="M206.909 125.207C206.3 125.895 205.545 126.463 204.991 127.192C204.431 127.93 204.097 128.926 204.494 129.754C204.981 130.769 206.314 131.105 207.483 131.18C209.811 131.329 212.326 130.843 213.953 129.249C215.102 128.122 215.688 126.533 215.716 124.961C215.734 123.9 215.487 122.747 214.886 121.842C214.138 120.718 212.298 120.137 211.028 120.749C208.956 121.748 208.342 123.568 206.929 125.183C206.922 125.191 206.915 125.199 206.909 125.207Z" fill="#455A64"/>
<path d="M248.821 88.501C246.336 84.7145 241.69 80.1038 234.83 77.3672C232.078 81.5373 232.921 85.8372 234.649 90.212C234.789 90.5649 234.928 90.9204 235.065 91.2772C236.037 93.8124 236.874 96.4429 236.565 99.1053C236.31 101.297 235.294 103.331 234.554 105.421C233.449 108.535 232.948 111.932 233.784 115.121C234.973 119.665 240.182 123.879 244.889 124.965C246.766 125.398 249.304 125.625 251.421 125.349C251.543 124.963 251.669 124.576 251.784 124.193C254.407 115.418 254.329 108.556 253.575 101.515C252.939 95.5765 251.439 92.4895 248.821 88.501Z" fill="#455A64"/>
<path d="M227.899 102.656C228.018 106.645 224.409 107.407 220.88 108.633C216.655 110.101 211.82 110.824 208.526 113.995C207.324 115.152 206.425 116.565 205.266 117.761C204.107 118.957 202.556 119.968 200.848 119.932C198.893 119.892 197.191 118.434 196.475 116.699C195.758 114.964 195.87 113.015 196.259 111.189C197.25 106.533 200.02 102.241 203.934 99.2992C208.781 95.6553 216.273 93.2102 222.269 95.6719C224.884 96.7454 227.34 98.8241 227.798 101.641C227.857 102.001 227.89 102.339 227.899 102.656Z" fill="#455A64"/>
<path d="M101.172 141.003C100.198 143.21 103.484 143.308 104.996 143.239C106.948 143.151 109.218 142.87 111.152 142.109C113.076 141.352 114.968 139.982 116.45 138.553C117.275 137.756 118.022 136.883 118.929 136.169C119.664 135.59 120.433 135.227 121.312 135.244C121.223 135.242 119.967 133.537 119.703 133.284C119.366 132.962 119.44 132.965 119.058 132.674C118.035 131.892 116.657 131.529 115.188 131.712C112.15 132.09 107.375 133.288 101.172 141.003Z" fill="#2C2D21"/>
<path opacity="0.4" d="M101.172 141.003C100.198 143.21 103.484 143.308 104.996 143.239C106.948 143.151 109.218 142.87 111.152 142.109C113.076 141.352 114.968 139.982 116.45 138.553C117.275 137.756 118.022 136.883 118.929 136.169C119.664 135.59 120.433 135.227 121.312 135.244C121.223 135.242 119.967 133.537 119.703 133.284C119.366 132.962 119.44 132.965 119.058 132.674C118.035 131.892 116.657 131.529 115.188 131.712C112.15 132.09 107.375 133.288 101.172 141.003Z" fill="white"/>
<path opacity="0.2" d="M102.285 139.669C106.628 137.232 110.872 135.311 114.714 136.238C113.661 137.259 112.387 138.084 111.03 138.621C112.802 138.679 114.598 137.609 116.21 136.565C117.6 135.664 119.086 134.712 120.621 134.421C120.249 133.946 119.841 133.418 119.702 133.286C119.366 132.963 119.439 132.967 119.058 132.676C118.034 131.894 116.657 131.531 115.187 131.713C112.334 132.067 107.948 133.146 102.285 139.669Z" fill="#2C2D21"/>
<path d="M110.694 134.974C110.426 135.074 110.156 135.18 109.885 135.292C106.682 136.621 103.663 138.572 101.171 141.003C102.595 138.368 104.577 135.921 106.929 133.849C109.052 131.978 111.111 130.607 113.985 130.474C115.126 130.422 116.293 130.476 117.429 130.251C118.074 130.124 119.207 129.793 119.595 129.215C118.925 130.213 118.255 131.211 117.585 132.21C116.856 133.295 116.085 133.607 114.838 133.838C113.433 134.099 112.043 134.471 110.694 134.974Z" fill="#37474F"/>
<path d="M132.188 129.873C135.742 130.469 140.714 130.018 143.098 133.26C144.487 135.15 144.667 137.151 144.475 139.269C144.176 142.553 143.572 145.852 143.31 149.161C143.043 152.515 142.621 155.945 141.064 159.105C139.719 161.833 137.558 164.242 134.917 165.959C132.099 167.791 128.938 169.107 126.236 171.103C123.663 173.005 119.307 176.839 114.993 177.628C110.738 178.408 106.386 176.236 104.168 174.314C101.309 171.839 101.128 167.718 100.943 165.926C100.701 163.581 101.648 161.479 104.208 160.844C106.514 158.803 109.545 152.122 110.523 148.746C111.502 145.37 112.239 138.055 115.647 132.949C118.687 128.394 121.878 127.823 124.293 127.944C126.709 128.064 129.095 129.354 132.188 129.873Z" fill="#455A64"/>
<path d="M126.385 171.124C125.322 171.91 123.952 173.024 122.41 174.119C121.731 173.278 121.186 172.3 120.687 171.358C120.078 170.212 119.471 169.066 118.863 167.92C118.489 167.216 118.107 166.485 118.058 165.709C118.011 164.973 118.268 164.265 118.536 163.584C120.477 158.65 123.146 153.997 126.445 149.796C127.462 148.5 128.562 147.227 129.998 146.351C131.808 145.247 134.037 144.844 135.858 143.757C138.467 142.2 140.866 138.41 142.221 135.782C142.709 134.837 143.208 133.228 143.247 133.282C144.636 135.172 144.851 137.19 144.659 139.308C144.345 142.755 146.199 145.096 146.277 149.214C146.347 152.944 146.054 156.107 144.296 159.643C140.997 166.276 131.828 167.101 126.385 171.124Z" fill="#37474F"/>
<path d="M112.692 165.904C115.18 166.113 118.871 168.37 117.525 171.998C118.776 171.5 118.836 169.454 118.503 168.227C117.924 166.094 116.962 166.202 118.595 163.306C120.229 160.409 124.337 152.663 124.337 152.663C124.337 152.663 119.215 160.017 117.658 162.204C115.351 165.446 113.123 164.584 112.692 165.904Z" fill="#263238"/>
<path d="M115.142 177.649C110.887 178.428 106.386 176.236 104.167 174.315C101.308 171.839 101.127 167.719 100.943 165.926C100.7 163.582 101.709 161.412 104.268 160.777C105.094 160.046 105.572 159.394 106.716 157.436C107.668 157.39 108.251 157.468 108.749 157.536C112.484 158.041 117.806 160.54 120.09 163.406C122.123 165.956 122.364 168.011 122.878 171.123C122.968 171.666 123.109 173.051 123.127 173.6C120.784 175.324 117.956 177.134 115.142 177.649Z" fill="#2C2D21"/>
<path opacity="0.4" d="M115.142 177.649C110.887 178.428 106.386 176.236 104.167 174.315C101.308 171.839 101.127 167.719 100.943 165.926C100.7 163.582 101.709 161.412 104.268 160.777C105.094 160.046 105.572 159.394 106.716 157.436C107.668 157.39 108.251 157.468 108.749 157.536C112.484 158.041 117.806 160.54 120.09 163.406C122.123 165.956 122.364 168.011 122.878 171.123C122.968 171.666 123.109 173.051 123.127 173.6C120.784 175.324 117.956 177.134 115.142 177.649Z" fill="white"/>
<path d="M102.797 172.115C103.575 172.784 103.983 172.978 104.793 173.136C105.603 173.295 106.437 173.103 107.191 173.441C107.871 173.747 108.597 174.234 109.266 174.694C109.708 174.997 110.625 175.294 111.151 175.409C113.292 175.873 115.416 175.588 117.114 174.139C116.391 175.161 115.685 175.624 114.313 175.927C112.941 176.23 110.826 176.132 109.525 175.537C108.731 175.173 108.084 174.701 107.289 174.338C106.802 174.116 106.183 174.002 105.684 173.926C104.154 173.693 103.094 172.985 102.412 172.068C102.22 171.705 102.053 171.335 101.911 170.963C102.208 171.364 102.483 171.846 102.797 172.115Z" fill="#455A64"/>
<path d="M110.444 168.822C110.224 169.329 110.153 169.911 110.508 170.344C111.311 171.32 112.765 170.886 113.255 169.952C113.603 169.288 113.492 168.468 113.782 167.778C114.083 167.062 114.771 166.579 115.422 166.122C115.5 166.068 115.583 165.967 115.517 165.895C115.482 165.857 115.423 165.854 115.371 165.854C114.533 165.85 113.83 165.953 113.082 166.301C112.054 166.778 111.182 167.54 110.619 168.483C110.555 168.59 110.495 168.703 110.444 168.822Z" fill="#263238"/>
<path d="M104.464 166.19C104.447 166.747 103.938 168.454 102.978 167.676C102.292 167.12 102.786 165.927 103.032 165.318C103.276 164.711 103.35 164.039 103.246 163.384C103.2 163.1 103.193 162.334 103.616 162.941C104.188 163.763 104.406 164.755 104.457 165.721C104.465 165.876 104.469 166.034 104.464 166.19Z" fill="#263238"/>
<path d="M135.605 139.02C135.236 139.216 134.731 139.23 134.397 138.959C134.073 138.695 133.979 138.234 133.643 137.982C132.787 139.109 131.427 139.953 129.938 139.92C128.45 139.886 126.923 138.79 126.752 137.374C125.834 137.748 124.806 137.95 123.801 137.77C122.798 137.59 121.828 136.984 121.398 136.09C120.838 134.927 121.271 133.606 121.708 132.435C120.917 132.674 120.105 131.768 120.18 130.972C120.255 130.176 120.894 129.562 121.547 129.082C124.299 127.055 127.955 126.93 131.364 127.276C134.413 127.584 138.582 128.885 140.595 131.354C140 131.663 139.726 131.79 139.148 131.96C138.599 132.485 138.085 133.46 137.809 134.176C137.317 135.456 137.089 136.84 136.449 138.054C136.254 138.425 136.01 138.789 135.638 139.002C135.628 139.008 135.616 139.014 135.605 139.02Z" fill="#2C2D21"/>
<path opacity="0.6" d="M135.606 139.021C135.236 139.217 134.731 139.231 134.398 138.96C134.073 138.696 133.98 138.234 133.644 137.983C132.788 139.11 131.427 139.954 129.939 139.921C128.45 139.888 126.924 138.792 126.753 137.374C125.835 137.748 124.806 137.95 123.802 137.771C122.798 137.591 121.829 136.985 121.398 136.091C120.838 134.927 121.271 133.607 121.708 132.436C120.917 132.675 120.105 131.769 120.18 130.973C120.255 130.177 120.894 129.564 121.547 129.083C124.299 127.056 127.955 126.931 131.364 127.277C134.414 127.586 138.582 128.886 140.595 131.355C140 131.665 139.726 131.791 139.147 131.962C138.599 132.486 138.084 133.461 137.808 134.177C137.316 135.457 137.088 136.841 136.449 138.056C136.253 138.426 136.009 138.791 135.637 139.004C135.628 139.009 135.617 139.014 135.606 139.021Z" fill="white"/>
<path opacity="0.2" d="M130.047 139.3C131.321 138.819 132.04 137.575 132.664 136.416C133.228 136.868 133.952 137.132 134.674 137.15C134.934 137.157 135.218 137.121 135.389 136.941C135.568 136.753 135.57 136.466 135.557 136.206C135.508 135.261 135.374 134.31 135.483 133.377C135.592 132.443 135.984 131.501 136.779 130.971C137.417 130.546 138.353 130.288 138.569 129.618C139.357 130.116 140.056 130.692 140.596 131.354C140.001 131.664 139.726 131.79 139.148 131.961C138.6 132.485 138.085 133.46 137.809 134.176C137.317 135.456 137.088 136.84 136.449 138.054C136.254 138.425 136.009 138.789 135.637 139.002C135.627 139.008 135.616 139.014 135.605 139.02C135.236 139.216 134.73 139.23 134.396 138.959C134.072 138.694 133.978 138.233 133.642 137.982C132.786 139.109 131.426 139.953 129.938 139.92C129.319 139.906 128.699 139.701 128.167 139.373C128.793 139.533 129.46 139.522 130.047 139.3Z" fill="#2C2D21"/>
<path d="M130.346 152.026C131.118 151.875 132.027 151.986 132.751 152.229C133.165 152.367 133.545 152.552 133.893 152.851C134.172 153.091 134.469 153.436 134.63 153.831C134.656 153.895 134.636 154.113 134.57 154.078C134.071 153.814 133.731 153.707 133.402 153.593C132.97 153.443 132.653 153.355 132.16 153.258C131.511 153.131 131.106 153.087 130.41 153.24C129.603 153.418 129.021 153.752 128.581 154.099C127.715 154.783 127.446 155.143 127.213 155.078C127.143 155.058 127.144 154.934 127.15 154.898C127.423 153.089 129.129 152.263 130.346 152.026Z" fill="black"/>
<path d="M159.104 152.577C158.885 155.245 155.328 154.87 153.755 154.567C151.724 154.176 149.463 153.519 147.834 152.362C146.202 151.203 145.255 149.497 144.736 147.641C144.274 145.986 144.216 144.238 143.631 142.619C143.543 142.376 143.444 142.135 143.411 141.881C143.381 141.648 143.408 141.412 143.444 141.181C143.536 140.604 143.687 140.036 143.893 139.486C143.925 139.401 143.962 139.312 144.038 139.257C144.126 139.194 144.245 139.193 144.355 139.195C146.039 139.224 147.835 139.408 149.45 139.879C152.474 140.76 156.883 142.837 159.104 152.577Z" fill="#2C2D21"/>
<path opacity="0.4" d="M159.104 152.577C158.885 155.245 155.328 154.87 153.755 154.567C151.724 154.176 149.463 153.519 147.834 152.362C146.202 151.203 145.255 149.497 144.736 147.641C144.274 145.986 144.216 144.238 143.631 142.619C143.543 142.376 143.444 142.135 143.411 141.881C143.381 141.648 143.408 141.412 143.444 141.181C143.536 140.604 143.687 140.036 143.893 139.486C143.925 139.401 143.962 139.312 144.038 139.257C144.126 139.194 144.245 139.193 144.355 139.195C146.039 139.224 147.835 139.408 149.45 139.879C152.474 140.76 156.883 142.837 159.104 152.577Z" fill="white"/>
<path opacity="0.2" d="M149.45 139.878C147.835 139.407 146.039 139.223 144.355 139.194C144.245 139.192 144.126 139.194 144.038 139.256C143.963 139.311 143.926 139.4 143.894 139.485C143.687 140.035 143.536 140.603 143.445 141.18C143.408 141.412 143.381 141.647 143.411 141.88C143.443 142.134 143.543 142.375 143.631 142.618C143.688 142.774 143.735 142.933 143.783 143.092C143.83 143.127 143.878 143.161 143.922 143.199C144.556 143.749 145.079 144.611 145.597 145.273C146.722 146.705 148.027 148.195 149.95 148.391C148.809 147.576 147.919 146.445 147.379 145.121C147.97 145.072 148.699 145.069 148.833 145.075C149.315 145.096 149.796 145.155 150.268 145.251C151.197 145.439 152.089 145.769 152.926 146.196C154.713 147.109 156.238 148.431 157.633 149.817C157.963 150.145 158.305 150.461 158.644 150.778C156.316 142.574 152.278 140.703 149.45 139.878Z" fill="#2C2D21"/>
<path d="M152.384 144.273C152.614 144.427 152.841 144.588 153.065 144.757C155.722 146.751 157.831 149.429 159.104 152.577C159.081 148.488 158.012 142.782 154.249 140.45C152.866 139.593 151.216 139.155 149.552 138.881C148.493 138.707 147.404 138.59 146.433 138.189C145.463 137.787 144.638 136.886 144.459 135.884C144.627 136.829 143.84 138.668 143.724 139.686C143.543 141.267 144.136 141.062 145.6 141.434C148.024 142.049 150.362 142.913 152.384 144.273Z" fill="#455A64"/>
</g>
<defs>
<filter id="filter0_d_359_4029" x="-4" y="0" width="328" height="225.862" filterUnits="userSpaceOnUse" color-interpolation-filters="sRGB">
<feFlood flood-opacity="0" result="BackgroundImageFix"/>
<feColorMatrix in="SourceAlpha" type="matrix" values="0 0 0 0 0 0 0 0 0 0 0 0 0 0 0 0 0 0 127 0" result="hardAlpha"/>
<feOffset dy="4"/>
<feGaussianBlur stdDeviation="2"/>
<feComposite in2="hardAlpha" operator="out"/>
<feColorMatrix type="matrix" values="0 0 0 0 0 0 0 0 0 0 0 0 0 0 0 0 0 0 0.25 0"/>
<feBlend mode="normal" in2="BackgroundImageFix" result="effect1_dropShadow_359_4029"/>
<feBlend mode="normal" in="SourceGraphic" in2="effect1_dropShadow_359_4029" result="shape"/>
</filter>
</defs>
</svg>
