<svg width="100" height="100" viewBox="0 0 100 100" fill="none" xmlns="http://www.w3.org/2000/svg">
<path fill-rule="evenodd" clip-rule="evenodd" d="M77.3169 23.6419C77.3169 33.0167 74.928 45.2437 71.253 43.3883C69.7502 48.1737 66.5953 52.3046 62.3239 55.0793C58.0524 57.854 52.9278 59.1017 47.8201 58.6103C42.7125 58.119 37.9366 55.919 34.3035 52.3839C30.6704 48.8488 28.404 44.1964 27.8891 39.2169C24.2419 32.995 19.4585 20.5269 31.7558 10.8081C31.978 10.7376 32.1113 10.1526 32.3113 9.29119C33.0724 6.03263 34.7585 -1.21043 45.3947 0.173715C53.5974 1.23823 77.3169 5.36629 77.3169 23.6419ZM66.7447 29.5522C66.7447 29.5522 65.4891 33.1331 66.6669 37.123C66.6516 41.3773 64.9262 45.4561 61.8613 48.4836C58.7963 51.5112 54.6362 53.2462 50.274 53.316C45.9118 53.3859 41.6955 51.7851 38.5302 48.8573C35.365 45.9294 33.5032 41.9081 33.3447 37.6567C33.7474 36.1669 33.7474 33.6451 33.7447 30.8416C33.7419 25.7844 33.7363 19.8172 36.1113 17.3848C52.7474 28.1898 66.7447 29.5522 66.7447 29.5522Z" fill="white" fill-opacity="0.9"/>
<path d="M19.4444 83.7479C19.4444 80.8171 21.0361 78.2493 23.425 76.8191C23.334 76.4819 23.2488 76.1432 23.1694 75.8033C22.7479 73.9528 22.4188 72.0834 22.1833 70.2017C21.9447 68.3989 21.801 66.5853 21.7528 64.7681C10.0278 69.2564 0 77.0791 0 85.2919V100H100V85.2919C100 77.4258 90.8055 69.92 79.7278 65.3559V65.4317C79.7778 67.084 79.6833 68.9801 79.5 70.803C79.3333 72.4933 79.0861 74.1781 78.7889 75.6218H80.5555C81.0713 75.6221 81.5767 75.7623 82.0153 76.0269C82.4539 76.2915 82.8084 76.6699 83.0389 77.1197L85.8167 82.5371C86.0111 82.9136 86.1111 83.3281 86.1111 83.7479V89.1653C86.1111 89.8837 85.8185 90.5727 85.2975 91.0806C84.7766 91.5886 84.07 91.874 83.3333 91.874H77.7778V86.4566H80.5555V84.3872L78.8389 81.0392H71.1611L69.4444 84.3872V86.4566H72.2222V91.874H66.6667C65.93 91.874 65.2234 91.5886 64.7025 91.0806C64.1815 90.5727 63.8889 89.8837 63.8889 89.1653V83.7479C63.8889 83.3281 63.9889 82.9136 64.1833 82.5371L66.9611 77.1197C67.1916 76.6699 67.5461 76.2915 67.9846 76.0269C68.4232 75.7623 68.9287 75.6221 69.4444 75.6218H73.0972C73.1583 75.3889 73.2194 75.1315 73.2806 74.8471C73.5583 73.5713 73.8056 71.9542 73.9722 70.283C74.1389 68.609 74.2167 66.9486 74.175 65.5834C74.1646 65.0178 74.1192 64.4534 74.0389 63.8932C73.9778 63.5085 73.9167 63.3325 73.9055 63.2945C73.9028 63.2864 73.9 63.2837 73.9055 63.2891L73.9139 63.2864C72.44 62.8399 70.9491 62.4486 69.4444 62.1135C68.0472 61.802 66.6028 63.6765 65.9722 64.8493H33.3333C33.2522 64.6984 33.1726 64.5467 33.0944 64.3943C32.5056 63.2512 31.7806 61.84 30.5556 62.1135C29.4861 62.3492 28.4167 62.6201 27.3472 62.918C27.3128 63.3931 27.2979 63.8693 27.3028 64.3455C27.3139 65.8434 27.4611 67.6772 27.6972 69.53C27.9333 71.3773 28.2528 73.1759 28.5861 74.5952C28.6806 75.0042 28.775 75.3726 28.8639 75.6895C30.452 75.8931 31.9463 76.5387 33.1678 77.5489C34.3894 78.5592 35.2865 79.8913 35.7518 81.3859C36.2171 82.8805 36.2308 84.4741 35.7912 85.9761C35.3517 87.4781 34.4776 88.8247 33.2735 89.8548C32.0695 90.8848 30.5865 91.5547 29.0021 91.7842C27.4178 92.0137 25.7991 91.7931 24.34 91.1487C22.8809 90.5044 21.6432 89.4636 20.7749 88.1511C19.9067 86.8386 19.4448 85.3098 19.4444 83.7479Z" fill="white" fill-opacity="0.9"/>
<path d="M30.5556 83.7476C30.5556 85.3024 29.2722 86.4969 27.7778 86.4969C26.2833 86.4969 25 85.3051 25 83.7476C25 82.1928 26.2833 80.9983 27.7778 80.9983C29.2722 80.9983 30.5556 82.1901 30.5556 83.7476Z" fill="white" fill-opacity="0.9"/>
</svg>
