<svg width="100" height="100" viewBox="0 0 100 100" fill="none" xmlns="http://www.w3.org/2000/svg">
<path d="M96.4286 9.09091H78.5714V1.13636C78.5714 0.511364 78.1696 0 77.6786 0H71.4286C70.9375 0 70.5357 0.511364 70.5357 1.13636V9.09091H54.0179V1.13636C54.0179 0.511364 53.6161 0 53.125 0H46.875C46.3839 0 45.9821 0.511364 45.9821 1.13636V9.09091H29.4643V1.13636C29.4643 0.511364 29.0625 0 28.5714 0H22.3214C21.8304 0 21.4286 0.511364 21.4286 1.13636V9.09091H3.57143C1.59598 9.09091 0 11.1222 0 13.6364V95.4545C0 97.9688 1.59598 100 3.57143 100H96.4286C98.404 100 100 97.9688 100 95.4545V13.6364C100 11.1222 98.404 9.09091 96.4286 9.09091ZM40.1786 75C40.1786 75.625 39.7768 76.1364 39.2857 76.1364H18.75C18.2589 76.1364 17.8571 75.625 17.8571 75V68.1818C17.8571 67.5568 18.2589 67.0455 18.75 67.0455H39.2857C39.7768 67.0455 40.1786 67.5568 40.1786 68.1818V75ZM40.1786 55.6818C40.1786 56.3068 39.7768 56.8182 39.2857 56.8182H18.75C18.2589 56.8182 17.8571 56.3068 17.8571 55.6818V48.8636C17.8571 48.2386 18.2589 47.7273 18.75 47.7273H39.2857C39.7768 47.7273 40.1786 48.2386 40.1786 48.8636V55.6818ZM81.9754 42.7131L63.5603 75.1989C63.3959 75.4893 63.1796 75.7257 62.9293 75.8889C62.679 76.052 62.4018 76.137 62.1205 76.137C61.8393 76.137 61.5621 76.052 61.3118 75.8889C61.0615 75.7257 60.8452 75.4893 60.6808 75.1989L47.9353 52.7273C47.5112 51.9744 47.9353 50.9233 48.6607 50.9233H54.7879C55.3571 50.9233 55.8929 51.2784 56.2277 51.8608L62.1205 62.2443L73.6942 41.8324C74.029 41.2358 74.5647 40.8949 75.1339 40.8949H81.25C81.9754 40.9091 82.3996 41.9602 81.9754 42.7131Z" fill="white" fill-opacity="0.9"/>
</svg>
