<svg width="160" height="160" viewBox="0 0 160 160" fill="none" xmlns="http://www.w3.org/2000/svg">
<g filter="url(#filter0_d_359_3624)">
<mask id="mask0_359_3624" style="mask-type:alpha" maskUnits="userSpaceOnUse" x="9" y="9" width="142" height="142">
<circle cx="80" cy="80" r="70.2301" transform="rotate(-8.65611 80 80)" fill="#C4C4C4"/>
</mask>
<g mask="url(#mask0_359_3624)">
<path opacity="0.1" d="M189.923 81.5296C189.923 81.5296 216.46 56.4988 204.975 13.139C193.49 -30.2208 150.527 -63.1077 110.942 -73.7323C71.3565 -84.3569 46.2657 -48.9098 18.6964 -36.6871C-8.8729 -24.4644 -32.491 -39.61 -56.4317 -10.4227C-80.3723 18.7645 -75.2602 48.1299 -59.4849 70.7677C-43.7098 93.4055 -20.2812 104.781 -5.10201 124.125C10.0772 143.469 29.4808 172.172 68.7803 187.098C108.08 202.024 142.187 175.696 160.938 147.195C179.689 118.693 174.937 97.924 189.923 81.5296Z" fill="#519273"/>
<path opacity="0.1" d="M179.63 -20.5129C179.63 -20.5129 176.822 -56.8835 135.87 -75.1835C94.9173 -93.4835 42.3413 -80.7123 9.20906 -56.5852C-23.9232 -32.458 -12.1028 9.33102 -19.91 38.4602C-27.7172 67.5894 -54.3376 76.4528 -46.6655 113.415C-38.9933 150.377 -12.9331 164.845 14.5904 166.79C42.1139 168.735 65.6815 157.651 90.2677 157.991C114.854 158.331 149.376 161.264 185.676 140.06C221.975 118.857 222.914 75.7808 212.516 43.2877C202.118 10.7946 182.973 1.44569 179.63 -20.5129Z" fill="#519273"/>
<path d="M79.6715 74.8016L69.7596 9.69417L94.5351 5.92242L90.3648 -21.4707" stroke="#333333" stroke-miterlimit="10"/>
<path d="M83.1009 84.898L197.169 67.5325L194.7 51.3143L216.502 47.9953" stroke="#333333" stroke-miterlimit="10"/>
<path d="M77.4242 85.1875L-31.0456 101.701L-33.6835 84.3728L-57.1643 87.9475" stroke="#333333" stroke-miterlimit="10"/>
<path d="M40.7572 -31.6551L44.5029 -7.05043L30.5254 -4.92253L32.9078 10.7266L50.2427 8.08757L58.2443 60.6473" stroke="#333333" stroke-miterlimit="10"/>
<path d="M128.425 29.3658L123.062 -5.85894L132.565 -7.3057L130.268 -22.4L138.099 -23.5923" stroke="#333333" stroke-miterlimit="10"/>
<path d="M12.737 43.5499L8.65121 16.7117L-0.372737 10.0723L-3.3518 -9.49627" stroke="#333333" stroke-miterlimit="10"/>
<path d="M151.545 38.4372L171.114 35.4581L169.156 22.5974L182.017 20.6395L180.91 13.3698L192.092 11.6675" stroke="#333333" stroke-miterlimit="10"/>
<path d="M68.4855 128.09L70.6989 142.63L61.1956 144.076L63.6647 160.295L36.2645 164.466" stroke="#333333" stroke-miterlimit="10"/>
<path d="M98.233 134.545L100.531 149.639L122.333 146.32L121.397 140.174L127.55 139.238L129.507 152.091L148.521 149.197" stroke="#333333" stroke-miterlimit="10"/>
<path d="M72.5886 26.7452C66.0888 35.0128 47.7241 45.0867 27.4024 63.6755C27.4024 63.6755 36.6219 114.674 89.1137 135.293L72.5886 26.7452Z" fill="#519273" stroke="#333333" stroke-linecap="round" stroke-linejoin="round"/>
<path d="M72.5884 26.7455C81.2611 32.7033 101.785 36.857 126.724 48.5553C126.724 48.5553 133.099 99.9872 89.1135 135.294L72.5884 26.7455Z" fill="#333333" stroke="#333333" stroke-linecap="round" stroke-linejoin="round"/>
<path d="M73.2522 31.1061C65.0443 38.8622 50.1104 47.3294 31.264 64.5655C31.264 64.5655 39.8029 111.81 88.4508 130.94C129.209 98.1995 123.302 50.5538 123.302 50.5538C100.181 39.7069 83.4533 36.0597 73.2522 31.1061Z" fill="#333333" stroke="#333333" stroke-linecap="round" stroke-linejoin="round"/>
<path d="M123.302 50.5538C100.182 39.7139 83.4533 36.0596 73.2522 31.106L88.4507 130.94C129.209 98.1994 123.302 50.5538 123.302 50.5538Z" fill="#519273" stroke="#333333" stroke-linecap="round" stroke-linejoin="round"/>
<path d="M165.267 69.8637L-3.51591 95.5588L-1.85258 106.485L166.93 80.7897L165.267 69.8637Z" fill="#333333" stroke="#333333" stroke-linecap="round" stroke-linejoin="round"/>
<path d="M13.3719 94.764C13.4103 94.9879 13.3812 95.2182 13.2883 95.4255C13.1953 95.6328 13.0428 95.8077 12.8501 95.928C12.6573 96.0483 12.4332 96.1085 12.2061 96.1009C11.979 96.0933 11.7594 96.0183 11.5751 95.8854C11.3909 95.7525 11.2503 95.5678 11.1715 95.3547C11.0926 95.1417 11.0789 94.91 11.1322 94.6891C11.1855 94.4683 11.3033 94.2683 11.4707 94.1147C11.638 93.9611 11.8474 93.8607 12.0719 93.8265C12.2189 93.8022 12.3692 93.8072 12.5142 93.8412C12.6593 93.8753 12.7961 93.9377 12.917 94.0248C13.0378 94.1119 13.1402 94.2221 13.2182 94.3489C13.2963 94.4758 13.3485 94.6169 13.3719 94.764Z" fill="white"/>
<path d="M11.6799 95.6475C11.8244 95.7576 11.9983 95.8225 12.1796 95.8341C12.3609 95.8457 12.5415 95.8034 12.6989 95.7125C12.8562 95.6217 12.9831 95.4863 13.0637 95.3235C13.1443 95.1607 13.1749 94.9777 13.1517 94.7975C13.1168 94.5843 13.0045 94.3915 12.8364 94.256C12.4198 94.6931 12.0335 95.158 11.6799 95.6475Z" fill="#333333"/>
<path d="M17.8034 94.0894C17.8418 94.3133 17.8127 94.5436 17.7198 94.7509C17.6268 94.9582 17.4743 95.1331 17.2816 95.2534C17.0888 95.3737 16.8647 95.4339 16.6376 95.4263C16.4106 95.4187 16.1909 95.3437 16.0067 95.2108C15.8224 95.0779 15.6819 94.8932 15.603 94.6802C15.5241 94.4671 15.5104 94.2354 15.5637 94.0146C15.617 93.7937 15.7348 93.5937 15.9022 93.4401C16.0696 93.2865 16.2789 93.1862 16.5034 93.1519C16.6504 93.1276 16.8007 93.1326 16.9458 93.1667C17.0908 93.2007 17.2276 93.2631 17.3485 93.3502C17.4693 93.4373 17.5717 93.5475 17.6498 93.6744C17.7278 93.8012 17.78 93.9423 17.8034 94.0894Z" fill="white"/>
<path d="M16.0899 94.9758C16.1884 95.0503 16.3007 95.1044 16.4203 95.1349C16.5399 95.1654 16.6644 95.1718 16.7865 95.1536C16.9051 95.1375 17.0194 95.098 17.1226 95.0376C17.2259 94.9771 17.3161 94.8967 17.3882 94.8012C17.4603 94.7056 17.5127 94.5968 17.5425 94.4809C17.5722 94.365 17.5788 94.2443 17.5617 94.1259C17.5268 93.9127 17.4145 93.7199 17.2463 93.5843C16.8316 94.023 16.4453 94.4878 16.0899 94.9758Z" fill="#333333"/>
<path d="M22.2349 93.4148C22.2733 93.6388 22.2442 93.869 22.1513 94.0763C22.0583 94.2836 21.9058 94.4586 21.7131 94.5788C21.5203 94.6991 21.2962 94.7593 21.0691 94.7517C20.8421 94.7441 20.6224 94.6691 20.4382 94.5362C20.2539 94.4034 20.1134 94.2186 20.0345 94.0056C19.9556 93.7925 19.9419 93.5608 19.9952 93.34C20.0485 93.1191 20.1663 92.9192 20.3337 92.7655C20.5011 92.6119 20.7104 92.5116 20.935 92.4774C21.0819 92.4531 21.2322 92.4581 21.3773 92.4921C21.5223 92.5261 21.6592 92.5885 21.78 92.6756C21.9008 92.7628 22.0032 92.8729 22.0813 92.9998C22.1593 93.1267 22.2116 93.2677 22.2349 93.4148Z" fill="white"/>
<path d="M20.5498 94.2968C20.6935 94.4081 20.867 94.4741 21.0484 94.4862C21.2297 94.4984 21.4105 94.4562 21.5677 94.3651C21.725 94.274 21.8514 94.138 21.931 93.9747C22.0106 93.8113 22.0397 93.6279 22.0145 93.448C21.9796 93.2348 21.8673 93.042 21.6992 92.9064C21.2848 93.3432 20.9008 93.8077 20.5498 94.2968Z" fill="#333333"/>
<path d="M26.6668 92.7401C26.7069 92.9655 26.6789 93.1976 26.5864 93.407C26.4938 93.6164 26.341 93.7934 26.1474 93.9155C25.9538 94.0376 25.7281 94.0992 25.4993 94.0925C25.2705 94.0857 25.0489 94.0109 24.8629 93.8776C24.6768 93.7443 24.5347 93.5585 24.4547 93.3441C24.3747 93.1296 24.3604 92.8961 24.4138 92.6735C24.4671 92.4509 24.5856 92.2493 24.7541 92.0943C24.9226 91.9394 25.1334 91.8382 25.3597 91.8037C25.507 91.7793 25.6577 91.7842 25.8031 91.8181C25.9485 91.852 26.0858 91.9142 26.2072 92.0012C26.3286 92.0881 26.4316 92.1981 26.5105 92.3249C26.5893 92.4517 26.6424 92.5928 26.6668 92.7401Z" fill="white"/>
<path d="M24.9813 93.6223C25.125 93.7336 25.2986 93.7995 25.4799 93.8117C25.6612 93.8238 25.842 93.7817 25.9992 93.6905C26.1565 93.5994 26.283 93.4635 26.3625 93.3001C26.4421 93.1367 26.4712 92.9533 26.446 92.7734C26.4111 92.5602 26.2988 92.3674 26.1307 92.2318C25.7181 92.6702 25.3342 93.1346 24.9813 93.6223Z" fill="#333333"/>
<path d="M31.1053 92.0642C31.1437 92.2881 31.1146 92.5184 31.0216 92.7257C30.9287 92.933 30.7762 93.1079 30.5834 93.2282C30.3907 93.3485 30.1665 93.4087 29.9395 93.4011C29.7124 93.3935 29.4928 93.3185 29.3085 93.1856C29.1243 93.0527 28.9837 92.868 28.9049 92.655C28.826 92.4419 28.8123 92.2102 28.8656 91.9894C28.9189 91.7685 29.0367 91.5686 29.2041 91.4149C29.3714 91.2613 29.5807 91.161 29.8053 91.1267C29.9523 91.1024 30.1026 91.1074 30.2476 91.1415C30.3927 91.1755 30.5295 91.2379 30.6503 91.325C30.7712 91.4122 30.8736 91.5223 30.9516 91.6492C31.0297 91.776 31.0819 91.9171 31.1053 92.0642Z" fill="white"/>
<path d="M29.4133 92.9477C29.5116 93.0225 29.6239 93.0768 29.7436 93.1074C29.8633 93.1379 29.9879 93.1441 30.11 93.1255C30.2278 93.1085 30.3412 93.0685 30.4436 93.0077C30.5459 92.9469 30.6353 92.8665 30.7066 92.7712C30.778 92.6759 30.8298 92.5674 30.8592 92.452C30.8886 92.3367 30.895 92.2166 30.878 92.0988C30.8458 91.8847 30.733 91.691 30.5627 91.5573C30.1501 91.9956 29.7662 92.4601 29.4133 92.9477Z" fill="#333333"/>
<path d="M35.5368 91.3897C35.5752 91.6136 35.5461 91.8438 35.4531 92.0511C35.3602 92.2584 35.2077 92.4334 35.0149 92.5537C34.8222 92.6739 34.5981 92.7341 34.371 92.7265C34.144 92.719 33.9243 92.6439 33.74 92.511C33.5558 92.3782 33.4152 92.1934 33.3364 91.9804C33.2575 91.7673 33.2438 91.5356 33.2971 91.3148C33.3504 91.094 33.4682 90.894 33.6356 90.7404C33.8029 90.5867 34.0123 90.4864 34.2368 90.4522C34.3838 90.4279 34.5341 90.4329 34.6791 90.4669C34.8242 90.5009 34.961 90.5633 35.0819 90.6505C35.2027 90.7376 35.3051 90.8477 35.3831 90.9746C35.4612 91.1015 35.5134 91.2425 35.5368 91.3897Z" fill="white"/>
<path d="M33.8733 92.2687C34.0177 92.3789 34.1916 92.4438 34.3729 92.4554C34.5542 92.467 34.7349 92.4247 34.8922 92.3338C35.0495 92.2429 35.1764 92.1076 35.257 91.9448C35.3376 91.7819 35.3682 91.5989 35.345 91.4187C35.3101 91.2056 35.1979 91.0128 35.0297 90.8772C34.615 91.3159 34.2287 91.7807 33.8733 92.2687Z" fill="#333333"/>
<path d="M39.9683 90.7151C40.0067 90.939 39.9776 91.1693 39.8847 91.3766C39.7917 91.5839 39.6392 91.7588 39.4465 91.8791C39.2537 91.9994 39.0296 92.0596 38.8025 92.052C38.5755 92.0444 38.3558 91.9694 38.1715 91.8365C37.9873 91.7036 37.8468 91.5189 37.7679 91.3058C37.689 91.0928 37.6753 90.8611 37.7286 90.6402C37.7819 90.4194 37.8997 90.2194 38.0671 90.0658C38.2345 89.9122 38.4438 89.8118 38.6683 89.7776C38.8153 89.7533 38.9656 89.7583 39.1107 89.7923C39.2557 89.8264 39.3925 89.8887 39.5134 89.9759C39.6342 90.063 39.7366 90.1732 39.8147 90.3C39.8927 90.4269 39.9449 90.568 39.9683 90.7151Z" fill="white"/>
<path d="M38.2764 91.5986C38.3748 91.673 38.4871 91.7271 38.6068 91.7576C38.7264 91.7882 38.8509 91.7945 38.973 91.7763C39.0916 91.7602 39.2058 91.7208 39.3091 91.6603C39.4123 91.5998 39.5026 91.5195 39.5746 91.4239C39.6467 91.3284 39.6991 91.2195 39.7289 91.1036C39.7587 90.9877 39.7652 90.867 39.7481 90.7486C39.7132 90.5354 39.601 90.3426 39.4328 90.207C39.0181 90.6458 38.6318 91.1105 38.2764 91.5986Z" fill="#333333"/>
<path d="M44.3998 90.0405C44.4382 90.2644 44.4091 90.4947 44.3162 90.702C44.2232 90.9093 44.0707 91.0842 43.878 91.2045C43.6852 91.3248 43.4611 91.385 43.234 91.3774C43.007 91.3698 42.7873 91.2948 42.6031 91.1619C42.4188 91.029 42.2783 90.8443 42.1994 90.6312C42.1205 90.4182 42.1068 90.1865 42.1601 89.9656C42.2134 89.7448 42.3312 89.5448 42.4986 89.3912C42.666 89.2376 42.8753 89.1372 43.0999 89.103C43.2468 89.0787 43.3971 89.0837 43.5422 89.1178C43.6872 89.1518 43.8241 89.2142 43.9449 89.3013C44.0657 89.3884 44.1681 89.4986 44.2462 89.6255C44.3242 89.7523 44.3764 89.8934 44.3998 90.0405Z" fill="white"/>
<path d="M42.7147 90.9225C42.8584 91.0338 43.0319 91.0998 43.2133 91.1119C43.3946 91.1241 43.5754 91.0819 43.7326 90.9908C43.8899 90.8997 44.0163 90.7637 44.0959 90.6003C44.1755 90.437 44.2046 90.2536 44.1794 90.0736C44.1445 89.8605 44.0322 89.6676 43.8641 89.5321C43.4515 89.9704 43.0676 90.4349 42.7147 90.9225Z" fill="#333333"/>
<path d="M48.8385 89.3648C48.8787 89.5904 48.8505 89.8229 48.7577 90.0325C48.6649 90.2421 48.5117 90.4192 48.3176 90.5412C48.1235 90.6631 47.8975 90.7244 47.6684 90.7171C47.4393 90.7098 47.2176 90.6342 47.0317 90.5002C46.8458 90.3661 46.7041 90.1796 46.6249 89.9645C46.5456 89.7494 46.5324 89.5156 46.5868 89.293C46.6413 89.0703 46.7609 88.869 46.9305 88.7148C47.1 88.5605 47.3118 88.4604 47.5386 88.4273C47.6855 88.403 47.8359 88.408 47.9809 88.442C48.1259 88.4761 48.2628 88.5384 48.3836 88.6256C48.5044 88.7127 48.6068 88.8229 48.6849 88.9497C48.763 89.0766 48.8152 89.2177 48.8385 89.3648Z" fill="white"/>
<path d="M47.1462 90.2479C47.2899 90.3592 47.4634 90.4252 47.6448 90.4373C47.8261 90.4495 48.0069 90.4073 48.1641 90.3162C48.3214 90.2251 48.4478 90.0891 48.5274 89.9258C48.607 89.7624 48.6361 89.579 48.6109 89.399C48.5787 89.1849 48.4659 88.9912 48.2956 88.8575C47.883 89.2959 47.4991 89.7603 47.1462 90.2479Z" fill="#333333"/>
<path d="M53.2702 88.6899C53.3086 88.9138 53.2795 89.1441 53.1865 89.3514C53.0936 89.5587 52.9411 89.7336 52.7483 89.8539C52.5556 89.9742 52.3314 90.0344 52.1044 90.0268C51.8773 90.0192 51.6577 89.9442 51.4734 89.8113C51.2892 89.6784 51.1486 89.4937 51.0698 89.2806C50.9909 89.0676 50.9772 88.8359 51.0305 88.615C51.0838 88.3942 51.2016 88.1942 51.369 88.0406C51.5363 87.887 51.7456 87.7866 51.9702 87.7524C52.1172 87.7281 52.2675 87.7331 52.4125 87.7671C52.5576 87.8012 52.6944 87.8636 52.8152 87.9507C52.9361 88.0378 53.0385 88.148 53.1165 88.2748C53.1946 88.4017 53.2468 88.5428 53.2702 88.6899Z" fill="white"/>
<path d="M51.5782 89.5734C51.7227 89.6835 51.8965 89.7484 52.0778 89.76C52.2591 89.7716 52.4398 89.7293 52.5972 89.6384C52.7545 89.5476 52.8814 89.4122 52.962 89.2494C53.0426 89.0866 53.0732 88.9036 53.05 88.7234C53.0151 88.5102 52.9028 88.3174 52.7347 88.1819C52.3181 88.619 51.9318 89.0839 51.5782 89.5734Z" fill="#333333"/>
<path d="M57.7017 88.0153C57.7401 88.2392 57.711 88.4695 57.6181 88.6768C57.5251 88.8841 57.3726 89.059 57.1798 89.1793C56.9871 89.2996 56.763 89.3598 56.5359 89.3522C56.3089 89.3446 56.0892 89.2696 55.9049 89.1367C55.7207 89.0038 55.5802 88.8191 55.5013 88.6061C55.4224 88.393 55.4087 88.1613 55.462 87.9405C55.5153 87.7196 55.6331 87.5196 55.8005 87.366C55.9678 87.2124 56.1771 87.1121 56.4017 87.0778C56.5487 87.0535 56.699 87.0585 56.8441 87.0926C56.9891 87.1266 57.1259 87.189 57.2468 87.2761C57.3676 87.3633 57.47 87.4734 57.548 87.6003C57.6261 87.7271 57.6783 87.8682 57.7017 88.0153Z" fill="white"/>
<path d="M56.0093 88.8988C56.1077 88.9733 56.2201 89.0273 56.3397 89.0579C56.4593 89.0884 56.5838 89.0948 56.7059 89.0766C56.8245 89.0605 56.9387 89.021 57.042 88.9605C57.1452 88.9 57.2355 88.8197 57.3076 88.7242C57.3796 88.6286 57.432 88.5197 57.4618 88.4038C57.4916 88.2879 57.4981 88.1673 57.481 88.0488C57.4461 87.8357 57.3339 87.6428 57.1657 87.5073C56.751 87.946 56.3647 88.4108 56.0093 88.8988Z" fill="#333333"/>
<path d="M10.0138 102.488C10.0554 102.713 10.0286 102.946 9.9368 103.157C9.84504 103.367 9.69248 103.545 9.49874 103.668C9.30499 103.791 9.07889 103.854 8.84948 103.847C8.62006 103.841 8.39779 103.766 8.21121 103.632C8.02463 103.499 7.88226 103.312 7.80237 103.097C7.72248 102.882 7.70872 102.648 7.76286 102.425C7.817 102.202 7.93657 102 8.1062 101.845C8.27584 101.691 8.48782 101.59 8.71491 101.557C8.86128 101.533 9.01099 101.538 9.15549 101.572C9.29998 101.605 9.43642 101.667 9.55704 101.753C9.67765 101.84 9.78006 101.949 9.85842 102.075C9.93679 102.201 9.98957 102.341 10.0138 102.488Z" fill="white"/>
<path d="M8.32275 103.378C8.46689 103.49 8.64112 103.556 8.82306 103.568C9.005 103.58 9.18632 103.537 9.34371 103.445C9.50109 103.353 9.62734 103.216 9.70622 103.051C9.7851 102.887 9.81299 102.703 9.78633 102.522C9.75337 102.311 9.641 102.12 9.47208 101.988C9.05956 102.426 8.67566 102.891 8.32275 103.378Z" fill="#333333"/>
<path d="M14.445 101.813C14.4848 102.037 14.457 102.268 14.3651 102.476C14.2732 102.684 14.1214 102.86 13.929 102.981C13.7366 103.103 13.5124 103.164 13.285 103.157C13.0576 103.151 12.8374 103.076 12.6524 102.944C12.4675 102.811 12.3263 102.627 12.2468 102.414C12.1672 102.201 12.1531 101.969 12.2061 101.747C12.2591 101.526 12.3768 101.326 12.5442 101.172C12.7117 101.018 12.9212 100.917 13.1461 100.883C13.2925 100.859 13.4422 100.863 13.5867 100.897C13.7312 100.931 13.8676 100.993 13.9882 101.079C14.1089 101.165 14.2113 101.275 14.2896 101.401C14.368 101.527 14.4208 101.667 14.445 101.813Z" fill="white"/>
<path d="M12.7538 102.704C12.8987 102.814 13.0732 102.879 13.2551 102.89C13.4371 102.902 13.6182 102.859 13.7757 102.767C13.9331 102.675 14.0598 102.539 14.1397 102.375C14.2196 102.211 14.2491 102.027 14.2245 101.847C14.1882 101.636 14.0765 101.446 13.9102 101.312C13.4937 101.749 13.1073 102.214 12.7538 102.704Z" fill="#333333"/>
<path d="M18.8769 101.138C18.9168 101.362 18.889 101.593 18.7971 101.801C18.7052 102.009 18.5534 102.185 18.361 102.306C18.1686 102.428 17.9444 102.489 17.717 102.482C17.4896 102.476 17.2694 102.401 17.0844 102.269C16.8995 102.136 16.7583 101.952 16.6788 101.739C16.5992 101.525 16.5851 101.293 16.6381 101.072C16.6911 100.851 16.8088 100.651 16.9762 100.497C17.1437 100.343 17.3532 100.242 17.5781 100.208C17.7245 100.184 17.8742 100.188 18.0187 100.222C18.1632 100.256 18.2996 100.318 18.4202 100.404C18.5408 100.49 18.6433 100.6 18.7216 100.726C18.8 100.852 18.8528 100.992 18.8769 101.138Z" fill="white"/>
<path d="M17.1642 102.032C17.2627 102.107 17.375 102.161 17.4946 102.191C17.6142 102.222 17.7388 102.228 17.8609 102.21C17.9796 102.193 18.0939 102.152 18.1971 102.091C18.3002 102.03 18.3904 101.949 18.4622 101.853C18.5341 101.757 18.5864 101.647 18.616 101.531C18.6456 101.415 18.652 101.294 18.6349 101.175C18.5986 100.965 18.4869 100.775 18.3207 100.641C17.9059 101.079 17.5196 101.544 17.1642 102.032Z" fill="#333333"/>
<path d="M23.3085 100.464C23.3484 100.688 23.3206 100.918 23.2287 101.126C23.1367 101.334 22.9849 101.51 22.7925 101.632C22.6001 101.753 22.3759 101.814 22.1485 101.808C21.9211 101.801 21.7009 101.727 21.516 101.594C21.331 101.462 21.1898 101.277 21.1103 101.064C21.0308 100.851 21.0166 100.619 21.0696 100.398C21.1226 100.176 21.2403 99.976 21.4077 99.8221C21.5752 99.6681 21.7847 99.5675 22.0096 99.5332C22.156 99.509 22.3057 99.5139 22.4502 99.5475C22.5947 99.5812 22.7311 99.643 22.8517 99.7294C22.9724 99.8158 23.0748 99.9251 23.1531 100.051C23.2315 100.177 23.2843 100.317 23.3085 100.464Z" fill="white"/>
<path d="M21.6241 101.353C21.7208 101.428 21.8319 101.483 21.9504 101.514C22.069 101.545 22.1926 101.551 22.3137 101.532C22.4324 101.515 22.5467 101.475 22.6499 101.413C22.7531 101.352 22.8432 101.271 22.915 101.175C22.9869 101.079 23.0392 100.969 23.0688 100.853C23.0984 100.737 23.1049 100.616 23.0877 100.497C23.0515 100.287 22.9397 100.097 22.7735 99.9627C22.3591 100.399 21.9751 100.864 21.6241 101.353Z" fill="#333333"/>
<path d="M27.7398 99.7888C27.7814 100.014 27.7547 100.247 27.6632 100.457C27.5717 100.667 27.4196 100.845 27.2263 100.968C27.033 101.092 26.8074 101.154 26.5782 101.148C26.3491 101.143 26.1269 101.068 25.9402 100.936C25.7534 100.803 25.6106 100.617 25.53 100.403C25.4494 100.188 25.4346 99.9542 25.4876 99.7313C25.5407 99.5083 25.659 99.3062 25.8276 99.1509C25.9962 98.9956 26.2073 98.8941 26.4338 98.8595C26.7301 98.8105 27.0338 98.8807 27.2785 99.0549C27.5231 99.229 27.689 99.4928 27.7398 99.7888Z" fill="white"/>
<path d="M26.0557 100.679C26.1523 100.754 26.2634 100.808 26.382 100.839C26.5005 100.87 26.6241 100.876 26.7452 100.857C26.864 100.84 26.9782 100.8 27.0814 100.739C27.1846 100.677 27.2747 100.596 27.3465 100.5C27.4184 100.404 27.4707 100.295 27.5003 100.179C27.5299 100.062 27.5364 99.9413 27.5192 99.8226C27.483 99.6121 27.3712 99.4222 27.205 99.2882C26.7925 99.7265 26.4086 100.191 26.0557 100.679Z" fill="#333333"/>
<path d="M32.1783 99.1134C32.2182 99.3374 32.1904 99.5682 32.0985 99.7763C32.0066 99.9843 31.8548 100.16 31.6624 100.282C31.47 100.403 31.2457 100.464 31.0184 100.458C30.791 100.451 30.5708 100.377 30.3858 100.244C30.2009 100.112 30.0597 99.927 29.9801 99.7139C29.9006 99.5008 29.8865 99.2688 29.9395 99.0475C29.9925 98.8263 30.1102 98.6259 30.2776 98.4719C30.4451 98.3179 30.6546 98.2174 30.8795 98.1831C31.0259 98.1589 31.1756 98.1637 31.3201 98.1974C31.4646 98.231 31.601 98.2928 31.7216 98.3792C31.8422 98.4656 31.9446 98.5749 32.023 98.7009C32.1014 98.8269 32.1542 98.9671 32.1783 99.1134Z" fill="white"/>
<path d="M30.4872 100.004C30.6313 100.116 30.8055 100.182 30.9875 100.193C31.1694 100.205 31.3507 100.162 31.5081 100.07C31.6655 99.9784 31.7917 99.8413 31.8706 99.677C31.9495 99.5126 31.9774 99.3284 31.9508 99.148C31.9178 98.9364 31.8054 98.7453 31.6365 98.6136C31.224 99.0519 30.8401 99.5164 30.4872 100.004Z" fill="#333333"/>
<path d="M36.6099 98.4389C36.6497 98.6628 36.622 98.8936 36.53 99.1017C36.4381 99.3098 36.2863 99.4857 36.0939 99.6071C35.9015 99.7284 35.6773 99.7897 35.4499 99.783C35.2225 99.7763 35.0023 99.702 34.8173 99.5695C34.6324 99.437 34.4912 99.2524 34.4117 99.0393C34.3321 98.8262 34.318 98.5942 34.371 98.373C34.424 98.1518 34.5417 97.9513 34.7091 97.7974C34.8766 97.6434 35.0861 97.5428 35.311 97.5085C35.4574 97.4843 35.6071 97.4892 35.7516 97.5228C35.8961 97.5565 36.0325 97.6183 36.1531 97.7047C36.2737 97.7911 36.3762 97.9004 36.4545 98.0263C36.5329 98.1523 36.5857 98.2925 36.6099 98.4389Z" fill="white"/>
<path d="M34.9471 99.325C35.0921 99.4355 35.2665 99.5004 35.4485 99.5117C35.6304 99.5229 35.8115 99.4799 35.969 99.3882C36.1265 99.2964 36.2531 99.16 36.333 98.9962C36.4129 98.8324 36.4424 98.6485 36.4178 98.4679C36.3815 98.2575 36.2698 98.0675 36.1035 97.9335C35.6888 98.3722 35.3025 98.837 34.9471 99.325Z" fill="#333333"/>
<path d="M41.0414 97.7638C41.0813 97.9878 41.0535 98.2185 40.9616 98.4266C40.8697 98.6347 40.7178 98.8107 40.5254 98.932C40.333 99.0534 40.1088 99.1146 39.8814 99.1079C39.654 99.1012 39.4338 99.0269 39.2489 98.8944C39.0639 98.762 38.9227 98.5774 38.8432 98.3643C38.7637 98.1511 38.7495 97.9191 38.8025 97.6979C38.8555 97.4767 38.9732 97.2763 39.1407 97.1223C39.3081 96.9683 39.5176 96.8678 39.7425 96.8334C39.8889 96.8092 40.0386 96.8141 40.1831 96.8478C40.3276 96.8814 40.464 96.9432 40.5847 97.0296C40.7053 97.116 40.8077 97.2253 40.886 97.3513C40.9644 97.4773 41.0172 97.6174 41.0414 97.7638Z" fill="white"/>
<path d="M39.3502 98.6549C39.4486 98.7293 39.561 98.7834 39.6806 98.8139C39.8002 98.8445 39.9247 98.8508 40.0468 98.8327C40.1656 98.8155 40.2799 98.7752 40.383 98.7139C40.4862 98.6526 40.5763 98.5716 40.6482 98.4755C40.7201 98.3794 40.7723 98.2701 40.8019 98.1538C40.8316 98.0375 40.838 97.9165 40.8209 97.7978C40.7846 97.5873 40.6729 97.3974 40.5066 97.2634C40.0919 97.7021 39.7056 98.1669 39.3502 98.6549Z" fill="#333333"/>
<path d="M45.4734 97.0892C45.5132 97.3132 45.4855 97.544 45.3936 97.752C45.3016 97.9601 45.1498 98.1361 44.9574 98.2574C44.765 98.3788 44.5408 98.4401 44.3134 98.4334C44.086 98.4267 43.8658 98.3523 43.6809 98.2199C43.4959 98.0874 43.3547 97.9028 43.2752 97.6897C43.1957 97.4765 43.1815 97.2446 43.2345 97.0233C43.2875 96.8021 43.4052 96.6017 43.5726 96.4477C43.7401 96.2937 43.9496 96.1932 44.1745 96.1589C44.3209 96.1347 44.4706 96.1395 44.6151 96.1732C44.7596 96.2068 44.896 96.2686 45.0166 96.355C45.1373 96.4414 45.2397 96.5507 45.318 96.6767C45.3964 96.8027 45.4492 96.9429 45.4734 97.0892Z" fill="white"/>
<path d="M43.789 97.9793C43.8857 98.0545 43.9968 98.1092 44.1154 98.1399C44.2339 98.1707 44.3575 98.1769 44.4786 98.1582C44.5974 98.1411 44.7116 98.1007 44.8148 98.0394C44.918 97.9782 45.0081 97.8972 45.08 97.8011C45.1518 97.705 45.2041 97.5956 45.2337 97.4794C45.2633 97.3631 45.2698 97.2421 45.2526 97.1233C45.2164 96.9129 45.1046 96.7229 44.9384 96.5889C44.5259 97.0272 44.1419 97.4917 43.789 97.9793Z" fill="#333333"/>
<path d="M49.912 96.4135C49.9537 96.6392 49.9269 96.8722 49.8351 97.0826C49.7433 97.2929 49.5908 97.4711 49.397 97.5941C49.2033 97.7171 48.9772 97.7794 48.7478 97.773C48.5184 97.7666 48.2961 97.6918 48.1095 97.5581C47.9229 97.4245 47.7806 97.2381 47.7007 97.023C47.6208 96.8078 47.607 96.5737 47.6612 96.3507C47.7153 96.1276 47.8349 95.9259 48.0045 95.7713C48.1741 95.6167 48.3861 95.5164 48.6132 95.4831C48.7596 95.4589 48.9093 95.4638 49.0538 95.4974C49.1983 95.5311 49.3347 95.5929 49.4553 95.6793C49.5759 95.7657 49.6784 95.875 49.7567 96.001C49.8351 96.1269 49.8879 96.2671 49.912 96.4135Z" fill="white"/>
<path d="M48.2206 97.3042C48.3647 97.4159 48.5389 97.4819 48.7209 97.4937C48.9028 97.5056 49.0841 97.4627 49.2415 97.3706C49.3989 97.2786 49.5251 97.1416 49.604 96.9772C49.6829 96.8128 49.7108 96.6286 49.6841 96.4482C49.6512 96.2366 49.5388 96.0455 49.3699 95.9138C48.9574 96.3522 48.5735 96.8166 48.2206 97.3042Z" fill="#333333"/>
<path d="M54.3432 95.7391C54.3831 95.9631 54.3553 96.1938 54.2634 96.4019C54.1715 96.61 54.0197 96.786 53.8273 96.9073C53.6349 97.0287 53.4106 97.0899 53.1833 97.0832C52.9559 97.0765 52.7357 97.0022 52.5507 96.8697C52.3658 96.7373 52.2246 96.5527 52.145 96.3396C52.0655 96.1264 52.0514 95.8944 52.1044 95.6732C52.1574 95.452 52.2751 95.2516 52.4425 95.0976C52.61 94.9436 52.8195 94.8431 53.0444 94.8087C53.1908 94.7845 53.3405 94.7894 53.485 94.8231C53.6295 94.8567 53.7659 94.9185 53.8865 95.0049C54.0071 95.0913 54.1095 95.2006 54.1879 95.3266C54.2663 95.4526 54.3191 95.5927 54.3432 95.7391Z" fill="white"/>
<path d="M52.6521 96.6297C52.797 96.7401 52.9715 96.8051 53.1534 96.8163C53.3353 96.8276 53.5165 96.7846 53.674 96.6928C53.8314 96.6011 53.9581 96.4646 54.038 96.3008C54.1179 96.137 54.1474 95.9532 54.1228 95.7726C54.0865 95.5621 53.9748 95.3722 53.8085 95.2382C53.392 95.6753 53.0056 96.1402 52.6521 96.6297Z" fill="#333333"/>
<path d="M58.7748 95.0645C58.8146 95.2885 58.7869 95.5193 58.6949 95.7273C58.603 95.9354 58.4512 96.1114 58.2588 96.2327C58.0664 96.3541 57.8422 96.4154 57.6148 96.4087C57.3874 96.402 57.1672 96.3276 56.9822 96.1952C56.7973 96.0627 56.6561 95.8781 56.5766 95.665C56.4971 95.4518 56.4829 95.2199 56.5359 94.9986C56.5889 94.7774 56.7066 94.577 56.874 94.423C57.0415 94.269 57.251 94.1685 57.4759 94.1342C57.6223 94.11 57.772 94.1148 57.9165 94.1485C58.061 94.1821 58.1974 94.2439 58.318 94.3303C58.4386 94.4167 58.5411 94.526 58.6194 94.652C58.6978 94.778 58.7506 94.9182 58.7748 95.0645Z" fill="white"/>
<path d="M57.0836 95.9551C57.182 96.0296 57.2944 96.0837 57.414 96.1142C57.5336 96.1447 57.6581 96.1511 57.7802 96.1329C57.899 96.1158 58.0133 96.0754 58.1164 96.0141C58.2196 95.9529 58.3097 95.8719 58.3816 95.7758C58.4535 95.6797 58.5057 95.5704 58.5353 95.4541C58.565 95.3378 58.5714 95.2168 58.5543 95.098C58.518 94.8876 58.4063 94.6976 58.24 94.5636C57.8253 95.0023 57.439 95.4671 57.0836 95.9551Z" fill="#333333"/>
<path d="M106.819 80.5377C106.857 80.7616 106.828 80.9919 106.735 81.1992C106.642 81.4065 106.49 81.5814 106.297 81.7017C106.104 81.822 105.88 81.8822 105.653 81.8746C105.426 81.867 105.206 81.792 105.022 81.6591C104.838 81.5262 104.697 81.3415 104.618 81.1284C104.539 80.9154 104.526 80.6837 104.579 80.4628C104.632 80.242 104.75 80.042 104.917 79.8884C105.085 79.7348 105.294 79.6344 105.519 79.6002C105.666 79.5759 105.816 79.5809 105.961 79.6149C106.106 79.649 106.243 79.7114 106.364 79.7985C106.485 79.8856 106.587 79.9958 106.665 80.1227C106.743 80.2495 106.795 80.3906 106.819 80.5377Z" fill="white"/>
<path d="M105.134 81.4202C105.277 81.5315 105.451 81.5974 105.632 81.6096C105.813 81.6217 105.994 81.5796 106.151 81.4885C106.309 81.3973 106.435 81.2614 106.515 81.098C106.594 80.9346 106.623 80.7513 106.598 80.5713C106.563 80.3581 106.451 80.1653 106.283 80.0298C105.87 80.4681 105.486 80.9326 105.134 81.4202Z" fill="#333333"/>
<path d="M111.257 79.862C111.298 80.0876 111.269 80.3201 111.177 80.5297C111.084 80.7393 110.931 80.9164 110.736 81.0384C110.542 81.1603 110.316 81.2216 110.087 81.2142C109.858 81.2069 109.636 81.1314 109.451 80.9973C109.265 80.8633 109.123 80.6768 109.044 80.4617C108.964 80.2466 108.951 80.0128 109.006 79.7901C109.06 79.5675 109.18 79.3662 109.349 79.2119C109.519 79.0577 109.731 78.9576 109.957 78.9245C110.104 78.9002 110.255 78.9052 110.4 78.9392C110.545 78.9732 110.682 79.0356 110.802 79.1228C110.923 79.2099 111.026 79.3201 111.104 79.4469C111.182 79.5738 111.234 79.7148 111.257 79.862Z" fill="white"/>
<path d="M109.565 80.7456C109.709 80.8569 109.882 80.9229 110.064 80.935C110.245 80.9472 110.426 80.905 110.583 80.8139C110.74 80.7228 110.867 80.5868 110.946 80.4234C111.026 80.2601 111.055 80.0767 111.03 79.8967C110.998 79.6826 110.885 79.4889 110.714 79.3552C110.302 79.7935 109.918 80.258 109.565 80.7456Z" fill="#333333"/>
<path d="M115.689 79.1876C115.727 79.4115 115.698 79.6418 115.605 79.8491C115.512 80.0564 115.36 80.2313 115.167 80.3516C114.974 80.4719 114.75 80.532 114.523 80.5245C114.296 80.5169 114.077 80.4418 113.892 80.309C113.708 80.1761 113.567 79.9913 113.489 79.7783C113.41 79.5653 113.396 79.3336 113.449 79.1127C113.503 78.8919 113.62 78.6919 113.788 78.5383C113.955 78.3846 114.164 78.2843 114.389 78.2501C114.536 78.2258 114.686 78.2308 114.831 78.2648C114.976 78.2989 115.113 78.3612 115.234 78.4484C115.355 78.5355 115.457 78.6457 115.535 78.7725C115.613 78.8994 115.666 79.0404 115.689 79.1876Z" fill="white"/>
<path d="M113.997 80.071C114.141 80.1812 114.315 80.2461 114.496 80.2577C114.677 80.2693 114.858 80.227 115.016 80.1361C115.173 80.0453 115.3 79.9099 115.38 79.7471C115.461 79.5843 115.492 79.4013 115.468 79.2211C115.433 79.0079 115.321 78.8151 115.153 78.6795C114.736 79.1166 114.35 79.5816 113.997 80.071Z" fill="#333333"/>
<path d="M120.121 78.513C120.159 78.7369 120.13 78.9672 120.037 79.1745C119.944 79.3818 119.791 79.5567 119.599 79.677C119.406 79.7973 119.182 79.8575 118.955 79.8499C118.728 79.8423 118.508 79.7673 118.324 79.6344C118.14 79.5015 117.999 79.3168 117.92 79.1037C117.841 78.8907 117.828 78.659 117.881 78.4381C117.934 78.2173 118.052 78.0173 118.219 77.8637C118.387 77.7101 118.596 77.6097 118.821 77.5755C118.968 77.5512 119.118 77.5562 119.263 77.5902C119.408 77.6243 119.545 77.6867 119.666 77.7738C119.786 77.8609 119.889 77.9711 119.967 78.0979C120.045 78.2248 120.097 78.3659 120.121 78.513Z" fill="white"/>
<path d="M118.428 79.3965C118.527 79.4709 118.639 79.525 118.759 79.5555C118.878 79.5861 119.003 79.5924 119.125 79.5743C119.243 79.5581 119.358 79.5187 119.461 79.4582C119.564 79.3977 119.654 79.3174 119.726 79.2218C119.798 79.1263 119.851 79.0174 119.881 78.9015C119.91 78.7856 119.917 78.6649 119.9 78.5465C119.865 78.3333 119.753 78.1405 119.585 78.005C119.17 78.4437 118.784 78.9085 118.428 79.3965Z" fill="#333333"/>
<path d="M124.552 77.8384C124.59 78.0623 124.561 78.2926 124.468 78.4999C124.375 78.7072 124.223 78.8821 124.03 79.0024C123.837 79.1227 123.613 79.1829 123.386 79.1753C123.159 79.1677 122.94 79.0927 122.755 78.9598C122.571 78.8269 122.431 78.6422 122.352 78.4292C122.273 78.2161 122.259 77.9844 122.312 77.7636C122.366 77.5427 122.483 77.3427 122.651 77.1891C122.818 77.0355 123.028 76.9352 123.252 76.9009C123.399 76.8766 123.549 76.8816 123.694 76.9157C123.839 76.9497 123.976 77.0121 124.097 77.0992C124.218 77.1864 124.32 77.2965 124.398 77.4234C124.476 77.5502 124.529 77.6913 124.552 77.8384Z" fill="white"/>
<path d="M122.867 78.7204C123.011 78.8317 123.184 78.8977 123.366 78.9098C123.547 78.922 123.728 78.8798 123.885 78.7887C124.042 78.6976 124.169 78.5616 124.248 78.3983C124.328 78.2349 124.357 78.0515 124.332 77.8715C124.297 77.6584 124.184 77.4656 124.016 77.33C123.602 77.7668 123.218 78.2313 122.867 78.7204Z" fill="#333333"/>
<path d="M128.991 77.1627C129.031 77.388 129.003 77.6202 128.91 77.8296C128.818 78.039 128.665 78.216 128.471 78.3381C128.278 78.4602 128.052 78.5218 127.823 78.5151C127.595 78.5083 127.373 78.4335 127.187 78.3002C127.001 78.1669 126.859 77.9811 126.779 77.7667C126.699 77.5522 126.684 77.3187 126.738 77.0961C126.791 76.8735 126.91 76.6719 127.078 76.5169C127.247 76.362 127.457 76.2608 127.684 76.2263C127.831 76.2019 127.982 76.2068 128.127 76.2407C128.273 76.2746 128.41 76.3368 128.531 76.4237C128.653 76.5107 128.756 76.6207 128.834 76.7475C128.913 76.8743 128.966 77.0154 128.991 77.1627Z" fill="white"/>
<path d="M127.298 78.0459C127.442 78.1572 127.616 78.2231 127.797 78.2353C127.978 78.2474 128.159 78.2052 128.316 78.1141C128.474 78.023 128.6 77.8871 128.68 77.7237C128.759 77.5603 128.788 77.3769 128.763 77.197C128.728 76.9838 128.616 76.791 128.448 76.6554C128.035 77.0938 127.651 77.5582 127.298 78.0459Z" fill="#333333"/>
<path d="M133.422 76.4881C133.462 76.7138 133.434 76.9463 133.341 77.1559C133.249 77.3655 133.095 77.5426 132.901 77.6645C132.707 77.7865 132.481 77.8477 132.252 77.8404C132.023 77.8331 131.801 77.7576 131.615 77.6235C131.43 77.4894 131.288 77.3029 131.209 77.0878C131.129 76.8728 131.116 76.6389 131.171 76.4163C131.225 76.1936 131.345 75.9923 131.514 75.8381C131.684 75.6839 131.896 75.5838 132.122 75.5506C132.269 75.5263 132.42 75.5313 132.565 75.5654C132.71 75.5994 132.847 75.6618 132.967 75.7489C133.088 75.836 133.191 75.9462 133.269 76.0731C133.347 76.1999 133.399 76.341 133.422 76.4881Z" fill="white"/>
<path d="M131.73 77.3713C131.874 77.4826 132.047 77.5485 132.229 77.5607C132.41 77.5728 132.591 77.5307 132.748 77.4395C132.905 77.3484 133.032 77.2125 133.111 77.0491C133.191 76.8857 133.22 76.7024 133.195 76.5224C133.162 76.3083 133.05 76.1145 132.879 75.9809C132.467 76.4192 132.083 76.8836 131.73 77.3713Z" fill="#333333"/>
<path d="M137.854 75.8132C137.892 76.0371 137.863 76.2674 137.77 76.4747C137.677 76.682 137.525 76.857 137.332 76.9772C137.139 77.0975 136.915 77.1577 136.688 77.1501C136.461 77.1425 136.241 77.0675 136.057 76.9346C135.873 76.8017 135.732 76.617 135.654 76.404C135.575 76.1909 135.561 75.9592 135.614 75.7384C135.668 75.5175 135.785 75.3176 135.953 75.1639C136.12 75.0103 136.329 74.91 136.554 74.8757C136.701 74.8514 136.851 74.8565 136.996 74.8905C137.141 74.9245 137.278 74.9869 137.399 75.074C137.52 75.1612 137.622 75.2713 137.7 75.3982C137.778 75.5251 137.831 75.6661 137.854 75.8132Z" fill="white"/>
<path d="M136.161 76.6967C136.306 76.8068 136.48 76.8718 136.661 76.8834C136.842 76.8949 137.023 76.8526 137.18 76.7618C137.338 76.6709 137.465 76.5356 137.545 76.3728C137.626 76.2099 137.656 76.0269 137.633 75.8467C137.598 75.6336 137.486 75.4408 137.318 75.3052C136.901 75.7423 136.515 76.2072 136.161 76.6967Z" fill="#333333"/>
<path d="M142.285 75.1387C142.324 75.3626 142.295 75.5928 142.202 75.8001C142.109 76.0074 141.956 76.1824 141.764 76.3027C141.571 76.423 141.347 76.4831 141.12 76.4755C140.893 76.468 140.673 76.3929 140.489 76.2601C140.304 76.1272 140.164 75.9424 140.085 75.7294C140.006 75.5164 139.992 75.2846 140.046 75.0638C140.099 74.843 140.217 74.643 140.384 74.4894C140.552 74.3357 140.761 74.2354 140.985 74.2012C141.132 74.1769 141.283 74.1819 141.428 74.2159C141.573 74.2499 141.71 74.3123 141.831 74.3995C141.951 74.4866 142.054 74.5968 142.132 74.7236C142.21 74.8505 142.262 74.9915 142.285 75.1387Z" fill="white"/>
<path d="M140.572 76.0251C140.67 76.0995 140.783 76.1536 140.902 76.1842C141.022 76.2147 141.146 76.221 141.269 76.2029C141.387 76.1867 141.501 76.1473 141.605 76.0868C141.708 76.0263 141.798 75.946 141.87 75.8504C141.942 75.7549 141.995 75.646 142.025 75.5301C142.054 75.4142 142.061 75.2935 142.044 75.1751C142.009 74.9619 141.897 74.7691 141.728 74.6336C141.314 75.0723 140.927 75.5371 140.572 76.0251Z" fill="#333333"/>
<path d="M146.717 74.4636C146.755 74.6875 146.726 74.9178 146.633 75.1251C146.54 75.3324 146.388 75.5073 146.195 75.6276C146.002 75.7479 145.778 75.8081 145.551 75.8005C145.324 75.7929 145.104 75.7179 144.92 75.585C144.736 75.4521 144.595 75.2674 144.517 75.0543C144.438 74.8413 144.424 74.6096 144.477 74.3887C144.531 74.1679 144.648 73.9679 144.816 73.8143C144.983 73.6607 145.192 73.5603 145.417 73.5261C145.564 73.5018 145.714 73.5068 145.859 73.5408C146.004 73.5749 146.141 73.6373 146.262 73.7244C146.383 73.8115 146.485 73.9217 146.563 74.0486C146.641 74.1754 146.694 74.3165 146.717 74.4636Z" fill="white"/>
<path d="M145.031 75.3461C145.175 75.4574 145.349 75.5233 145.53 75.5355C145.711 75.5476 145.892 75.5055 146.049 75.4144C146.207 75.3232 146.333 75.1873 146.413 75.0239C146.492 74.8605 146.521 74.6772 146.496 74.4972C146.461 74.284 146.349 74.0912 146.181 73.9557C145.766 74.3924 145.382 74.857 145.031 75.3461Z" fill="#333333"/>
<path d="M151.148 73.7893C151.188 74.0147 151.16 74.2469 151.068 74.4563C150.975 74.6656 150.823 74.8427 150.629 74.9648C150.435 75.0869 150.21 75.1485 149.981 75.1417C149.752 75.135 149.53 75.0601 149.344 74.9268C149.158 74.7935 149.016 74.6078 148.936 74.3933C148.856 74.1788 148.842 73.9454 148.895 73.7228C148.949 73.5002 149.067 73.2985 149.236 73.1436C149.404 72.9886 149.615 72.8874 149.841 72.8529C149.989 72.8286 150.139 72.8335 150.285 72.8674C150.43 72.9012 150.567 72.9634 150.689 73.0504C150.81 73.1373 150.913 73.2474 150.992 73.3741C151.071 73.5009 151.124 73.642 151.148 73.7893Z" fill="white"/>
<path d="M149.463 74.6715C149.607 74.7828 149.781 74.8488 149.962 74.8609C150.143 74.8731 150.324 74.8309 150.481 74.7398C150.639 74.6487 150.765 74.5127 150.845 74.3493C150.924 74.186 150.953 74.0026 150.928 73.8226C150.893 73.6095 150.781 73.4167 150.613 73.2811C150.2 73.7194 149.816 74.1839 149.463 74.6715Z" fill="#333333"/>
<path d="M107.892 87.5869C107.932 87.8109 107.904 88.0416 107.812 88.2497C107.72 88.4578 107.568 88.6338 107.376 88.7551C107.183 88.8765 106.959 88.9377 106.732 88.931C106.504 88.9243 106.284 88.85 106.099 88.7176C105.914 88.5851 105.773 88.4005 105.694 88.1874C105.614 87.9742 105.6 87.7422 105.653 87.521C105.706 87.2998 105.824 87.0994 105.991 86.9454C106.158 86.7914 106.368 86.6909 106.593 86.6565C106.739 86.6323 106.889 86.6372 107.033 86.6709C107.178 86.7045 107.314 86.7663 107.435 86.8527C107.556 86.9391 107.658 87.0484 107.736 87.1744C107.815 87.3004 107.868 87.4405 107.892 87.5869Z" fill="white"/>
<path d="M106.208 88.4765C106.305 88.5517 106.416 88.6063 106.534 88.6371C106.653 88.6679 106.776 88.6741 106.897 88.6554C107.016 88.6382 107.13 88.5979 107.234 88.5366C107.337 88.4753 107.427 88.3943 107.499 88.2982C107.571 88.2021 107.623 88.0928 107.653 87.9765C107.682 87.8603 107.689 87.7393 107.671 87.6205C107.635 87.4101 107.523 87.2201 107.357 87.0861C106.945 87.5244 106.561 87.9889 106.208 88.4765Z" fill="#333333"/>
<path d="M112.33 86.9112C112.372 87.1369 112.345 87.3699 112.253 87.5802C112.162 87.7906 112.009 87.9687 111.815 88.0918C111.622 88.2148 111.396 88.2771 111.166 88.2707C110.937 88.2643 110.714 88.1895 110.528 88.0558C110.341 87.9222 110.199 87.7358 110.119 87.5207C110.039 87.3055 110.025 87.0714 110.08 86.8483C110.134 86.6253 110.253 86.4236 110.423 86.269C110.592 86.1144 110.804 86.0141 111.032 85.9808C111.178 85.9566 111.328 85.9615 111.472 85.9951C111.617 86.0288 111.753 86.0906 111.874 86.177C111.994 86.2634 112.097 86.3727 112.175 86.4986C112.253 86.6246 112.306 86.7648 112.33 86.9112Z" fill="white"/>
<path d="M110.639 87.8019C110.784 87.9136 110.958 87.9796 111.14 87.9914C111.322 88.0032 111.503 87.9604 111.66 87.8683C111.818 87.7763 111.944 87.6392 112.023 87.4749C112.102 87.3105 112.13 87.1263 112.103 86.9459C112.07 86.7343 111.958 86.5432 111.789 86.4115C111.376 86.8499 110.992 87.3143 110.639 87.8019Z" fill="#333333"/>
<path d="M116.762 86.2363C116.802 86.4603 116.774 86.691 116.682 86.8991C116.59 87.1072 116.439 87.2831 116.246 87.4045C116.054 87.5259 115.829 87.5871 115.602 87.5804C115.375 87.5737 115.155 87.4994 114.97 87.3669C114.785 87.2345 114.643 87.0499 114.564 86.8367C114.484 86.6236 114.47 86.3916 114.523 86.1704C114.576 85.9492 114.694 85.7488 114.861 85.5948C115.029 85.4408 115.238 85.3402 115.463 85.3059C115.61 85.2817 115.759 85.2866 115.904 85.3202C116.048 85.3539 116.185 85.4157 116.305 85.5021C116.426 85.5885 116.528 85.6978 116.607 85.8238C116.685 85.9497 116.738 86.0899 116.762 86.2363Z" fill="white"/>
<path d="M115.071 87.1274C115.216 87.2378 115.39 87.3028 115.572 87.314C115.754 87.3253 115.935 87.2823 116.093 87.1905C116.25 87.0987 116.377 86.9623 116.457 86.7985C116.537 86.6347 116.566 86.4508 116.542 86.2703C116.505 86.0598 116.394 85.8698 116.227 85.7359C115.811 86.173 115.424 86.6379 115.071 87.1274Z" fill="#333333"/>
<path d="M121.194 85.5617C121.233 85.7857 121.206 86.0164 121.114 86.2245C121.022 86.4326 120.87 86.6086 120.678 86.7299C120.485 86.8513 120.261 86.9125 120.034 86.9058C119.806 86.8991 119.586 86.8248 119.401 86.6924C119.216 86.5599 119.075 86.3753 118.995 86.1622C118.916 85.949 118.902 85.717 118.955 85.4958C119.008 85.2746 119.125 85.0742 119.293 84.9202C119.46 84.7662 119.67 84.6657 119.895 84.6314C120.041 84.6071 120.191 84.612 120.335 84.6457C120.48 84.6793 120.616 84.7411 120.737 84.8275C120.858 84.9139 120.96 85.0232 121.038 85.1492C121.117 85.2752 121.169 85.4153 121.194 85.5617Z" fill="white"/>
<path d="M119.502 86.4528C119.601 86.5273 119.713 86.5813 119.833 86.6119C119.952 86.6424 120.077 86.6487 120.199 86.6306C120.318 86.6134 120.432 86.5731 120.535 86.5118C120.638 86.4505 120.729 86.3695 120.8 86.2734C120.872 86.1773 120.925 86.068 120.954 85.9517C120.984 85.8354 120.99 85.7145 120.973 85.5957C120.937 85.3852 120.825 85.1953 120.659 85.0613C120.244 85.5 119.858 85.9648 119.502 86.4528Z" fill="#333333"/>
<path d="M125.625 84.8871C125.665 85.1111 125.637 85.3419 125.545 85.55C125.453 85.758 125.302 85.934 125.109 86.0554C124.917 86.1767 124.693 86.238 124.465 86.2313C124.238 86.2246 124.018 86.1503 123.833 86.0178C123.648 85.8853 123.506 85.7007 123.427 85.4876C123.347 85.2745 123.333 85.0425 123.386 84.8212C123.439 84.6 123.557 84.3996 123.724 84.2456C123.892 84.0917 124.101 83.9911 124.326 83.9568C124.473 83.9326 124.622 83.9374 124.767 83.9711C124.911 84.0048 125.048 84.0665 125.168 84.1529C125.289 84.2393 125.391 84.3486 125.47 84.4746C125.548 84.6006 125.601 84.7408 125.625 84.8871Z" fill="white"/>
<path d="M123.941 85.7767C124.038 85.8519 124.149 85.9066 124.268 85.9373C124.386 85.9681 124.51 85.9743 124.631 85.9556C124.75 85.9385 124.864 85.8981 124.967 85.8369C125.07 85.7756 125.16 85.6946 125.232 85.5985C125.304 85.5024 125.356 85.3931 125.386 85.2768C125.416 85.1605 125.422 85.0395 125.405 84.9207C125.369 84.7103 125.257 84.5203 125.091 84.3863C124.676 84.8231 124.292 85.2876 123.941 85.7767Z" fill="#333333"/>
<path d="M130.064 84.2114C130.105 84.4368 130.079 84.6695 129.987 84.8797C129.896 85.0898 129.744 85.2679 129.55 85.391C129.357 85.5142 129.131 85.5769 128.902 85.571C128.673 85.5652 128.451 85.4911 128.264 85.3582C128.077 85.2253 127.935 85.0397 127.854 84.8251C127.773 84.6106 127.759 84.3768 127.812 84.1539C127.865 83.9309 127.983 83.7288 128.152 83.5735C128.32 83.4182 128.531 83.3167 128.758 83.2821C129.054 83.2331 129.358 83.3033 129.602 83.4775C129.847 83.6516 130.013 83.9154 130.064 84.2114Z" fill="white"/>
<path d="M128.373 85.1022C128.469 85.1774 128.581 85.232 128.699 85.2628C128.818 85.2935 128.941 85.2997 129.062 85.281C129.181 85.2639 129.295 85.2236 129.399 85.1623C129.502 85.101 129.592 85.02 129.664 84.9239C129.736 84.8278 129.788 84.7185 129.817 84.6022C129.847 84.4859 129.854 84.3649 129.836 84.2461C129.8 84.0357 129.688 83.8457 129.522 83.7117C129.11 84.1501 128.726 84.6145 128.373 85.1022Z" fill="#333333"/>
<path d="M134.495 83.5368C134.537 83.7625 134.51 83.9955 134.418 84.2059C134.327 84.4163 134.174 84.5944 133.98 84.7174C133.787 84.8405 133.56 84.9028 133.331 84.8964C133.102 84.89 132.879 84.8151 132.693 84.6815C132.506 84.5478 132.364 84.3615 132.284 84.1463C132.204 83.9312 132.19 83.697 132.244 83.474C132.299 83.251 132.418 83.0492 132.588 82.8946C132.757 82.7401 132.969 82.6397 133.196 82.6065C133.343 82.5823 133.493 82.5871 133.637 82.6208C133.782 82.6544 133.918 82.7162 134.039 82.8026C134.159 82.889 134.262 82.9983 134.34 83.1243C134.418 83.2503 134.471 83.3905 134.495 83.5368Z" fill="white"/>
<path d="M132.804 84.4276C132.948 84.5392 133.123 84.6052 133.305 84.6171C133.487 84.6289 133.668 84.586 133.825 84.494C133.983 84.4019 134.109 84.2649 134.188 84.1005C134.267 83.9362 134.295 83.7519 134.268 83.5716C134.235 83.3599 134.123 83.1688 133.954 83.0372C133.541 83.4755 133.157 83.94 132.804 84.4276Z" fill="#333333"/>
<path d="M138.927 82.862C138.967 83.0859 138.939 83.3167 138.847 83.5248C138.755 83.7329 138.603 83.9088 138.411 84.0302C138.219 84.1515 137.994 84.2128 137.767 84.2061C137.54 84.1994 137.319 84.1251 137.134 83.9926C136.95 83.8601 136.808 83.6755 136.729 83.4624C136.649 83.2493 136.635 83.0173 136.688 82.7961C136.741 82.5748 136.859 82.3744 137.026 82.2204C137.194 82.0665 137.403 81.9659 137.628 81.9316C137.775 81.9074 137.924 81.9122 138.069 81.9459C138.213 81.9796 138.35 82.0414 138.47 82.1277C138.591 82.2141 138.693 82.3234 138.772 82.4494C138.85 82.5754 138.903 82.7156 138.927 82.862Z" fill="white"/>
<path d="M137.236 83.753C137.381 83.8635 137.555 83.9284 137.737 83.9397C137.919 83.9509 138.1 83.9079 138.258 83.8162C138.415 83.7244 138.542 83.588 138.622 83.4242C138.702 83.2603 138.731 83.0765 138.707 82.8959C138.67 82.6855 138.559 82.4955 138.392 82.3615C137.976 82.7986 137.589 83.2635 137.236 83.753Z" fill="#333333"/>
<path d="M143.359 82.1874C143.398 82.4113 143.371 82.6421 143.279 82.8502C143.187 83.0583 143.035 83.2342 142.843 83.3556C142.65 83.477 142.426 83.5382 142.199 83.5315C141.971 83.5248 141.751 83.4505 141.566 83.318C141.381 83.1856 141.24 83.001 141.16 82.7878C141.081 82.5747 141.067 82.3427 141.12 82.1215C141.173 81.9003 141.29 81.6999 141.458 81.5459C141.625 81.3919 141.835 81.2913 142.06 81.257C142.206 81.2328 142.356 81.2377 142.5 81.2713C142.645 81.305 142.781 81.3668 142.902 81.4532C143.022 81.5396 143.125 81.6489 143.203 81.7749C143.282 81.9008 143.334 82.041 143.359 82.1874Z" fill="white"/>
<path d="M141.646 83.0814C141.744 83.1559 141.857 83.2099 141.976 83.2405C142.096 83.271 142.22 83.2774 142.342 83.2592C142.461 83.242 142.575 83.2017 142.679 83.1404C142.782 83.0791 142.872 82.9981 142.944 82.902C143.016 82.8059 143.068 82.6966 143.098 82.5803C143.127 82.4641 143.134 82.3431 143.116 82.2243C143.08 82.0139 142.968 81.8239 142.802 81.6899C142.387 82.1286 142.001 82.5934 141.646 83.0814Z" fill="#333333"/>
<path d="M147.79 81.5128C147.83 81.7368 147.802 81.9675 147.71 82.1756C147.618 82.3837 147.466 82.5597 147.274 82.681C147.082 82.8024 146.857 82.8636 146.63 82.8569C146.403 82.8502 146.182 82.7759 145.998 82.6435C145.813 82.511 145.671 82.3264 145.592 82.1133C145.512 81.9001 145.498 81.6681 145.551 81.4469C145.604 81.2257 145.722 81.0253 145.889 80.8713C146.057 80.7173 146.266 80.6168 146.491 80.5825C146.638 80.5582 146.787 80.5631 146.932 80.5968C147.076 80.6304 147.213 80.6922 147.333 80.7786C147.454 80.865 147.556 80.9743 147.635 81.1003C147.713 81.2263 147.766 81.3664 147.79 81.5128Z" fill="white"/>
<path d="M146.106 82.4024C146.202 82.4776 146.313 82.5322 146.432 82.563C146.551 82.5938 146.674 82.6 146.795 82.5813C146.914 82.5641 147.028 82.5238 147.131 82.4625C147.235 82.4012 147.325 82.3202 147.397 82.2241C147.468 82.128 147.521 82.0187 147.55 81.9024C147.58 81.7862 147.586 81.6652 147.569 81.5464C147.533 81.336 147.421 81.146 147.255 81.012C146.841 81.4487 146.457 81.9133 146.106 82.4024Z" fill="#333333"/>
<path d="M152.222 80.8381C152.263 81.0635 152.237 81.2961 152.145 81.5063C152.054 81.7165 151.902 81.8945 151.708 82.0177C151.515 82.1409 151.289 82.2035 151.06 82.1977C150.831 82.1918 150.609 82.1177 150.422 81.9848C150.235 81.8519 150.093 81.6663 150.012 81.4518C149.931 81.2372 149.917 81.0035 149.97 80.7805C150.023 80.5575 150.141 80.3554 150.31 80.2001C150.478 80.0448 150.689 79.9434 150.916 79.9088C151.212 79.8598 151.516 79.93 151.761 80.1041C152.005 80.2782 152.171 80.5421 152.222 80.8381Z" fill="white"/>
<path d="M97.9694 76.2883L63.6765 81.509C62.9316 81.6225 62.172 81.4395 61.5606 80.9991C60.9492 80.5588 60.5349 79.8962 60.4067 79.1538L57.9983 63.3339C56.3555 52.5431 63.9879 42.3927 75.0135 40.7142C86.039 39.0357 96.3533 46.454 97.996 57.2448L100.404 73.0646C100.503 73.8141 100.303 74.5723 99.8476 75.1755C99.392 75.7787 98.7173 76.1784 97.9694 76.2883ZM65.6771 75.5275L94.2723 71.1742L92.2841 58.1143C91.7068 54.3224 89.6468 50.915 86.5573 48.6419C83.4678 46.3688 79.6018 45.4161 75.8099 45.9933C72.0179 46.5706 68.6106 48.6306 66.3374 51.7201C64.0643 54.8097 63.1116 58.6756 63.6889 62.4676L65.6771 75.5275Z" fill="white" stroke="#333333" stroke-linecap="round" stroke-linejoin="round"/>
<path d="M101.205 67.9934L57.5435 74.6402L63.0425 110.761L106.704 104.114L101.205 67.9934Z" fill="#519273" stroke="#333333" stroke-linecap="round" stroke-linejoin="round"/>
<path d="M86.2029 85.6264C85.9682 84.4043 85.2693 83.3206 84.2529 82.6027C83.2365 81.8847 81.9815 81.5882 80.7512 81.7755C79.521 81.9628 78.4111 82.6193 77.6544 83.6072C76.8976 84.5951 76.5529 85.8377 76.6925 87.0743C76.8251 87.9192 77.1857 88.7119 77.7356 89.3669C78.2855 90.022 79.0038 90.5145 79.813 90.7914L80.2649 99.1143L86.3752 98.184L84.3299 90.1037C85.02 89.5986 85.5592 88.9147 85.8893 88.1257C86.2193 87.3367 86.3278 86.4725 86.2029 85.6264Z" fill="#333333" stroke="#333333" stroke-linecap="round" stroke-linejoin="round"/>
</g>
</g>
<defs>
<filter id="filter0_d_359_3624" x="5.74685" y="9.76018" width="148.506" height="148.506" filterUnits="userSpaceOnUse" color-interpolation-filters="sRGB">
<feFlood flood-opacity="0" result="BackgroundImageFix"/>
<feColorMatrix in="SourceAlpha" type="matrix" values="0 0 0 0 0 0 0 0 0 0 0 0 0 0 0 0 0 0 127 0" result="hardAlpha"/>
<feOffset dy="4"/>
<feGaussianBlur stdDeviation="2"/>
<feComposite in2="hardAlpha" operator="out"/>
<feColorMatrix type="matrix" values="0 0 0 0 0 0 0 0 0 0 0 0 0 0 0 0 0 0 0.25 0"/>
<feBlend mode="normal" in2="BackgroundImageFix" result="effect1_dropShadow_359_3624"/>
<feBlend mode="normal" in="SourceGraphic" in2="effect1_dropShadow_359_3624" result="shape"/>
</filter>
</defs>
</svg>
