<svg width="24" height="28" viewBox="0 0 24 28" fill="none" xmlns="http://www.w3.org/2000/svg">
<path fill-rule="evenodd" clip-rule="evenodd" d="M0.699022 10.1425C1.17146 4.41099 5.96099 0 11.7119 0H12.2878C18.0388 0 22.8283 4.41099 23.3007 10.1425C23.5545 13.2213 22.6035 16.2785 20.6479 18.6701L14.2572 26.4858C13.0905 27.9126 10.9092 27.9126 9.74257 26.4858L3.35182 18.6701C1.39628 16.2785 0.445236 13.2213 0.699022 10.1425ZM11.7119 2C7.00186 2 3.07919 5.61264 2.69226 10.3068C2.48104 12.8692 3.27257 15.4136 4.90012 17.4041L11.2909 25.2198C11.6573 25.668 12.3424 25.668 12.7089 25.2198L19.0996 17.4041C20.7272 15.4136 21.5187 12.8692 21.3075 10.3068C20.9206 5.61264 16.9979 2 12.2878 2H11.7119Z" fill="#FFFDF7"/>
<path d="M13.3332 19.6667C13.3332 20.403 12.7362 21 11.9999 21C11.2635 21 10.6665 20.403 10.6665 19.6667C10.6665 18.9303 11.2635 18.3333 11.9999 18.3333C12.7362 18.3333 13.3332 18.9303 13.3332 19.6667Z" fill="#FFFDF7"/>
<path fill-rule="evenodd" clip-rule="evenodd" d="M11.9999 8.66667C10.7376 8.66667 9.66654 9.72723 9.66654 11.0952C9.66654 11.6475 9.21882 12.0952 8.66654 12.0952C8.11425 12.0952 7.66654 11.6475 7.66654 11.0952C7.66654 8.67615 9.58027 6.66667 11.9999 6.66667C14.4195 6.66667 16.3332 8.67615 16.3332 11.0952C16.3332 13.0032 15.1489 14.6465 13.4639 15.2644C13.298 15.3253 13.163 15.4184 13.0815 15.5091C13.0053 15.594 12.9999 15.6458 12.9999 15.6667C12.9999 16.219 12.5522 16.6667 11.9999 16.6667C11.4476 16.6667 10.9999 16.219 10.9999 15.6667C10.9999 14.4352 11.9911 13.6743 12.7753 13.3867C13.6706 13.0584 14.3332 12.1663 14.3332 11.0952C14.3332 9.72723 13.2622 8.66667 11.9999 8.66667Z" fill="#FFFDF7"/>
</svg>
