<svg width="27" height="32" viewBox="0 0 27 32" fill="none" xmlns="http://www.w3.org/2000/svg">
<path d="M18.935 24.6667L14.7272 19.6C14.1735 20.1333 13.5368 20.5556 12.817 20.8667C12.0973 21.1778 11.3314 21.3333 10.5193 21.3333C8.50772 21.3333 6.8054 20.4942 5.41239 18.816C4.01939 17.1378 3.32252 15.088 3.32178 12.6667C3.32178 10.2444 4.01865 8.19467 5.41239 6.51733C6.80614 4.84 8.50846 4.00089 10.5193 4C12.531 4 14.2333 4.83911 15.6263 6.51733C17.0193 8.19556 17.7162 10.2453 17.7169 12.6667C17.7169 13.6444 17.5877 14.5667 17.3294 15.4333C17.071 16.3 16.7203 17.0667 16.2774 17.7333L20.4852 22.8L18.935 24.6667ZM10.5193 18.6667C11.9035 18.6667 13.0802 18.0831 14.0495 16.916C15.0188 15.7489 15.503 14.3324 15.5023 12.6667C15.5023 11 15.0176 9.58311 14.0484 8.416C13.0791 7.24889 11.9028 6.66578 10.5193 6.66667C9.1352 6.66667 7.95849 7.25022 6.98922 8.41733C6.01994 9.58444 5.53568 11.0009 5.53641 12.6667C5.53641 14.3333 6.02105 15.7502 6.99032 16.9173C7.9596 18.0844 9.13594 18.6676 10.5193 18.6667Z" fill="#827F7F"/>
</svg>
