<svg width="23" height="28" viewBox="0 0 23 28" fill="none" xmlns="http://www.w3.org/2000/svg">
<path fill-rule="evenodd" clip-rule="evenodd" d="M0.0408955 10.2846C0.519953 4.4728 5.37661 0 11.2081 0H11.7921C17.6236 0 22.4803 4.4728 22.9593 10.2846C23.2167 13.4066 22.2523 16.5067 20.2694 18.9317L13.7891 26.857C12.606 28.3038 10.3942 28.3038 9.21118 26.857L2.73087 18.9317C0.747923 16.5067 -0.216446 13.4066 0.0408955 10.2846ZM11.2081 2.02803C6.43206 2.02803 2.45442 5.69129 2.06207 10.4512C1.84789 13.0496 2.65051 15.6297 4.30087 17.648L10.7812 25.5732C11.1528 26.0277 11.8475 26.0277 12.2191 25.5732L18.6994 17.648C20.3497 15.6297 21.1523 13.0496 20.9382 10.4512C20.5458 5.69129 16.5682 2.02803 11.7921 2.02803H11.2081Z" fill="#333333" fill-opacity="0.9"/>
<path d="M12.8521 19.9423C12.8521 20.689 12.2468 21.2943 11.5001 21.2943C10.7534 21.2943 10.1481 20.689 10.1481 19.9423C10.1481 19.1956 10.7534 18.5903 11.5001 18.5903C12.2468 18.5903 12.8521 19.1956 12.8521 19.9423Z" fill="#333333" fill-opacity="0.9"/>
<path fill-rule="evenodd" clip-rule="evenodd" d="M11.5001 8.78812C10.2201 8.78812 9.13408 9.86355 9.13408 11.2507C9.13408 11.8108 8.68009 12.2647 8.12007 12.2647C7.56005 12.2647 7.10606 11.8108 7.10606 11.2507C7.10606 8.79774 9.0466 6.76009 11.5001 6.76009C13.9536 6.76009 15.8942 8.79774 15.8942 11.2507C15.8942 13.1854 14.6933 14.8517 12.9847 15.4783C12.8164 15.5401 12.6795 15.6345 12.5969 15.7265C12.5196 15.8125 12.5141 15.8651 12.5141 15.8862C12.5141 16.4462 12.0601 16.9002 11.5001 16.9002C10.9401 16.9002 10.4861 16.4462 10.4861 15.8862C10.4861 14.6375 11.4913 13.8659 12.2864 13.5743C13.1943 13.2414 13.8661 12.3368 13.8661 11.2507C13.8661 9.86355 12.7801 8.78812 11.5001 8.78812Z" fill="#333333" fill-opacity="0.9"/>
</svg>
