<svg width="32" height="28" viewBox="0 0 32 28" fill="none" xmlns="http://www.w3.org/2000/svg">
<path d="M14.4989 9.61726C14.8594 9.24729 14.8594 8.64745 14.4989 8.27748C14.1384 7.90751 13.5539 7.90751 13.1934 8.27748L8.27036 13.3301C8.09012 13.5151 8 13.7575 8 14C8 14.1285 8.02491 14.2509 8.07004 14.3626C8.11509 14.4744 8.18186 14.5791 8.27036 14.6699L13.1934 19.7225C13.5539 20.0925 14.1384 20.0925 14.4989 19.7225C14.8594 19.3526 14.8594 18.7527 14.4989 18.3827L11.1516 14.9474H23.0769C23.5867 14.9474 24 14.5232 24 14C24 13.4768 23.5867 13.0526 23.0769 13.0526H11.1516L14.4989 9.61726Z" fill="#519273"/>
</svg>
