<svg width="160" height="71" viewBox="0 0 160 71" fill="none" xmlns="http://www.w3.org/2000/svg">
<g opacity="0.5">
<path d="M4.06001 57.1253C5.03699 56.7708 6.66757 55.1443 6.6709 55.1434C6.67422 55.1425 5.27012 54.3897 5.17343 54.3523C4.07806 53.9433 1.70951 53.7676 0.885898 54.7932C0.7535 54.9671 0.65926 55.167 0.609329 55.3798C0.559399 55.5926 0.554898 55.8135 0.596124 56.0282C0.637349 56.2429 0.72337 56.4464 0.848578 56.6256C0.973786 56.8047 1.13537 56.9555 1.32277 57.068C2.10172 57.5771 3.23558 57.4224 4.06001 57.1253Z" fill="#333333"/>
<path d="M9.24607 61.4251C10.0548 60.8559 11.1371 59.0036 11.2207 58.8543C12.2795 59.4769 13.3787 60.028 14.511 60.5039C15.1674 60.7819 15.8375 61.0453 16.5291 61.2954C16.2009 61.2264 15.9107 61.1646 15.8704 61.1616C14.6999 61.0466 12.379 61.5108 11.8476 62.7197C11.7625 62.9229 11.7217 63.1419 11.7277 63.3621C11.7337 63.5824 11.7864 63.7988 11.8824 63.9971C11.9783 64.1955 12.1154 64.3711 12.2844 64.5125C12.4534 64.6538 12.6505 64.7576 12.8627 64.817C13.7473 65.1025 14.8019 64.6543 15.517 64.1475C16.232 63.6407 17.2013 62.075 17.4495 61.6568C17.7097 61.7522 17.9676 61.8518 18.2269 61.9438C19.4777 62.3952 20.7301 62.8389 21.9439 63.3115C22.3714 63.4781 22.7851 63.6594 23.2012 63.8365C22.9109 63.7747 22.6672 63.725 22.6302 63.7211C21.4597 63.606 19.1388 64.0702 18.6074 65.2791C18.526 65.4821 18.4882 65.7 18.4965 65.9186C18.5048 66.1372 18.5591 66.3515 18.6557 66.5478C18.7524 66.744 18.8892 66.9177 19.0574 67.0575C19.2257 67.1974 19.4214 67.3002 19.632 67.3594C20.5157 67.6415 21.5703 67.1933 22.2863 66.6899C23.0023 66.1864 23.8762 64.7661 24.1716 64.2736C24.5857 64.4691 24.9999 64.6646 25.4168 64.8701C25.6844 65.0172 25.9531 65.1425 26.2145 65.3057L26.9965 65.7744C27.4795 66.087 27.9828 66.4081 28.4468 66.7296C28.7745 66.9495 29.0785 67.1617 29.3876 67.3796C28.9791 67.2041 28.1264 66.8917 28.0562 66.872C26.8992 66.588 24.5473 66.6877 23.8463 67.8044C23.7348 67.9923 23.6641 68.2016 23.639 68.4187C23.6138 68.6358 23.6347 68.8557 23.7002 69.0641C23.7658 69.2726 23.8746 69.4649 24.0195 69.6285C24.1643 69.7921 24.3421 69.9233 24.5411 70.0136C25.3749 70.4246 26.4841 70.1441 27.268 69.7543C28.1328 69.3202 29.4382 67.7244 29.6007 67.5242C30.1077 67.8838 30.6029 68.2395 31.0616 68.5804C32.2995 69.4949 33.3479 70.3229 34.1671 71.0001L34.8013 70.3977C33.9428 69.7208 32.8361 68.877 31.5189 67.9489C31.0024 67.5812 30.4428 67.2006 29.867 66.8137C30.1442 66.2119 30.3847 65.5938 30.5871 64.9629C31.5821 65.0413 33.4165 64.4558 33.654 64.3816C33.8827 64.9633 34.0957 65.5278 34.2913 66.0686C34.8019 67.4718 35.2096 68.7138 35.5236 69.7129L36.2107 69.0561C35.8945 68.1258 35.5011 67.0234 35.0236 65.8011C34.7954 65.2085 34.5404 64.584 34.2697 63.9424C34.4837 63.8102 36.2382 62.7123 36.7725 61.9083C37.2629 61.1777 37.6804 60.1123 37.3731 59.2261C37.3082 59.0173 37.2 58.8244 37.0556 58.6601C36.9113 58.4959 36.734 58.3638 36.5352 58.2726C36.3364 58.1813 36.1207 58.1329 35.902 58.1306C35.6833 58.1282 35.4666 58.1719 35.2659 58.2588C34.0761 58.8133 33.6689 61.1502 33.8144 62.3153C33.8332 62.3818 33.9987 63.1213 34.1181 63.5831C34.0089 63.3231 33.9015 63.0698 33.7862 62.8007C33.554 62.2703 33.3095 61.7469 33.0504 61.1846C32.9156 60.9187 32.7784 60.6486 32.6389 60.3745C32.5074 60.0992 32.3342 59.8286 32.1809 59.5523C31.8148 58.9161 31.4097 58.2944 30.9904 57.6731C31.4548 57.474 33.0881 56.7226 33.6868 56.0835C34.2856 55.4444 34.8543 54.444 34.687 53.5327C34.6542 53.3165 34.5764 53.1096 34.4586 52.9254C34.3408 52.7411 34.1856 52.5837 34.0031 52.4633C33.8205 52.3428 33.6148 52.2621 33.399 52.2262C33.1833 52.1903 32.9625 52.2002 32.7508 52.2551C31.4872 52.6115 30.7357 54.8731 30.705 56.0628C30.7048 56.1383 30.7745 56.9838 30.8227 57.4476C30.5668 57.0747 30.3151 56.7041 30.0435 56.3391C29.264 55.281 28.438 54.2359 27.622 53.1881L26.8798 52.2235C27.0461 52.1515 29.0105 51.314 29.6779 50.5873C30.2705 49.9391 30.8453 48.9478 30.6747 48.0374C30.6465 47.8179 30.5719 47.607 30.4558 47.4186C30.3398 47.2302 30.1849 47.0687 30.0016 46.9449C29.8182 46.821 29.6106 46.7376 29.3925 46.7002C29.1744 46.6628 28.9509 46.6723 28.7367 46.728C27.4698 47.0853 26.7183 49.347 26.6863 50.5191C26.6831 50.6097 26.7891 51.8255 26.8293 52.1337C26.2717 51.4294 25.7497 50.7114 25.252 49.9902C24.5746 49.0165 23.9607 48.0001 23.4139 46.9475C23.4937 46.925 25.5474 46.0479 26.231 45.3023C26.8203 44.6551 27.3951 43.6637 27.2279 42.7524C27.1957 42.5362 27.1184 42.3293 27.0009 42.1449C26.8835 41.9606 26.7286 41.803 26.5464 41.6824C26.3641 41.5619 26.1585 41.481 25.9429 41.445C25.7273 41.4091 25.5066 41.4189 25.295 41.4739C24.0281 41.8311 23.2766 44.0928 23.2446 45.265C23.2424 45.3589 23.3536 46.6701 23.3908 46.9037C23.3721 46.8372 23.321 46.7834 23.2889 46.7207C22.7694 45.6491 22.3456 44.5337 22.0223 43.3876C21.8441 42.7557 21.6934 42.1449 21.5673 41.5451C21.9697 41.4316 23.7866 40.8474 24.4777 40.2433C25.1689 39.6391 25.8136 38.743 25.7499 37.8168C25.741 37.5985 25.6865 37.3845 25.5897 37.1886C25.493 36.9927 25.3562 36.8192 25.1882 36.6795C25.0203 36.5398 24.8248 36.4368 24.6146 36.3774C24.4043 36.3179 24.184 36.3032 23.9677 36.3342C22.6717 36.5633 21.6739 38.715 21.5109 39.8809C21.5036 39.944 21.4856 40.606 21.4869 41.0688C21.4361 40.7995 21.3749 40.5188 21.3302 40.2586C21.1575 39.277 21.0633 38.3702 20.983 37.5636C20.94 37.1055 20.9134 36.693 20.8901 36.3047C21.2215 35.9779 22.5326 34.6568 22.8596 33.8179C23.1866 32.979 23.3617 31.8815 22.87 31.0796C22.7616 30.8886 22.614 30.7226 22.437 30.5926C22.2599 30.4626 22.0574 30.3715 21.8427 30.3253C21.628 30.2791 21.4059 30.2788 21.191 30.3244C20.9762 30.37 20.7734 30.4606 20.596 30.5901C19.5501 31.3876 19.6587 33.7585 20.0498 34.8652C20.0779 34.965 20.7872 36.3983 20.8034 36.3794L20.8267 36.3728C20.842 36.7454 20.8616 37.1456 20.8923 37.5856C20.955 38.3936 21.0193 39.3088 21.182 40.2932C21.3324 41.3589 21.5451 42.4148 21.819 43.4557C22.1207 44.6236 22.5259 45.7623 23.0298 46.8584C23.0298 46.8584 23.0373 46.885 23.0411 46.8983C22.781 46.6126 22.0253 45.8421 21.9609 45.7921C21.0351 45.0552 18.8537 44.1555 17.7525 44.8716C17.5731 44.9961 17.4218 45.1568 17.3085 45.3435C17.1952 45.5302 17.1224 45.7386 17.0948 45.9552C17.0672 46.1718 17.0854 46.3918 17.1483 46.6009C17.2112 46.8101 17.3174 47.0036 17.4599 47.1691C18.0407 47.892 19.1595 48.1042 20.0457 48.0768C21.0348 48.0456 22.9573 47.0978 23.1118 47.0219C23.6504 48.1245 24.2625 49.1895 24.9442 50.2099C25.3412 50.8158 25.7526 51.3963 26.1625 51.9843C25.9298 51.7447 25.7199 51.5347 25.6872 51.508C24.7614 50.7711 22.58 49.8714 21.4788 50.5876C21.2994 50.712 21.1481 50.8728 21.0348 51.0595C20.9215 51.2461 20.8487 51.4545 20.8211 51.6712C20.7935 51.8878 20.8117 52.1078 20.8746 52.3169C20.9375 52.526 21.0437 52.7196 21.1862 52.885C21.7679 53.6112 22.8858 53.8201 23.7686 53.7937C24.6515 53.7673 26.3176 52.9923 26.753 52.7798C26.9198 53.002 27.0799 53.2261 27.2467 53.4483C28.0398 54.517 28.8378 55.5771 29.583 56.6413C29.8466 57.0157 30.0935 57.3948 30.3437 57.773C30.137 57.562 29.9582 57.3863 29.9299 57.362C29.0041 56.6251 26.8193 55.7263 25.7215 56.4415C25.5417 56.5657 25.39 56.7263 25.2762 56.9129C25.1625 57.0995 25.0893 57.308 25.0614 57.5248C25.0335 57.7415 25.0515 57.9617 25.1142 58.1711C25.177 58.3804 25.283 58.5742 25.4255 58.7399C26.0096 59.4619 27.1251 59.675 28.0113 59.6476C28.8974 59.6203 30.3972 58.9174 30.9163 58.6705C31.1603 59.0648 31.4043 59.459 31.6099 59.857C31.7513 60.1294 31.9089 60.3829 32.038 60.6624C32.1671 60.9419 32.301 61.2129 32.4305 61.4815C32.6594 62.0128 32.9029 62.558 33.1156 63.0832C33.2648 63.4468 33.4026 63.7956 33.5405 64.1444C33.2803 63.7691 32.7598 63.0435 32.7078 62.9864C31.9892 62.2483 31.0948 61.705 30.1086 61.4075C30.0314 61.3223 29.9469 61.2441 29.856 61.1736C29.6867 61.0353 29.4902 60.9342 29.2792 60.8768C29.0682 60.8195 28.8475 60.8071 28.6315 60.8406C28.4155 60.8741 28.2089 60.9527 28.0252 61.0713C27.8415 61.1898 27.6848 61.3457 27.5654 61.5288C26.8762 62.6493 27.8298 64.8215 28.5917 65.7158C28.6386 65.7673 29.1897 66.2831 29.5588 66.5991C29.3211 66.4435 29.1109 66.2838 28.849 66.1315C28.365 65.8157 27.8706 65.5136 27.3444 65.1881L26.553 64.7364C26.2944 64.5832 25.9987 64.4512 25.7135 64.3055C25.0582 63.9805 24.3777 63.6806 23.6877 63.3977C23.9597 62.962 24.9331 61.4491 25.0481 60.5838C25.163 59.7185 25.1171 58.5756 24.4726 57.9066C24.3279 57.742 24.1501 57.6099 23.9509 57.5189C23.7516 57.4279 23.5353 57.38 23.3163 57.3784C23.0972 57.3768 22.8803 57.4215 22.6797 57.5096C22.4791 57.5977 22.2994 57.7272 22.1524 57.8896C21.3013 58.8942 21.9123 61.1881 22.5315 62.1873C22.5702 62.2482 23.0957 62.9149 23.3906 63.2733C22.984 63.1044 22.5764 62.9321 22.1317 62.7811C20.8984 62.3284 19.6318 61.9102 18.3751 61.4892L17.2232 61.096C17.3243 60.9455 18.4984 59.1641 18.6517 58.1803C18.7876 57.3128 18.7208 56.1721 18.0762 55.5031C17.9304 55.3429 17.7526 55.2151 17.5544 55.1278C17.3562 55.0405 17.1418 54.9957 16.9252 54.9962C16.7086 54.9968 16.4945 55.0427 16.2967 55.131C16.0989 55.2193 15.9218 55.348 15.7768 55.5089C14.9248 56.5102 15.5367 58.8075 16.1584 59.8025C16.2041 59.8757 16.963 60.8356 17.1654 61.0693C16.3216 60.7759 15.4807 60.4674 14.6665 60.1514C13.5634 59.7143 12.4897 59.2065 11.4521 58.6311C11.4969 58.561 12.7358 56.704 12.8939 55.7117C13.0307 54.8474 12.9663 53.7025 12.3218 53.0335C12.1754 52.8711 11.9964 52.7414 11.7966 52.6527C11.5968 52.564 11.3806 52.5184 11.1619 52.5188C10.9433 52.5192 10.7272 52.5655 10.5277 52.6549C10.3282 52.7442 10.1497 52.8745 10.0039 53.0374C9.15279 54.042 9.76378 56.3359 10.3854 57.3309C10.4331 57.4108 11.251 58.4401 11.4113 58.6139L11.2266 58.5188C10.2012 57.9134 9.23234 57.217 8.33159 56.4382C7.82761 56.0132 7.37206 55.5816 6.93502 55.1521C7.20285 54.8288 8.39917 53.3427 8.64188 52.4594C8.88458 51.5761 8.93204 50.4714 8.366 49.7371C8.23863 49.5594 8.07525 49.4104 7.8865 49.2999C7.69775 49.1894 7.48785 49.1199 7.27046 49.0958C7.05307 49.0718 6.83306 49.0938 6.62474 49.1604C6.41641 49.227 6.22444 49.3368 6.06132 49.4824C5.10666 50.3871 5.46355 52.7347 5.97057 53.7943C5.98745 53.8541 6.34101 54.4078 6.6135 54.8012C6.4215 54.604 6.21764 54.4031 6.03748 54.2098C5.35276 53.4874 4.7672 52.7731 4.26007 52.1586C3.97514 51.7974 3.70716 51.471 3.48899 51.1555C3.5845 50.705 3.94722 48.8725 3.75848 47.9995C3.56975 47.1266 3.07211 46.1002 2.24293 45.7058C2.04798 45.6068 1.83438 45.5499 1.61601 45.5389C1.39764 45.5279 1.17939 45.5629 0.975447 45.6417C0.771506 45.7206 0.586442 45.8415 0.432284 45.9965C0.278126 46.1516 0.158326 46.3373 0.0806734 46.5417C-0.351674 47.7837 1.047 49.7011 1.98615 50.4091C2.06852 50.472 3.4449 51.2793 3.44925 51.2565L3.44269 51.2332C3.6595 51.5311 3.89993 51.8617 4.16355 52.211C4.663 52.8491 5.23194 53.5682 5.90046 54.3094C6.61664 55.1152 7.37959 55.8782 8.18535 56.5944C9.08071 57.4015 10.0459 58.1276 11.0696 58.7641L11.1079 58.7856C10.7229 58.6932 9.68003 58.4703 9.58087 58.4624C8.41045 58.3473 6.08954 58.8116 5.56144 60.0195C5.47977 60.222 5.44168 60.4395 5.44967 60.6578C5.45766 60.876 5.51154 61.0902 5.60781 61.2862C5.70407 61.4822 5.84056 61.6558 6.00837 61.7956C6.17619 61.9353 6.37157 62.0382 6.58179 62.0974C7.47824 62.3867 8.5277 61.9328 9.24607 61.4251Z" fill="#333333"/>
<path d="M21.3494 41.4092C21.3727 41.4026 20.5949 40.0065 20.5354 39.9228C19.8529 38.9665 17.9704 37.523 16.7156 37.9235C16.5098 37.9965 16.3216 38.1118 16.1632 38.262C16.0047 38.4122 15.8795 38.5939 15.7956 38.7955C15.7117 38.9971 15.671 39.214 15.6762 39.4323C15.6814 39.6506 15.7322 39.8654 15.8255 40.0628C16.1989 40.9159 17.2266 41.4159 18.0811 41.62C19.0826 41.8617 21.3461 41.4101 21.3494 41.4092Z" fill="#333333"/>
<path d="M157.072 13.9755C156.054 14.1837 153.814 13.6487 153.814 13.6487C153.814 13.6487 154.615 12.2742 154.674 12.1928C155.394 11.2717 157.326 9.88354 158.564 10.3277C158.767 10.4072 158.952 10.5286 159.105 10.6842C159.259 10.8398 159.378 11.026 159.454 11.2306C159.531 11.4353 159.564 11.6538 159.55 11.8719C159.537 12.09 159.478 12.3029 159.376 12.4966C158.965 13.3413 157.931 13.7981 157.072 13.9755Z" fill="#333333"/>
<path d="M154.9 20.3502C153.913 20.2875 152.023 19.2735 151.87 19.1908C151.293 20.2754 150.644 21.3197 149.926 22.3164C149.512 22.8964 149.078 23.4711 148.636 24.0409C148.876 23.8116 149.095 23.6064 149.127 23.5827C150.065 22.8731 152.287 22.0564 153.368 22.8104C153.544 22.9407 153.69 23.1065 153.797 23.297C153.904 23.4875 153.969 23.6984 153.989 23.916C154.009 24.1335 153.983 24.3529 153.913 24.5597C153.842 24.7665 153.729 24.9561 153.581 25.1163C152.975 25.8218 151.845 25.9897 150.967 25.9321C150.09 25.8745 148.449 25.045 148.022 24.8172L147.505 25.4689C146.675 26.5073 145.842 27.539 145.054 28.5762C144.777 28.9416 144.515 29.3132 144.253 29.6816C144.468 29.4773 144.65 29.3075 144.683 29.2839C145.617 28.5752 147.842 27.7576 148.924 28.5116C149.099 28.6422 149.245 28.8082 149.352 28.9989C149.459 29.1897 149.525 29.4008 149.545 29.6186C149.565 29.8364 149.539 30.0561 149.469 30.2632C149.399 30.4703 149.285 30.6603 149.137 30.8208C148.531 31.523 147.397 31.6918 146.524 31.6366C145.65 31.5814 144.163 30.8269 143.654 30.5613C143.403 30.9444 143.152 31.3275 142.904 31.7205C142.749 31.9867 142.585 32.2339 142.448 32.5096C142.31 32.7854 142.165 33.0487 142.029 33.3169C141.777 33.8366 141.519 34.3725 141.288 34.89C141.127 35.2477 140.975 35.5884 140.826 35.9358C141.099 35.568 141.646 34.8608 141.699 34.8064C142.517 33.9654 144.595 32.816 145.773 33.4028C145.966 33.5048 146.135 33.6464 146.27 33.8183C146.405 33.9903 146.502 34.1887 146.555 34.4007C146.608 34.6127 146.616 34.8335 146.578 35.0487C146.54 35.2639 146.457 35.4686 146.334 35.6496C145.838 36.4357 144.749 36.7751 143.874 36.8532C142.913 36.9339 140.966 36.2552 140.723 36.1694C140.475 36.7419 140.242 37.303 140.026 37.8343C139.451 39.2599 138.987 40.5145 138.642 41.5199L137.783 41.3385C138.162 40.3128 138.668 39.0142 139.303 37.5356C139.551 36.9523 139.829 36.3353 140.121 35.7037C139.57 35.3349 139.041 34.9339 138.537 34.5027C137.73 35.0894 135.86 35.5486 135.618 35.6094C135.731 36.2239 135.84 36.8175 135.956 37.3808C136.254 38.844 136.555 40.116 136.813 41.1311L135.88 40.931C135.664 39.9725 135.427 38.826 135.192 37.5353C135.08 36.9099 134.972 36.2441 134.864 35.5565C134.612 35.5557 132.546 35.5353 131.667 35.1298C130.871 34.7621 129.958 34.0718 129.757 33.1556C129.703 32.9439 129.694 32.7231 129.731 32.5077C129.768 32.2923 129.849 32.0871 129.971 31.9055C130.093 31.7239 130.251 31.5699 130.436 31.4537C130.621 31.3374 130.829 31.2615 131.045 31.2308C132.352 31.0811 133.917 32.8619 134.402 33.9314C134.421 33.9979 134.666 34.7149 134.805 35.171C134.766 34.8913 134.722 34.6201 134.683 34.3296C134.6 33.7569 134.535 33.1829 134.466 32.5671C134.439 32.2695 134.415 31.9676 134.39 31.6623C134.365 31.3571 134.365 31.0377 134.351 30.722C134.334 29.9873 134.352 29.2465 134.385 28.4977C133.885 28.5705 132.099 28.7832 131.255 28.551C130.41 28.3189 129.403 27.763 129.073 26.8977C128.987 26.6965 128.945 26.4796 128.949 26.2611C128.953 26.0426 129.002 25.8273 129.095 25.6293C129.187 25.4312 129.32 25.2548 129.485 25.1116C129.65 24.9683 129.844 24.8613 130.053 24.7976C131.32 24.4404 133.142 25.9762 133.787 26.9756C133.83 27.0388 134.208 27.7971 134.41 28.2178C134.433 27.7661 134.457 27.3177 134.495 26.8655C134.61 25.5551 134.765 24.2334 134.913 22.9136C134.961 22.509 135.002 22.1062 135.042 21.7034C134.866 21.7279 132.75 22.041 131.802 21.7701C130.961 21.5261 129.953 20.9811 129.619 20.1167C129.534 19.9156 129.492 19.6987 129.496 19.4802C129.499 19.2616 129.549 19.0463 129.642 18.8483C129.734 18.6502 129.867 18.4739 130.032 18.3306C130.197 18.1873 130.391 18.0804 130.6 18.0167C131.867 17.6594 133.689 19.1953 134.332 20.177C134.379 20.2536 134.927 21.3447 135.05 21.6294C135.158 20.7375 135.228 19.8526 135.279 18.9767C135.349 17.7923 135.342 16.6046 135.26 15.421C135.18 15.4435 132.974 15.7677 132.001 15.4891C131.157 15.246 130.149 14.7011 129.816 13.8367C129.731 13.6352 129.689 13.4181 129.693 13.1994C129.697 12.9808 129.747 12.7655 129.84 12.5674C129.933 12.3694 130.066 12.193 130.231 12.0497C130.397 11.9065 130.59 11.7995 130.799 11.7357C132.066 11.3784 133.885 12.9152 134.528 13.897C134.579 13.9759 135.166 15.153 135.256 15.3717C135.238 15.3052 135.256 15.2317 135.248 15.1623C135.132 13.977 134.911 12.8043 134.586 11.6585C134.408 11.0267 134.217 10.4271 134.012 9.8498C133.609 9.96327 131.755 10.4144 130.853 10.2594C129.951 10.1045 128.927 9.67904 128.501 8.85511C128.394 8.66446 128.328 8.4534 128.308 8.23568C128.288 8.01795 128.314 7.79843 128.384 7.59138C128.454 7.38432 128.567 7.19437 128.716 7.03388C128.864 6.87339 129.045 6.74595 129.246 6.65985C130.47 6.17808 132.445 7.4914 133.19 8.40138C133.233 8.45041 133.591 9.00644 133.831 9.40165C133.734 9.14551 133.639 8.87419 133.542 8.62897C133.176 7.70178 132.786 6.87845 132.43 6.14968C132.227 5.73657 132.034 5.37095 131.851 5.02767C131.401 4.92124 129.593 4.47982 128.876 3.93538C128.159 3.39093 127.436 2.54653 127.433 1.60683C127.426 1.38845 127.465 1.17106 127.548 0.968805C127.631 0.766546 127.755 0.583934 127.913 0.432805C128.07 0.281675 128.258 0.16541 128.464 0.0915695C128.67 0.0177291 128.888 -0.0120429 129.106 0.00418699C130.415 0.137772 131.561 2.21615 131.806 3.36407C131.834 3.46383 131.978 5.05658 131.954 5.0489L131.931 5.05546C132.112 5.38118 132.308 5.73162 132.512 6.12291C132.88 6.84461 133.304 7.65857 133.679 8.58294C134.107 9.5706 134.476 10.5824 134.785 11.6132C135.139 12.7663 135.39 13.9487 135.534 15.1462L135.545 15.1861C135.618 14.8067 135.859 13.7549 135.888 13.6786C136.293 12.5666 137.683 10.6597 138.996 10.6951C139.214 10.7069 139.427 10.7646 139.621 10.8644C139.816 10.9642 139.987 11.1039 140.124 11.2743C140.261 11.4447 140.36 11.642 140.415 11.8534C140.471 12.0648 140.481 12.2855 140.445 12.5011C140.328 13.421 139.485 14.1864 138.718 14.6252C137.858 15.1153 135.721 15.3125 135.549 15.3285C135.666 16.55 135.701 17.778 135.653 19.0041C135.631 19.7283 135.583 20.4381 135.541 21.1536C135.614 20.8278 135.683 20.539 135.697 20.4992C136.102 19.3872 137.495 17.4794 138.805 17.5157C139.023 17.5276 139.236 17.5853 139.431 17.685C139.625 17.7848 139.796 17.9243 139.933 18.0945C140.07 18.2647 140.17 18.4619 140.226 18.6732C140.282 18.8844 140.293 19.1051 140.258 19.3208C140.138 20.2449 139.297 21.0061 138.527 21.4458C137.757 21.8855 135.935 22.0942 135.453 22.1405L135.385 22.9674C135.263 24.294 135.137 25.6148 135.061 26.9106C135.031 27.3676 135.019 27.8198 135.007 28.2721C135.073 27.9842 135.13 27.7419 135.141 27.7063C135.546 26.5943 136.939 24.6865 138.249 24.7228C138.467 24.7352 138.68 24.7932 138.874 24.8932C139.068 24.9931 139.239 25.1328 139.376 25.3031C139.512 25.4734 139.612 25.6705 139.667 25.8817C139.723 26.0928 139.734 26.3133 139.699 26.5289C139.578 27.4496 138.738 28.2142 137.968 28.6538C137.198 29.0935 135.552 29.2777 134.981 29.3384C134.982 29.8011 134.98 30.2648 135.009 30.7124C135.031 31.0186 135.029 31.3171 135.068 31.6219C135.107 31.9268 135.132 32.2287 135.161 32.5254C135.241 33.099 135.321 33.6901 135.414 34.249C135.474 34.6379 135.538 35.0074 135.603 35.3768C135.629 34.9208 135.697 34.0293 135.708 33.9544C135.925 32.9409 136.399 32.0002 137.084 31.2221C137.103 31.1085 137.134 30.9973 137.177 30.8907C137.249 30.6845 137.364 30.4957 137.513 30.3367C137.663 30.1777 137.844 30.0519 138.046 29.9677C138.247 29.8835 138.464 29.8426 138.682 29.8478C138.901 29.853 139.116 29.9041 139.313 29.9978C140.486 30.5931 140.811 32.9425 140.625 34.1041C140.612 34.1724 140.412 34.9002 140.262 35.3625C140.383 35.1056 140.499 34.854 140.626 34.592C140.874 34.0699 141.134 33.5549 141.416 33.0015L141.852 32.2038C141.996 31.9371 142.179 31.6701 142.342 31.3978C142.731 30.7783 143.155 30.1671 143.599 29.5645C143.139 29.3351 141.519 28.5536 140.969 27.8759C140.419 27.1982 139.857 26.2005 140.057 25.2933C140.097 25.0782 140.181 24.8739 140.305 24.6935C140.429 24.5132 140.59 24.361 140.776 24.2468C140.963 24.1326 141.171 24.0589 141.388 24.0305C141.605 24.0022 141.825 24.0199 142.035 24.0823C143.285 24.4943 143.96 26.7704 143.954 27.9459C143.952 28.018 143.853 28.861 143.789 29.3207C144.047 28.9642 144.321 28.5997 144.605 28.2433C145.423 27.212 146.281 26.1946 147.136 25.1781L147.91 24.242C147.748 24.1655 145.813 23.261 145.168 22.5023C144.599 21.8335 144.06 20.826 144.26 19.9188C144.3 19.7036 144.384 19.4992 144.508 19.3189C144.632 19.1386 144.793 18.9865 144.979 18.8725C145.166 18.7585 145.375 18.6852 145.592 18.6574C145.809 18.6296 146.029 18.6479 146.239 18.7111C147.485 19.1207 148.163 21.3992 148.157 22.5714C148.156 22.6578 148.01 23.8727 147.957 24.1786C148.526 23.4867 149.082 22.7843 149.608 22.0904C150.321 21.1421 150.971 20.1481 151.554 19.1148C151.479 19.0784 149.456 18.1413 148.799 17.3787C148.231 16.7133 147.691 15.7025 147.891 14.7953C147.931 14.5805 148.016 14.3766 148.139 14.1967C148.263 14.0168 148.423 13.865 148.61 13.7511C148.796 13.6373 149.004 13.564 149.221 13.536C149.437 13.5079 149.657 13.5259 149.867 13.5885C151.117 14.0005 151.795 16.2756 151.784 17.4488C151.786 17.5418 151.629 18.8459 151.583 19.0778L151.691 18.9002C152.247 17.848 152.708 16.7484 153.069 15.6146C153.277 14.9889 153.44 14.3829 153.588 13.7883C153.191 13.6526 151.394 13.0105 150.729 12.3832C150.064 11.7559 149.443 10.8397 149.542 9.91788C149.558 9.69973 149.619 9.48734 149.723 9.29451C149.826 9.10168 149.968 8.93274 150.141 8.79868C150.314 8.66462 150.513 8.56844 150.726 8.5164C150.938 8.46435 151.159 8.45761 151.374 8.49661C152.661 8.76918 153.583 10.9573 153.704 12.1257C153.721 12.1856 153.706 12.8433 153.682 13.3202C153.743 13.0518 153.812 12.7739 153.868 12.514C154.074 11.5404 154.197 10.6263 154.308 9.83744C154.366 9.37966 154.42 8.96221 154.445 8.57835C154.125 8.24503 152.862 6.87103 152.563 6.02903C152.265 5.18703 152.135 4.06418 152.646 3.29188C152.76 3.10561 152.912 2.94551 153.093 2.82201C153.273 2.69851 153.478 2.61435 153.693 2.57503C153.908 2.53571 154.129 2.54209 154.341 2.59376C154.554 2.64543 154.753 2.74124 154.926 2.87495C155.943 3.70803 155.753 6.07369 155.325 7.1671C155.288 7.26378 154.533 8.67214 154.517 8.655L154.51 8.63173C154.484 8.99802 154.452 9.40558 154.407 9.84205C154.317 10.6462 154.208 11.5565 154.022 12.5388C153.834 13.5992 153.585 14.6478 153.274 15.6789C152.935 16.8358 152.491 17.9595 151.948 19.0359L151.927 19.0743C152.207 18.7943 152.98 18.0594 153.06 18.0008C153.995 17.2922 156.219 16.4745 157.301 17.2285C157.476 17.3588 157.622 17.5246 157.729 17.7151C157.836 17.9056 157.902 18.1165 157.922 18.334C157.942 18.5516 157.916 18.771 157.845 18.9778C157.775 19.1846 157.662 19.3742 157.513 19.5344C156.91 20.2465 155.775 20.4087 154.9 20.3502Z" fill="#333333"/>
<path d="M134.122 9.6069C134.099 9.61347 134.033 8.01672 134.037 7.91517C134.119 6.74321 134.973 4.52791 136.249 4.2148C136.463 4.16893 136.684 4.16851 136.897 4.21356C137.111 4.25861 137.313 4.34811 137.49 4.47627C137.667 4.60443 137.815 4.76838 137.925 4.95746C138.034 5.14655 138.103 5.35655 138.126 5.57383C138.256 6.49546 137.638 7.4596 137.019 8.07919C136.292 8.80851 134.122 9.6069 134.122 9.6069Z" fill="#333333"/>
</g>
</svg>
