<svg width="159" height="71" viewBox="0 0 159 71" fill="none" xmlns="http://www.w3.org/2000/svg">
<path d="M146.929 65.8307C150.821 65.8307 153.976 62.6912 153.976 58.8183C153.976 54.9455 150.821 51.8059 146.929 51.8059C143.037 51.8059 139.882 54.9455 139.882 58.8183C139.882 62.6912 143.037 65.8307 146.929 65.8307Z" stroke="#519273" stroke-width="10" stroke-miterlimit="10"/>
<path d="M55.4088 44.8658C55.0742 45.0168 54.8707 44.8006 54.6499 44.7216C54.0394 44.5054 53.4392 44.248 52.8528 43.9734C52.2664 43.6953 51.6869 43.3933 51.1247 43.0706C50.7487 42.8544 50.4107 42.5729 50.0382 42.343C49.1759 41.8041 48.5619 41.0284 47.9789 40.2252C47.5547 39.6382 47.1994 39.0032 46.8165 38.3854C46.275 37.5067 45.8714 36.5628 45.5368 35.5949C45.3506 35.0594 45.2643 34.4862 45.1436 33.9267C45.0436 33.453 44.9642 32.9794 44.8815 32.5023C44.8573 32.3718 44.8504 32.2414 44.8366 32.111C44.7745 31.4863 44.7159 30.8581 44.6538 30.2334C44.6504 30.1819 44.6297 30.1339 44.6055 30.0412C44.3537 30.3845 44.2916 30.7586 44.1916 31.1087C44.0019 31.7712 43.8398 32.4473 43.7225 33.127C43.619 33.7311 43.588 34.3489 43.5431 34.9633C43.4776 35.8969 43.5707 36.8237 43.7121 37.7435C43.7949 38.2927 43.9881 38.8248 44.1433 39.3602C44.3779 40.1771 44.7021 40.9528 45.1402 41.6874C45.5437 42.367 45.9852 43.0192 46.5095 43.6095C46.6234 43.7365 46.7786 43.8498 46.7648 44.0832C46.6785 44.0214 46.5785 43.9699 46.5061 43.8979C45.9335 43.304 45.285 42.7755 44.8401 42.0718C44.4882 41.5158 44.133 40.9528 43.8398 40.3625C43.2534 39.1852 42.9947 37.9152 42.7912 36.6211C42.6153 35.4953 42.636 34.3695 42.6704 33.2471C42.6946 32.5023 42.8153 31.7609 42.9154 31.0195C42.9912 30.4497 43.0878 29.8799 43.2085 29.317C43.3224 28.785 43.4776 28.2632 43.6294 27.7415C43.7915 27.1855 43.9708 26.6328 44.1468 26.0768C44.2295 25.8159 44.2951 25.5482 44.4193 25.3045C44.7297 24.6901 44.6745 24.0894 44.4227 23.4819C44.233 23.0288 44.0191 22.586 43.8674 22.1226C43.757 21.7931 43.7156 21.443 43.6777 21.0964C43.6604 20.9488 43.7363 20.7943 43.7639 20.6433C43.7915 20.4957 43.8122 20.3481 43.8329 20.2005C43.8018 20.1902 43.7673 20.1799 43.7363 20.173C43.6673 20.3584 43.5673 20.5403 43.5397 20.7325C43.4431 21.3538 43.5362 21.9476 43.7811 22.5311C43.9605 22.9567 44.1606 23.3789 44.2364 23.8491C44.3089 24.2988 44.2399 24.7141 44.0329 25.0985C43.8915 25.356 43.7018 25.6031 43.4845 25.7953C42.7429 26.4543 41.8702 26.9143 40.9734 27.3227C40.6974 27.4497 40.3663 27.4944 40.0593 27.5047C39.2694 27.5253 38.4761 27.5356 37.6896 27.4909C37.2136 27.4635 36.748 27.3227 36.2754 27.2404C35.996 27.1889 35.7166 27.1683 35.4372 27.0756C35.1647 26.9864 34.9026 26.9006 34.6612 26.753C33.7505 26.2004 32.8675 25.6134 32.119 24.8445C31.7258 24.443 31.3395 24.0379 30.929 23.6569C30.4358 23.2004 29.8839 22.816 29.3078 22.4625C28.9629 22.2496 28.6456 21.9956 28.4765 21.6044C28.3248 21.2577 28.3662 21.0449 28.6766 20.8389C28.9491 20.657 29.2319 20.4854 29.532 20.3584C30.2495 20.0495 30.9945 19.8092 31.7603 19.6273C32.2259 19.5174 32.6847 19.3973 33.1573 19.3081C33.785 19.1948 34.3921 18.9717 35.0233 18.8962C35.8029 18.8035 36.5824 18.6388 37.3827 18.8069C37.8794 18.9133 38.4002 18.9271 38.9004 19.0163C39.2039 19.0678 39.4936 19.1811 39.7903 19.2737C39.9731 19.3287 40.1525 19.4042 40.3387 19.4522C40.9734 19.6136 41.5322 19.9499 42.122 20.2108C42.636 20.4408 42.9981 20.3756 43.3534 19.9602C43.7639 19.4797 44.1744 18.9992 44.5745 18.5118C44.7297 18.3195 44.878 18.117 44.9953 17.9008C45.2436 17.4443 45.1574 17.0015 44.916 16.5621C44.6986 16.1674 44.3882 15.8551 44.064 15.5564C43.9398 15.4432 43.8122 15.3333 43.6983 15.2098C43.3327 14.8082 43.4948 14.2075 44.0674 14.0565C44.4779 13.9501 44.8918 13.9192 45.3126 13.8814C45.8542 13.8299 46.3923 13.7304 46.9269 13.6171C47.8203 13.4284 48.5619 12.9856 49.2931 12.4844C49.7726 12.1549 50.2624 11.8426 50.7625 11.5474C51.2868 11.2419 51.8698 11.0977 52.4665 11.0154C52.8114 10.9673 53.1253 11.0669 53.4323 11.1973C53.4323 11.2247 53.4323 11.2522 53.4358 11.2797C53.315 11.29 53.1943 11.3071 53.0736 11.3037C51.9594 11.2694 51.0247 11.6607 50.2175 12.4261C49.6243 12.9856 48.9827 13.4936 48.3653 14.0256C48.2963 14.0839 48.2273 14.1457 48.1514 14.2006C47.7202 14.513 47.5305 14.9249 47.6099 15.4569C47.6616 15.7933 47.5098 16.0953 47.4132 16.4043C47.3167 16.72 47.1442 17.0118 47.1477 17.3619C47.1511 18.0278 47.396 18.5632 47.9203 18.982C48.2618 19.2566 48.5998 19.5312 48.8689 19.8916C49.438 20.657 49.4759 21.4568 49.0586 22.2771C48.8827 22.6203 48.6447 22.943 48.386 23.2279C47.9824 23.6741 47.6823 24.1787 47.5374 24.7484C47.396 25.3079 47.427 25.8949 47.5409 26.4646C47.5823 26.6672 47.634 26.8731 47.703 27.0688C47.8824 27.5562 48.2307 27.8994 48.6688 28.1603C49.2586 28.5138 49.9002 28.7369 50.5763 28.8639C50.9557 28.936 51.3282 29.0493 51.7076 29.1454C51.7318 29.1522 51.7594 29.1557 51.787 29.1591C52.2526 29.2174 52.7217 29.2655 53.1839 29.341C53.6324 29.4165 54.0704 29.5504 54.5188 29.6087C55.3846 29.722 56.0848 30.1819 56.7712 30.6522C57.806 31.3593 58.5787 32.2894 58.9891 33.4771C59.272 34.2974 59.2754 35.1521 59.165 36.0033C59.1375 36.2333 59.0616 36.4633 58.965 36.6761C58.7787 37.088 58.3959 37.2424 57.9923 37.3728C57.4025 37.5616 56.7954 37.5479 56.1952 37.5101C55.2535 37.4518 54.5464 37.8362 53.9531 38.5193C53.6462 38.8728 53.3495 39.2263 53.1805 39.6691C52.9494 40.2629 52.8839 40.8499 53.0356 41.4952C53.3219 42.7446 54.1429 43.613 54.9948 44.4745C55.1156 44.5981 55.2466 44.7182 55.4088 44.8658ZM42.4497 21.0208C42.222 21.4568 41.9944 21.57 41.5115 21.4499C41.3425 21.4053 41.1803 21.316 41.0217 21.2371C40.3456 20.8973 39.6454 20.6295 38.9004 20.4854C38.3209 20.3721 37.731 20.2897 37.1447 20.2108C36.6824 20.149 36.2202 20.1662 35.758 20.2588C36.1961 20.3584 36.6307 20.4408 37.0722 20.4717C37.7345 20.5231 38.3657 20.6845 38.9762 20.9213C39.4453 21.1032 39.9007 21.3229 40.3456 21.5597C40.8872 21.8515 41.4563 21.8481 42.0289 21.7691C42.2289 21.7416 42.4187 21.6181 42.5152 21.4121C42.5842 21.2714 42.5704 21.1341 42.4497 21.0208Z" fill="#4F9374"/>
<path d="M54.8878 11.0291C55.3949 10.8301 55.9054 10.6481 56.4572 10.6035C56.6021 10.5932 56.7435 10.5486 56.885 10.5349C57.7749 10.4491 58.6338 10.4868 59.3961 11.0669C59.8272 11.393 60.3239 11.6264 60.8448 11.8049C61.545 12.0417 62.2348 12.306 62.9213 12.5806C63.856 12.9547 64.47 13.6309 64.8253 14.5714C65.1081 15.3231 65.3461 16.0919 65.7807 16.7819C66.0394 17.1937 66.343 17.561 66.8052 17.7601C67.2743 17.966 67.7399 17.9729 68.1815 17.6812C68.892 17.2075 69.6164 16.7613 70.4166 16.4489C71.1617 16.1606 71.9343 15.9855 72.7276 15.8585C73.659 15.7109 74.5903 15.6732 75.5216 15.735C76.1597 15.7762 76.7944 15.9066 77.4291 16.0027C78.0913 16.1022 78.7294 16.2979 79.3538 16.521C79.6366 16.624 79.9229 16.7269 80.1782 16.878C80.361 16.9844 80.5024 17.1663 80.6473 17.331C80.8163 17.5233 80.7921 17.7395 80.6817 17.9523C80.5231 18.2647 80.2678 18.4946 79.9815 18.6766C79.3917 19.0473 79.0088 19.5896 78.6329 20.1525C77.9499 21.165 77.3359 22.2394 76.3701 23.022C75.6113 23.6364 74.78 24.1307 73.8452 24.4602C72.8104 24.8274 71.7515 24.8309 70.6891 24.7313C70.2372 24.6867 69.8578 24.4773 69.6888 23.9831C69.5577 23.5952 69.3818 23.2142 69.061 22.9293C68.9989 22.8744 68.9196 22.8332 68.7816 22.7371C68.9127 23.07 69.0093 23.3275 69.1197 23.578C69.3197 24.0345 69.2542 24.4705 69.1473 24.9476C68.9955 25.6238 68.5436 26.118 68.2366 26.7015C67.9331 27.2782 67.7675 27.8788 67.702 28.5276C67.6192 29.3582 67.671 30.182 67.771 30.9955C67.909 32.1179 67.9538 33.2403 67.9607 34.3661C67.9641 35.2311 68.2539 35.9999 68.7747 36.6898C68.8437 36.7825 68.892 36.8924 68.9955 37.0777C68.8368 37.0365 68.7644 37.0399 68.7264 37.0056C68.2608 36.604 67.8089 36.1921 67.5226 35.6327C67.3571 35.3134 67.2398 34.9874 67.2398 34.627C67.2363 34.3112 67.2156 33.9954 67.2432 33.6831C67.3088 32.9588 67.0121 32.365 66.6258 31.7918C66.3706 31.4142 66.0912 31.0504 65.867 30.6557C65.4841 29.9829 65.3151 29.2381 65.453 28.4761C65.6186 27.5665 65.9532 26.7015 66.5189 25.9533C66.8293 25.5414 67.0708 25.102 67.1949 24.6043C67.2225 24.4911 67.2363 24.3709 67.2363 24.2542C67.2329 23.6364 67.2329 23.022 67.2156 22.4076C67.2087 22.0987 67.2432 21.8275 67.4881 21.5907C67.7123 21.3744 67.702 21.2303 67.5295 20.966C67.3571 20.7051 67.1811 20.4477 67.0018 20.1937C66.7396 19.823 66.4292 19.5209 66.0153 19.2875C65.4082 18.9443 65.0495 18.3745 64.8115 17.7189C64.6356 17.2315 64.4355 16.7441 64.1906 16.2876C63.8077 15.5737 63.3386 14.9009 62.9764 14.1767C62.6557 13.5279 62.1383 13.1263 61.5243 12.8312C60.9482 12.5566 60.3377 12.3472 59.7548 12.0863C59.4857 11.9662 59.2236 11.8083 58.9925 11.6264C58.6372 11.3484 58.2612 11.1973 57.8094 11.1218C57.2092 11.0223 56.6125 10.9742 56.0054 10.9914C55.7432 10.9982 55.4845 10.9742 55.2362 11.1149C55.1534 11.163 55.0189 11.1218 54.9051 11.1218C54.8982 11.0875 54.8947 11.0566 54.8878 11.0291ZM67.0742 18.4603C67.2812 18.7246 67.464 18.9683 67.6606 19.2017C67.8365 19.4145 68.0711 19.4935 68.3505 19.4935C68.9782 19.49 69.5853 19.3699 70.1889 19.1983C70.8926 18.9992 71.4721 18.6491 71.9136 18.0553C72.1895 17.6846 72.5241 17.3722 72.9691 17.1697C73.6727 16.8505 74.4006 16.624 75.2042 16.4421C74.4454 16.4043 73.8038 16.6137 73.145 16.8436C72.4069 17.1045 71.8205 17.5473 71.2789 18.069C70.9685 18.3676 70.6132 18.5667 70.2131 18.704C69.9647 18.7864 69.7164 18.8619 69.4646 18.9306C69.0886 19.0335 68.7092 19.0507 68.347 18.8791C68.1711 18.7967 68.009 18.6834 67.8296 18.6079C67.6089 18.5152 67.4019 18.3436 67.0742 18.4603ZM68.0331 24.6455C67.5019 24.7553 67.1639 25.2462 67.2846 25.7199C67.4088 25.7061 67.533 25.6958 67.6503 25.6821C67.6261 25.5482 67.602 25.4315 67.5709 25.2839C67.6985 25.2942 67.7779 25.3011 67.94 25.3148C67.8503 25.1569 67.7951 25.0643 67.7365 24.9647C67.8296 24.8652 67.9227 24.7656 68.0331 24.6455Z" fill="#4F9374"/>
<path d="M72.1173 40.9668C72.1691 41.0595 72.207 41.1007 72.2105 41.1453C72.2691 41.8936 72.3002 42.635 72.0794 43.3695C71.8586 44.1006 71.3619 44.6223 70.7721 45.0582C70.2064 45.477 69.5511 45.6589 68.8577 45.7928C68.0817 45.9404 67.309 45.9095 66.5364 45.9129C65.7154 45.9163 64.9152 46.033 64.1115 46.1944C63.4423 46.3282 62.7697 46.4655 62.0764 46.3866C61.49 46.3179 60.9002 46.2561 60.3104 46.2047C59.7723 46.1566 59.2307 46.1394 58.6961 46.0777C58.2235 46.0227 57.7786 45.8717 57.4198 45.5353C57.406 45.525 57.4164 45.4907 57.4129 45.4358C58.3822 45.834 59.3756 45.7001 60.3655 45.6074C60.5898 45.5868 60.814 45.5834 61.0347 45.5594C61.5383 45.5044 61.797 45.0273 61.5418 44.5949C61.4107 44.3752 61.2451 44.1692 61.0727 43.9805C60.5932 43.445 60.2655 42.8512 60.3276 42.1064C60.3931 41.3306 60.7864 40.754 61.4659 40.2666C61.4659 40.4313 61.4797 40.5172 61.4624 40.5995C61.4176 40.8158 61.3693 41.0286 61.3107 41.2414C61.0933 42 61.6176 42.9988 62.373 43.3969C62.8008 43.6235 63.263 43.8088 63.7597 43.7368C64.384 43.6441 64.929 43.4244 65.1877 42.7551C65.3153 42.429 65.1635 42.2025 64.9876 42.024C64.7738 41.8077 64.4909 41.643 64.215 41.5057C63.8011 41.3032 63.3561 41.1693 62.9456 40.9634C62.7594 40.8707 62.5835 40.7025 62.4731 40.524C62.1902 40.0847 62.4317 39.6385 62.7939 39.3639C62.9836 39.2231 63.2285 39.0996 63.4596 39.079C63.939 39.0378 64.4288 39.0618 64.9117 39.0755C65.0635 39.079 65.2153 39.1373 65.3636 39.1751C65.8224 39.2815 66.288 39.3673 66.764 39.3295C67.0089 39.3124 67.2642 39.357 67.4918 39.2094C67.5332 39.182 67.5953 39.1854 67.647 39.1854C68.1713 39.1717 68.6646 39 69.1751 38.9039C69.7649 38.7941 70.3754 38.7495 70.9756 38.7254C71.2102 38.7151 71.4723 38.8078 71.6827 38.9211C72.1346 39.1614 72.138 39.6762 71.6965 40.0092C71.4482 40.1945 71.1757 40.3524 70.9032 40.5034C70.2513 40.8707 69.689 41.3375 69.2993 41.9828C68.9095 42.6281 69.1716 43.088 69.6166 43.342C69.927 43.5205 70.2789 43.4862 70.6066 43.3592C71.2792 43.1018 71.6448 42.5663 71.8552 41.9107C71.9449 41.6155 72.0173 41.3135 72.1173 40.9668Z" fill="#4F9374"/>
<path d="M49.7692 24.7553C49.4105 24.7553 49.1139 24.7553 48.8069 24.7553C49.1277 23.9315 50.7557 23.6226 51.6974 23.9521C53.191 24.4772 53.905 26.2003 53.491 27.2918C53.36 27.0035 53.2496 26.7186 53.1082 26.4475C52.9771 26.1935 52.9081 26.1797 52.7149 26.3925C52.3907 26.7461 51.9768 26.928 51.5215 26.9863C51.3007 27.0138 51.0386 26.9589 50.8351 26.8628C50.4419 26.6706 50.0279 26.4783 49.8796 26.0047C49.8382 25.8708 49.783 25.7369 49.7727 25.5996C49.7554 25.3388 49.7692 25.0779 49.7692 24.7553ZM52.0768 25.5688C52.032 25.6065 51.9699 25.6374 51.9423 25.6889C51.7215 26.1214 51.3732 26.3205 50.8903 26.2587C50.7109 26.2381 50.535 26.19 50.3211 26.1454C50.6488 26.5127 51.0731 26.6294 51.4353 26.4852C51.8457 26.317 52.0665 25.9944 52.063 25.5585C52.1079 25.5104 52.1562 25.4624 52.201 25.4109C52.1769 25.3971 52.1562 25.38 52.132 25.3662C52.1148 25.4349 52.0941 25.5035 52.0768 25.5688ZM50.6316 24.9647C50.6143 24.7656 50.5281 24.666 50.4074 24.6969C50.3211 24.7209 50.2418 24.8377 50.2108 24.9303C50.2004 24.9612 50.3384 25.0951 50.4074 25.0951C50.4867 25.0985 50.5695 25.0058 50.6316 24.9647Z" fill="#4F9374"/>
<path d="M68.9818 46.0674C69.1853 46.596 69.0198 46.9289 68.699 47.2173C68.3299 47.5468 67.8746 47.7115 67.4262 47.8934C66.964 48.0788 66.4811 48.096 65.9913 48.0891C65.2807 48.0788 64.5702 48.0548 63.8596 48.0651C63.5078 48.0719 63.1594 48.1474 62.8076 48.1783C62.2315 48.2264 61.6555 48.2573 61.0794 48.1406C60.5758 48.041 60.0723 47.9587 59.5652 47.8866C58.834 47.7836 58.22 47.4815 57.7647 46.8912C57.7371 46.8534 57.7164 46.8122 57.6508 46.6955C57.7888 46.747 57.8612 46.7607 57.913 46.7951C58.5753 47.2481 59.31 47.485 60.1068 47.5227C61.1622 47.5708 62.2039 47.4712 63.2387 47.2447C63.6457 47.1555 64.0769 47.1761 64.4977 47.1726C65.3393 47.1658 66.1844 47.2138 67.0261 47.1726C67.6366 47.1417 68.2368 46.9804 68.6645 46.4793C68.7645 46.3694 68.8507 46.2424 68.9818 46.0674Z" fill="#4F9374"/>
<path d="M53.798 24.2028C53.7118 23.9694 53.6359 23.7291 53.5359 23.5026C53.3841 23.1559 53.1702 22.847 52.8598 22.617C52.5183 22.363 52.1665 22.1159 51.8319 21.8756C52.1216 21.7624 52.6045 21.8997 53.0426 22.2189C53.6635 22.672 53.7911 23.3722 53.798 24.2028Z" fill="#4F9374"/>
<path d="M68.9508 38.6186C67.8229 38.9893 66.6846 39.2056 65.4636 38.7559C65.574 38.725 65.6464 38.6838 65.7188 38.6838C66.0741 38.6941 66.4259 38.7285 66.7812 38.7285C67.3158 38.7285 67.8539 38.7559 68.3782 38.5671C68.5507 38.5054 68.7577 38.5294 68.9474 38.5122C68.9474 38.5466 68.9474 38.5809 68.9508 38.6186Z" fill="#4F9374"/>
<path d="M65.1598 38.6499C65.0459 38.6567 64.9356 38.6636 64.7424 38.6739C64.9563 38.5503 64.9563 38.5503 65.1598 38.6499Z" fill="#4F9374"/>
<path d="M146.929 62.3368C148.882 62.3368 150.465 60.7617 150.465 58.8186C150.465 56.8756 148.882 55.3004 146.929 55.3004C144.977 55.3004 143.394 56.8756 143.394 58.8186C143.394 60.7617 144.977 62.3368 146.929 62.3368Z" fill="#4F9374"/>
<path d="M84.2382 45.9744C83.1378 45.9744 82.0892 45.8233 81.0958 45.5247C80.1024 45.2227 79.2505 44.5774 78.5399 43.5888C78.8952 41.8932 79.3298 40.0637 79.8437 38.1038C80.3577 36.1439 80.9165 34.1291 81.5201 32.0628C82.1237 29.9965 82.7343 27.9645 83.3586 25.9668C83.9795 23.9726 84.5727 22.1088 85.1419 20.3754C85.711 18.6455 86.225 17.1249 86.6872 15.8172C87.1494 14.5095 87.5047 13.5209 87.753 12.8482C87.8599 12.5667 88.0359 12.1514 88.2842 11.6022C88.5326 11.0564 88.8326 10.497 89.1879 9.93405C89.5432 9.3677 89.9502 8.88373 90.4124 8.47528C90.8746 8.07025 91.3713 7.8643 91.9025 7.8643C92.3992 7.8643 92.8959 8.04279 93.3926 8.3929C92.2923 10.9363 91.1816 13.744 90.064 16.8195C88.9465 19.8915 87.8703 23.063 86.8424 26.3307C85.811 29.5983 84.8728 32.787 84.0209 35.8968C83.1689 39.0066 82.4583 41.8314 81.8892 44.3749C82.3859 44.4469 82.8033 44.4984 83.1413 44.5327C83.4793 44.5671 83.8242 44.5842 84.1795 44.5842C86.4526 44.5842 88.6429 44.0625 90.7574 43.0225C92.8683 41.979 94.8413 40.5511 96.6695 38.7285C98.4976 36.9094 100.105 34.8259 101.488 32.4747C102.871 30.1269 103.948 27.635 104.71 25.0023C105.472 22.3697 105.855 19.7473 105.855 17.1318C105.855 14.2692 105.393 11.9111 104.472 10.0576C103.547 8.20411 102.271 6.83458 100.636 5.94902C99.0012 5.06689 97.1041 4.62411 94.9379 4.62411C92.6303 4.62411 90.5538 5.08405 88.7085 6.00051C86.8631 6.92039 85.4075 8.15606 84.3416 9.71094C83.2758 11.2658 82.7446 13.0164 82.7446 14.9591C82.7446 15.3813 82.7722 15.7554 82.8239 16.0712C82.8757 16.3904 82.9378 16.6719 83.0102 16.919C81.8374 16.919 81.0131 16.6272 80.5336 16.0437C80.0542 15.4602 79.8161 14.7634 79.8161 13.95C79.8161 12.7143 80.2508 11.4683 81.12 10.2155C81.9892 8.96268 83.1965 7.80596 84.7418 6.74534C86.287 5.68473 88.0703 4.83005 90.0951 4.17446C92.1198 3.52231 94.2653 3.19279 96.5384 3.19279C99.7325 3.19279 102.299 3.83809 104.234 5.12867C106.169 6.41926 107.58 8.15949 108.466 10.3494C109.353 12.5392 109.798 14.9969 109.798 17.7153C109.798 20.7908 109.318 23.7289 108.359 26.5401C107.4 29.3478 106.079 31.9289 104.392 34.2767C102.706 36.6279 100.781 38.6771 98.6149 40.4242C96.4487 42.1712 94.1308 43.5339 91.6645 44.5053C89.1983 45.4904 86.7217 45.9744 84.2382 45.9744Z" fill="#4F9374"/>
<path d="M115.713 43.6952C113.547 43.6952 111.922 43.1048 110.839 41.9206C109.756 40.7365 109.214 39.2811 109.214 37.5477C109.214 35.9585 109.614 34.2801 110.411 32.5124C111.212 30.7447 112.274 29.0869 113.605 27.532C114.937 25.9771 116.403 24.714 118 23.7426C119.597 22.7712 121.177 22.2838 122.739 22.2838C123.557 22.2838 124.309 22.4966 125.002 22.9188C125.695 23.341 126.04 24.2094 126.04 25.5172C126.04 26.8592 125.64 28.1224 124.843 29.3065C124.043 30.4907 122.998 31.541 121.701 32.4609C120.404 33.3808 118.986 34.1291 117.441 34.7126C115.896 35.2961 114.361 35.6565 112.833 35.7972C112.76 36.1508 112.709 36.4871 112.674 36.8029C112.64 37.1221 112.622 37.4208 112.622 37.7056C112.622 38.2342 112.684 38.7663 112.809 39.2949C112.933 39.8234 113.153 40.3108 113.474 40.7536C113.795 41.1964 114.23 41.5396 114.778 41.7868C115.327 42.0339 116.013 42.1575 116.827 42.1575C118.352 42.1575 119.862 41.725 121.353 40.86C122.843 39.9951 124.229 38.8555 125.505 37.4413C126.785 36.0272 127.865 34.4723 128.755 32.7767L129.393 33.2538C128.434 35.375 127.216 37.2114 125.743 38.7663C124.271 40.3211 122.674 41.5293 120.949 42.3977C119.235 43.2627 117.486 43.6952 115.713 43.6952ZM113.102 34.795C114.061 34.4757 115.144 34.0089 116.351 33.3911C117.558 32.7733 118.721 32.0387 119.838 31.1909C120.956 30.3431 121.88 29.4061 122.608 28.3832C123.336 27.3604 123.701 26.2826 123.701 25.1499C123.701 24.762 123.629 24.46 123.488 24.2506C123.346 24.0378 123.043 23.9314 122.584 23.9314C121.732 23.9314 120.825 24.2575 119.869 24.9131C118.91 25.5686 117.986 26.4233 117.099 27.4839C116.213 28.5445 115.413 29.7081 114.702 30.9816C113.988 32.2481 113.457 33.5215 113.102 34.795Z" fill="#4F9374"/>
<path d="M132.222 43.8016C130.693 43.8016 129.524 43.3588 128.707 42.4766C127.889 41.5945 127.482 40.2868 127.482 38.5534C127.482 36.9985 127.775 35.0832 128.362 32.8041C128.948 30.525 129.683 28.1841 130.573 25.7814C130.217 25.7093 129.879 25.6475 129.562 25.596C129.241 25.5446 128.941 25.4622 128.658 25.3558V24.4016C128.941 24.4359 129.279 24.4737 129.669 24.508C130.059 24.5423 130.504 24.5801 131 24.6144C131.746 22.706 132.546 20.8593 133.398 19.0779C134.25 17.293 135.091 15.7038 135.926 14.3068C136.761 12.9133 137.558 11.7978 138.323 10.9671C139.086 10.1365 139.734 9.72115 140.269 9.72115C140.552 9.72115 140.81 9.81725 141.041 10.0129C141.273 10.2085 141.386 10.5003 141.386 10.8882C141.386 11.4888 141.014 12.4705 140.269 13.8297C139.524 15.189 138.599 16.8056 137.499 18.6797C136.399 20.5538 135.333 22.5824 134.305 24.7757C134.626 24.7757 134.953 24.7757 135.291 24.7757C135.629 24.7757 135.957 24.7757 136.278 24.7757C137.451 24.7757 138.682 24.7585 139.979 24.7242C141.276 24.6899 142.58 24.6006 143.894 24.4599V25.4141C141.942 25.6269 140.193 25.7848 138.648 25.8912C137.102 25.9976 135.726 26.0491 134.519 26.0491C134.377 26.0491 134.243 26.0491 134.119 26.0491C133.994 26.0491 133.86 26.0491 133.719 26.0491C132.901 27.9232 132.208 29.8488 131.642 31.8259C131.073 33.8064 130.79 35.7285 130.79 37.6026C130.79 39.1232 131.021 40.2078 131.483 40.8634C131.946 41.5156 132.708 41.8451 133.774 41.8451C135.619 41.8451 137.43 41.0316 139.206 39.4081C140.983 37.7845 142.542 35.5741 143.894 32.7835L144.587 33.3121C143.735 35.2926 142.663 37.074 141.366 38.6632C140.069 40.2524 138.641 41.5053 137.078 42.4252C135.505 43.3416 133.888 43.8016 132.222 43.8016Z" fill="#4F9374"/>
<path d="M141.728 56.7212C141.152 56.0725 137.871 55.283 136.547 54.8814C134.602 54.2945 132.535 53.7762 130.386 53.3265C126.078 52.4273 121.422 51.8026 116.644 51.4868C106.207 50.7934 95.2311 51.7442 85.1005 52.7533C70.8169 54.1744 56.4678 56.0828 41.7944 55.7121C35.2511 55.5473 28.7802 54.9261 22.7473 53.8826C17.1284 52.9078 11.6957 51.4936 8.56375 49.3553C4.95577 46.8942 4.89023 43.7845 6.81495 41.0282C7.23576 40.4276 7.74281 39.8406 8.31885 39.2605C8.24641 39.0958 8.19813 38.9207 8.17743 38.7354C8.0912 37.9425 8.45337 37.1839 8.67068 36.4185C8.97077 35.3613 8.99837 34.2492 9.0777 33.1577C9.77446 23.6259 14.7139 14.3927 13.2272 4.94673C13.003 3.51198 12.4477 1.89188 11.0714 1.41478C10.009 1.04751 8.80175 1.53834 8.02221 2.34153C7.24266 3.14471 6.80115 4.20876 6.39413 5.24878C6.24236 5.64007 6.08714 6.05883 6.17338 6.47072C6.28375 6.98901 6.73562 7.34598 7.09435 7.74071C8.53271 9.32991 8.39128 12.0758 6.79425 13.5106C5.19722 14.9419 2.43433 14.8012 0.995966 13.2154C-0.445846 11.6262 -0.300974 8.87684 1.29261 7.44552C1.8307 6.96155 2.49296 6.62517 3.03106 6.14464C3.78301 5.47532 4.25901 4.56573 4.8316 3.74195C6.85289 0.827833 11.0059 -1.09432 14.024 0.77978C16.2833 2.18364 17.0284 5.10805 17.1594 7.75101C17.5664 16.2016 13.7101 24.2437 12.5098 32.6154C12.3856 33.4838 12.4028 34.5616 12.9409 35.1622C13.0789 35.3201 13.2548 35.4437 13.4687 35.5226C13.6446 35.5879 13.8239 35.6119 14.0068 35.6016C14.469 35.5844 14.9381 35.3716 15.352 35.1348C17.2491 34.0261 18.7151 32.3202 20.0189 30.5594C24.8203 24.0721 27.9006 16.332 28.8664 8.33108C27.0279 8.9901 24.7686 8.14573 23.8269 6.44326C22.8853 4.74078 23.3716 2.38615 24.9169 1.1951C28.9664 -1.94212 30.8083 1.6825 31.2947 5.32772C31.4982 6.87574 31.4603 8.42376 31.243 9.46721C29.6218 17.2039 26.2208 24.5698 21.3745 30.8305C19.6464 33.065 17.6699 35.2103 15.1174 36.4322C14.5793 36.6897 14.0068 36.9128 13.5721 37.3178C12.7236 38.1038 12.5305 39.4425 11.6267 40.1633C11.1162 40.5683 10.4367 40.6404 9.8193 40.4687C8.68448 42.7135 8.90868 45.1403 11.5336 47.1619C14.0688 49.1081 18.6495 50.5257 23.6821 51.3323C28.7112 52.1355 34.1887 52.3723 39.5937 52.3826C45.8473 52.3998 52.1044 52.1218 58.2062 51.5623C66.3742 50.814 74.2041 49.5681 82.1617 48.5074C90.1192 47.4434 98.3493 46.5647 106.717 46.5853C122.429 46.6299 136.354 50.7008 141.728 56.7212Z" fill="#4F9374"/>
</svg>
