<svg width="302" height="280" viewBox="0 0 302 280" fill="none" xmlns="http://www.w3.org/2000/svg">
<g filter="url(#filter0_d_359_4363)">
<path d="M261.124 36.7863C229.71 16.5847 190.883 8.31031 153.154 5.87691C133.206 4.59028 112.892 4.76108 93.613 10.0248C89.0759 11.2632 84.4199 12.901 81.1964 16.3157C77.9728 19.7304 76.706 25.4018 79.5341 29.1486C80.7971 30.8221 82.7639 32.0218 83.4801 33.9898C84.8746 37.8194 80.8439 41.315 77.2896 43.3271C68.8813 48.088 60.113 52.2169 51.0844 55.6715C12.0721 70.5968 2.02207 113.753 2.74576 151.165C3.22282 175.811 6.64817 201.503 18.7528 223.389C47.5357 275.43 113.501 281.913 166.661 279.607C167.321 279.578 167.981 279.548 168.641 279.516C197.776 278.123 230.354 273.288 254.123 255.084C273.126 240.53 286.51 218.037 293.684 195.483C301.4 171.224 303.481 144.576 298.259 119.584C297.571 116.294 296.715 113.039 295.677 109.84C292.637 100.465 288.019 91.3976 287.415 81.564C290.541 83.1328 293.667 84.7015 296.794 86.2702C297.734 86.7421 298.766 87.2277 299.799 87.0194C302.409 86.4927 302.243 82.6989 301.252 80.234C296.565 68.5645 288.249 58.6452 278.862 50.25C273.285 45.263 267.35 40.7902 261.124 36.7863Z" fill="#92E3A9"/>
<path opacity="0.8" d="M261.124 36.7863C229.71 16.5847 190.883 8.31031 153.154 5.87691C133.206 4.59028 112.892 4.76108 93.613 10.0248C89.0759 11.2632 84.4199 12.901 81.1964 16.3157C77.9728 19.7304 76.706 25.4018 79.5341 29.1486C80.7971 30.8221 82.7639 32.0218 83.4801 33.9898C84.8746 37.8194 80.8439 41.315 77.2896 43.3271C68.8813 48.088 60.113 52.2169 51.0844 55.6715C12.0721 70.5968 2.02207 113.753 2.74576 151.165C3.22282 175.811 6.64817 201.503 18.7528 223.389C47.5357 275.43 113.501 281.913 166.661 279.607C167.321 279.578 167.981 279.548 168.641 279.516C197.776 278.123 230.354 273.288 254.123 255.084C273.126 240.53 286.51 218.037 293.684 195.483C301.4 171.224 303.481 144.576 298.259 119.584C297.571 116.294 296.715 113.039 295.677 109.84C292.637 100.465 288.019 91.3976 287.415 81.564C290.541 83.1328 293.667 84.7015 296.794 86.2702C297.734 86.7421 298.766 87.2277 299.799 87.0194C302.409 86.4927 302.243 82.6989 301.252 80.234C296.565 68.5645 288.249 58.6452 278.862 50.25C273.285 45.263 267.35 40.7902 261.124 36.7863Z" fill="white"/>
<path d="M185.881 17.5297C182.97 6.70942 167.896 -1.3549 154.755 0.190006C151.481 0.575042 148.294 1.58911 145.834 3.46191C142.479 6.01612 143.275 8.9149 141.614 12.0797C141.153 12.9581 140.254 13.7383 139.111 13.9007C135.844 14.3643 133.211 11.6691 129.902 11.6488C127.428 11.6339 124.265 12.7647 122.886 14.5321C121.601 16.1776 122.496 19.0502 120.183 20.1428C117.597 21.3652 114.452 19.0401 111.656 19.8816C108.181 20.9272 109.76 23.0178 108.497 24.3241C107.234 25.6309 104.707 25.1078 101.233 24.8466C97.758 24.5853 94.9155 27.9828 94.9155 27.9828H204.516C204.516 27.9828 205.463 26.6759 201.357 21.4497C197.251 16.2228 191.565 19.8816 189.039 19.8816C186.514 19.8822 185.882 17.5339 185.881 17.5297Z" stroke="#263238" stroke-miterlimit="10"/>
<path d="M57.7707 48.51C56.6553 44.7578 50.8789 41.9614 45.8437 42.497C44.5887 42.6303 43.3681 42.982 42.4252 43.6313C41.1397 44.5168 41.4443 45.5225 40.8078 46.6199C40.6309 46.9246 40.2865 47.1948 39.8487 47.2513C38.5969 47.412 37.5879 46.4777 36.3199 46.4706C35.372 46.4652 34.1601 46.8574 33.6313 47.4703C33.1387 48.041 33.4819 49.0373 32.5956 49.4157C31.6048 49.8395 30.399 49.0331 29.3278 49.3253C27.9963 49.6877 28.6017 50.4126 28.1178 50.866C27.6338 51.3189 26.6654 51.138 25.3339 51.0475C24.0023 50.9571 22.9131 52.1348 22.9131 52.1348H64.9117C64.9117 52.1348 65.2748 51.6819 63.7016 49.8692C62.1284 48.0571 59.9493 49.3253 58.9814 49.3253C58.0136 49.3259 57.7714 48.5118 57.7707 48.51Z" stroke="#263238" stroke-miterlimit="10"/>
<path d="M266.727 53.5355C264.69 46.681 254.138 41.5726 244.94 42.5516C242.647 42.7956 240.417 43.4377 238.695 44.6244C236.346 46.2425 236.903 48.079 235.74 50.0833C235.418 50.6397 234.788 51.1337 233.988 51.2366C231.701 51.53 229.858 49.8232 227.542 49.8101C225.81 49.8006 223.596 50.5171 222.63 51.6365C221.731 52.6792 222.357 54.4984 220.739 55.1905C218.928 55.9647 216.726 54.4919 214.769 55.0251C212.337 55.6874 213.443 57.0115 212.558 57.8393C211.674 58.6671 209.905 58.3357 207.473 58.1702C205.041 58.0048 203.051 60.1567 203.051 60.1567H279.773C279.773 60.1567 280.436 59.3289 277.562 56.0183C274.688 52.7077 270.708 55.0251 268.939 55.0251C267.171 55.0257 266.729 53.5379 266.727 53.5355Z" stroke="#263238" stroke-miterlimit="10"/>
<path d="M249.293 73.9321C220.184 73.9321 196.585 96.3279 196.585 123.954C196.585 136.763 201.661 148.445 210.003 157.294C213.819 156.765 220.777 156.402 228.465 158.901C238.654 162.213 245.003 167.64 246.393 168.907H251.116C252.507 167.64 258.857 162.213 269.045 158.901C277.416 156.18 284.922 156.852 288.449 157.437C296.872 148.571 302 136.832 302 123.955C302 96.3279 278.403 73.9321 249.293 73.9321Z" fill="#92E3A9"/>
<path opacity="0.5" d="M249.293 73.9321C220.184 73.9321 196.585 96.3279 196.585 123.954C196.585 136.763 201.661 148.445 210.003 157.294C213.819 156.765 220.777 156.402 228.465 158.901C238.654 162.213 245.003 167.64 246.393 168.907H251.116C252.507 167.64 258.857 162.213 269.045 158.901C277.416 156.18 284.922 156.852 288.449 157.437C296.872 148.571 302 136.832 302 123.955C302 96.3279 278.403 73.9321 249.293 73.9321Z" fill="white"/>
<path d="M229.007 147.154C230.492 148.052 231.92 149.001 233.277 150.049C236.007 152.115 238.558 154.37 241.014 156.698C243.16 158.734 245.248 160.84 247.238 162.976L246.308 183.033L247.415 184.232L249.29 182.891L251.166 184.232L250.563 163.84C252.787 161.406 255.155 159.008 257.59 156.698C260.045 154.37 262.596 152.115 265.327 150.049C266.684 149.001 268.112 148.051 269.596 147.154C271.105 146.263 272.639 145.404 274.19 144.567C277.299 142.904 280.482 141.329 283.802 139.986C280.385 141.136 277.076 142.529 273.828 144.018C272.207 144.767 270.6 145.542 269.014 146.351C267.425 147.18 265.869 148.081 264.409 149.066C263.858 149.43 263.319 149.808 262.781 150.184L271.414 134.815L259.566 152.543C258.366 153.466 257.187 154.408 256.03 155.368C254.116 156.959 252.255 158.581 250.433 160.253L249.831 143.579L262.226 125.545L249.739 141.056L249.201 126.133L248.31 142.832L248.307 142.835L248.309 142.836L247.417 159.573C245.834 158.141 244.224 156.742 242.572 155.368C241.272 154.289 239.949 153.23 238.595 152.2L227.386 133.91L235.619 150.045C235.146 149.716 234.676 149.386 234.193 149.067C232.733 148.081 231.177 147.18 229.589 146.351C228.003 145.543 226.396 144.768 224.774 144.018C221.526 142.529 218.217 141.136 214.801 139.986C218.12 141.33 221.303 142.905 224.412 144.568C225.965 145.404 227.498 146.263 229.007 147.154Z" fill="#263238"/>
<path d="M1.75684 182.891L3.63144 184.232L5.50667 182.891L7.38252 184.232L9.25774 182.891L11.133 184.232L13.0076 182.891L14.8822 184.232L16.7562 182.891L18.6308 184.232L20.5054 182.891L22.3806 184.232L24.2558 182.891L26.1317 184.232L28.0075 182.891L29.8821 184.232L31.7573 182.891L33.6319 184.232L35.5066 182.891L37.3818 184.232L39.257 182.891L41.1329 184.232L43.0087 182.891L44.8839 184.232L46.7585 182.891L48.6338 184.232L50.509 182.891L52.3842 184.232L54.2601 182.891L56.1359 184.232L58.0111 182.891L59.8864 184.232L61.7616 182.891L63.6368 184.232L65.5133 182.891L67.3891 184.232L69.2644 182.891L71.1396 184.232L73.0154 182.891L74.8913 184.232L76.7671 182.891L78.643 184.232L80.5182 182.891L82.3941 184.232L84.2705 182.891L86.1464 184.232L88.0216 182.891L89.8975 184.232L91.7739 182.891L93.6498 184.232L95.5256 182.891L97.4015 184.232L99.278 182.891L101.154 184.232L103.03 182.891L104.904 184.232L106.778 182.891L108.655 184.232L110.53 182.891L112.405 184.232L114.279 182.891L116.155 184.232L118.031 182.891L119.907 184.232L121.782 182.891L123.658 184.232L125.534 182.891L127.41 184.232L129.286 182.891L131.162 184.232L133.038 182.891L134.915 184.232L136.791 182.891L138.668 184.232L140.544 182.891L142.421 184.232L144.298 182.891L146.175 184.232L148.053 182.891L149.93 184.232L151.807 182.891L153.683 184.232L155.559 182.891L157.436 184.232L159.313 182.891L161.19 184.232L163.068 182.891L164.946 184.232L166.823 182.891L168.702 184.232L170.581 182.891L172.462 184.232H172.403L174.278 182.891L176.154 184.232L178.029 182.891L179.905 184.232L181.779 182.891L183.653 184.232L185.528 182.891L187.402 184.232L189.277 182.891L191.152 184.232L193.027 182.891L194.903 184.232L196.779 182.891L198.654 184.232L200.528 182.891L202.403 184.232L204.278 182.891L206.153 184.232L208.028 182.891L209.904 184.232L211.78 182.891L213.655 184.232L215.53 182.891L217.405 184.232L219.28 182.891L221.156 184.232L223.032 182.891L224.908 184.232L226.783 182.891L228.658 184.232L230.533 182.891L232.408 184.232L234.284 182.891L236.16 184.232L238.036 182.891L239.911 184.232L241.786 182.891L243.662 184.232L245.539 182.891L247.414 184.232L249.29 182.891L251.166 184.232L253.042 182.891L254.917 184.232L256.793 182.891L258.669 184.232L260.546 182.891L262.421 184.232L264.297 182.891L266.173 184.232L268.05 182.891L269.925 184.232L271.801 182.891L273.675 184.232L275.55 182.891L277.426 184.232L279.302 182.891L281.176 184.232L283.051 182.891L284.926 184.232L286.803 182.891L288.678 184.232L290.554 182.891L292.429 184.232L294.306 182.891L296.181 184.232L298.058 182.891L299.934 184.232L301.624 183.024" stroke="#263238" stroke-miterlimit="10" stroke-linejoin="round"/>
<path d="M246.887 241.504L234.657 240.117L240.18 238.96L233.277 237.803L231.304 238.728L231.896 236.184L227.539 238.656L228.543 235.49L226.176 236.877L225.978 234.795L224.4 236.414L224.203 234.101L222.23 236.646V232.482L221.178 234.457L220.258 236.183V232.944L219.666 230.168L217.044 233.397L215.721 235.026L216.313 230.631C216.313 230.631 214.143 233.869 214.538 233.175C214.932 232.481 214.341 231.325 214.341 231.325L210.988 235.026L211.777 231.556L209.804 232.944L209.409 230.168L207.042 233.175L206.648 229.011L205.662 231.787L204.676 227.16L203.887 233.175L201.322 228.317L201.717 234.1L201.237 233.49L201.43 232.663L200.847 232.994L199.35 231.092L199.518 233.747L197.073 235.134L198.076 231.968L195.709 233.356L195.512 231.274L193.934 232.893L193.736 230.58L191.764 233.125V228.961L190.711 230.936L189.791 232.662V229.423L189.2 226.647L186.578 229.876L185.255 231.505L185.847 227.109C185.847 227.109 183.677 230.348 184.072 229.654C184.466 228.96 183.874 227.803 183.874 227.803L180.521 231.504L181.31 228.034L179.338 229.422L178.944 226.646L176.576 229.653L176.182 225.489L175.195 228.265L174.209 223.639L173.42 229.653L170.856 224.796L171.25 230.579L168.883 227.572L169.138 231.611L165.724 231.039L165.136 230.579V230.941L163.45 230.658L162.097 231.293L161.634 230.909L162.069 229.039L160.473 229.944L160.401 229.885L160.443 229.961L157.712 231.511L158.716 228.345L156.349 229.733L156.151 227.651L154.573 229.27L154.376 226.957L152.403 229.502V225.338L151.351 227.313L150.431 229.039V225.8L149.839 223.024L147.217 226.253L145.895 227.882L146.486 223.486C146.486 223.486 144.316 226.725 144.711 226.031C145.106 225.337 144.514 224.18 144.514 224.18L141.161 227.882L141.95 224.412L139.977 225.8L139.583 223.023L137.216 226.03L136.822 221.866L135.836 224.643L134.849 220.016L134.06 226.031L131.496 221.173L131.768 225.158L130.884 225.677L129.525 223.949L129.678 226.384L129.541 226.464L129.343 224.382L127.765 226.001L127.568 223.688L125.595 226.233V222.069L124.543 224.044L123.623 225.77V222.531L123.031 219.755L120.409 222.984L119.087 224.613L119.678 220.217C119.678 220.217 117.508 223.456 117.903 222.762C118.297 222.068 117.706 220.911 117.706 220.911L114.353 224.613L115.142 221.143L113.169 222.531L112.775 219.754L110.408 222.761L110.014 218.598L109.027 221.374L108.041 216.747L107.252 222.762L104.688 217.904L105.082 223.687L102.715 220.68L103.109 226.926L101.828 225.925L101.951 225.015C101.951 225.015 101.762 225.297 101.508 225.674L98.9666 223.687V226.826L98.9149 226.883L94.2328 222.994L96.2774 226.74L95.4416 227.329L95.0474 224.553L92.6808 227.56L92.2866 223.396L91.3001 226.172L90.3136 221.546L89.5924 227.043L89.2187 226.98L86.9604 222.703L87.2295 226.647L85.7771 226.404L85.7329 226.424L84.9881 225.478L85.0678 226.736L83.8048 227.329L84.3964 224.784L80.0394 227.256L81.0433 224.09L78.6761 225.478L78.4786 223.396L76.9005 225.015L76.7031 222.702L74.7307 225.247V221.083L73.6782 223.058L72.7583 224.784V221.545L72.1666 218.769L69.5447 221.998L68.2219 223.627L68.8135 219.231C68.8135 219.231 66.6437 222.47 67.0386 221.776C67.4334 221.082 66.8412 219.925 66.8412 219.925L63.488 223.627L64.2771 220.157L62.3047 221.544L61.9105 218.768L59.5433 221.775L59.1491 217.611L58.1625 220.388L57.176 215.761L56.387 221.776L53.8229 216.918L54.2172 222.701L51.8499 219.694L52.2442 225.94L48.102 222.701V225.94L43.3681 222.007L46.5238 227.791L30.7441 229.642H43.3681L33.9004 231.029L70.1936 230.335L62.6983 232.649L78.5565 231.549L79.6619 233.574L63.8823 235.425H76.5063L67.0386 236.813L103.332 236.119L95.8365 238.432L132.525 235.887L124.944 235.027L147.868 234.588L140.373 236.901L163.363 235.307L163.558 235.666L147.779 237.517H160.403L150.935 238.904L187.228 238.211L179.733 240.524L186.77 240.036L178.245 241.036H190.869L181.401 242.423L217.694 241.729L210.199 244.043L246.887 241.504ZM81.2407 231.729L80.8403 231.397L81.2407 231.369V231.729ZM84.6219 231.134L85.3424 231.084L85.3829 231.729L84.6219 231.134ZM97.178 228.807L96.7532 228.857L96.9525 227.981L97.3187 228.652L97.178 228.807ZM113.177 233.045L113.677 231.468L116.036 231.423L113.177 233.045ZM117.072 232.557L117.342 231.398L121.059 231.326L117.072 232.557ZM131.478 226.436L131.789 225.456L131.892 226.961L131.478 226.436ZM169.168 232.067L169.257 233.478L168.768 233.422L167.486 232.42L169.168 232.067ZM165.136 232.911V233.01L164.831 232.975L165.136 232.911Z" fill="#92E3A9"/>
<path opacity="0.4" d="M246.887 241.504L234.657 240.117L240.18 238.96L233.277 237.803L231.304 238.728L231.896 236.184L227.539 238.656L228.543 235.49L226.176 236.877L225.978 234.795L224.4 236.414L224.203 234.101L222.23 236.646V232.482L221.178 234.457L220.258 236.183V232.944L219.666 230.168L217.044 233.397L215.721 235.026L216.313 230.631C216.313 230.631 214.143 233.869 214.538 233.175C214.932 232.481 214.341 231.325 214.341 231.325L210.988 235.026L211.777 231.556L209.804 232.944L209.409 230.168L207.042 233.175L206.648 229.011L205.662 231.787L204.676 227.16L203.887 233.175L201.322 228.317L201.717 234.1L201.237 233.49L201.43 232.663L200.847 232.994L199.35 231.092L199.518 233.747L197.073 235.134L198.076 231.968L195.709 233.356L195.512 231.274L193.934 232.893L193.736 230.58L191.764 233.125V228.961L190.711 230.936L189.791 232.662V229.423L189.2 226.647L186.578 229.876L185.255 231.505L185.847 227.109C185.847 227.109 183.677 230.348 184.072 229.654C184.466 228.96 183.874 227.803 183.874 227.803L180.521 231.504L181.31 228.034L179.338 229.422L178.944 226.646L176.576 229.653L176.182 225.489L175.195 228.265L174.209 223.639L173.42 229.653L170.856 224.796L171.25 230.579L168.883 227.572L169.138 231.611L165.724 231.039L165.136 230.579V230.941L163.45 230.658L162.097 231.293L161.634 230.909L162.069 229.039L160.473 229.944L160.401 229.885L160.443 229.961L157.712 231.511L158.716 228.345L156.349 229.733L156.151 227.651L154.573 229.27L154.376 226.957L152.403 229.502V225.338L151.351 227.313L150.431 229.039V225.8L149.839 223.024L147.217 226.253L145.895 227.882L146.486 223.486C146.486 223.486 144.316 226.725 144.711 226.031C145.106 225.337 144.514 224.18 144.514 224.18L141.161 227.882L141.95 224.412L139.977 225.8L139.583 223.023L137.216 226.03L136.822 221.866L135.836 224.643L134.849 220.016L134.06 226.031L131.496 221.173L131.768 225.158L130.884 225.677L129.525 223.949L129.678 226.384L129.541 226.464L129.343 224.382L127.765 226.001L127.568 223.688L125.595 226.233V222.069L124.543 224.044L123.623 225.77V222.531L123.031 219.755L120.409 222.984L119.087 224.613L119.678 220.217C119.678 220.217 117.508 223.456 117.903 222.762C118.297 222.068 117.706 220.911 117.706 220.911L114.353 224.613L115.142 221.143L113.169 222.531L112.775 219.754L110.408 222.761L110.014 218.598L109.027 221.374L108.041 216.747L107.252 222.762L104.688 217.904L105.082 223.687L102.715 220.68L103.109 226.926L101.828 225.925L101.951 225.015C101.951 225.015 101.762 225.297 101.508 225.674L98.9666 223.687V226.826L98.9149 226.883L94.2328 222.994L96.2774 226.74L95.4416 227.329L95.0474 224.553L92.6808 227.56L92.2866 223.396L91.3001 226.172L90.3136 221.546L89.5924 227.043L89.2187 226.98L86.9604 222.703L87.2295 226.647L85.7771 226.404L85.7329 226.424L84.9881 225.478L85.0678 226.736L83.8048 227.329L84.3964 224.784L80.0394 227.256L81.0433 224.09L78.6761 225.478L78.4786 223.396L76.9005 225.015L76.7031 222.702L74.7307 225.247V221.083L73.6782 223.058L72.7583 224.784V221.545L72.1666 218.769L69.5447 221.998L68.2219 223.627L68.8135 219.231C68.8135 219.231 66.6437 222.47 67.0386 221.776C67.4334 221.082 66.8412 219.925 66.8412 219.925L63.488 223.627L64.2771 220.157L62.3047 221.544L61.9105 218.768L59.5433 221.775L59.1491 217.611L58.1625 220.388L57.176 215.761L56.387 221.776L53.8229 216.918L54.2172 222.701L51.8499 219.694L52.2442 225.94L48.102 222.701V225.94L43.3681 222.007L46.5238 227.791L30.7441 229.642H43.3681L33.9004 231.029L70.1936 230.335L62.6983 232.649L78.5565 231.549L79.6619 233.574L63.8823 235.425H76.5063L67.0386 236.813L103.332 236.119L95.8365 238.432L132.525 235.887L124.944 235.027L147.868 234.588L140.373 236.901L163.363 235.307L163.558 235.666L147.779 237.517H160.403L150.935 238.904L187.228 238.211L179.733 240.524L186.77 240.036L178.245 241.036H190.869L181.401 242.423L217.694 241.729L210.199 244.043L246.887 241.504ZM81.2407 231.729L80.8403 231.397L81.2407 231.369V231.729ZM84.6219 231.134L85.3424 231.084L85.3829 231.729L84.6219 231.134ZM97.178 228.807L96.7532 228.857L96.9525 227.981L97.3187 228.652L97.178 228.807ZM113.177 233.045L113.677 231.468L116.036 231.423L113.177 233.045ZM117.072 232.557L117.342 231.398L121.059 231.326L117.072 232.557ZM131.478 226.436L131.789 225.456L131.892 226.961L131.478 226.436ZM169.168 232.067L169.257 233.478L168.768 233.422L167.486 232.42L169.168 232.067ZM165.136 232.911V233.01L164.831 232.975L165.136 232.911Z" fill="black"/>
<path d="M168.955 222.349C169.434 222.473 170.532 222.29 170.532 222.29C170.543 222.289 170.187 221.636 170.16 221.597C169.842 221.149 168.953 220.462 168.344 220.631C167.906 220.753 167.724 221.218 167.888 221.606C168.057 222.002 168.547 222.244 168.955 222.349Z" fill="#263238"/>
<path d="M176.42 233.686H176.817C176.815 233.682 176.815 233.679 176.813 233.675C176.71 233.4 176.595 233.109 176.473 232.81C176.543 232.772 176.933 232.552 177.271 232.302C177.644 232.588 178.527 232.858 178.642 232.893C178.572 233.168 178.502 233.435 178.431 233.687H178.817C178.882 233.432 178.945 233.164 179.008 232.887C179.13 232.893 180.124 232.942 180.559 232.78C180.953 232.633 181.413 232.342 181.534 231.93C181.654 231.527 181.42 231.085 180.97 231.009C180.345 230.904 179.539 231.679 179.275 232.158C179.259 232.186 179.125 232.51 179.045 232.716C179.073 232.588 179.102 232.464 179.13 232.332C179.186 232.071 179.234 231.81 179.286 231.528C179.306 231.391 179.327 231.253 179.348 231.114C179.371 230.976 179.378 230.827 179.394 230.683C179.424 230.347 179.437 230.005 179.442 229.661C179.681 229.707 180.532 229.859 180.947 229.771C181.36 229.683 181.86 229.462 182.046 229.073C182.227 228.692 182.067 228.22 181.634 228.08C181.034 227.885 180.114 228.535 179.777 228.97C179.756 228.998 179.55 229.335 179.441 229.523C179.442 229.315 179.445 229.108 179.439 228.899C179.423 228.294 179.386 227.681 179.353 227.071C179.343 226.883 179.335 226.697 179.326 226.51C179.411 226.527 180.419 226.73 180.884 226.631C181.297 226.543 181.797 226.321 181.983 225.932C182.164 225.551 182.004 225.08 181.572 224.94C180.971 224.746 180.051 225.395 179.714 225.83C179.688 225.863 179.394 226.349 179.325 226.476C179.306 226.065 179.291 225.655 179.293 225.25C179.296 224.692 179.331 224.144 179.406 223.615C179.445 223.624 180.497 223.839 180.972 223.738C181.385 223.65 181.885 223.429 182.072 223.039C182.254 222.659 182.093 222.187 181.661 222.047C181.06 221.853 180.14 222.503 179.803 222.937C179.777 222.971 179.46 223.495 179.409 223.593C179.414 223.562 179.415 223.529 179.42 223.498C179.507 222.935 179.666 222.4 179.84 221.906C179.941 221.618 180.054 221.349 180.17 221.09C180.362 221.149 181.24 221.411 181.679 221.365C182.099 221.321 182.622 221.153 182.851 220.786C183.076 220.426 182.971 219.941 182.557 219.756C181.982 219.5 180.994 220.05 180.608 220.446C180.587 220.467 180.4 220.71 180.266 220.887C180.32 220.77 180.373 220.649 180.428 220.539C180.631 220.124 180.843 219.756 181.034 219.431C181.144 219.247 181.248 219.083 181.346 218.931C181.566 218.896 182.449 218.742 182.81 218.512C183.162 218.288 183.545 217.909 183.571 217.482C183.597 217.063 183.269 216.679 182.813 216.698C182.179 216.723 181.567 217.647 181.416 218.168C181.403 218.213 181.284 218.94 181.295 218.938C181.295 218.938 181.306 218.937 181.308 218.937C181.21 219.082 181.107 219.238 180.998 219.412C180.799 219.733 180.578 220.098 180.365 220.51C180.15 220.922 179.93 221.375 179.742 221.872C179.554 222.37 179.382 222.904 179.28 223.476C179.279 223.482 179.279 223.489 179.278 223.495C179.254 223.319 179.168 222.829 179.157 222.792C179.001 222.272 178.381 221.354 177.747 221.334C177.291 221.32 176.967 221.706 176.996 222.124C177.026 222.551 177.413 222.927 177.766 223.148C178.166 223.398 179.188 223.548 179.269 223.56C179.177 224.105 179.129 224.672 179.113 225.247C179.103 225.576 179.105 225.908 179.11 226.241C179.084 226.089 179.059 225.954 179.054 225.936C178.898 225.415 178.278 224.497 177.644 224.477C177.187 224.462 176.863 224.849 176.893 225.267C176.922 225.694 177.309 226.07 177.663 226.291C178.022 226.515 178.891 226.661 179.122 226.696C179.125 226.824 179.127 226.952 179.131 227.079C179.151 227.691 179.173 228.302 179.176 228.902C179.177 229.113 179.169 229.321 179.163 229.53C179.14 229.395 179.119 229.282 179.114 229.265C178.958 228.745 178.338 227.827 177.704 227.807C177.248 227.792 176.923 228.179 176.953 228.597C176.983 229.024 177.37 229.4 177.723 229.621C178.066 229.836 178.867 229.977 179.14 230.02C179.127 230.233 179.114 230.447 179.091 230.653C179.072 230.793 179.064 230.929 179.037 231.069C179.013 231.208 178.989 231.346 178.966 231.482C178.91 231.743 178.855 232.013 178.795 232.266C178.754 232.443 178.712 232.61 178.669 232.779C178.671 232.568 178.665 232.156 178.661 232.122C178.613 231.765 178.39 231.207 178.063 230.838C178.057 230.785 178.045 230.733 178.029 230.682C177.895 230.283 177.446 230.037 177.026 230.211C176.445 230.452 176.221 231.524 176.276 232.062C176.279 232.094 176.355 232.435 176.407 232.65C176.356 232.528 176.309 232.409 176.255 232.285C176.151 232.038 176.04 231.795 175.922 231.532C175.86 231.407 175.797 231.281 175.734 231.154C175.674 231.026 175.594 230.899 175.524 230.77C175.354 230.474 175.168 230.182 174.973 229.891C175.199 229.804 175.998 229.483 176.292 229.19C176.586 228.899 176.875 228.451 176.805 228.028C176.737 227.615 176.331 227.306 175.889 227.418C175.276 227.572 174.884 228.599 174.854 229.139C174.852 229.173 174.875 229.563 174.893 229.777C174.774 229.604 174.657 229.43 174.531 229.258C174.168 228.762 173.784 228.27 173.404 227.779C173.287 227.628 173.173 227.477 173.058 227.325C173.139 227.295 174.096 226.933 174.427 226.605C174.72 226.314 175.01 225.866 174.94 225.443C174.872 225.029 174.466 224.721 174.025 224.832C173.411 224.987 173.019 226.014 172.989 226.554C172.986 226.595 173.021 227.156 173.037 227.299C172.784 226.965 172.535 226.631 172.303 226.293C171.983 225.826 171.696 225.35 171.453 224.871C171.491 224.856 172.492 224.483 172.83 224.147C173.123 223.856 173.413 223.407 173.343 222.985C173.275 222.571 172.869 222.263 172.427 222.374C171.814 222.528 171.422 223.555 171.391 224.096C171.389 224.138 171.427 224.742 171.442 224.851C171.428 224.822 171.409 224.794 171.395 224.766C171.143 224.25 170.967 223.72 170.827 223.216C170.745 222.924 170.684 222.639 170.631 222.362C170.825 222.31 171.708 222.066 172.048 221.797C172.373 221.539 172.712 221.123 172.692 220.695C172.671 220.277 172.304 219.928 171.852 219.992C171.225 220.081 170.717 221.061 170.624 221.594C170.619 221.624 170.602 221.924 170.593 222.143C170.571 222.018 170.546 221.888 170.528 221.768C170.457 221.314 170.422 220.895 170.394 220.524C170.379 220.313 170.371 220.121 170.365 219.942C170.528 219.797 171.176 219.203 171.344 218.821C171.508 218.449 171.609 217.93 171.384 217.561C171.164 217.198 170.669 217.051 170.299 217.306C169.785 217.661 169.807 218.754 169.983 219.269C169.998 219.313 170.318 219.982 170.327 219.975C170.327 219.975 170.335 219.968 170.337 219.966C170.339 220.139 170.343 220.324 170.353 220.526C170.372 220.899 170.398 221.32 170.458 221.776C170.518 222.232 170.596 222.726 170.726 223.24C170.857 223.755 171.021 224.29 171.266 224.821C171.269 224.827 171.272 224.832 171.276 224.838C171.154 224.705 170.799 224.341 170.769 224.316C170.339 223.964 169.291 223.525 168.751 223.842C168.362 224.071 168.314 224.564 168.581 224.897C168.852 225.237 169.392 225.347 169.815 225.345C170.292 225.344 171.231 224.93 171.306 224.897C171.544 225.4 171.831 225.898 172.15 226.386C172.332 226.666 172.525 226.942 172.722 227.216C172.612 227.104 172.514 227.004 172.498 226.992C172.068 226.639 171.02 226.201 170.48 226.518C170.091 226.747 170.044 227.24 170.31 227.573C170.582 227.913 171.121 228.023 171.544 228.021C171.973 228.019 172.782 227.682 172.994 227.59C173.071 227.695 173.146 227.8 173.224 227.904C173.594 228.405 173.964 228.902 174.313 229.402C174.436 229.577 174.55 229.755 174.665 229.932C174.568 229.832 174.485 229.749 174.471 229.737C174.041 229.386 172.993 228.946 172.453 229.264C172.063 229.493 172.016 229.986 172.283 230.319C172.554 230.659 173.094 230.769 173.516 230.767C173.926 230.765 174.675 230.46 174.928 230.352C175.04 230.537 175.153 230.722 175.253 230.906C175.318 231.033 175.39 231.151 175.448 231.282C175.508 231.41 175.568 231.538 175.627 231.664C175.732 231.91 175.841 232.165 175.937 232.408C176.004 232.576 176.066 232.738 176.128 232.901C176.008 232.725 175.765 232.384 175.742 232.358C175.372 231.948 174.406 231.363 173.822 231.598C173.401 231.767 173.276 232.248 173.486 232.615C173.701 232.991 174.216 233.178 174.634 233.237C175.095 233.303 176.052 233.045 176.171 233.012C176.259 233.241 176.343 233.468 176.42 233.686Z" fill="#263238"/>
<path d="M180.126 220.98C180.136 220.984 180.216 220.252 180.216 220.205C180.209 219.664 179.864 218.622 179.259 218.443C178.822 218.313 178.403 218.604 178.317 219.015C178.228 219.434 178.497 219.895 178.776 220.198C179.105 220.553 180.126 220.98 180.126 220.98Z" fill="#263238"/>
<path d="M47.4827 214.638C48.0195 214.776 49.2477 214.572 49.2489 214.572C49.2614 214.57 48.8628 213.839 48.8316 213.796C48.476 213.294 47.4802 212.525 46.7989 212.715C46.3081 212.851 46.1044 213.371 46.2888 213.805C46.4769 214.249 47.0256 214.521 47.4827 214.638Z" fill="#263238"/>
<path d="M55.8393 227.33H56.284C56.2821 227.326 56.2809 227.321 56.279 227.317C56.1638 227.009 56.0349 226.683 55.8985 226.349C55.9757 226.306 56.4129 226.059 56.791 225.779C57.2089 226.1 58.1985 226.403 58.3262 226.441C58.2483 226.749 58.1692 227.048 58.0901 227.33H58.5223C58.5946 227.044 58.6662 226.744 58.7366 226.433C58.873 226.441 59.9865 226.495 60.4729 226.314C60.9139 226.15 61.4283 225.823 61.5653 225.363C61.6992 224.912 61.4376 224.417 60.9338 224.332C60.2344 224.214 59.3326 225.082 59.0361 225.618C59.0187 225.649 58.8692 226.012 58.7789 226.243C58.8107 226.1 58.8431 225.961 58.8736 225.813C58.9365 225.521 58.99 225.228 59.0486 224.913C59.0716 224.76 59.0947 224.605 59.1177 224.449C59.1445 224.294 59.152 224.128 59.1694 223.966C59.203 223.59 59.2174 223.207 59.223 222.821C59.4908 222.873 60.4436 223.044 60.9082 222.945C61.3704 222.846 61.9302 222.599 62.1383 222.162C62.3419 221.736 62.1625 221.208 61.678 221.051C61.0054 220.833 59.9759 221.561 59.5979 222.048C59.5742 222.078 59.3444 222.456 59.2224 222.666C59.2242 222.434 59.2267 222.202 59.2205 221.968C59.2024 221.29 59.1613 220.605 59.1246 219.921C59.1127 219.711 59.104 219.502 59.0947 219.293C59.19 219.313 60.3178 219.539 60.8385 219.428C61.3006 219.33 61.8611 219.082 62.0691 218.646C62.2728 218.219 62.0934 217.692 61.6089 217.535C60.9363 217.317 59.9068 218.045 59.5294 218.531C59.5007 218.568 59.1707 219.112 59.0934 219.255C59.0723 218.794 59.0554 218.335 59.0586 217.882C59.0617 217.256 59.1009 216.643 59.1844 216.052C59.2286 216.061 60.405 216.302 60.9381 216.189C61.4003 216.091 61.9608 215.842 62.1688 215.407C62.3724 214.98 62.1931 214.453 61.7085 214.296C61.0359 214.078 60.0064 214.806 59.6284 215.292C59.5985 215.33 59.2435 215.916 59.1875 216.027C59.1925 215.992 59.1937 215.955 59.1993 215.92C59.2971 215.289 59.4746 214.69 59.6701 214.137C59.7829 213.816 59.9093 213.514 60.0395 213.224C60.2537 213.29 61.2371 213.584 61.7278 213.532C62.1987 213.483 62.7841 213.295 63.0407 212.883C63.2923 212.481 63.1746 211.938 62.7106 211.731C62.0673 211.444 60.9606 212.059 60.529 212.503C60.5053 212.526 60.2954 212.797 60.1453 212.997C60.2057 212.866 60.2661 212.73 60.3272 212.607C60.5545 212.143 60.7924 211.73 61.006 211.366C61.1293 211.161 61.2452 210.977 61.3554 210.806C61.6014 210.767 62.5904 210.595 62.994 210.338C63.3876 210.086 63.8167 209.662 63.8466 209.184C63.8752 208.715 63.509 208.286 62.9977 208.306C62.2884 208.334 61.6027 209.368 61.4339 209.952C61.4196 210.003 61.2857 210.817 61.2987 210.815C61.2987 210.815 61.3106 210.813 61.3137 210.812C61.2041 210.975 61.0889 211.15 60.9662 211.344C60.7432 211.704 60.4953 212.112 60.2568 212.574C60.017 213.035 59.7704 213.542 59.5605 214.099C59.3494 214.657 59.1576 215.254 59.043 215.894C59.0417 215.901 59.0411 215.909 59.0399 215.916C59.0125 215.719 58.9172 215.17 58.9047 215.129C58.7303 214.547 58.0359 213.519 57.3259 213.496C56.8146 213.48 56.4522 213.912 56.4852 214.38C56.5188 214.858 56.9517 215.279 57.3477 215.527C57.7943 215.807 58.939 215.975 59.0305 215.988C58.9271 216.598 58.873 217.232 58.8555 217.877C58.8449 218.245 58.8462 218.617 58.8524 218.99C58.8231 218.82 58.7957 218.668 58.7895 218.648C58.6151 218.066 57.9207 217.038 57.2107 217.015C56.6994 216.999 56.337 217.432 56.37 217.9C56.4036 218.377 56.8364 218.798 57.2325 219.046C57.6349 219.298 58.607 219.461 58.8655 219.5C58.8698 219.643 58.8717 219.786 58.8761 219.928C58.8979 220.614 58.9228 221.298 58.9253 221.969C58.9265 222.206 58.9184 222.438 58.9116 222.672C58.8854 222.521 58.8618 222.394 58.8561 222.375C58.6818 221.793 57.9874 220.765 57.278 220.742C56.7667 220.726 56.4042 221.159 56.4372 221.627C56.4709 222.105 56.9037 222.525 57.2998 222.774C57.6834 223.014 58.5796 223.171 58.886 223.22C58.8711 223.459 58.8568 223.698 58.8312 223.928C58.8101 224.085 58.8007 224.238 58.7702 224.395C58.7434 224.551 58.7166 224.705 58.6905 224.857C58.6282 225.149 58.5666 225.451 58.4987 225.735C58.4532 225.932 58.4059 226.12 58.3585 226.309C58.3604 226.073 58.3536 225.612 58.3486 225.574C58.2956 225.174 58.0459 224.548 57.6797 224.136C57.6722 224.077 57.6598 224.019 57.6405 223.962C57.4916 223.515 56.9878 223.24 56.5182 223.434C55.8667 223.704 55.6158 224.904 55.678 225.507C55.6818 225.543 55.7665 225.924 55.8244 226.164C55.7677 226.028 55.7148 225.895 55.655 225.756C55.5385 225.479 55.414 225.206 55.2813 224.912C55.2122 224.773 55.1418 224.631 55.0708 224.489C55.0036 224.346 54.9139 224.204 54.8354 224.06C54.6461 223.728 54.4374 223.401 54.2195 223.076C54.4729 222.978 55.3666 222.619 55.6967 222.292C56.0256 221.966 56.3494 221.463 56.2716 220.991C56.195 220.527 55.7409 220.182 55.2464 220.307C54.5595 220.479 54.1211 221.629 54.0868 222.234C54.0849 222.272 54.1111 222.709 54.1304 222.949C53.9977 222.755 53.8663 222.559 53.7256 222.367C53.3189 221.811 52.8898 221.261 52.4638 220.71C52.333 220.542 52.2054 220.372 52.0764 220.203C52.1667 220.169 53.2392 219.763 53.6091 219.397C53.938 219.071 54.2618 218.569 54.1833 218.095C54.1067 217.632 53.6527 217.287 53.1582 217.412C52.4713 217.584 52.0328 218.734 51.9986 219.339C51.9961 219.385 52.0353 220.013 52.0534 220.172C51.77 219.8 51.491 219.425 51.2313 219.046C50.8726 218.523 50.5512 217.991 50.2797 217.453C50.322 217.438 51.4431 217.019 51.8217 216.643C52.1505 216.317 52.4744 215.815 52.3959 215.342C52.3193 214.879 51.8653 214.534 51.3708 214.659C50.6845 214.831 50.2454 215.981 50.2112 216.586C50.2087 216.634 50.251 217.31 50.2678 217.432C50.2517 217.4 50.2311 217.369 50.2155 217.337C49.9334 216.759 49.736 216.166 49.579 215.602C49.4875 215.275 49.419 214.956 49.3598 214.646C49.5772 214.588 50.5662 214.315 50.9461 214.012C51.3104 213.723 51.6897 213.258 51.6666 212.779C51.6436 212.311 51.2319 211.92 50.7262 211.992C50.0237 212.091 49.4557 213.188 49.3523 213.786C49.3467 213.819 49.3274 214.155 49.3175 214.4C49.2932 214.26 49.2652 214.115 49.244 213.98C49.1649 213.472 49.1257 213.002 49.0939 212.586C49.0777 212.35 49.0684 212.135 49.0621 211.935C49.244 211.772 49.9702 211.108 50.1582 210.68C50.342 210.263 50.4547 209.683 50.2031 209.269C49.9571 208.863 49.4028 208.697 48.9886 208.984C48.4132 209.381 48.4381 210.605 48.6343 211.181C48.6511 211.231 49.0104 211.98 49.0198 211.972C49.0198 211.972 49.0285 211.964 49.031 211.962C49.0335 212.155 49.0378 212.362 49.0484 212.588C49.0702 213.006 49.0995 213.477 49.1668 213.989C49.2328 214.499 49.32 215.053 49.4669 215.628C49.6133 216.205 49.7976 216.804 50.0717 217.398C50.0748 217.404 50.0791 217.411 50.0823 217.418C49.9459 217.268 49.5491 216.861 49.5149 216.833C49.0335 216.439 47.8608 215.948 47.2554 216.303C46.8195 216.559 46.7671 217.111 47.0648 217.484C47.3688 217.865 47.9729 217.987 48.4462 217.985C48.9805 217.983 50.0324 217.52 50.1159 217.483C50.3818 218.047 50.7032 218.604 51.0607 219.151C51.2643 219.464 51.4804 219.773 51.7003 220.081C51.5776 219.955 51.4673 219.843 51.4499 219.829C50.9685 219.435 49.7952 218.944 49.1904 219.299C48.7545 219.555 48.7022 220.107 48.9998 220.479C49.3038 220.86 49.9079 220.983 50.3812 220.981C50.862 220.979 51.7669 220.601 52.0048 220.498C52.0908 220.616 52.1748 220.734 52.2614 220.85C52.6756 221.41 53.091 221.968 53.4808 222.527C53.6185 222.724 53.7461 222.922 53.8751 223.12C53.7661 223.009 53.6733 222.915 53.6577 222.903C53.1763 222.509 52.0036 222.018 51.3982 222.372C50.9623 222.628 50.9099 223.181 51.2076 223.553C51.5122 223.934 52.1157 224.057 52.589 224.055C53.0474 224.053 53.8863 223.711 54.1696 223.591C54.2948 223.798 54.4212 224.004 54.5327 224.21C54.6056 224.352 54.6866 224.484 54.7513 224.631C54.8192 224.775 54.8858 224.918 54.9519 225.059C55.069 225.335 55.1916 225.619 55.2988 225.892C55.3747 226.081 55.4439 226.262 55.5136 226.445C55.3791 226.247 55.1069 225.866 55.0808 225.837C54.6673 225.377 53.5861 224.723 52.9315 224.986C52.4601 225.175 52.3206 225.713 52.556 226.125C52.7964 226.545 53.3737 226.755 53.8421 226.821C54.3577 226.895 55.4289 226.606 55.5622 226.569C55.66 226.832 55.7528 227.086 55.8393 227.33Z" fill="#263238"/>
<path d="M59.9897 213.105C60.0015 213.11 60.0906 212.29 60.09 212.238C60.0831 211.632 59.697 210.466 59.0188 210.265C58.5305 210.12 58.0609 210.446 57.9638 210.906C57.8641 211.375 58.1649 211.89 58.4788 212.229C58.8469 212.627 59.9897 213.105 59.9897 213.105Z" fill="#263238"/>
<path d="M108.837 214.478C109.454 214.636 110.863 214.402 110.865 214.402C110.879 214.4 110.421 213.56 110.386 213.511C109.978 212.935 108.836 212.052 108.053 212.27C107.489 212.427 107.256 213.023 107.467 213.522C107.683 214.031 108.312 214.342 108.837 214.478Z" fill="#263238"/>
<path d="M118.43 229.048H118.94C118.938 229.042 118.936 229.037 118.934 229.032C118.802 228.679 118.654 228.305 118.498 227.922C118.586 227.872 119.088 227.589 119.522 227.268C120.002 227.636 121.138 227.984 121.284 228.028C121.195 228.382 121.104 228.725 121.013 229.048H121.509C121.592 228.72 121.674 228.376 121.754 228.019C121.911 228.028 123.189 228.09 123.747 227.882C124.254 227.694 124.844 227.319 125.001 226.79C125.154 226.272 124.855 225.704 124.276 225.606C123.473 225.47 122.438 226.467 122.098 227.082C122.078 227.118 121.906 227.535 121.802 227.8C121.838 227.635 121.875 227.476 121.91 227.306C121.982 226.971 122.043 226.635 122.111 226.273C122.137 226.098 122.164 225.92 122.191 225.741C122.222 225.563 122.23 225.372 122.251 225.187C122.289 224.754 122.306 224.315 122.312 223.872C122.62 223.932 123.714 224.128 124.247 224.015C124.777 223.902 125.42 223.617 125.659 223.117C125.893 222.627 125.687 222.022 125.131 221.841C124.359 221.591 123.177 222.427 122.743 222.985C122.716 223.02 122.453 223.454 122.312 223.695C122.314 223.429 122.317 223.163 122.309 222.894C122.288 222.116 122.241 221.329 122.199 220.544C122.186 220.304 122.175 220.064 122.164 219.824C122.273 219.847 123.569 220.106 124.166 219.979C124.697 219.866 125.339 219.581 125.578 219.081C125.813 218.592 125.606 217.986 125.05 217.806C124.279 217.556 123.097 218.391 122.663 218.95C122.631 218.992 122.251 219.617 122.163 219.781C122.139 219.252 122.119 218.725 122.123 218.205C122.126 217.487 122.171 216.783 122.267 216.104C122.317 216.115 123.668 216.391 124.28 216.262C124.811 216.149 125.454 215.864 125.692 215.364C125.926 214.874 125.72 214.269 125.164 214.088C124.392 213.838 123.21 214.673 122.776 215.232C122.742 215.276 122.335 215.949 122.27 216.076C122.276 216.036 122.278 215.993 122.284 215.953C122.396 215.229 122.6 214.542 122.824 213.907C122.953 213.538 123.098 213.191 123.248 212.858C123.494 212.934 124.622 213.271 125.186 213.212C125.727 213.156 126.399 212.94 126.693 212.468C126.982 212.005 126.846 211.382 126.315 211.145C125.576 210.815 124.305 211.522 123.81 212.031C123.784 212.058 123.542 212.37 123.37 212.598C123.44 212.449 123.509 212.293 123.579 212.151C123.84 211.617 124.112 211.144 124.358 210.727C124.5 210.491 124.633 210.28 124.759 210.084C125.042 210.039 126.177 209.842 126.64 209.546C127.092 209.258 127.585 208.77 127.619 208.222C127.652 207.684 127.231 207.19 126.645 207.214C125.831 207.247 125.043 208.433 124.849 209.103C124.832 209.161 124.679 210.096 124.694 210.093C124.694 210.093 124.708 210.091 124.711 210.091C124.585 210.277 124.452 210.478 124.312 210.701C124.056 211.114 123.772 211.583 123.498 212.113C123.223 212.642 122.94 213.225 122.699 213.864C122.457 214.504 122.237 215.19 122.105 215.924C122.104 215.933 122.103 215.941 122.102 215.95C122.071 215.724 121.961 215.094 121.947 215.046C121.747 214.378 120.95 213.198 120.135 213.172C119.548 213.153 119.131 213.65 119.169 214.187C119.208 214.736 119.705 215.219 120.159 215.503C120.673 215.824 121.986 216.018 122.091 216.033C121.972 216.734 121.91 217.461 121.89 218.201C121.878 218.624 121.879 219.051 121.886 219.478C121.853 219.284 121.821 219.109 121.814 219.086C121.614 218.417 120.817 217.238 120.003 217.211C119.416 217.193 118.999 217.69 119.038 218.227C119.076 218.775 119.573 219.259 120.027 219.543C120.489 219.832 121.606 220.018 121.902 220.064C121.906 220.228 121.91 220.392 121.915 220.555C121.939 221.342 121.968 222.127 121.971 222.898C121.972 223.17 121.963 223.437 121.955 223.705C121.925 223.533 121.898 223.387 121.891 223.365C121.692 222.697 120.894 221.517 120.08 221.491C119.492 221.472 119.076 221.969 119.114 222.506C119.153 223.054 119.65 223.538 120.105 223.823C120.545 224.098 121.574 224.279 121.926 224.335C121.909 224.609 121.892 224.883 121.863 225.148C121.839 225.328 121.828 225.503 121.793 225.683C121.763 225.862 121.732 226.039 121.702 226.214C121.631 226.55 121.56 226.896 121.482 227.222C121.429 227.449 121.375 227.664 121.321 227.881C121.323 227.61 121.315 227.081 121.31 227.037C121.249 226.578 120.962 225.86 120.542 225.386C120.533 225.319 120.519 225.252 120.497 225.187C120.326 224.674 119.748 224.358 119.209 224.581C118.462 224.891 118.173 226.269 118.244 226.961C118.249 227.002 118.346 227.44 118.412 227.715C118.347 227.559 118.286 227.406 118.218 227.246C118.084 226.929 117.941 226.616 117.789 226.279C117.709 226.118 117.628 225.956 117.548 225.792C117.47 225.629 117.368 225.464 117.277 225.299C117.06 224.919 116.82 224.543 116.57 224.171C116.861 224.058 117.886 223.645 118.266 223.27C118.643 222.896 119.015 222.319 118.925 221.776C118.837 221.244 118.316 220.848 117.748 220.991C116.96 221.189 116.456 222.509 116.417 223.203C116.415 223.246 116.445 223.748 116.468 224.022C116.316 223.799 116.165 223.576 116.003 223.355C115.537 222.717 115.043 222.086 114.554 221.454C114.404 221.261 114.257 221.066 114.11 220.872C114.214 220.833 115.444 220.367 115.868 219.946C116.246 219.572 116.618 218.996 116.528 218.452C116.44 217.921 115.919 217.524 115.351 217.667C114.562 217.865 114.059 219.185 114.02 219.879C114.017 219.932 114.062 220.653 114.083 220.836C113.757 220.408 113.437 219.978 113.139 219.543C112.728 218.943 112.359 218.332 112.047 217.715C112.096 217.697 113.382 217.216 113.817 216.785C114.194 216.411 114.566 215.835 114.477 215.292C114.389 214.76 113.867 214.364 113.299 214.507C112.512 214.705 112.008 216.025 111.969 216.719C111.965 216.773 112.014 217.549 112.033 217.689C112.015 217.653 111.992 217.617 111.974 217.58C111.65 216.917 111.423 216.236 111.243 215.589C111.138 215.212 111.059 214.848 110.991 214.491C111.24 214.425 112.376 214.111 112.812 213.765C113.23 213.433 113.666 212.898 113.639 212.349C113.613 211.811 113.141 211.363 112.56 211.445C111.754 211.56 111.102 212.818 110.983 213.505C110.976 213.542 110.954 213.928 110.943 214.21C110.915 214.048 110.882 213.882 110.859 213.727C110.768 213.144 110.723 212.606 110.687 212.128C110.669 211.856 110.658 211.61 110.65 211.38C110.859 211.193 111.692 210.431 111.908 209.94C112.119 209.461 112.248 208.795 111.96 208.319C111.677 207.853 111.041 207.664 110.566 207.993C109.906 208.449 109.934 209.854 110.159 210.515C110.179 210.572 110.591 211.432 110.602 211.422C110.602 211.422 110.612 211.413 110.615 211.411C110.617 211.632 110.623 211.87 110.635 212.13C110.659 212.609 110.693 213.15 110.771 213.737C110.847 214.323 110.947 214.959 111.115 215.619C111.283 216.281 111.495 216.969 111.81 217.65C111.813 217.658 111.818 217.666 111.822 217.673C111.665 217.501 111.209 217.034 111.17 217.002C110.618 216.55 109.271 215.986 108.577 216.394C108.077 216.688 108.016 217.322 108.358 217.749C108.708 218.186 109.4 218.328 109.944 218.325C110.557 218.323 111.764 217.792 111.86 217.749C112.166 218.396 112.534 219.035 112.944 219.663C113.179 220.023 113.426 220.377 113.679 220.73C113.538 220.586 113.412 220.457 113.392 220.441C112.839 219.989 111.493 219.425 110.798 219.833C110.298 220.126 110.238 220.761 110.579 221.189C110.928 221.625 111.622 221.767 112.165 221.765C112.717 221.762 113.755 221.329 114.029 221.211C114.127 221.345 114.224 221.48 114.323 221.614C114.799 222.257 115.276 222.897 115.723 223.538C115.882 223.764 116.028 223.992 116.176 224.219C116.051 224.091 115.944 223.984 115.927 223.969C115.375 223.517 114.028 222.953 113.334 223.361C112.834 223.654 112.773 224.288 113.115 224.716C113.464 225.153 114.157 225.295 114.701 225.292C115.227 225.29 116.19 224.898 116.516 224.76C116.659 224.997 116.805 225.235 116.932 225.471C117.016 225.635 117.108 225.786 117.183 225.954C117.261 226.12 117.338 226.283 117.414 226.445C117.548 226.762 117.689 227.089 117.812 227.401C117.899 227.618 117.978 227.826 118.058 228.036C117.904 227.809 117.592 227.372 117.561 227.338C117.087 226.811 115.845 226.059 115.094 226.361C114.553 226.579 114.393 227.197 114.663 227.669C114.939 228.152 115.602 228.392 116.139 228.468C116.732 228.552 117.96 228.221 118.114 228.178C118.224 228.476 118.33 228.767 118.43 229.048Z" fill="#263238"/>
<path d="M123.194 212.719C123.207 212.725 123.309 211.784 123.309 211.724C123.301 211.029 122.857 209.689 122.079 209.459C121.519 209.293 120.98 209.667 120.868 210.194C120.753 210.733 121.099 211.324 121.459 211.714C121.881 212.171 123.192 212.719 123.194 212.719Z" fill="#263238"/>
<path d="M259.866 232.768C260.482 232.926 261.893 232.692 261.893 232.692C261.907 232.69 261.449 231.85 261.415 231.801C261.007 231.225 259.864 230.342 259.081 230.56C258.517 230.717 258.284 231.313 258.496 231.812C258.711 232.321 259.341 232.632 259.866 232.768Z" fill="#263238"/>
<path d="M269.458 247.337H269.969C269.967 247.332 269.965 247.327 269.963 247.322C269.831 246.969 269.683 246.594 269.526 246.211C269.615 246.162 270.117 245.878 270.551 245.558C271.03 245.925 272.166 246.273 272.313 246.317C272.224 246.671 272.133 247.014 272.042 247.338H272.538C272.62 247.01 272.703 246.665 272.783 246.309C272.939 246.317 274.218 246.379 274.776 246.172C275.282 245.983 275.873 245.608 276.03 245.079C276.183 244.561 275.883 243.992 275.305 243.895C274.502 243.76 273.466 244.757 273.126 245.371C273.106 245.408 272.934 245.824 272.83 246.089C272.866 245.925 272.904 245.765 272.939 245.596C273.011 245.261 273.072 244.924 273.14 244.563C273.166 244.387 273.193 244.209 273.22 244.03C273.25 243.853 273.259 243.662 273.279 243.476C273.318 243.044 273.335 242.605 273.341 242.162C273.648 242.221 274.742 242.418 275.275 242.304C275.806 242.191 276.449 241.906 276.688 241.406C276.922 240.916 276.715 240.311 276.159 240.131C275.387 239.881 274.205 240.716 273.772 241.275C273.745 241.31 273.48 241.744 273.34 241.985C273.342 241.718 273.345 241.453 273.338 241.183C273.317 240.405 273.27 239.618 273.228 238.833C273.215 238.593 273.204 238.353 273.193 238.113C273.302 238.136 274.597 238.395 275.194 238.269C275.725 238.156 276.368 237.871 276.607 237.371C276.84 236.881 276.634 236.276 276.078 236.095C275.306 235.845 274.124 236.68 273.691 237.239C273.659 237.281 273.279 237.906 273.191 238.07C273.167 237.542 273.147 237.015 273.15 236.495C273.153 235.777 273.199 235.073 273.295 234.394C273.345 234.405 274.696 234.681 275.308 234.552C275.838 234.439 276.481 234.154 276.72 233.654C276.954 233.164 276.748 232.559 276.191 232.378C275.419 232.128 274.238 232.963 273.804 233.522C273.77 233.566 273.363 234.239 273.298 234.366C273.304 234.326 273.305 234.283 273.312 234.243C273.424 233.519 273.628 232.832 273.852 232.197C273.981 231.828 274.126 231.482 274.276 231.148C274.522 231.224 275.65 231.561 276.214 231.502C276.754 231.446 277.426 231.23 277.721 230.758C278.01 230.295 277.874 229.672 277.342 229.435C276.604 229.105 275.333 229.812 274.838 230.321C274.811 230.349 274.57 230.66 274.398 230.888C274.468 230.739 274.537 230.583 274.606 230.441C274.867 229.907 275.141 229.434 275.386 229.017C275.528 228.781 275.661 228.57 275.787 228.374C276.069 228.329 277.205 228.132 277.668 227.836C278.12 227.548 278.613 227.06 278.647 226.512C278.68 225.974 278.259 225.48 277.672 225.504C276.858 225.537 276.071 226.723 275.877 227.393C275.86 227.451 275.707 228.386 275.722 228.383C275.722 228.383 275.736 228.381 275.739 228.381C275.613 228.567 275.48 228.768 275.34 228.991C275.085 229.404 274.8 229.873 274.526 230.403C274.251 230.932 273.967 231.515 273.727 232.154C273.485 232.794 273.265 233.48 273.133 234.214C273.132 234.223 273.131 234.232 273.129 234.24C273.098 234.014 272.988 233.384 272.974 233.336C272.774 232.668 271.977 231.488 271.162 231.462C270.576 231.443 270.159 231.94 270.197 232.477C270.236 233.026 270.732 233.509 271.187 233.794C271.701 234.114 273.014 234.308 273.119 234.323C273 235.024 272.938 235.751 272.917 236.491C272.906 236.914 272.907 237.341 272.914 237.768C272.881 237.574 272.849 237.399 272.842 237.376C272.642 236.707 271.845 235.528 271.03 235.501C270.444 235.483 270.027 235.98 270.066 236.517C270.104 237.065 270.601 237.549 271.056 237.833C271.517 238.122 272.634 238.308 272.93 238.354C272.935 238.517 272.937 238.682 272.942 238.845C272.967 239.632 272.996 240.417 272.999 241.188C273 241.46 272.991 241.727 272.983 241.995C272.953 241.822 272.926 241.676 272.919 241.655C272.719 240.986 271.922 239.807 271.108 239.78C270.521 239.762 270.104 240.258 270.142 240.796C270.181 241.344 270.678 241.827 271.133 242.112C271.573 242.387 272.602 242.568 272.954 242.624C272.937 242.898 272.92 243.172 272.891 243.437C272.866 243.618 272.856 243.793 272.821 243.973C272.79 244.151 272.76 244.329 272.729 244.504C272.658 244.839 272.587 245.186 272.51 245.511C272.457 245.738 272.403 245.953 272.349 246.17C272.351 245.9 272.343 245.37 272.338 245.326C272.277 244.868 271.99 244.15 271.57 243.676C271.561 243.608 271.547 243.541 271.525 243.477C271.354 242.964 270.776 242.648 270.237 242.871C269.489 243.181 269.201 244.558 269.272 245.25C269.277 245.291 269.374 245.729 269.44 246.005C269.375 245.848 269.314 245.696 269.245 245.536C269.112 245.218 268.969 244.905 268.816 244.568C268.737 244.407 268.656 244.245 268.575 244.082C268.498 243.918 268.395 243.754 268.305 243.588C268.088 243.208 267.848 242.833 267.598 242.46C267.889 242.348 268.915 241.935 269.293 241.559C269.671 241.185 270.043 240.608 269.953 240.065C269.865 239.533 269.344 239.138 268.776 239.28C267.987 239.479 267.484 240.799 267.445 241.492C267.442 241.536 267.473 242.037 267.495 242.312C267.343 242.089 267.193 241.866 267.031 241.645C266.564 241.007 266.071 240.375 265.582 239.743C265.432 239.55 265.285 239.355 265.138 239.161C265.242 239.122 266.472 238.656 266.896 238.235C267.274 237.862 267.646 237.285 267.556 236.742C267.468 236.21 266.947 235.814 266.379 235.957C265.59 236.155 265.087 237.475 265.048 238.169C265.045 238.221 265.09 238.942 265.111 239.125C264.785 238.697 264.465 238.268 264.167 237.833C263.756 237.232 263.387 236.621 263.075 236.004C263.123 235.987 264.41 235.506 264.845 235.075C265.222 234.7 265.594 234.124 265.504 233.581C265.417 233.049 264.895 232.653 264.327 232.796C263.539 232.994 263.036 234.314 262.996 235.008C262.993 235.063 263.042 235.839 263.061 235.979C263.042 235.942 263.019 235.906 263.001 235.869C262.677 235.206 262.451 234.526 262.271 233.878C262.166 233.502 262.087 233.137 262.019 232.781C262.268 232.715 263.404 232.4 263.84 232.054C264.258 231.722 264.694 231.188 264.667 230.639C264.641 230.101 264.168 229.653 263.588 229.735C262.782 229.849 262.13 231.108 262.01 231.794C262.004 231.831 261.982 232.218 261.971 232.499C261.943 232.338 261.91 232.171 261.887 232.017C261.796 231.434 261.751 230.895 261.715 230.418C261.697 230.146 261.685 229.9 261.678 229.67C261.887 229.483 262.72 228.721 262.936 228.23C263.147 227.751 263.276 227.085 262.988 226.609C262.705 226.143 262.069 225.954 261.594 226.283C260.934 226.739 260.962 228.144 261.187 228.805C261.206 228.862 261.619 229.722 261.63 229.712C261.63 229.712 261.64 229.703 261.642 229.701C261.645 229.922 261.651 230.16 261.662 230.42C261.687 230.899 261.721 231.44 261.799 232.027C261.875 232.613 261.974 233.249 262.143 233.909C262.311 234.571 262.523 235.259 262.838 235.94C262.841 235.948 262.846 235.956 262.849 235.963C262.692 235.791 262.237 235.324 262.198 235.292C261.646 234.84 260.299 234.276 259.605 234.683C259.105 234.977 259.044 235.611 259.386 236.039C259.735 236.476 260.428 236.617 260.972 236.615C261.584 236.612 262.792 236.081 262.888 236.038C263.194 236.685 263.562 237.325 263.972 237.953C264.206 238.312 264.454 238.667 264.707 239.02C264.566 238.875 264.439 238.747 264.419 238.731C263.866 238.278 262.521 237.715 261.826 238.122C261.325 238.416 261.266 239.05 261.607 239.478C261.956 239.915 262.649 240.056 263.193 240.054C263.744 240.052 264.783 239.618 265.057 239.501C265.155 239.635 265.252 239.77 265.351 239.904C265.826 240.547 266.303 241.187 266.751 241.828C266.909 242.054 267.056 242.282 267.204 242.509C267.079 242.381 266.973 242.274 266.954 242.259C266.402 241.807 265.055 241.243 264.361 241.651C263.861 241.944 263.8 242.579 264.142 243.006C264.492 243.443 265.184 243.585 265.728 243.582C266.254 243.58 267.217 243.189 267.543 243.05C267.687 243.287 267.831 243.525 267.959 243.761C268.043 243.924 268.136 244.076 268.21 244.244C268.288 244.41 268.365 244.573 268.441 244.735C268.575 245.052 268.716 245.378 268.839 245.692C268.926 245.908 269.005 246.116 269.085 246.326C268.931 246.099 268.619 245.662 268.588 245.628C268.114 245.101 266.873 244.349 266.122 244.651C265.58 244.869 265.42 245.487 265.691 245.959C265.966 246.442 266.629 246.682 267.167 246.758C267.759 246.842 268.988 246.511 269.141 246.468C269.252 246.765 269.359 247.056 269.458 247.337Z" fill="#263238"/>
<path d="M274.221 231.009C274.235 231.015 274.337 230.073 274.337 230.013C274.328 229.318 273.886 227.979 273.107 227.748C272.547 227.582 272.007 227.957 271.896 228.484C271.781 229.022 272.127 229.614 272.487 230.003C272.909 230.46 274.22 231.008 274.221 231.009Z" fill="#263238"/>
<path d="M29.4595 246.226C30.0761 246.384 31.4854 246.15 31.4867 246.15C31.501 246.148 31.0433 245.309 31.0084 245.259C30.6004 244.683 29.4576 243.8 28.6748 244.018C28.1111 244.175 27.8776 244.771 28.0894 245.27C28.3048 245.779 28.9345 246.09 29.4595 246.226Z" fill="#263238"/>
<path d="M39.0523 260.795H39.5623C39.5605 260.79 39.5586 260.785 39.5567 260.78C39.4247 260.427 39.2765 260.053 39.1201 259.67C39.2086 259.62 39.7105 259.337 40.1446 259.016C40.6242 259.384 41.7602 259.731 41.9065 259.775C41.8168 260.13 41.7265 260.473 41.6356 260.796H42.1313C42.2142 260.468 42.2964 260.124 42.3767 259.767C42.533 259.775 43.8116 259.838 44.3696 259.63C44.876 259.442 45.4664 259.067 45.6233 258.538C45.7765 258.02 45.477 257.452 44.8984 257.354C44.0962 257.218 43.0605 258.215 42.7199 258.83C42.6999 258.866 42.5281 259.283 42.4241 259.548C42.4602 259.383 42.4975 259.224 42.5324 259.054C42.6047 258.719 42.6657 258.383 42.7336 258.021C42.7597 257.846 42.7865 257.668 42.8133 257.488C42.8438 257.311 42.8525 257.12 42.8731 256.934C42.9117 256.502 42.9285 256.063 42.9347 255.62C43.2418 255.68 44.336 255.876 44.8691 255.763C45.3997 255.65 46.0425 255.365 46.2816 254.865C46.5152 254.375 46.309 253.77 45.7529 253.589C44.9812 253.339 43.7992 254.175 43.3657 254.733C43.3389 254.768 43.0749 255.202 42.9341 255.443C42.936 255.176 42.9391 254.911 42.9316 254.641C42.9104 253.864 42.8637 253.077 42.8214 252.292C42.8083 252.052 42.7977 251.812 42.7865 251.572C42.8955 251.594 44.1909 251.854 44.7882 251.727C45.3188 251.614 45.9615 251.329 46.2007 250.829C46.4342 250.339 46.2287 249.734 45.6719 249.554C44.9003 249.304 43.7182 250.139 43.2847 250.698C43.2524 250.74 42.8731 251.365 42.7846 251.528C42.7604 251 42.7411 250.473 42.7442 249.953C42.7473 249.235 42.7921 248.531 42.8886 247.852C42.9391 247.863 44.2899 248.14 44.9015 248.01C45.4321 247.897 46.0749 247.612 46.314 247.112C46.5476 246.622 46.3414 246.017 45.7853 245.837C45.0136 245.587 43.8316 246.422 43.3981 246.981C43.3638 247.025 42.9565 247.697 42.8918 247.824C42.8974 247.784 42.8992 247.742 42.9055 247.701C43.0176 246.978 43.2218 246.29 43.4454 245.655C43.575 245.286 43.7201 244.94 43.8695 244.607C44.1156 244.683 45.2441 245.02 45.8077 244.961C46.3483 244.904 47.0196 244.688 47.3148 244.216C47.6038 243.754 47.468 243.131 46.9362 242.893C46.1975 242.564 44.927 243.27 44.4319 243.78C44.4052 243.807 44.1641 244.118 43.9916 244.347C44.0614 244.197 44.1305 244.041 44.2003 243.9C44.4612 243.366 44.734 242.893 44.98 242.476C45.1214 242.239 45.2546 242.029 45.3811 241.832C45.6632 241.787 46.7985 241.59 47.2619 241.294C47.714 241.006 48.2067 240.519 48.2403 239.97C48.2733 239.433 47.8529 238.939 47.2663 238.963C46.4523 238.995 45.6651 240.181 45.4707 240.852C45.4539 240.91 45.3007 241.844 45.3157 241.842C45.3157 241.842 45.3294 241.839 45.3325 241.839C45.2067 242.025 45.074 242.226 44.9339 242.449C44.6786 242.862 44.3933 243.331 44.1199 243.861C43.8446 244.39 43.5613 244.973 43.3209 245.612C43.0786 246.252 42.8588 246.938 42.7273 247.672C42.7261 247.68 42.7255 247.689 42.7236 247.698C42.6925 247.472 42.5822 246.842 42.5685 246.794C42.3686 246.125 41.5714 244.946 40.7562 244.92C40.1695 244.901 39.7529 245.398 39.7909 245.935C39.8301 246.484 40.3259 246.967 40.7811 247.251C41.2943 247.572 42.6078 247.766 42.7124 247.781C42.5941 248.481 42.5318 249.209 42.5112 249.949C42.4994 250.372 42.5007 250.799 42.5081 251.226C42.4745 251.032 42.4427 250.857 42.4359 250.834C42.236 250.165 41.4388 248.986 40.6242 248.959C40.0375 248.941 39.6209 249.438 39.6589 249.975C39.6975 250.523 40.1938 251.007 40.6491 251.291C41.1106 251.58 42.2272 251.766 42.5231 251.812C42.5274 251.975 42.5305 252.14 42.5355 252.303C42.5604 253.09 42.5891 253.875 42.5922 254.646C42.5934 254.918 42.5841 255.185 42.576 255.453C42.5461 255.28 42.5187 255.134 42.5125 255.113C42.3126 254.444 41.5154 253.264 40.7008 253.238C40.1135 253.22 39.6975 253.716 39.7355 254.253C39.7741 254.802 40.2711 255.285 40.7257 255.57C41.166 255.845 42.1949 256.026 42.5467 256.082C42.5299 256.356 42.5131 256.631 42.4838 256.895C42.4595 257.075 42.449 257.25 42.4141 257.431C42.3836 257.609 42.3531 257.787 42.3225 257.962C42.2515 258.297 42.1805 258.644 42.1027 258.969C42.0504 259.196 41.9956 259.411 41.942 259.628C41.9439 259.358 41.9364 258.828 41.9308 258.784C41.8698 258.326 41.5833 257.607 41.1629 257.134C41.1542 257.066 41.1399 256.999 41.1181 256.934C40.9468 256.421 40.3688 256.105 39.8301 256.329C39.0828 256.639 38.7944 258.016 38.8654 258.708C38.8698 258.749 38.9669 259.187 39.0329 259.462C38.9682 259.306 38.9071 259.154 38.8386 258.993C38.7054 258.676 38.5621 258.363 38.4095 258.026C38.3298 257.865 38.2495 257.703 38.1679 257.54C38.0907 257.376 37.9879 257.212 37.8976 257.046C37.6802 256.666 37.4405 256.29 37.1901 255.918C37.481 255.805 38.5067 255.392 38.8853 255.017C39.2628 254.643 39.6346 254.067 39.5449 253.523C39.4571 252.991 38.9358 252.595 38.3678 252.738C37.5794 252.936 37.0761 254.256 37.0369 254.95C37.0344 254.994 37.0649 255.495 37.0867 255.77C36.9348 255.547 36.784 255.323 36.6221 255.103C36.1557 254.465 35.6624 253.833 35.1735 253.201C35.0234 253.008 34.8771 252.813 34.7288 252.619C34.8328 252.58 36.0635 252.114 36.4876 251.693C36.865 251.32 37.2368 250.743 37.1471 250.2C37.0593 249.668 36.538 249.272 35.9701 249.415C35.1816 249.613 34.6784 250.933 34.6392 251.627C34.636 251.679 34.6809 252.4 34.7021 252.583C34.3763 252.155 34.0562 251.725 33.7585 251.29C33.3469 250.69 32.9782 250.079 32.6661 249.462C32.7147 249.444 34.0014 248.964 34.4361 248.533C34.8135 248.159 35.1853 247.582 35.0957 247.039C35.0078 246.507 34.4866 246.111 33.9186 246.254C33.1307 246.452 32.6269 247.772 32.5877 248.466C32.5846 248.521 32.6331 249.297 32.6524 249.437C32.6338 249.4 32.6107 249.364 32.5927 249.327C32.2688 248.664 32.0421 247.983 31.8621 247.336C31.7569 246.96 31.6784 246.595 31.6105 246.238C31.8596 246.172 32.9956 245.858 33.4316 245.511C33.8495 245.179 34.2854 244.645 34.2586 244.096C34.2325 243.558 33.7598 243.11 33.1793 243.192C32.3734 243.306 31.7214 244.566 31.6018 245.251C31.5956 245.289 31.5738 245.675 31.5619 245.956C31.5339 245.795 31.5015 245.629 31.4779 245.474C31.3876 244.891 31.3421 244.353 31.306 243.875C31.2879 243.603 31.2767 243.357 31.2692 243.127C31.4785 242.94 32.3112 242.177 32.5273 241.687C32.7384 241.207 32.8673 240.542 32.579 240.066C32.2962 239.6 31.6603 239.41 31.1851 239.739C30.525 240.196 30.553 241.6 30.7785 242.261C30.7978 242.319 31.2101 243.179 31.2213 243.17C31.2213 243.17 31.2312 243.161 31.2337 243.158C31.2362 243.38 31.2418 243.618 31.2537 243.877C31.2786 244.356 31.3122 244.898 31.39 245.485C31.466 246.071 31.5657 246.706 31.7344 247.366C31.9026 248.028 32.1144 248.716 32.4289 249.397C32.4326 249.405 32.437 249.413 32.4407 249.42C32.2838 249.248 31.8285 248.781 31.7893 248.749C31.2368 248.296 29.8904 247.733 29.196 248.14C28.6958 248.434 28.6354 249.068 28.9774 249.496C29.3267 249.932 30.0193 250.074 30.563 250.072C31.1758 250.069 32.3834 249.538 32.4793 249.495C32.7851 250.142 33.1532 250.782 33.5636 251.409C33.7978 251.769 34.045 252.124 34.2979 252.476C34.1571 252.332 34.0307 252.203 34.0108 252.187C33.4577 251.735 32.1112 251.171 31.4174 251.579C30.9167 251.872 30.8569 252.507 31.1982 252.935C31.547 253.371 32.2408 253.513 32.7839 253.511C33.3356 253.508 34.3745 253.075 34.6479 252.957C34.7463 253.092 34.8428 253.227 34.9425 253.361C35.4176 254.004 35.8947 254.644 36.3425 255.285C36.5007 255.51 36.647 255.739 36.7953 255.966C36.6701 255.838 36.5642 255.73 36.5461 255.716C35.9937 255.263 34.6472 254.7 33.9528 255.107C33.4527 255.401 33.3923 256.035 33.7342 256.463C34.0836 256.9 34.7762 257.042 35.3199 257.039C35.8461 257.037 36.809 256.645 37.1347 256.507C37.2785 256.744 37.423 256.981 37.5513 257.218C37.6354 257.381 37.7276 257.532 37.8023 257.701C37.8802 257.866 37.9568 258.03 38.0327 258.192C38.1673 258.509 38.308 258.835 38.4307 259.148C38.5179 259.365 38.597 259.573 38.6773 259.783C38.5229 259.556 38.2109 259.118 38.1803 259.085C37.7058 258.557 36.4646 257.806 35.7135 258.108C35.1723 258.326 35.0122 258.943 35.2825 259.416C35.5584 259.899 36.221 260.138 36.7585 260.215C37.3508 260.299 38.5796 259.968 38.7334 259.925C38.8467 260.224 38.9532 260.515 39.0523 260.795Z" fill="#263238"/>
<path d="M43.8161 244.467C43.8298 244.473 43.932 243.532 43.9313 243.471C43.9232 242.776 43.4804 241.437 42.7019 241.206C42.1414 241.04 41.6021 241.414 41.4906 241.941C41.376 242.48 41.7217 243.071 42.0816 243.461C42.5039 243.918 43.8149 244.466 43.8161 244.467Z" fill="#263238"/>
<path d="M78.7171 171.776L81.3578 172.971C81.3578 172.971 82.4533 180.154 83.7038 179.358C84.9544 178.561 85.6656 174.697 85.6656 174.034C85.6656 173.369 87.3335 173.237 87.3335 173.237C87.3335 173.237 88.4289 181.175 90.2357 179.848C92.0424 178.52 91.9197 172.307 91.9197 172.307L97.617 168.722L99.5626 169.253C99.5626 169.253 99.7015 177.751 101.23 177.486C102.759 177.22 102.898 175.361 103.037 173.369C103.176 171.378 103.176 168.855 103.176 168.855L105.816 166.332C105.816 166.332 102.203 164.208 97.617 159.826C93.0308 155.444 79.5517 146.282 77.8845 146.415C76.2166 146.547 74.1328 147.609 75.5222 157.303C76.911 166.996 78.7171 171.776 78.7171 171.776Z" fill="#92E3A9" stroke="#263238" stroke-miterlimit="10"/>
<path d="M79.0516 160.16C79.0516 160.16 79.6545 156.51 81.6648 156.318C83.6752 156.126 86.2884 157.279 86.2884 157.279L72.6182 144.792L79.0516 160.16Z" fill="#263238" stroke="#263238" stroke-miterlimit="10"/>
<path d="M80.6865 169.602C80.6865 169.602 81.3411 173.827 87.3336 173.236" stroke="#263238" stroke-miterlimit="10"/>
<path d="M70.0999 189.212C70.0999 189.212 71.7802 204.829 71.6276 211.543C71.475 218.257 69.6421 221.469 69.9473 223.074C70.2525 224.68 71.7802 226.139 77.2788 226.139C82.7774 226.139 83.2358 223.22 82.7774 220.738C82.3191 218.257 79.4168 205.851 76.3621 198.407C73.3079 190.963 71.7802 185.709 70.0999 189.212Z" fill="#263238" stroke="#263238" stroke-miterlimit="10"/>
<path d="M129.301 164.385C129.301 164.385 124.102 157.678 124.102 142.524C124.102 127.371 130.861 117.187 130.861 117.187" fill="white"/>
<path d="M129.301 164.385C129.301 164.385 124.102 157.678 124.102 142.524C124.102 127.371 130.861 117.187 130.861 117.187" stroke="#263238" stroke-miterlimit="10"/>
<path d="M245.739 172.847C245.739 172.847 251.737 175.369 255.577 176.745C259.416 178.121 275.421 177.973 273.982 181.412C272.542 184.852 261.761 194.268 256.962 192.892C252.163 191.516 245.018 180.872 243.819 178.121C242.619 175.369 242.859 171.93 245.739 172.847Z" fill="#263238" stroke="#263238" stroke-miterlimit="10"/>
<path d="M182.628 185.917C182.628 185.917 187.187 205.178 189.587 210.681C191.987 216.184 193.906 223.063 193.187 226.962C192.467 230.86 193.427 234.987 196.306 235.675C199.186 236.363 209.024 237.28 209.984 234.528C210.944 231.777 205.905 225.128 204.705 223.064C203.505 221 199.905 206.325 199.905 202.885C199.905 199.446 198.705 185.688 198.466 184.771C198.226 183.853 191.027 181.102 182.628 185.917Z" fill="#92E3A9" stroke="#263238" stroke-miterlimit="10"/>
<path d="M196.307 235.674C199.186 236.362 209.025 237.279 209.984 234.528C210.476 233.118 209.392 230.687 208.058 228.372C207.875 228.359 207.695 228.344 207.504 228.339C200.02 228.156 195.933 232.48 194.441 234.491C194.936 235.076 195.554 235.495 196.307 235.674Z" fill="#263238" stroke="#263238" stroke-miterlimit="10"/>
<path d="M148.538 168.607C148.538 168.607 153.113 178.35 162.231 184.77C171.35 191.191 173.989 191.649 180.708 189.127C187.427 186.605 191.026 187.063 193.186 188.21C195.346 189.357 202.065 192.796 199.665 197.382C197.265 201.968 195.106 209.305 203.744 215.038C212.383 220.77 215.982 220.311 216.702 221.228C217.422 222.146 220.781 227.19 219.582 230.629C218.382 234.069 222.701 240.718 227.74 241.865C232.779 243.011 236.379 240.948 239.978 240.26C243.578 239.572 247.897 237.967 247.657 233.152C247.418 228.337 243.098 225.814 243.098 224.668C243.098 223.521 241.658 212.745 242.858 209.764C244.058 206.783 249.817 199.904 250.537 196.235C251.257 192.566 247.657 183.853 247.178 182.019C246.698 180.184 245.738 172.847 245.738 172.847C245.738 172.847 248.618 170.325 246.218 167.573C243.818 164.821 242.379 164.363 239.739 164.821C237.1 165.28 235.18 165.509 232.78 165.28C230.38 165.051 228.941 166.197 228.221 163.675C227.501 161.153 226.061 160.465 223.661 154.732C221.262 148.999 208.304 115.751 206.623 112.083C204.944 108.414 203.65 100.791 203.65 100.791C203.65 100.791 197.151 84.6438 185.713 76.9431C174.274 69.2424 150.877 66.0127 141.778 67.7516C132.679 69.4905 118.381 72.2233 108.502 73.9622C98.6233 75.7011 100.443 70.9813 82.7651 70.4844C65.0872 69.9874 46.6295 83.65 42.4699 93.3383C38.3103 103.026 33.6312 132.339 31.0311 142.276C28.4315 152.212 28.6912 157.429 28.1712 164.633C27.6512 171.837 31.0311 178.792 26.8714 185.996C22.7118 193.2 21.1523 195.188 21.1523 195.188C21.1523 195.188 25.312 193.698 26.6117 192.455C27.9115 191.213 29.7313 189.474 29.7313 189.474L28.1712 194.442L32.0705 192.703L33.1106 188.231L34.4103 193.448C34.4103 193.448 35.7101 194.193 36.2301 187.983C36.7502 181.773 32.5905 161.651 32.0705 157.429C31.5505 153.206 35.1901 140.288 37.2696 133.084C39.3491 125.879 44.0287 100.293 44.5488 98.8026C45.0688 97.3119 46.8886 93.089 46.8886 93.089C46.8886 93.089 47.4086 120.166 50.7879 131.841C54.1672 143.517 57.2873 154.447 63.7862 163.887C70.2856 173.326 64.5659 179.537 66.646 183.76C68.7255 187.983 74.705 201.894 77.8245 209.098C80.9441 216.302 81.4641 219.779 81.4641 223.754C81.4641 227.729 81.4641 228.971 83.0236 229.965C84.5837 230.958 91.6025 231.207 93.9424 230.462C96.2822 229.716 94.4624 224.5 93.4223 222.016C92.3823 219.532 86.4035 212.576 84.0637 203.633C81.7238 194.691 80.9441 188.977 81.2038 184.257C81.4635 179.537 80.6838 169.601 80.6838 169.601L77.0442 149.976C77.0442 149.976 89.2627 163.887 106.68 167.613C124.098 171.339 130.338 167.116 130.338 167.116C130.338 167.116 135.797 198.665 137.097 202.64C138.397 206.614 136.427 225.296 136.167 229.271C135.907 233.245 134.608 233.991 140.327 234.984C146.046 235.978 147.866 232.5 147.346 228.029C146.825 223.557 143.291 213.912 144.331 208.199C145.371 202.485 147.335 189.748 147.335 184.282C147.337 178.817 148.018 171.091 148.538 168.607Z" fill="#92E3A9" stroke="#263238" stroke-miterlimit="10"/>
<path d="M69.9684 76.8717C71.3304 75.3095 70.0693 73.6653 68.9912 72.6875C56.404 76.8765 45.5406 86.1869 42.4703 93.3384C41.4987 95.601 40.4991 98.9413 39.5039 102.848C40.1659 103.137 41.8599 102.416 44.1138 100.689C44.3262 99.6763 44.4781 99.0092 44.5498 98.8033C45.0698 97.3125 46.8896 93.0896 46.8896 93.0896C46.8896 93.0896 47.2925 114.047 49.6909 127.036C50.5317 125.262 51.5319 120.347 51.9355 115.592C52.5719 108.091 48.3289 102.617 49.8142 95.5224C51.299 88.4269 67.8472 79.3045 69.9684 76.8717Z" fill="#263238" stroke="#263238" stroke-miterlimit="10"/>
<path d="M82.0962 229.089C82.3185 229.427 82.6181 229.705 83.0254 229.965C84.5855 230.959 91.6044 231.207 93.9442 230.462C95.6513 229.918 95.1424 226.995 94.3397 224.489C89.3822 224.506 83.9247 227.862 82.0962 229.089Z" fill="#263238" stroke="#263238" stroke-miterlimit="10"/>
<path d="M147.348 228.029C147.348 228.029 138.615 229.771 137.117 231.917C135.619 234.063 136.552 233.759 140.329 234.984C144.106 236.209 147.101 235.732 148.349 234.063C149.597 232.394 148.843 229.149 147.348 228.029Z" fill="#263238" stroke="#263238" stroke-miterlimit="10"/>
<path d="M243.916 165.264C243.916 165.264 246.883 165.701 248.708 164.174C250.534 162.648 251.902 161.776 252.587 163.52C253.271 165.264 251.902 168.535 250.534 170.497C249.165 172.459 242.775 173.113 242.775 173.113C242.775 173.113 246.427 170.061 243.916 165.264Z" fill="white" stroke="#263238" stroke-miterlimit="10"/>
<path d="M250.538 196.235C251.258 192.566 247.658 183.853 247.178 182.019C246.699 180.184 245.738 172.847 245.738 172.847C245.738 172.847 248.618 170.325 246.219 167.573C243.819 164.821 242.379 164.363 239.74 164.821C237.693 165.177 232.357 165.776 228.94 165.921C229.398 165.801 229.662 165.738 229.662 165.738L232.781 165.279C230.382 165.05 228.942 166.196 228.222 163.674C227.502 161.152 226.062 160.464 223.662 154.732C221.263 148.999 208.305 115.751 206.625 112.083C204.945 108.414 203.651 100.79 203.651 100.79C203.651 100.79 200.846 93.8217 195.678 86.8565C191.541 84.4809 184.737 81.134 185.748 85.4842C187.188 91.6751 194.867 96.0319 195.107 104.287C195.346 112.541 176.63 105.204 167.751 108.414C164.009 109.766 161.421 109.533 159.387 109.718C160.121 109.118 160.867 108.699 161.619 108.496C169.893 106.267 188.775 96.9412 186.441 94.1032C184.108 91.2651 165.862 97.5495 167.984 89.8458C170.105 82.1421 174.985 75.8577 170.318 74.439C165.651 73.0197 154.83 75.6554 153.77 72.8173C153.198 71.2897 154.346 69.2931 154.273 67.6161C149.201 67.1495 144.733 67.187 141.778 67.7517C132.679 69.4907 118.381 72.2234 108.503 73.9623C100.154 75.4316 100.158 72.2889 89.6917 70.9802C89.6948 70.985 89.6961 70.9886 89.6992 70.9933C91.6087 74.0343 98.6095 75.2507 96.2759 76.0613C93.9423 76.8724 82.9101 73.4261 76.7576 81.7374C70.605 90.0493 70.3933 104.645 73.3627 110.93C76.3328 117.214 79.0912 116.403 80.5759 113.971C82.0613 111.538 88.0015 102.213 88.4256 105.862C88.8497 109.511 89.2745 111.335 92.6687 112.146C96.0629 112.957 98.1847 115.187 95.0023 116.809C91.8198 118.431 86.9402 123.904 82.6971 123.904C78.4541 123.904 75.9081 122.485 75.484 127.959C75.0599 133.432 72.0898 139.109 79.0906 148.231C86.0914 157.354 103.276 165.26 103.488 162.219C103.701 159.178 98.3965 153.299 100.518 151.881C102.64 150.461 107.307 146.001 107.519 141.339C107.731 136.676 105.398 126.945 106.246 126.54C107.095 126.135 111.126 126.54 112.61 125.121C114.096 123.702 116.429 119.039 120.884 114.377C125.34 109.714 128.097 104.646 128.734 107.687C129.37 110.728 127.885 114.985 125.339 116.81C122.793 118.634 122.157 117.621 119.187 122.891C116.216 128.162 107.094 142.758 111.337 147.826C115.58 152.894 126.612 152.083 126.824 152.894C126.914 153.239 127.657 159.97 128.547 167.919C129.781 167.492 130.338 167.118 130.338 167.118C130.338 167.118 133.6 185.968 135.682 196.362C136.577 195.804 137.489 194.813 138.281 193.438C140.614 189.384 139.341 172.76 141.675 173.166C144.009 173.571 144.433 174.585 145.706 172.152C146.979 169.72 149.525 164.043 147.615 151.475C146.625 144.955 148.204 134.234 151.108 125.114C150.617 131.205 153.111 134.064 153.111 144.874C153.111 159.09 142.312 164.822 158.63 168.721C174.948 172.619 176.387 173.078 177.347 180.874C177.859 185.029 179.255 187.548 180.486 189.209C180.56 189.182 180.632 189.156 180.707 189.128C187.426 186.606 191.026 187.064 193.185 188.211C194.672 189 198.315 190.877 199.66 193.466C199.686 193.515 199.706 193.567 199.73 193.617C199.797 193.757 199.86 193.899 199.913 194.043C199.935 194.104 199.953 194.167 199.973 194.23C200.017 194.368 200.055 194.508 200.084 194.65C200.097 194.713 200.108 194.777 200.118 194.841C200.141 194.991 200.155 195.143 200.16 195.296C200.184 195.96 200.044 196.656 199.664 197.382C197.264 201.968 195.104 209.306 203.743 215.038C212.382 220.77 215.981 220.311 216.701 221.229C217.421 222.146 220.78 227.19 219.581 230.63C218.381 234.069 222.7 240.718 227.739 241.865C232.778 243.011 236.378 240.948 239.977 240.26C243.577 239.572 247.896 237.967 247.656 233.152C247.416 228.337 243.097 225.814 243.097 224.668C243.097 223.521 241.657 212.745 242.857 209.764C244.059 206.783 249.818 199.904 250.538 196.235Z" fill="#263238" stroke="#263238" stroke-miterlimit="10"/>
<path d="M207.89 196.922C207.89 196.922 200.076 204.148 200.328 207.76C200.58 211.373 208.142 216.191 212.175 216.431C216.208 216.672 214.444 208.001 213.436 205.834C212.427 203.666 217.469 204.87 220.745 208.242C224.022 211.614 226.291 215.227 226.543 219.563C226.795 223.898 228.56 230.16 231.332 227.03C234.105 223.898 232.687 203.123 230.072 197.163C227.456 191.203 224.274 188.492 221.754 187.288C219.233 186.083 214.696 187.769 214.192 191.141C213.687 194.513 207.89 196.922 207.89 196.922Z" fill="#424242" stroke="#263238" stroke-miterlimit="10"/>
<path d="M248.223 185.124C247.731 183.697 247.32 182.559 247.178 182.019C246.143 180.817 246.052 179.272 246.421 177.709C246.059 175.289 245.739 172.847 245.739 172.847C243.455 174.543 219.274 178.564 218.589 179.436C217.905 180.308 221.035 184.19 221.035 184.19C221.035 184.19 223.329 189.45 227.457 191.203C231.585 192.956 233.879 195.147 233.879 202.16C233.879 209.173 237.089 216.623 235.254 220.568C233.42 224.512 227.457 228.019 224.247 234.155C223.37 235.83 223.352 237.832 223.858 239.848C225.034 240.813 226.358 241.551 227.742 241.866C232.781 243.012 236.38 240.949 239.979 240.261C243.332 239.62 247.305 238.181 247.641 234.096C247.278 232.589 246.886 230.95 246.488 229.272C245.134 226.891 243.099 225.456 243.099 224.669C243.099 223.536 241.695 213.002 242.819 209.878C242.617 206.843 242.524 203.049 243.509 198.654C244.567 193.938 248.146 188.95 248.223 185.124Z" fill="#92E3A9" stroke="#263238" stroke-miterlimit="10"/>
<path d="M241.445 233.549C241.445 233.549 236.86 231.775 232.301 234.069C227.742 236.362 227.502 238.655 229.662 240.031" stroke="#263238" stroke-miterlimit="10"/>
<path d="M238.06 239.343C238.06 239.343 232.06 235.904 232.541 237.738C233.021 239.573 236.14 241.407 238.06 239.343Z" fill="#263238" stroke="#263238" stroke-miterlimit="10"/>
<path d="M199.478 170.604C195.808 163.153 182.507 146.936 182.507 142.554C182.507 138.171 181.59 127.214 188.011 135.979C194.433 144.745 200.396 163.153 204.523 172.795C207.081 178.768 211.573 183.56 216.148 185.199C217.042 183.156 217.423 181.332 217.423 181.332C217.423 181.332 210.944 175.599 215.024 171.931C218.042 169.216 224.602 167.131 227.814 166.229C226.641 164.5 224.734 163.547 221.953 164.03C211.862 165.783 211.862 165.783 211.862 165.783C211.862 165.783 203.148 154.388 198.561 142.554C193.974 130.721 189.846 110.998 185.718 114.066C181.59 117.134 185.718 123.708 182.966 130.282C180.214 136.856 168.747 138.171 161.409 129.405C154.07 120.64 146.731 101.793 145.355 93.9047C143.979 86.0159 139.851 98.7257 135.265 110.997C130.678 123.269 127.926 143.43 132.054 156.141C136.182 168.851 140.31 167.536 143.979 158.332C145.178 155.326 146.278 151.105 147.328 146.875C147.352 140.53 148.814 132.326 151.11 125.114C150.897 127.755 151.246 129.789 151.709 132.126C152.332 131.045 152.962 130.627 153.611 131.159C156.822 133.788 166.913 141.239 171.041 141.677C175.169 142.115 183.883 160.085 186.636 170.604C188.75 178.686 187.502 185.041 189.871 187.321C191.265 187.42 192.339 187.761 193.187 188.21C199.936 187.696 203.147 178.054 199.478 170.604Z" fill="#424242" stroke="#263238" stroke-miterlimit="10"/>
<path d="M218.383 197.84C218.383 197.84 218.143 200.821 220.542 201.967C222.942 203.114 225.581 202.426 226.301 199.674" stroke="#92E3A9" stroke-miterlimit="10"/>
<path d="M31.7047 161.322C31.5004 163.489 29.9745 159.988 28.6605 156.455C28.4661 159.15 28.3814 161.731 28.1722 164.632C27.6522 171.836 31.032 178.792 26.8724 185.996C22.7128 193.199 21.1533 195.187 21.1533 195.187C21.1533 195.187 25.3129 193.697 26.6127 192.454C27.9125 191.212 29.7323 189.474 29.7323 189.474L28.1722 194.441L32.0715 192.703L33.1115 188.231L34.4113 193.448C34.4113 193.448 35.7111 194.193 36.2311 187.983C36.7144 182.208 33.1539 164.413 32.2334 158.549C31.9899 159.431 31.7943 160.372 31.7047 161.322Z" fill="#263238" stroke="#263238" stroke-miterlimit="10"/>
<path d="M106.247 126.539C107.095 126.134 111.126 126.539 112.611 125.12C113.635 124.142 115.062 121.622 117.309 118.624C120.403 113.682 123.185 108.854 122.42 108.367C121.044 107.49 120.585 91.7122 118.75 86.4526C116.916 81.1931 99.4861 95.218 95.3583 91.2736C91.2304 87.3292 96.2744 76.0602 96.2744 76.0602C93.9408 76.8714 82.9087 73.4251 76.7561 81.7364C70.6036 90.0483 70.3918 104.644 73.3613 110.929C76.3314 117.213 79.0897 116.402 80.5745 113.97C82.0598 111.537 88 102.212 88.4241 105.861C88.8482 109.51 89.273 111.334 92.6672 112.145C96.0614 112.956 98.1833 115.186 95.0008 116.808C91.8183 118.43 86.9388 123.903 82.6957 123.903C78.4526 123.903 75.9066 122.484 75.4825 127.958C75.1045 132.838 72.7092 137.881 77.1528 145.381C84.4526 151.787 93.4986 153.546 100.049 153.324C99.952 152.688 100.065 152.182 100.516 151.88C102.637 150.46 107.305 146 107.517 141.338C107.729 136.675 105.398 126.944 106.247 126.539Z" fill="#424242" stroke="#263238" stroke-miterlimit="10"/>
<path d="M70.2624 141.856C69.563 140.478 68.9252 138.809 68.4675 136.81C66.6477 128.861 68.4675 115.198 68.4675 115.198" stroke="#263238" stroke-miterlimit="10"/>
<path d="M74.9671 147.493C74.9671 147.493 73.7974 146.81 72.3999 145.133" stroke="#263238" stroke-miterlimit="10"/>
<path d="M210.704 177.892C210.704 177.892 192.525 184.382 189.886 186.675C187.246 188.968 184.16 201.372 184.88 203.894C185.6 206.416 198.465 200.822 204.224 196.236C209.983 191.65 211.423 185.688 212.383 184.312" fill="#263238"/>
<path d="M210.704 177.892C210.704 177.892 192.525 184.382 189.886 186.675C187.246 188.968 184.16 201.372 184.88 203.894C185.6 206.416 198.465 200.822 204.224 196.236C209.983 191.65 211.423 185.688 212.383 184.312" stroke="#92E3A9" stroke-miterlimit="10"/>
<path d="M215.746 178.668C216.652 178.163 218.088 176.358 217.71 174.337C217.413 172.747 214.641 171.874 213.473 171.574C213.348 171.543 213.222 171.512 213.091 171.481C213.008 171.462 212.952 171.45 212.952 171.45L212.953 171.448C212.757 171.401 212.557 171.354 212.348 171.306C208.009 170.312 206.644 169.506 205.584 171.15C204.524 172.794 208.247 175.694 211.442 177.657C213.051 178.645 214.505 178.922 215.64 178.844C215.624 178.782 215.649 178.722 215.746 178.668Z" fill="white" stroke="#263238" stroke-miterlimit="10"/>
<path d="M248.925 246.229L246.426 241.589L250.174 244.744V242.146L253.454 244.744L253.142 239.733L255.016 242.146L254.704 237.506L256.734 241.403L257.359 236.577L258.14 240.289L258.921 238.062L259.233 241.403L261.107 238.99L261.419 241.217L262.981 240.104L262.357 242.888L265.012 239.918C265.012 239.918 265.48 240.846 265.168 241.403C264.856 241.96 266.574 239.361 266.574 239.361L266.105 242.888L267.153 241.581L269.229 238.99L269.697 241.218V243.816L270.425 242.431L271.259 240.846V244.187L272.821 242.146L272.977 244.002L274.226 242.703L274.383 244.373L276.257 243.26L275.462 245.8L278.912 243.817L278.443 245.858L280.005 245.116L285.471 246.044L281.098 246.972L290.781 248.085L261.733 250.127L267.667 248.271L238.93 248.828L246.427 247.715H236.432L248.925 246.229Z" fill="#92E3A9"/>
<path d="M205.664 248.404L201.019 241.468L207.987 246.184V242.3L214.084 246.184L213.504 238.693L216.987 242.3L216.407 235.364L220.181 241.19L221.343 233.977L222.794 239.525L224.246 236.196L224.826 241.19L228.31 237.584L228.891 240.913L231.794 239.248L230.633 243.41L235.568 238.971C235.568 238.971 236.44 240.358 235.859 241.19C235.278 242.022 238.472 238.138 238.472 238.138L237.601 243.409L239.547 241.455L243.407 237.583L244.278 240.912V244.796L245.631 242.726L247.181 240.357V245.351L250.084 242.299L250.375 245.074L252.698 243.132L252.988 245.629L256.472 243.964L254.994 247.762L261.407 244.797L260.536 247.849L263.44 246.739L273.601 248.126L265.472 249.513L283.472 251.178L229.47 254.229L240.503 251.455L187.081 252.287L201.017 250.622H182.436L205.664 248.404Z" fill="#92E3A9"/>
<path d="M31.4429 261.76L25.1546 252.371L34.5874 258.756V253.498L42.8412 258.756L42.0553 248.616L46.7717 253.498L45.9857 244.109L51.0951 251.996L52.667 242.231L54.6319 249.743L56.5975 245.236L57.3834 251.997L62.0998 247.114L62.8858 251.621L66.8162 249.368L65.2443 255.001L71.9262 248.992C71.9262 248.992 73.1052 250.87 72.3192 251.997C71.5333 253.124 75.8567 247.866 75.8567 247.866L74.6777 255.002L77.3134 252.357L82.5386 247.115L83.7176 251.622V256.879L85.5504 254.078L87.648 250.871V257.631L91.5784 253.5L91.9714 257.256L95.1159 254.626L95.5089 258.007L100.225 255.753L98.2249 260.893L106.907 256.88L105.728 261.011L109.658 259.509L123.414 261.387L112.409 263.265L136.778 265.519L63.6724 269.65L78.6075 265.894L6.28833 267.021L25.1539 264.768H0L31.4429 261.76Z" fill="#92E3A9"/>
<path d="M136.027 248.404L131.382 241.468L138.35 246.184V242.3L144.447 246.184L143.866 238.693L147.35 242.3L146.77 235.364L150.544 241.19L151.705 233.977L153.157 239.525L154.609 236.196L155.189 241.19L158.673 237.584L159.254 240.913L162.157 239.248L160.996 243.41L165.931 238.971C165.931 238.971 166.802 240.358 166.221 241.19C165.641 242.022 168.835 238.138 168.835 238.138L167.963 243.409L169.91 241.455L173.77 237.583L174.64 240.912V244.796L175.994 242.726L177.544 240.357V245.351L180.447 242.299L180.737 245.074L183.06 243.132L183.351 245.629L186.835 243.964L185.357 247.762L191.77 244.797L190.899 247.849L193.802 246.739L203.964 248.126L195.835 249.513L213.835 251.178L159.833 254.229L170.866 251.455L117.444 252.287L131.38 250.622H112.798L136.027 248.404Z" fill="#92E3A9"/>
<path d="M83.2512 240.183L80.7526 235.543L84.5012 238.698V236.1L87.7808 238.698L87.4688 233.687L89.3428 236.1L89.0301 231.46L91.0604 235.357L91.6851 230.532L92.4661 234.244L93.247 232.017L93.5597 235.357L95.4337 232.945L95.7463 235.172L97.3083 234.059L96.6836 236.843L99.3386 233.873C99.3386 233.873 99.8069 234.801 99.4949 235.358C99.1823 235.915 100.901 233.316 100.901 233.316L100.432 236.843L101.48 235.536L103.556 232.946L104.024 235.173V237.771L104.753 236.386L105.586 234.802V238.143L107.148 236.101L107.304 237.957L108.553 236.658L108.71 238.328L110.584 237.215L109.789 239.755L113.239 237.772L112.77 239.814L114.332 239.071L119.799 239.999L115.426 240.927L125.109 242.04L96.0602 244.082L101.995 242.226L73.2579 242.783L80.7545 241.669H70.7593L83.2512 240.183Z" fill="#92E3A9"/>
</g>
<defs>
<filter id="filter0_d_359_4363" x="-4" y="-0.5" width="310" height="288.5" filterUnits="userSpaceOnUse" color-interpolation-filters="sRGB">
<feFlood flood-opacity="0" result="BackgroundImageFix"/>
<feColorMatrix in="SourceAlpha" type="matrix" values="0 0 0 0 0 0 0 0 0 0 0 0 0 0 0 0 0 0 127 0" result="hardAlpha"/>
<feOffset dy="4"/>
<feGaussianBlur stdDeviation="2"/>
<feComposite in2="hardAlpha" operator="out"/>
<feColorMatrix type="matrix" values="0 0 0 0 0 0 0 0 0 0 0 0 0 0 0 0 0 0 0.25 0"/>
<feBlend mode="normal" in2="BackgroundImageFix" result="effect1_dropShadow_359_4363"/>
<feBlend mode="normal" in="SourceGraphic" in2="effect1_dropShadow_359_4363" result="shape"/>
</filter>
</defs>
</svg>
