<svg width="157" height="158" viewBox="0 0 157 158" fill="none" xmlns="http://www.w3.org/2000/svg">
<path opacity="0.1" d="M0.915692 84.9948C0.915692 84.9948 5.87254 111.769 31.2917 127.19C56.7109 142.611 88.3634 140.435 114.099 139.337C139.835 138.24 157.221 121.85 156.884 99.9982C156.548 78.1462 136.146 73.9537 121.867 50.606C107.589 27.2583 107.307 19.0838 82.6774 6.464C58.0483 -6.15583 24.5092 6.9337 10.1108 34.7835C-4.28758 62.6332 0.915692 84.9948 0.915692 84.9948Z" fill="#519273"/>
<path opacity="0.1" d="M60.2569 1.45131C60.2569 1.45131 33.7274 7.58213 19.4401 33.6556C5.15271 59.7291 8.72098 91.2551 10.9503 116.917C13.1796 142.58 30.319 159.227 52.135 157.929C73.9509 156.631 77.2411 136.064 99.9375 120.772C122.634 105.48 130.788 104.837 142.311 79.6763C153.835 54.5154 139.281 21.5851 110.824 8.42683C82.3678 -4.73144 60.2569 1.45131 60.2569 1.45131Z" fill="#519273"/>
</svg>
